<svg xmlns="http://www.w3.org/2000/svg" xml:space="preserve" width="24" height="24" viewBox="0 0 6.349 6.349">
    <path d="M4.489 2.507a1.86 1.86 0 0 0-1.86 1.86 1.86 1.86 0 0 0 1.86 1.86 1.86 1.86 0 0 0 1.86-1.86 1.86 1.86 0 0 0-1.86-1.86zm-.87.77h1.974v1.967a.235.235 0 0 1-.47 0l.062-1.207L3.77 5.45l-.372-.373 1.393-1.392-1.172.06a.235.235 0 1 1 0-.47z" style="fill:#37aefe;fill-opacity:1;stroke:none;stroke-width:.529083;stroke-linecap:round;paint-order:stroke fill markers"/>
    <path d="M2.67.796c-.054.005-.497.061-.494.493v.506h-1.01a.498.498 0 0 0-.494.504v2.75c0 .14.05.26.147.358.09.095.216.148.347.147H3.06a1.86 1.86 0 0 1-.15-.208 1.86 1.86 0 0 1-.002-.004 1.86 1.86 0 0 1-.118-.223 1.86 1.86 0 0 1-.006-.014 1.86 1.86 0 0 1-.083-.23 1.86 1.86 0 0 1-.054-.251 1.86 1.86 0 0 1-.018-.257 1.86 1.86 0 0 1 .022-.276 1.86 1.86 0 0 1 .022-.105 1.86 1.86 0 0 1 .04-.168 1.86 1.86 0 0 1 .043-.113 1.86 1.86 0 0 1 .06-.144 1.86 1.86 0 0 1 .06-.112 1.86 1.86 0 0 1 .081-.132 1.86 1.86 0 0 1 .076-.101 1.86 1.86 0 0 1 .097-.113 1.86 1.86 0 0 1 .093-.094 1.86 1.86 0 0 1 .118-.1 1.86 1.86 0 0 1 .098-.073 1.86 1.86 0 0 1 .135-.083 1.86 1.86 0 0 1 .106-.058 1.86 1.86 0 0 1 .154-.064 1.86 1.86 0 0 1 .106-.04 1.86 1.86 0 0 1 .168-.04 1.86 1.86 0 0 1 .105-.022 1.86 1.86 0 0 1 .276-.022 1.86 1.86 0 0 1 .256.018 1.86 1.86 0 0 1 .001 0 1.86 1.86 0 0 1 .241.05 1.86 1.86 0 0 1 .02.006 1.86 1.86 0 0 1 .227.082 1.86 1.86 0 0 1 .012.006 1.86 1.86 0 0 1 .22.115 1.86 1.86 0 0 1 .002.001 1.86 1.86 0 0 1 .002.002 1.86 1.86 0 0 1 .207.149v-.661a.498.498 0 0 0-.494-.48h-1.01v-.506c0-.057-.015-.447-.493-.493h-.001zm0 .493H3.68v.506H2.67Z" style="fill:#fafafa;fill-opacity:1"/>
</svg>
