<svg xmlns="http://www.w3.org/2000/svg" xml:space="preserve" width="24" height="24" viewBox="0 0 6.349 6.349">
    <path d="M2.67.796c-.054.005-.497.061-.494.493v.506h-1.01a.498.498 0 0 0-.494.504v2.75c0 .14.05.26.147.358.09.095.216.148.347.147H3.06a1.86 1.86 0 0 1-.431-1.187 1.86 1.86 0 0 1 1.86-1.86 1.86 1.86 0 0 1 1.188.429v-.661a.498.498 0 0 0-.494-.48h-1.01v-.506c0-.057-.015-.447-.493-.493h-.001zm0 .493H3.68v.506H2.67Z" style="fill:#fafafa"/>
    <path d="M4.489 2.507a1.86 1.86 0 0 0-1.86 1.86 1.86 1.86 0 0 0 1.86 1.86 1.86 1.86 0 0 0 1.86-1.86 1.86 1.86 0 0 0-1.86-1.86zm-.568.552a.81.81 0 0 1 .115.012.749.749 0 0 1 .606.579.689.689 0 0 1-.035.41l1.035 1.035a.085.085 0 0 1 .035.077.108.108 0 0 1-.046.083l-.261.261a.098.098 0 0 1-.078.038.111.111 0 0 1-.082-.038L4.174 4.482a.733.733 0 0 1-.784-.171.737.737 0 0 1-.148-.842l.5.49.342-.342-.49-.49a.724.724 0 0 1 .327-.068z" style="fill:#37aefe;fill-opacity:1;stroke:none;stroke-width:.529083;stroke-linecap:round;paint-order:stroke fill markers"/>
</svg>
