<svg xmlns="http://www.w3.org/2000/svg" width="24" height="24" fill="none"><path fill="#FAFAFA" fill-rule="evenodd" d="M2.236 16.712 9.67 9.233c-.735-1.89-.327-4.11 1.226-5.671 1.633-1.644 4.084-1.973 6.045-1.069l-3.513 3.534 2.451 2.466 3.595-3.534c.78 1.572.68 3.457-.22 4.99-.255-1.115-1.665-1.569-2.522-.732L13.4 12.475a5.137 5.137 0 0 1-.626-.201l-7.434 7.48a.786.786 0 0 1-1.144 0l-1.879-1.891c-.408-.329-.408-.904-.081-1.15Zm12.326-2.84 3.1-2.863v2.041A4.546 4.546 0 1 1 12.926 18h1.664a2.893 2.893 0 1 0 3.07-3.294v2.029l-3.099-2.863Z" clip-rule="evenodd"/></svg>