<svg xmlns="http://www.w3.org/2000/svg" width="24" height="24" fill="none"><path fill="#44DEB0" d="M12 15v7l6-3.5-6-3.5Z"/><path fill="#FAFAFA" fill-rule="evenodd" d="m10.67 9.233-7.434 7.48c-.327.246-.327.821.081 1.15l1.88 1.89a.786.786 0 0 0 1.143 0L10 16.071V13.26a1 1 0 0 1 1.504-.864l1.36.794.91-.915c1.88.74 4.085.329 5.638-1.233 1.633-1.644 2.042-4.11 1.062-6.082l-3.595 3.534-2.45-2.466 3.512-3.534c-1.96-.904-4.412-.575-6.045 1.069-1.553 1.561-1.961 3.78-1.226 5.671Z" clip-rule="evenodd"/></svg>