<svg xmlns="http://www.w3.org/2000/svg" width="24" height="24" fill="none"><path fill="#FAFAFA" fill-rule="evenodd" d="M14.5 9c.52 0 1.023.072 1.5.207V8h-6V2H8v6H2v2h6v6h1.207A5.504 5.504 0 0 1 9 14.5c0-1.177.37-2.268 1-3.163V10h1.337c.895-.63 1.986-1 3.163-1Zm3.475 3.197a4.086 4.086 0 1 0-.23 5.994l.17.17v.496L21.056 22l.943-.943-3.143-3.143h-.496l-.17-.17a4.086 4.086 0 0 0-.216-5.548Zm-5.718 2.889a2.817 2.817 0 0 1 2.829-2.829 2.817 2.817 0 0 1 2.828 2.829 2.817 2.817 0 0 1-2.828 2.828 2.817 2.817 0 0 1-2.829-2.828Z" clip-rule="evenodd"/></svg>