<svg xmlns="http://www.w3.org/2000/svg" width="181.598" height="36.954">
    <defs>
        <filter id="a" width="1.552" height="1.201" x="-.338" y="-.122" style="color-interpolation-filters:sRGB">
            <feFlood flood-color="#000" flood-opacity=".22" result="flood"/>
            <feGaussianBlur in="SourceGraphic" result="blur" stdDeviation="2.6"/>
            <feOffset dx="-3.611" dy="-3.444" in="blur" result="offset"/>
            <feComposite in="flood" in2="offset" operator="out" result="comp1"/>
            <feComposite in="comp1" in2="SourceGraphic" operator="atop" result="comp2"/>
        </filter>
    </defs>
    <path d="M947.67 991.135h29.133v79.27H947.67Z" style="opacity:.634913;fill:#fea;fill-opacity:1;stroke-width:.515094;filter:url(#a)" transform="matrix(.24746 0 0 .23062 -96.319 -211.341)"/>
    <path d="M1056.074 934.9q7.792-8.808 19.648-8.808 9.824 0 16.6 7.114 6.775 7.114 7.114 16.6 0 7.453-7.114 17.785t-14.228 17.277-22.02 20.495q-14.906-13.55-22.02-20.495t-14.228-17.277-7.114-17.785q0-9.824 7.114-16.6 7.114-6.775 16.938-7.114 11.518 0 19.31 8.808" style="opacity:.834711;fill:#fff;fill-opacity:1;stroke-width:.515094;filter:url(#a)" transform="matrix(.24746 0 0 .23062 -96.319 -211.341)"/>
    <path d="M1085.208 1034.497q6.097 0 10.332 4.234 4.234 4.235 4.234 9.994l-57.928 21.68-50.815-14.227v-65.043h14.228l52.509 19.31q5.759 2.37 5.759 8.13 0 3.387-2.541 5.928t-6.267 2.54h-20.326l-12.534-4.742-2.372 6.776 14.906 5.42z" style="opacity:.634913;fill:#fea;fill-opacity:1;stroke-width:.515094;filter:url(#a)" transform="matrix(.24746 0 0 .23062 -96.319 -211.341)"/>
    <path d="M0 30.892h8.659c7.297 0 11.805-4.443 11.805-11.48 0-6.617-4.508-11.222-11.805-11.222H0Zm6.227-5.352V13.541h2.108c2.432 0 5.643 1.232 5.643 5.87 0 4.897-3.243 6.13-5.643 6.13zm25.75 5.773c5.675 0 9.405-3.989 9.405-9.048s-3.73-9.048-9.405-9.048c-5.773 0-9.405 3.989-9.405 9.048s3.73 9.048 9.405 9.048m0-5.513c-1.849 0-3.243-1.427-3.243-3.535s1.394-3.535 3.243-3.535 3.243 1.427 3.243 3.535-1.395 3.535-3.243 3.535m12.161 5.092h6.097v-9.405c0-1.395.779-2.595 2.14-2.595 1.428 0 2.076 1.038 2.076 2.4v9.6h6.097V19.119c0-3.502-2.335-5.902-6.064-5.902-2.173 0-3.697 1.07-4.346 2.043h-.292v-1.622h-5.708zm26.204.421c2.465 0 3.762-1.2 4.281-2.043h.292v1.622h6.065V13.638h-6.097v1.622h-.292c-.616-.908-2.01-2.043-4.346-2.043-4.54 0-7.589 3.697-7.589 9.178 0 5.48 3.114 8.918 7.686 8.918M71.9 25.8c-1.848 0-3.08-1.427-3.08-3.535s1.232-3.535 3.08-3.535 3.081 1.427 3.081 3.535S73.748 25.8 71.9 25.8m20.334 5.092h3.86V25.93h-2.141c-1.265 0-2.01-.681-2.01-1.72v-5.87h4.15v-4.702h-4.15V9.131h-5.773v2.756c0 1.07-.584 1.816-1.654 1.816H83.25v4.638h2.594v6.227c0 3.924 2.4 6.324 6.39 6.324m14.302.421c4.897 0 8.075-2.335 8.789-6.13h-5.351c-.357.682-1.33 1.59-3.21 1.59-1.85 0-3.211-1.233-3.374-2.886h12.13v-1.59c0-4.734-2.92-9.08-8.79-9.08-5.48 0-9.015 3.86-9.015 9.21 0 5.19 3.924 8.886 8.821 8.886m-3.048-11.22c.227-1.104 1.394-2.368 3.243-2.368 1.978 0 3.08 1.232 3.275 2.367zm16.053 3.534h3.535l1.33-7.135V8.19h-6.195v8.302zm1.719 7.686c1.913 0 3.178-1.232 3.178-3.08 0-1.752-1.265-3.082-3.178-3.082-1.752 0-3.146 1.33-3.146 3.081 0 1.849 1.394 3.081 3.146 3.081" aria-label="Donate!" style="font-weight:900;font-size:32.4308px;line-height:.9;font-family:Silka;-inkscape-font-specification:&quot;Silka Heavy&quot;;letter-spacing:0;fill:#fff;stroke-width:7.66175;stroke-linecap:round;stroke-linejoin:round;paint-order:stroke fill markers"/>
</svg>
