<?xml version="1.0" encoding="UTF-8" standalone="no"?>
<svg
   width="149"
   height="30"
   version="1.1"
   id="svg267"
   sodipodi:docname="icon_donations_sm_c.svg"
   inkscape:version="1.2.2 (b0a8486541, 2022-12-01)"
   xmlns:inkscape="http://www.inkscape.org/namespaces/inkscape"
   xmlns:sodipodi="http://sodipodi.sourceforge.net/DTD/sodipodi-0.dtd"
   xmlns="http://www.w3.org/2000/svg"
   xmlns:svg="http://www.w3.org/2000/svg">
  <sodipodi:namedview
     id="namedview269"
     pagecolor="#ffffff"
     bordercolor="#666666"
     borderopacity="1.0"
     inkscape:showpageshadow="2"
     inkscape:pageopacity="0.0"
     inkscape:pagecheckerboard="0"
     inkscape:deskcolor="#d1d1d1"
     showgrid="false"
     showguides="false"
     inkscape:zoom="6.3863184"
     inkscape:cx="90.819149"
     inkscape:cy="18.476999"
     inkscape:window-width="1680"
     inkscape:window-height="990"
     inkscape:window-x="0"
     inkscape:window-y="32"
     inkscape:window-maximized="1"
     inkscape:current-layer="svg267" />
  <defs
     id="defs257">
    <filter
       id="a"
       width="1.552329"
       height="1.2008831"
       x="-0.33813887"
       y="-0.12216475"
       style="color-interpolation-filters:sRGB">
      <feFlood
         flood-color="#000"
         flood-opacity=".22"
         result="flood"
         id="feFlood246" />
      <feGaussianBlur
         in="SourceGraphic"
         result="blur"
         stdDeviation="2.6"
         id="feGaussianBlur248" />
      <feOffset
         dx="-3.611"
         dy="-3.444"
         in="blur"
         result="offset"
         id="feOffset250" />
      <feComposite
         in="flood"
         in2="offset"
         operator="out"
         result="comp1"
         id="feComposite252" />
      <feComposite
         in="comp1"
         in2="SourceGraphic"
         operator="atop"
         result="comp2"
         id="feComposite254" />
    </filter>
  </defs>
  <path
     d="m 947.67,991.135 h 29.133 v 79.27 H 947.67 Z"
     style="opacity:0.634913;fill:#ffeeaa;fill-opacity:1;stroke-width:0.515094;filter:url(#a)"
     transform="matrix(0.20237181,0,0,0.18860013,-78.769299,-172.83366)"
     id="path259" />
  <path
     d="m 1056.074,934.9 q 7.792,-8.808 19.648,-8.808 9.824,0 16.6,7.114 6.775,7.114 7.114,16.6 0,7.453 -7.114,17.785 -7.114,10.332 -14.228,17.277 -7.114,6.945 -22.02,20.495 -14.906,-13.55 -22.02,-20.495 -7.114,-6.945 -14.228,-17.277 -7.114,-10.332 -7.114,-17.785 0,-9.824 7.114,-16.6 7.114,-6.775 16.938,-7.114 11.518,0 19.31,8.808"
     style="opacity:0.834711;fill:#ffffff;fill-opacity:1;stroke-width:0.515094;filter:url(#a)"
     transform="matrix(0.20237181,0,0,0.18860013,-78.769299,-172.83366)"
     id="path261" />
  <path
     d="m 1085.208,1034.497 q 6.097,0 10.332,4.234 4.234,4.235 4.234,9.994 l -57.928,21.68 -50.815,-14.227 v -65.043 h 14.228 l 52.509,19.31 q 5.759,2.37 5.759,8.13 0,3.387 -2.541,5.928 -2.541,2.541 -6.267,2.54 h -20.326 l -12.534,-4.742 -2.372,6.776 14.906,5.42 z"
     style="opacity:0.634913;fill:#ffeeaa;fill-opacity:1;stroke-width:0.515094;filter:url(#a)"
     transform="matrix(0.20237181,0,0,0.18860013,-78.769299,-172.83366)"
     id="path263" />
  <path
     d="m 0,25.263535 h 7.0812961 c 5.9674579,0 9.6540829,-3.633468 9.6540829,-9.388298 0,-5.411357 -3.686625,-9.1773078 -9.6540829,-9.1773078 H 0 Z m 5.0924161,-4.376844 v -9.812735 h 1.7239141 c 1.98888,0 4.6148228,1.007525 4.6148228,4.800463 0,4.004747 -2.6521123,5.01309 -4.6148228,5.01309 z m 21.0582489,4.721136 c 4.640992,0 7.691372,-3.262188 7.691372,-7.399418 0,-4.137231 -3.05038,-7.399419 -7.691372,-7.399419 -4.721137,0 -7.691372,3.262188 -7.691372,7.399419 0,4.13723 3.050379,7.399418 7.691372,7.399418 m 0,-4.508509 c -1.512105,0 -2.652113,-1.166995 -2.652113,-2.890909 0,-1.723914 1.140008,-2.890909 2.652113,-2.890909 1.512104,0 2.652112,1.166995 2.652112,2.890909 0,1.723914 -1.140825,2.890909 -2.652112,2.890909 m 9.945217,4.164217 h 4.986103 v -7.691372 c 0,-1.140825 0.637063,-2.12218 1.750084,-2.12218 1.167812,0 1.697744,0.848872 1.697744,1.96271 v 7.850842 h 4.986103 v -9.627913 c 0,-2.863921 -1.909554,-4.826632 -4.959116,-4.826632 -1.77707,0 -3.023392,0.875042 -3.554141,1.670757 h -0.238797 v -1.326465 h -4.66798 z m 21.429528,0.344292 c 2.015868,0 3.076549,-0.981355 3.500985,-1.670757 h 0.238797 v 1.326465 h 4.959933 V 11.153282 h -4.986103 v 1.326465 h -0.238796 c -0.503763,-0.742559 -1.64377,-1.670757 -3.554142,-1.670757 -3.712794,0 -6.206254,3.023392 -6.206254,7.505732 0,4.481523 2.546617,7.293105 6.28558,7.293105 m 1.274127,-4.508509 c -1.511287,0 -2.518812,-1.166995 -2.518812,-2.890909 0,-1.723914 1.007525,-2.890909 2.518812,-2.890909 1.511287,0 2.519629,1.166995 2.519629,2.890909 0,1.723914 -1.008342,2.890909 -2.519629,2.890909 m 16.629065,4.164217 h 3.156693 v -4.057904 h -1.750902 c -1.034512,0 -1.64377,-0.556919 -1.64377,-1.406609 v -4.800463 h 3.393854 V 11.153282 H 75.190623 V 7.4674753 h -4.721137 v 2.2538459 c 0,0.8750418 -0.477592,1.4851178 -1.352634,1.4851178 h -1.03533 v 3.792938 h 2.121363 v 5.092416 c 0,3.209032 1.96271,5.171742 5.225717,5.171742 m 11.696119,0.344292 c 4.004747,0 6.603703,-1.909553 7.18761,-5.013089 h -4.376027 c -0.291953,0.557737 -1.087669,1.300295 -2.625126,1.300295 -1.512922,0 -2.625943,-1.008342 -2.759243,-2.360159 h 9.919866 v -1.300296 c 0,-3.871446 -2.387965,-7.425588 -7.188428,-7.425588 -4.481522,0 -7.372431,3.156693 -7.372431,7.531902 0,4.244361 3.209032,7.266935 7.213779,7.266935 m -2.492642,-9.175671 c 0.185639,-0.902847 1.140007,-1.936541 2.652112,-1.936541 1.617601,0 2.518812,1.007524 2.678282,1.935723 z m 13.12808,2.890091 h 2.890911 l 1.08767,-5.834975 V 6.6979292 h -5.06625 v 6.7893428 z m 1.405791,6.28558 c 1.56444,0 2.59896,-1.007524 2.59896,-2.518811 0,-1.432779 -1.03452,-2.520448 -2.59896,-2.520448 -1.432779,0 -2.572786,1.087669 -2.572786,2.51963 0,1.512105 1.140007,2.519629 2.572786,2.519629"
     aria-label="Donate!"
     style="font-weight:900;font-size:32.4308px;line-height:0.9;font-family:Silka;-inkscape-font-specification:'Silka Heavy';letter-spacing:0;fill:#ffffff;stroke-width:6.26575;stroke-linecap:round;stroke-linejoin:round;paint-order:stroke fill markers"
     id="path265" />
</svg>
