<?xml version="1.0" encoding="UTF-8" standalone="no"?>
<svg
   width="207.51823"
   height="64"
   version="1.1"
   id="svg4"
   sodipodi:docname="icon_donations.svg"
   inkscape:version="1.3.2 (091e20ef0f, 2023-11-25, custom)"
   xmlns:inkscape="http://www.inkscape.org/namespaces/inkscape"
   xmlns:sodipodi="http://sodipodi.sourceforge.net/DTD/sodipodi-0.dtd"
   xmlns="http://www.w3.org/2000/svg"
   xmlns:svg="http://www.w3.org/2000/svg">
  <sodipodi:namedview
     id="namedview4"
     pagecolor="#ffffff"
     bordercolor="#000000"
     borderopacity="0.25"
     inkscape:showpageshadow="2"
     inkscape:pageopacity="0.0"
     inkscape:pagecheckerboard="0"
     inkscape:deskcolor="#d1d1d1"
     inkscape:zoom="3.7951747"
     inkscape:cx="184.70823"
     inkscape:cy="31.750844"
     inkscape:window-width="1920"
     inkscape:window-height="1151"
     inkscape:window-x="1920"
     inkscape:window-y="182"
     inkscape:window-maximized="1"
     inkscape:current-layer="svg4" />
  <defs
     id="defs2">
    <filter
       id="a"
       width="1.552329"
       height="1.2008831"
       x="-0.33813887"
       y="-0.12216475"
       style="color-interpolation-filters:sRGB">
      <feFlood
         flood-color="#000"
         flood-opacity=".22"
         result="flood"
         id="feFlood1" />
      <feGaussianBlur
         in="SourceGraphic"
         result="blur"
         stdDeviation="2.6"
         id="feGaussianBlur1" />
      <feOffset
         dx="-3.611"
         dy="-3.444"
         in="blur"
         result="offset"
         id="feOffset1" />
      <feComposite
         in="flood"
         in2="offset"
         operator="out"
         result="comp1"
         id="feComposite1" />
      <feComposite
         in="comp1"
         in2="SourceGraphic"
         operator="atop"
         result="comp2"
         id="feComposite2" />
    </filter>
  </defs>
  <path
     d="m 947.67,991.135 h 29.133 v 79.27 H 947.67 Z"
     style="opacity:0.634913;fill:#ffeeaa;fill-opacity:1;stroke-width:0.338763;filter:url(#a)"
     transform="matrix(0.37627,0,0,0.35066,-209.35677,-317.438)"
     id="path2" />
  <path
     d="m 1056.074,934.9 q 7.792,-8.808 19.648,-8.808 9.824,0 16.6,7.114 6.775,7.114 7.114,16.6 0,7.453 -7.114,17.785 -7.114,10.332 -14.228,17.277 -7.114,6.945 -22.02,20.495 -14.906,-13.55 -22.02,-20.495 -7.114,-6.945 -14.228,-17.277 -7.114,-10.332 -7.114,-17.785 0,-9.824 7.114,-16.6 7.114,-6.775 16.938,-7.114 11.518,0 19.31,8.808"
     style="opacity:0.834711;fill:#ffffff;fill-opacity:1;stroke-width:0.338763;filter:url(#a)"
     transform="matrix(0.37627,0,0,0.35066,-209.35677,-317.438)"
     id="path3" />
  <path
     d="m 1085.208,1034.497 q 6.097,0 10.332,4.234 4.234,4.235 4.234,9.994 l -57.928,21.68 -50.815,-14.227 v -65.043 h 14.228 l 52.509,19.31 q 5.759,2.37 5.759,8.13 0,3.387 -2.541,5.928 -2.541,2.541 -6.267,2.54 h -20.326 l -12.534,-4.742 -2.372,6.776 14.906,5.42 z"
     style="opacity:0.634913;fill:#ffeeaa;fill-opacity:1;stroke-width:0.338763;filter:url(#a)"
     transform="matrix(0.37627,0,0,0.35066,-209.35677,-317.438)"
     id="path4" />
  <path
     style="font-weight:500;font-size:16.3002px;line-height:0.9;font-family:Silka;-inkscape-font-specification:'Silka Medium';letter-spacing:0px;fill:#ffeeaa;fill-opacity:0.635294;stroke-width:3.85091;stroke-linecap:round;stroke-linejoin:round;paint-order:stroke fill markers"
     d="m 13.611979,23.564138 c 2.771034,0 4.873759,-1.63002 5.509467,-4.042449 h -1.923423 c -0.521607,1.515918 -1.923424,2.379829 -3.586044,2.379829 -2.330929,0 -4.0913504,-1.793022 -4.0913504,-4.254352 0,-2.42873 1.7604214,-4.254352 4.0913504,-4.254352 1.66262,0 3.080737,0.880211 3.586044,2.396129 h 1.890823 c -0.668308,-2.379829 -2.689533,-4.058749 -5.476867,-4.058749 -3.423042,0 -5.9169727,2.559131 -5.9169727,5.916972 0,3.390441 2.4776307,5.916972 5.9169727,5.916972 z m 9.633428,-0.211902 h 0.700908 v -1.515919 h -0.358604 c -0.423805,0 -0.652008,-0.244503 -0.652008,-0.700908 V 11.127086 H 21.224182 V 21.23321 c 0,1.336616 0.733509,2.119026 2.021225,2.119026 z m 3.439336,-9.861621 c 0.668308,0 1.141014,-0.440105 1.141014,-1.092113 0,-0.619408 -0.472706,-1.075813 -1.141014,-1.075813 -0.652008,0 -1.124714,0.456405 -1.124714,1.075813 0,0.652008 0.472706,1.092113 1.124714,1.092113 z m -0.863911,9.861621 h 1.711521 v -8.525005 h -1.711521 z m 8.003406,0.211902 c 2.004925,0 3.732746,-1.206214 4.10765,-3.162238 h -1.744121 c -0.293403,0.961711 -1.238815,1.613719 -2.330928,1.613719 -1.59742,0 -2.705834,-1.238815 -2.705834,-2.917735 0,-1.64632 1.059513,-2.917736 2.673233,-2.917736 1.124714,0 2.053825,0.652008 2.347229,1.63002 h 1.760421 c -0.391204,-1.956024 -2.102725,-3.194839 -4.12395,-3.194839 -2.591732,0 -4.417354,1.956024 -4.417354,4.482555 0,2.51023 1.793022,4.466254 4.433654,4.466254 z m 13.578062,-0.211902 -3.178539,-5.297565 2.966636,-3.22744 h -2.135326 l -3.227439,3.634945 h -0.0978 v -7.33509 h -1.711521 v 12.22515 h 1.711521 v -2.575432 l 1.320317,-1.450717 2.412429,4.026149 z m 6.047364,0 h 1.711521 v -5.053062 c 0,-1.206215 0.945411,-2.086426 2.102726,-2.086426 1.075813,0 1.939723,0.79871 1.939723,1.988625 v 5.150863 h 1.711521 v -5.476867 c 0,-1.841923 -1.206214,-3.26004 -3.145938,-3.26004 -1.271416,0 -2.151627,0.652008 -2.510231,1.352916 h -0.114101 v -4.841159 h -1.695221 z m 13.610656,0.211902 c 2.102726,0 3.618645,-1.141014 4.05875,-2.787334 h -1.66262 c -0.342305,0.83131 -1.271416,1.352917 -2.347229,1.352917 -1.564819,0 -2.559131,-1.010613 -2.624332,-2.493931 h 6.715682 v -0.635707 c 0,-2.42873 -1.515919,-4.384754 -4.172851,-4.384754 -2.42873,0 -4.254352,1.793022 -4.254352,4.498855 0,2.559131 1.727821,4.449954 4.286952,4.449954 z m -2.542831,-5.248664 c 0.130402,-1.336616 1.206215,-2.265728 2.510231,-2.265728 1.320316,0 2.363529,0.831311 2.47763,2.265728 z m 8.753216,5.036762 h 1.711521 v -4.205452 c 0,-1.581119 0.83131,-2.673232 2.282028,-2.673232 h 0.79871 v -1.662621 h -0.749809 c -1.206215,0 -2.021225,0.81501 -2.282028,1.499619 h -0.114102 v -1.483319 h -1.64632 z m 10.138748,0.211902 c 2.102726,0 3.618644,-1.141014 4.058749,-2.787334 h -1.66262 c -0.342304,0.83131 -1.271415,1.352917 -2.347229,1.352917 -1.564819,0 -2.559131,-1.010613 -2.624332,-2.493931 h 6.715682 v -0.635707 c 0,-2.42873 -1.515918,-4.384754 -4.172851,-4.384754 -2.428729,0 -4.254352,1.793022 -4.254352,4.498855 0,2.559131 1.727821,4.449954 4.286953,4.449954 z m -2.542831,-5.248664 c 0.130401,-1.336616 1.206214,-2.265728 2.51023,-2.265728 1.320317,0 2.363529,0.831311 2.477631,2.265728 z m 16.707702,5.036762 h 1.418117 v -1.450718 h -1.157314 c -0.896511,0 -1.238815,-0.489006 -1.238815,-1.304016 v -4.368453 h 2.47763 v -1.401818 h -2.47763 v -2.412429 h -1.61372 v 1.874523 c 0,0.342304 -0.211902,0.554207 -0.505306,0.554207 h -1.124714 v 1.385517 h 1.532219 v 4.417354 c 0,1.776721 1.010612,2.705833 2.689533,2.705833 z m 7.432906,0.211902 c 2.60803,0 4.49885,-1.923423 4.49885,-4.466254 0,-2.542831 -1.85822,-4.482555 -4.48255,-4.482555 -2.62433,0 -4.51516,1.923423 -4.51516,4.482555 0,2.559131 1.87453,4.466254 4.49886,4.466254 z m 0,-1.548519 c -1.59742,0 -2.75474,-1.222515 -2.75474,-2.917735 0,-1.678921 1.14102,-2.917736 2.75474,-2.917736 1.61372,0 2.75473,1.222515 2.75473,2.917736 0,1.67892 -1.14101,2.917735 -2.75473,2.917735 z"
     id="text4"
     aria-label="Click here to" />
  <path
     style="font-weight:900;font-size:32.4308px;line-height:0.9;font-family:Silka;-inkscape-font-specification:'Silka Heavy';letter-spacing:0px;fill:#ffffff;stroke-width:7.66175;stroke-linecap:round;stroke-linejoin:round;paint-order:stroke fill markers"
     d="m 7.760207,54.03611 h 8.659024 c 7.29693,0 11.804812,-4.44302 11.804812,-11.480504 0,-6.615883 -4.507882,-11.221057 -11.804812,-11.221057 H 7.760207 Z m 6.226714,-5.351082 V 36.685631 h 2.108002 c 2.43231,0 5.642959,1.232371 5.642959,5.869975 0,4.897051 -3.24308,6.129422 -5.642959,6.129422 z m 25.750078,5.772682 c 5.67539,0 9.404932,-3.988988 9.404932,-9.048193 0,-5.059205 -3.729542,-9.048194 -9.404932,-9.048194 -5.772683,0 -9.404933,3.988989 -9.404933,9.048194 0,5.059205 3.729543,9.048193 9.404933,9.048193 z m 0,-5.513236 c -1.848556,0 -3.24308,-1.426955 -3.24308,-3.534957 0,-2.108002 1.394524,-3.534958 3.24308,-3.534958 1.848555,0 3.24308,1.426956 3.24308,3.534958 0,2.108002 -1.394525,3.534957 -3.24308,3.534957 z m 12.161529,5.091636 h 6.096991 v -9.404932 c 0,-1.394525 0.778339,-2.594465 2.140432,-2.594465 1.426956,0 2.075572,1.037786 2.075572,2.39988 v 9.599517 h 6.09699 V 42.263729 c 0,-3.502527 -2.335017,-5.902406 -6.064559,-5.902406 -2.172864,0 -3.697112,1.070217 -4.345728,2.043141 h -0.291877 v -1.62154 h -5.707821 z m 26.204111,0.4216 c 2.464741,0 3.761973,-1.199939 4.280866,-2.04314 h 0.291877 v 1.62154 h 6.06456 V 36.782924 h -6.096991 v 1.62154 h -0.291877 c -0.616185,-0.908063 -2.01071,-2.043141 -4.345727,-2.043141 -4.540313,0 -7.588808,3.697112 -7.588808,9.177917 0,5.480805 3.113357,8.91847 7.6861,8.91847 z m 1.556678,-5.513236 c -1.848555,0 -3.080926,-1.426955 -3.080926,-3.534957 0,-2.108002 1.232371,-3.534958 3.080926,-3.534958 1.848556,0 3.080927,1.426956 3.080927,3.534958 0,2.108002 -1.232371,3.534957 -3.080927,3.534957 z m 20.334089,5.091636 h 3.859264 v -4.961913 h -2.14043 c -1.2648,0 -2.010711,-0.681047 -2.010711,-1.718832 V 41.48539 h 4.151141 v -4.702466 h -4.151141 v -4.507882 h -5.772683 v 2.756618 c 0,1.070217 -0.583754,1.816125 -1.653971,1.816125 h -1.264801 v 4.637605 h 2.594464 v 6.226714 c 0,3.924127 2.39988,6.324006 6.388868,6.324006 z m 14.301994,0.4216 c 4.89705,0 8.07526,-2.335017 8.78874,-6.129421 h -5.35108 c -0.35674,0.681047 -1.32966,1.589109 -3.21065,1.589109 -1.84855,0 -3.21065,-1.23237 -3.3728,-2.886341 h 12.12912 v -1.589109 c 0,-4.734897 -2.91877,-9.080625 -8.78875,-9.080625 -5.48081,0 -9.01576,3.859266 -9.01576,9.210348 0,5.188928 3.92412,8.886039 8.82118,8.886039 z m -3.0485,-11.221057 c 0.22702,-1.102647 1.39452,-2.367448 3.24308,-2.367448 1.97828,0 3.08093,1.23237 3.27551,2.367448 z m 16.05322,3.534957 h 3.53495 l 1.32967,-7.134776 v -8.302285 h -6.19429 v 8.302285 z m 1.71883,7.6861 c 1.91342,0 3.17822,-1.23237 3.17822,-3.080926 0,-1.751263 -1.2648,-3.080926 -3.17822,-3.080926 -1.75126,0 -3.14579,1.329663 -3.14579,3.080926 0,1.848556 1.39453,3.080926 3.14579,3.080926 z"
     id="text6"
     aria-label="Donate!" />
</svg>
