<svg xmlns="http://www.w3.org/2000/svg" xml:space="preserve" width="350" height="112">
    <path d="M86.113 3.547A15.77 15.77 0 0 0 76.14 0H15.846a15.7 15.7 0 0 0-7.38 1.83A16 16 0 0 0 2.06 8.038a14 14 0 0 0-.781 1.564c-.134.362-.296.715-.42 1.068a14.6 14.6 0 0 0-.572 2.221A15.3 15.3 0 0 0 0 15.855V76.15a15.6 15.6 0 0 0 1.564 6.864 15.85 15.85 0 0 0 14.301 8.963h32.159a.85.85 0 0 0 .858-.849v-3.814a.86.86 0 0 0-.858-.858h-4.176L31.387 61.172l28.46-37.69a3.2 3.2 0 0 0 .524-1.105l26.057 3.985v5.864a.87.87 0 0 0 .858.858h3.87a.86.86 0 0 0 .85-.858v-16.38a15.76 15.76 0 0 0-5.893-12.3ZM53.296 5.568l1.345 10.736L33.58 13.08l-.954-7.513Zm-37.45 0H27.43l.83 6.674L12.9 9.935 8.037 9.18a10.22 10.22 0 0 1 7.809-3.613Zm11.727 11.803L16.828 31.673 8.362 14.416ZM5.568 20.413l6.884 13.948-6.884.849zm0 20.022 9.277-1.173 9.61 19.46-18.887 2.373zm32.56 46.021H16.703A11.165 11.165 0 0 1 5.568 75.244v-9.048l21.27-2.67ZM28.85 56.061l-9.535-19.24 13.968-18.496 21.528 3.299Zm57.558-34.857-26.505-4.119-1.44-11.546h16.818A11.165 11.165 0 0 1 86.41 16.704Z" style="fill:#8c0000"/>
    <path d="M90.737 40.454a1.41 1.41 0 0 1 1.335 1.525v4.1a1.268 1.268 0 0 1-1.43 1.43H72.899c-4.396 0-6.97 1.525-6.97 4.958v1.249c0 2.67 1.24 4.958 5.921 6.674l12.68 5.053c8.781 3.337 9.535 8.209 9.535 13.453v1.048c0 10.688-6.398 12.786-19.269 12.786-8.304 0-15.836-.668-17.457-.858-1.144-.096-1.43-.668-1.43-1.43v-4.205a1.268 1.268 0 0 1 1.43-1.43h17.648c7.627 0 10.01-.858 10.01-4.958v-1.144c0-2.765-1.143-4.576-5.53-6.388L65.92 67.159c-7.342-2.86-9.153-8.39-9.153-13.634v-2.012c0-10.487 9.153-11.917 19.364-11.917a121 121 0 0 1 14.606.858m57.32 25.656c0 21.271-3.814 26.62-21.843 26.62a105 105 0 0 1-12.595-.572v17.552a1.268 1.268 0 0 1-1.43 1.43h-6.292a1.268 1.268 0 0 1-1.43-1.43V42.828c0-1.049.572-1.43 1.525-1.621a106.4 106.4 0 0 1 19.745-1.62c18.506.009 22.32 5.443 22.32 26.523m-34.438-18.515v36.344a103 103 0 0 0 12.023.763c11.832 0 13.262-3.623 13.262-18.506s-1.335-18.601-13.071-18.601zm87.667-7.523a1.268 1.268 0 0 1 1.43 1.43v45.974c-.095 18.707-3.718 24.141-22.033 24.141a96 96 0 0 1-14.406-.858 1.41 1.41 0 0 1-1.335-1.525v-4.11a1.268 1.268 0 0 1 1.43-1.43h14.12c10.679 0 13.072-2.574 13.072-11.155v-.572a75 75 0 0 1-12.595.763c-18.03 0-21.843-5.444-21.843-26.048v-25.18a1.268 1.268 0 0 1 1.43-1.43h6.198a1.268 1.268 0 0 1 1.43 1.43V66.11c0 14.883 1.525 18.602 13.348 18.602a103 103 0 0 0 12.022-.668V41.502a1.268 1.268 0 0 1 1.43-1.43zm55.232-19.936a1.268 1.268 0 0 1 1.43 1.43v67.98c0 1.048-.572 1.43-1.525 1.525a107.5 107.5 0 0 1-19.84 1.62c-18.516 0-22.235-5.253-22.235-26.428s3.719-26.696 21.748-26.696a102 102 0 0 1 12.69.667V21.566a1.268 1.268 0 0 1 1.43-1.43zm-19.85 27.459c-11.822 0-13.157 3.623-13.157 18.601 0 14.692 1.24 18.506 13.071 18.506a106 106 0 0 0 12.204-.763V47.595Zm75.835 17.161v2.765c0 1.907-.477 2.68-3.432 2.68h-30.338c.286 11.631 2.488 14.491 12.69 14.491h15.646a1.268 1.268 0 0 1 1.43 1.43v4.205a1.41 1.41 0 0 1-1.335 1.526 118 118 0 0 1-15.932.858c-17.934 0-21.747-5.254-21.747-26.524s3.813-26.61 21.747-26.61c17.076.019 21.08 5.072 21.271 25.18zm-33.865-2.002h24.712c-.19-12.118-2.193-15.169-12.118-15.169-10.297.01-12.404 3.07-12.594 15.188zm69.924-22.11c.953.286 1.43.668 1.43 1.621v4.005a1.23 1.23 0 0 1-1.526 1.334h-8.314c-6.578 0-8.294 1.05-8.294 5.35v37.869a1.268 1.268 0 0 1-1.43 1.43h-6.198a1.268 1.268 0 0 1-1.44-1.43V50.779c0-10.773 9.535-11.155 15.074-11.155 2.288-.028 8.79.343 10.698 1.02" style="fill:#414141"/>
</svg>
