<svg xmlns="http://www.w3.org/2000/svg" width="300" height="200" fill="none"><path fill="#336E9E" d="M132 39.5a2.5 2.5 0 1 0 5 0 2.5 2.5 0 0 0-5 0ZM95 39h21v7.91a24.422 24.422 0 0 0-9.5-1.91c-4.156 0-8.07 1.035-11.5 2.861V39Zm87 19h-50.513a27.432 27.432 0 0 0-2.268-4H182c5.523 0 10 4.477 10 10v80c0 5.523-4.477 10-10 10h-69c-5.523 0-10-4.477-10-10V96.78a27.758 27.758 0 0 0 4 .216V144a6 6 0 0 0 6 6h69a6 6 0 0 0 6-6V64a6 6 0 0 0-6-6Z"/><path fill="#336E9E" d="M160 74h-26.366c.214-1.305.337-2.64.362-4H160a2 2 0 1 1 0 4Zm-6 40a2 2 0 0 0-2-2h-31a2 2 0 1 0 0 4h31a2 2 0 0 0 2-2Zm15 19a2 2 0 1 1 0 4h-48a2 2 0 1 1 0-4h48Zm-48.582-39.777c.365.473.938.777 1.582.777h58a2 2 0 1 0 0-4h-55.169a27.638 27.638 0 0 1-4.413 3.223Z"/><path fill="#336E9E" fill-rule="evenodd" d="M106.5 83c7.456 0 13.5-6.044 13.5-13.5S113.956 56 106.5 56 93 62.044 93 69.5 99.044 83 106.5 83Zm1-19h-3v9.5h9.5v-3h-6.5V64Z" clip-rule="evenodd"/><path fill="#336E9E" fill-rule="evenodd" d="M106.5 91c11.874 0 21.5-9.626 21.5-21.5S118.374 48 106.5 48 85 57.626 85 69.5 94.626 91 106.5 91Zm0-5c9.113 0 16.5-7.387 16.5-16.5S115.613 53 106.5 53 90 60.387 90 69.5 97.387 86 106.5 86Z" clip-rule="evenodd"/><path fill="#336E9E" d="M225.5 109.5a2 2 0 0 1-2 2h-7v7a2 2 0 1 1-4 0v-7h-7a2 2 0 1 1 0-4h7v-7a2 2 0 1 1 4 0v7h7a2 2 0 0 1 2 2ZM90 151a2 2 0 1 0 0-4h-7v-7a2 2 0 1 0-4 0v7h-7a2 2 0 1 0 0 4h7v7a2 2 0 1 0 4 0v-7h7Zm138-54.5a2.5 2.5 0 1 1 0-5 2.5 2.5 0 0 1 0 5ZM94.5 163a2.5 2.5 0 1 1 0-5 2.5 2.5 0 0 1 0 5Zm122-80a2.5 2.5 0 1 0 5 0 2.5 2.5 0 0 0-5 0Zm-136-4a2.5 2.5 0 1 1 0-5 2.5 2.5 0 0 1 0 5ZM72 66.5a2.5 2.5 0 1 0 5 0 2.5 2.5 0 0 0-5 0Z"/></svg>