<svg xmlns="http://www.w3.org/2000/svg" width="300" height="200" fill="none"><path fill="#336e9e" d="M132 39.5a2.5 2.5 0 1 0 5 0 2.5 2.5 0 0 0-5 0zM106.5 68a9.5 9.5 0 0 0 9.5-9.5 9.5 9.5 0 0 0-9.5-9.5 9.5 9.5 0 0 0-9.5 9.5 9.5 9.5 0 0 0 9.5 9.5z"/><path fill="#336e9e" fill-rule="evenodd" d="M108.003 39.895c-.172-1.824-2.834-1.824-3.006 0-.148 1.558-2.276 1.89-2.891.453-.721-1.684-3.247-.836-2.856.952.335 1.53-1.587 2.513-2.617 1.332-1.205-1.383-3.342.22-2.42 1.805.789 1.358-.737 2.894-2.084 2.088-1.58-.945-3.123 1.246-1.752 2.476 1.171 1.05.196 2.987-1.34 2.64-1.803-.405-2.61 2.157-.918 2.903 1.442.636 1.111 2.779-.458 2.931-1.844.18-1.844 2.87 0 3.05 1.57.152 1.9 2.295.458 2.931-1.692.745-.885 3.308.918 2.902 1.536-.346 2.511 1.59 1.34 2.641-1.37 1.23.172 3.421 1.752 2.476 1.347-.806 2.873.73 2.084 2.087-.922 1.587 1.215 3.19 2.42 1.806 1.03-1.18 2.952-.199 2.617 1.332-.391 1.788 2.135 2.636 2.856.952.615-1.438 2.743-1.105 2.891.453.172 1.824 2.834 1.824 3.006 0 .148-1.558 2.276-1.89 2.891-.453.721 1.684 3.247.836 2.855-.952-.335-1.53 1.588-2.513 2.617-1.332 1.206 1.383 3.343-.22 2.421-1.805-.789-1.358.736-2.894 2.084-2.088 1.58.945 3.123-1.246 1.752-2.476-1.172-1.05-.196-2.987 1.339-2.641 1.804.406 2.611-2.157.919-2.902-1.442-.636-1.112-2.779.457-2.932 1.845-.179 1.845-2.869 0-3.049-1.569-.152-1.899-2.295-.457-2.931 1.692-.746.885-3.308-.919-2.902-1.535.346-2.511-1.59-1.339-2.641 1.371-1.23-.172-3.421-1.752-2.476-1.348.806-2.873-.73-2.084-2.088.922-1.586-1.215-3.188-2.421-1.805-1.029 1.18-2.952.199-2.617-1.332.392-1.789-2.134-2.636-2.855-.952-.615 1.438-2.743 1.105-2.891-.453zM106.5 71c6.904 0 12.5-5.596 12.5-12.5S113.404 46 106.5 46 94 51.596 94 58.5 99.596 71 106.5 71Z" clip-rule="evenodd"/><path fill="#336e9e" d="M129.619 58c-.198-.954-.684-1.845-1.459-2.495a4.47 4.47 0 0 0 .566-1.505H182c5.523 0 10 4.477 10 10v80c0 5.523-4.477 10-10 10h-69c-5.523 0-10-4.477-10-10v-34.511l3.81-4.268.19.232V144a6 6 0 0 0 6 6h69a6 6 0 0 0 6-6V64a6 6 0 0 0-6-6z"/><path fill="#336e9e" d="M180 94h-55.5v-4H180a2 2 0 1 1 0 4zm-55.5 22H152a2 2 0 1 0 0-4h-27.5zm44.5 17a2 2 0 1 1 0 4h-48a2 2 0 1 1 0-4zM96.546 78.784a4.452 4.452 0 0 1-2.046-.022V110L107 96l11.5 14V78.762a4.454 4.454 0 0 1-2.046.022c-.53 1.251-1.613 2.154-2.763 2.539-1.152.385-2.564.312-3.735-.376-1.739 2.034-5.173 2.034-6.912 0-1.171.688-2.583.761-3.735.376-1.15-.385-2.233-1.288-2.764-2.539zM124.023 74a4.613 4.613 0 0 0 1.281-1.217c.542-.767.868-1.76.846-2.783H160a2 2 0 0 1 0 4zM225.5 109.5a2 2 0 0 1-2 2h-7v7a2 2 0 0 1-4 0v-7h-7a2 2 0 0 1 0-4h7v-7a2 2 0 1 1 4 0v7h7a2 2 0 0 1 2 2zM90 151a2 2 0 0 0 0-4h-7v-7a2 2 0 1 0-4 0v7h-7a2 2 0 1 0 0 4h7v7a2 2 0 0 0 4 0v-7zm138-54.5a2.5 2.5 0 1 1 0-5 2.5 2.5 0 0 1 0 5zM94.5 163a2.5 2.5 0 1 1 0-5 2.5 2.5 0 0 1 0 5zm122-80a2.5 2.5 0 1 0 5 0 2.5 2.5 0 0 0-5 0zm-136-4a2.5 2.5 0 1 1 0-5 2.5 2.5 0 0 1 0 5zM72 66.5a2.5 2.5 0 1 0 5 0 2.5 2.5 0 0 0-5 0Z"/></svg>