<svg xmlns="http://www.w3.org/2000/svg" xml:space="preserve" width="300" height="200" fill="none"><path d="M132.787 48.882a4.03 3.971 0 0 0-1.488.496 4.03 3.971 0 0 0-1.483 5.422l2.68 4.59H122.9a11.161 11.161 0 0 0-4.347.884 11.19 11.19 0 0 0-2.772 1.69c-.278.23-.546.471-.8.726a11.386 11.386 0 0 0-1.942 2.604c-.174.32-.333.65-.477.988a11.264 11.264 0 0 0-.658 2.125 11.32 11.32 0 0 0-.23 2.285v9.338c-.048.414-.08.832-.08 1.256v40.363c0 .383.02.761.058 1.135a10.835 10.835 0 0 0 .46 2.176 10.952 10.952 0 0 0 1.452 2.94 11.317 11.317 0 0 0 1.416 1.667c.023.022.048.043.07.065a11.425 11.425 0 0 0 2.575 1.904 11.2 11.2 0 0 0 3.053 1.108 11.043 11.043 0 0 0 2.222.224h26.008v11.758h-1.836a4.056 4.056 0 0 0-2.037.545 4.084 4.084 0 0 0-.834.63 3.86 3.86 0 0 0-.64.825H99.697a2 2 0 1 0 0 4h44.096c.186.252.404.48.644.682.241.201.506.375.788.517a4.054 4.054 0 0 0 1.848.443h7.671a4.055 4.055 0 0 0 1.848-.443c.282-.142.546-.316.787-.517.24-.202.458-.43.644-.682h44.096a1.998 1.998 0 0 0 1.246-.438 2 2 0 0 0 .557-.695 2 2 0 0 0 .197-.867 2 2 0 0 0-.436-1.248 2 2 0 0 0-.697-.555 2 2 0 0 0-.867-.197h-43.863a3.86 3.86 0 0 0-.64-.824 4.17 4.17 0 0 0-1.81-1.035 4.052 4.052 0 0 0-1.062-.141h-1.836v-11.758h22.483l3.295 5.645a4.03 3.971 0 0 0 5.501 1.463 4.03 3.971 0 0 0 1.483-5.424L136.8 50.839a4.03 3.971 0 0 0-2.443-1.854 4.03 3.971 0 0 0-1.57-.103zm-9.8 25.017h17.98l32.045 54.895H122.9a7.657 7.657 0 0 1-1.408-.13 7.339 7.339 0 0 1-1.916-.647 7.215 7.215 0 0 1-1.117-.696 7.279 7.279 0 0 1-.504-.418 7.244 7.244 0 0 1-1.955-3.728 7.728 7.728 0 0 1-.148-1.526V81.286a8 8 0 0 1 .148-1.535 7.572 7.572 0 0 1 .734-2.059 7.256 7.256 0 0 1 2.309-2.574 7.09 7.09 0 0 1 2.535-1.076 7 7 0 0 1 1.408-.143z" style="fill:#336e9e;stroke-linecap:round;stroke-linejoin:round" transform="translate(0 -.706)"/><path d="m150.244 73.9-8.465-14.51h-.004l8.436 14.51zM183.941 131.657l-2.046-3.506c-.04.016-.077.035-.116.051l2.047 3.52c.04-.02.076-.045.115-.065zM151.074 59.39l8.465 14.51h19.256a7 7 0 0 1 3.943 1.218 7.18 7.18 0 0 1 2.309 2.574 7.374 7.374 0 0 1 .553 1.336 7.59 7.59 0 0 1 .33 2.258v37.848l3.613 6.195c.094-.262.183-.527.258-.797a10.854 10.854 0 0 0 .388-2.883V81.286c0-.276-.022-.547-.043-.818v-9.776a11.487 11.487 0 0 0-.23-2.285 11.227 11.227 0 0 0-.66-2.125 11.26 11.26 0 0 0-3.219-4.318 11.339 11.339 0 0 0-1.791-1.215 11.19 11.19 0 0 0-3.082-1.13 11.101 11.101 0 0 0-2.248-.23z" style="fill:#336e9e;stroke-linecap:round;stroke-linejoin:round" transform="translate(0 -.706)"/><path d="M70.463 143.49a2.491 2.491 0 0 0-1.768.733 2.503 2.503 0 0 0-.535 2.74 2.503 2.503 0 0 0 2.303 1.528 2.49 2.49 0 0 0 1.767-.733 2.503 2.503 0 0 0 .536-2.74 2.503 2.503 0 0 0-2.303-1.527zM81.139 133.506a2.491 2.491 0 0 0-1.768.733 2.503 2.503 0 0 0-.535 2.74 2.503 2.503 0 0 0 2.303 1.527 2.491 2.491 0 0 0 1.767-.732 2.503 2.503 0 0 0 .535-2.74 2.503 2.503 0 0 0-2.302-1.528zM91.504 108.563c-.276 0-.54.055-.78.156-.239.101-.453.249-.634.43-.181.18-.329.395-.43.635-.101.239-.156.503-.156.779v7h-7c-.276 0-.54.055-.78.156-.239.101-.453.249-.634.43-.181.18-.329.395-.43.635-.101.239-.156.503-.156.779s.055.54.156.78c.101.239.249.453.43.634.18.181.395.329.635.43.239.1.503.156.779.156h7v7c0 .276.055.54.156.78.101.239.249.453.43.634.18.181.395.329.635.43.239.1.503.156.779.156s.54-.055.78-.156c.238-.101.453-.249.634-.43.18-.18.328-.395.43-.635.1-.239.156-.503.156-.779v-7h7c.276 0 .54-.055.78-.156.238-.101.453-.249.634-.43.18-.18.328-.395.43-.635.1-.239.156-.503.156-.779s-.055-.54-.156-.78a2.002 2.002 0 0 0-.43-.634 2.002 2.002 0 0 0-.635-.43 1.998 1.998 0 0 0-.78-.156h-7v-7c0-.276-.054-.54-.155-.78a2.002 2.002 0 0 0-.43-.634 2.002 2.002 0 0 0-.635-.43 1.998 1.998 0 0 0-.78-.156zM78.324 99.754a2.491 2.491 0 0 0-1.767.733 2.503 2.503 0 0 0-.536 2.74 2.503 2.503 0 0 0 2.303 1.527 2.49 2.49 0 0 0 1.768-.732 2.504 2.504 0 0 0 .535-2.74 2.504 2.504 0 0 0-2.303-1.528zM200.486 100.338a2.49 2.49 0 0 0-1.767.733 2.503 2.503 0 0 0-.535 2.74 2.504 2.504 0 0 0 2.302 1.527 2.49 2.49 0 0 0 1.768-.732 2.504 2.504 0 0 0 .535-2.74 2.503 2.503 0 0 0-2.303-1.528zM208.932 68.905c-.277 0-.54.055-.78.156-.239.101-.453.249-.634.43-.181.18-.329.395-.43.635-.101.239-.156.503-.156.779v7h-7c-.277 0-.54.055-.78.156-.239.101-.453.249-.634.43-.181.18-.329.395-.43.635-.101.239-.156.503-.156.779s.055.54.156.78c.101.238.249.453.43.634.18.18.395.328.634.43.24.1.503.156.78.156h7v7c0 .276.055.54.156.78.101.238.249.453.43.634.18.18.395.328.634.43.24.1.503.156.78.156.276 0 .54-.055.779-.156.24-.102.454-.25.635-.43.18-.181.328-.396.43-.635.1-.24.156-.503.156-.78v-7h7c.276 0 .54-.054.779-.155.24-.102.454-.25.635-.43.18-.181.328-.396.43-.635.1-.24.156-.503.156-.78 0-.275-.055-.54-.157-.778a2.002 2.002 0 0 0-.43-.635 2.001 2.001 0 0 0-.634-.43 1.997 1.997 0 0 0-.78-.156h-7v-7c0-.276-.054-.54-.156-.78a2.002 2.002 0 0 0-.43-.634 2.001 2.001 0 0 0-.634-.43 1.997 1.997 0 0 0-.78-.156zM229.537 63.745a2.49 2.49 0 0 0-1.767.732 2.503 2.503 0 0 0-.536 2.74 2.503 2.503 0 0 0 2.303 1.528 2.49 2.49 0 0 0 1.768-.733 2.503 2.503 0 0 0 .535-2.74 2.503 2.503 0 0 0-2.303-1.527zM210.557 52.907a2.49 2.49 0 0 0-1.768.732 2.503 2.503 0 0 0-.535 2.74 2.503 2.503 0 0 0 2.303 1.528 2.49 2.49 0 0 0 1.767-.733 2.503 2.503 0 0 0 .535-2.74 2.503 2.503 0 0 0-2.302-1.527z" style="fill:#336e9e;stroke-width:.999999" transform="translate(0 -.706)"/><path d="M128.775 87.78a2 2 0 0 0-1.43.55 2 2 0 0 0-.07 2.828l10.498 11.037-10.505 11.176a2 2 0 0 0 .086 2.826 2 2 0 0 0 2.828-.086l11.8-12.553a2 2 0 0 0-.008-2.75l-11.8-12.406a2 2 0 0 0-1.399-.621zM144.526 112.74a2 2 0 0 0-2 2 2 2 0 0 0 2 2h14.092a2 2 0 0 0 2-2 2 2 0 0 0-2-2z" style="color:#000;fill:#336e9e;stroke-linecap:round;stroke-linejoin:round;-inkscape-stroke:none" transform="translate(0 -.706)"/></svg>