<?xml version="1.0" encoding="UTF-8" standalone="no"?>
<svg
   xml:space="preserve"
   width="300"
   height="200"
   fill="none"
   version="1.1"
   id="svg1"
   sodipodi:docname="console-off.svg"
   inkscape:version="1.3 (0e150ed6c4, 2023-07-21)"
   inkscape:export-filename="../../../icons/icons-panes/console-off.png"
   inkscape:export-xdpi="96"
   inkscape:export-ydpi="96"
   xmlns:inkscape="http://www.inkscape.org/namespaces/inkscape"
   xmlns:sodipodi="http://sodipodi.sourceforge.net/DTD/sodipodi-0.dtd"
   xmlns="http://www.w3.org/2000/svg"
   xmlns:svg="http://www.w3.org/2000/svg"><defs
     id="defs1"><inkscape:path-effect
       effect="fillet_chamfer"
       id="path-effect9"
       is_visible="true"
       lpeversion="1"
       nodesatellites_param="F,0,0,1,0,0,0,1 @ F,0,0,1,0,0,0,1 @ F,0,0,1,0,0,0,1 @ F,0,0,1,0,0,0,1 @ F,0,0,1,0,0,0,1 @ F,0,0,1,0,0,0,1 @ F,0,0,1,0,0,0,1 @ F,0,0,1,0,0,0,1"
       radius="0"
       unit="px"
       method="auto"
       mode="F"
       chamfer_steps="1"
       flexible="false"
       use_knot_distance="true"
       apply_no_radius="true"
       apply_with_radius="true"
       only_selected="false"
       hide_knots="false" /><inkscape:path-effect
       effect="fillet_chamfer"
       id="path-effect5"
       is_visible="true"
       lpeversion="1"
       nodesatellites_param="F,0,0,1,0,0,0,1 @ F,0,0,1,0,0,0,1 @ F,0,0,1,0,0,0,1 @ F,0,0,1,0,0,0,1 @ F,0,0,1,0,0,0,1 @ F,0,0,1,0,0,0,1 @ F,0,0,1,0,0,0,1 @ F,0,0,1,0,0,0,1"
       radius="0"
       unit="px"
       method="auto"
       mode="F"
       chamfer_steps="1"
       flexible="false"
       use_knot_distance="true"
       apply_no_radius="true"
       apply_with_radius="true"
       only_selected="false"
       hide_knots="false" /><inkscape:path-effect
       effect="fillet_chamfer"
       id="path-effect2"
       is_visible="true"
       lpeversion="1"
       nodesatellites_param="F,0,0,1,0,0,0,1 @ F,0,0,1,0,0,0,1 @ F,0,0,1,0,0,0,1 @ F,0,0,1,0,0,0,1 @ F,0,0,1,0,0,0,1 @ F,0,0,1,0,0,0,1 @ F,0,0,1,0,0,0,1 @ F,0,0,1,0,0,0,1"
       radius="0"
       unit="px"
       method="auto"
       mode="F"
       chamfer_steps="1"
       flexible="false"
       use_knot_distance="true"
       apply_no_radius="true"
       apply_with_radius="true"
       only_selected="false"
       hide_knots="false" /><inkscape:path-effect
       effect="fillet_chamfer"
       id="path-effect3"
       is_visible="true"
       lpeversion="1"
       nodesatellites_param="F,0,0,1,0,0,0,1 @ F,0,0,1,0,0,0,1 @ F,0,0,1,0,0,0,1 @ F,0,0,1,0,0,0,1 @ F,0,0,1,0,0,0,1 @ F,0,0,1,0,0,0,1 @ F,0,0,1,0,0,0,1 @ F,0,0,1,0,0,0,1"
       radius="0"
       unit="px"
       method="auto"
       mode="F"
       chamfer_steps="1"
       flexible="false"
       use_knot_distance="true"
       apply_no_radius="true"
       apply_with_radius="true"
       only_selected="false"
       hide_knots="false" /></defs><sodipodi:namedview
     id="namedview1"
     pagecolor="#ffffff"
     bordercolor="#999999"
     borderopacity="1"
     inkscape:showpageshadow="0"
     inkscape:pageopacity="0"
     inkscape:pagecheckerboard="0"
     inkscape:deskcolor="#d1d1d1"
     showguides="true"
     inkscape:zoom="3.39"
     inkscape:cx="130.0885"
     inkscape:cy="92.772861"
     inkscape:window-width="1920"
     inkscape:window-height="1151"
     inkscape:window-x="1920"
     inkscape:window-y="182"
     inkscape:window-maximized="1"
     inkscape:current-layer="g26"><sodipodi:guide
       position="91.635,159.3235"
       orientation="1,0"
       id="guide5"
       inkscape:locked="false" /><sodipodi:guide
       position="211.044,40.6765"
       orientation="1,0"
       id="guide6"
       inkscape:locked="false" /><sodipodi:guide
       position="106.19469,159.3235"
       orientation="0,-1"
       id="guide16"
       inkscape:locked="false" /><sodipodi:guide
       position="211.044,40.6765"
       orientation="0,-1"
       id="guide17"
       inkscape:locked="false" /></sodipodi:namedview><g
     id="g26"><path
       d="m 196.91602,149.93945 -2.24805,-3.91406 h -87.49805 c -0.49354,0 -0.97426,-0.0472 -1.4375,-0.13867 -0.46324,-0.0915 -0.90895,-0.22654 -1.33398,-0.40039 -0.42503,-0.17385 -0.82812,-0.38759 -1.20703,-0.63477 -0.37892,-0.24717 -0.73371,-0.5284 -1.0586,-0.83984 -0.32193,-0.32847 -0.61371,-0.68886 -0.87109,-1.07813 -0.25738,-0.38926 -0.4799,-0.80757 -0.66211,-1.25 -0.18221,-0.44242 -0.32546,-0.90853 -0.42188,-1.39648 -0.0964,-0.48795 -0.14648,-0.9976 -0.14648,-1.52344 V 72.205078 c 0,-0.529658 0.0509,-1.041726 0.14844,-1.533203 0.0976,-0.491477 0.24136,-0.962915 0.42578,-1.408203 0.18442,-0.445289 0.40935,-0.864767 0.66992,-1.25586 0.26057,-0.391092 0.55681,-0.753142 0.88281,-1.082031 0.32601,-0.328888 0.68177,-0.624135 1.0625,-0.882812 0.38073,-0.258678 0.78619,-0.48165 1.21094,-0.66211 0.42475,-0.180459 0.87007,-0.319829 1.32813,-0.414062 0.45805,-0.09423 0.9295,-0.142578 1.41015,-0.142578 h 40.85742 l -8.52343,-14.837891 h -32.33399 c -0.38786,0 -0.7705,0.02003 -1.14844,0.05859 -0.37793,0.03856 -0.75108,0.09471 -1.11718,0.169922 -0.36611,0.07521 -0.72576,0.169344 -1.07813,0.279297 -0.35236,0.109952 -0.69844,0.236121 -1.03515,0.378906 -0.33672,0.142785 -0.66522,0.302854 -0.98438,0.476562 -0.31916,0.173709 -0.62805,0.361731 -0.92773,0.564453 -0.29969,0.202723 -0.58888,0.41861 -0.86719,0.648438 -0.278312,0.229828 -0.545759,0.473492 -0.800783,0.728516 -0.255023,0.255024 -0.498687,0.52247 -0.728515,0.800781 -0.229828,0.278311 -0.445715,0.567499 -0.648438,0.867187 -0.202723,0.299689 -0.390744,0.610531 -0.564453,0.929688 -0.173708,0.319157 -0.333777,0.645706 -0.476562,0.982422 -0.142786,0.336716 -0.268954,0.68279 -0.378907,1.035156 -0.109952,0.352366 -0.204085,0.712018 -0.279296,1.078125 -0.07521,0.366107 -0.131362,0.739249 -0.169922,1.117187 -0.03856,0.377939 -0.05859,0.760576 -0.05859,1.148438 v 2.992187 c -0.01894,0.26429 -0.04102,0.528189 -0.04102,0.796875 v 2.685547 c -0.01714,0.25011 -0.03906,0.498113 -0.03906,0.751953 v 2.841797 c -0.02403,0.294021 -0.04492,0.587716 -0.04492,0.886719 v 66.558592 c 0,0.42411 0.02429,0.84421 0.07227,1.25781 0.04797,0.41361 0.119397,0.82054 0.21289,1.22071 0.09349,0.40017 0.209139,0.79391 0.345703,1.17773 0.136565,0.38383 0.293517,0.75849 0.470703,1.12305 0.177187,0.36455 0.374485,0.71818 0.589844,1.06055 0.215359,0.34236 0.45009,0.67297 0.701172,0.99023 0.251082,0.31726 0.51838,0.62092 0.802734,0.91016 0.284355,0.28923 0.585213,0.56397 0.900391,0.82226 0.491977,0.41974 1.019387,0.79911 1.578127,1.13086 0.55874,0.33175 1.14882,0.61519 1.76367,0.84766 0.30743,0.11623 0.62195,0.2193 0.94141,0.30859 0.31945,0.0893 0.64445,0.16562 0.97461,0.22656 0.33015,0.0609 0.66438,0.1075 1.0039,0.13868 0.33952,0.0312 0.6837,0.0469 1.03125,0.0469 h 88.42774 c 0.34786,0 0.69142,-0.0157 1.03125,-0.0469 0.097,-0.009 0.19085,-0.0277 0.28711,-0.0391 z"
       style="fill:#336e9e;stroke-linecap:round;stroke-linejoin:round"
       id="path25" /><path
       d="m 148.73047,49.986328 8.52148,14.837891 h 38.34571 c 0.48064,0 0.9521,0.04834 1.41015,0.142578 0.45805,0.09423 0.90338,0.233603 1.32813,0.414062 0.42474,0.18046 0.8302,0.403432 1.21093,0.66211 0.38074,0.258677 0.7365,0.553924 1.0625,0.882812 0.32601,0.328889 0.62225,0.690939 0.88282,1.082031 0.26057,0.391093 0.4855,0.810571 0.66992,1.25586 0.18442,0.445288 0.32821,0.916726 0.42578,1.408203 0.0976,0.491477 0.14844,1.003545 0.14844,1.533203 v 66.558592 c 0,0.52651 -0.0519,1.03679 -0.14844,1.52539 -0.0966,0.4886 -0.2374,0.95547 -0.41992,1.39844 -0.10095,0.245 -0.24246,0.4622 -0.36719,0.69141 l 2.21875,3.86523 c 0.19778,-0.21392 0.39773,-0.4261 0.57813,-0.6543 0.25073,-0.31717 0.48417,-0.64799 0.69921,-0.99023 0.21505,-0.34224 0.41293,-0.69616 0.58985,-1.06055 0.17692,-0.36438 0.3324,-0.73943 0.46875,-1.12304 0.13635,-0.38362 0.25236,-0.77585 0.3457,-1.17579 0.0933,-0.39993 0.165,-0.80737 0.21289,-1.2207 0.0479,-0.41333 0.0723,-0.83205 0.0723,-1.25586 V 72.205078 c 0,-0.299003 -0.0209,-0.592698 -0.0449,-0.886719 v -2.841797 c 0,-0.25384 -0.0219,-0.501843 -0.0391,-0.751953 v -2.685547 c 0,-0.268686 -0.0221,-0.532585 -0.041,-0.796875 V 61.25 c 0,-0.387862 -0.02,-0.770499 -0.0586,-1.148438 -0.0386,-0.377938 -0.0947,-0.75108 -0.16992,-1.117187 -0.0752,-0.366107 -0.16934,-0.725759 -0.27929,-1.078125 -0.10996,-0.352366 -0.23613,-0.69844 -0.37891,-1.035156 -0.14279,-0.336716 -0.30285,-0.665218 -0.47656,-0.984375 -0.17371,-0.319157 -0.36173,-0.628046 -0.56446,-0.927735 -0.20272,-0.299688 -0.41861,-0.588876 -0.64843,-0.867187 -0.22983,-0.278311 -0.4735,-0.545757 -0.72852,-0.800781 -0.25502,-0.255024 -0.52247,-0.498688 -0.80078,-0.728516 -0.27831,-0.229828 -0.5675,-0.445715 -0.86719,-0.648438 -0.29969,-0.202722 -0.60858,-0.390744 -0.92773,-0.564453 -0.31916,-0.173708 -0.64766,-0.333777 -0.98438,-0.476562 -0.33671,-0.142785 -0.68279,-0.268954 -1.03515,-0.378906 -0.35237,-0.109953 -0.71202,-0.204086 -1.07813,-0.279297 -0.36611,-0.07521 -0.73925,-0.131362 -1.11719,-0.169922 -0.37794,-0.03856 -0.76057,-0.05859 -1.14843,-0.05859 z"
       style="fill:#336e9e;stroke-linecap:round;stroke-linejoin:round"
       id="path19" /><path
       style="fill:#336e9e"
       d="m 227.714,87.05 a 2.5,2.5 0 1 0 0,5 2.5,2.5 0 0 0 0,-5 z"
       id="path16" /><path
       style="fill:#336e9e"
       d="m 74.59,149.44 a 2.5,2.5 0 1 0 0,5 2.5,2.5 0 0 0 0,-5 z"
       id="path15" /><path
       style="fill:#336e9e"
       d="m 59.607,138.603 a 2.5,2.5 0 1 0 0,5 2.5,2.5 0 0 0 0,-5 z"
       id="path14" /><path
       style="fill:#336e9e"
       d="m 74.213,116.44 a 2,2 0 0 0 -2,2 v 7 h -7 a 2,2 0 1 0 0,4 h 7 v 7 a 2,2 0 1 0 4,0 v -7 h 7 a 2,2 0 1 0 0,-4 h -7 v -7 a 2,2 0 0 0 -2,-2 z"
       id="path13" /><path
       style="fill:#336e9e"
       d="m 84.657,102.006 a 2.5,2.5 0 1 0 0,5 2.5,2.5 0 0 0 0,-5 z"
       id="path12" /><path
       style="fill:#336e9e"
       d="m 219.245,77.196 a 2.5,2.5 0 1 0 0,5 2.5,2.5 0 0 0 0,-5 z"
       id="path11" /><path
       style="fill:#336e9e"
       d="m 231.893,51.39 a 2,2 0 0 0 -2,2 v 7 h -7 a 2,2 0 1 0 0,4 h 7 v 7 a 2,2 0 1 0 4,0 v -7 h 7 a 2,2 0 1 0 0,-4 h -7 v -7 a 2,2 0 0 0 -2,-2 z"
       id="path9" /><path
       style="fill:#336e9e"
       d="m 216.43,43.444 a 2.5,2.5 0 1 0 0,5 2.5,2.5 0 0 0 0,-5 z"
       id="path7" /><path
       style="stroke:#336e9e;stroke-width:8;stroke-linecap:round;stroke-linejoin:round;stroke-dasharray:none"
       d="M 115.22345,82.755476 137.688,105.93078 115.22345,129.37706"
       id="path4" /><path
       style="stroke:#336e9e;stroke-width:8;stroke-linecap:round;stroke-linejoin:round;stroke-dasharray:none"
       d="m 141.00804,128.6409 h 25.44208"
       id="path5" /><path
       style="color:#000000;fill:#336e9e;stroke-linecap:round;stroke-linejoin:round;-inkscape-stroke:none"
       d="m 129.61133,35.054687 a 4,4 0 0 0 -3.03711,0.392579 4,4 0 0 0 -1.47656,5.460937 l 69.16406,120.408207 a 4,4 0 0 0 5.46094,1.47656 4,4 0 0 0 1.47656,-5.46094 L 132.03516,36.923828 a 4,4 0 0 0 -2.42383,-1.869141 z"
       id="path3" /></g></svg>
