<svg xmlns="http://www.w3.org/2000/svg" xml:space="preserve" width="300" height="200" fill="none"><path d="m95.525 36.86-7.78 7.633 10.177 10.113c-1.382 1.887-2.084 4.074-2.084 6.569v77.652c0 3.127 1.084 5.776 3.256 7.947 2.171 2.172 4.734 3.258 7.687 3.258h87.182l13.191 13.108 7.78-7.633zm120.905 6.584a2.5 2.5 0 1 0 0 5 2.5 2.5 0 0 0 0-5zm-92.52 6.526 22.293 22.15h49.695v49.377l10.944 10.873V61.175c0-3.127-1.085-5.776-3.256-7.947-2.172-2.172-4.734-3.258-7.688-3.258zm107.983 1.42a2 2 0 0 0-2 2v7h-7a2 2 0 1 0 0 4h7v7a2 2 0 1 0 4 0v-7h7a2 2 0 1 0 0-4h-7v-7a2 2 0 0 0-2-2zM106.78 72.12h8.768l11.275 11.203h-11.183l22.148 22.15-22.148 22.409h15.896l18.24-18.24a6.44 6.44 0 0 0 1.266-2.254l9.352 9.29h-3.583v11.204h14.858l11.016 10.945H106.78zm112.465 5.076a2.5 2.5 0 1 0 0 5 2.5 2.5 0 0 0 0-5zm-134.588 24.81a2.5 2.5 0 1 0 0 5 2.5 2.5 0 0 0 0-5zM74.213 116.44a2 2 0 0 0-2 2v7h-7a2 2 0 1 0 0 4h7v7a2 2 0 1 0 4 0v-7h7a2 2 0 1 0 0-4h-7v-7a2 2 0 0 0-2-2zm-14.606 22.163a2.5 2.5 0 1 0 0 5 2.5 2.5 0 0 0 0-5zM74.59 149.44a2.5 2.5 0 1 0 0 5 2.5 2.5 0 0 0 0-5zM227.714 87.05a2.5 2.5 0 1 0 0 5 2.5 2.5 0 0 0 0-5z" style="fill:#336e9e"/></svg>