<svg xmlns="http://www.w3.org/2000/svg" xml:space="preserve" width="300" height="200" fill="none"><path d="M210.557 30.758a2.5 2.5 0 1 0 0 5 2.5 2.5 0 0 0 0-5zm22.98 10.838a2.5 2.5 0 1 0 0 5 2.5 2.5 0 0 0 0-5zm-121.322.357-8.326 8.168 10.619 10.55c-.597 1.346-.906 2.817-.906 4.425v53.33c0 3.004 1.042 5.55 3.128 7.636 2.087 2.087 4.55 3.131 7.387 3.131h21.533v10.516h-5.507c-1.503 0-2.755.542-3.756 1.627-1.002 1.085-1.504 2.379-1.504 3.88H97.576v10.518h37.307c0 1.503.502 2.796 1.504 3.881 1.001 1.085 2.253 1.627 3.756 1.627h21.53c1.503 0 2.755-.542 3.757-1.627 1.001-1.085 1.504-2.378 1.504-3.88h37.306v-10.518h-37.306c0-1.502-.503-2.796-1.504-3.881-1.002-1.085-2.254-1.627-3.756-1.627h-5.508v-10.516h21.533c1.684 0 3.231-.376 4.65-1.111l7.253 7.205 8.326-8.168zm98.717 4.803a2 2 0 0 0-2 2v7h-7a2 2 0 1 0 0 4h7v7a2 2 0 1 0 4 0v-7h7a2 2 0 1 0 0-4h-7v-7a2 2 0 0 0-2-2zm-70.073 7.572 10.836 10.768H177.7v25.836l10.516 10.449V65.096c0-3.005-1.043-5.55-3.13-7.637-2.086-2.087-4.548-3.13-7.386-3.13zm-16.742 15.893 24.305 24.15-18.797 18.797h13.521l11.961-12.154 2.811 2.793v9.361h9.422l5.293 5.258h-48.516zm76.37 7.968a2.5 2.5 0 1 0-.001 5 2.5 2.5 0 0 0 0-5zM78.323 97.605a2.5 2.5 0 1 0 0 5 2.5 2.5 0 0 0 0-5zm13.18 8.81a2 2 0 0 0-2 2v7h-7a2 2 0 1 0 0 4h7v7a2 2 0 1 0 4 0v-7h7a2 2 0 1 0 0-4h-7v-7a2 2 0 0 0-2-2zm-10.365 24.942a2.5 2.5 0 1 0 0 5 2.5 2.5 0 0 0 0-5zm-10.676 9.985a2.5 2.5 0 1 0 0 5 2.5 2.5 0 0 0 0-5z" style="fill:#336e9e;stroke-width:.999999"/></svg>