<?xml version="1.0" encoding="UTF-8" standalone="no"?>
<svg
   width="300"
   height="200"
   viewBox="0 0 300 200"
   fill="none"
   version="1.1"
   id="svg158"
   sodipodi:docname="console-remote-off.svg"
   inkscape:version="1.3 (0e150ed6c4, 2023-07-21)"
   xml:space="preserve"
   inkscape:export-filename="console-remote-off.png"
   inkscape:export-xdpi="96"
   inkscape:export-ydpi="96"
   xmlns:inkscape="http://www.inkscape.org/namespaces/inkscape"
   xmlns:sodipodi="http://sodipodi.sourceforge.net/DTD/sodipodi-0.dtd"
   xmlns="http://www.w3.org/2000/svg"
   xmlns:svg="http://www.w3.org/2000/svg"><defs
     id="defs162"><inkscape:path-effect
       effect="fillet_chamfer"
       id="path-effect13"
       is_visible="true"
       lpeversion="1"
       nodesatellites_param="F,0,0,1,0,0,0,1 @ F,0,0,1,0,0,0,1 @ F,0,0,1,0,0,0,1 @ F,0,0,1,0,0,0,1 @ F,0,0,1,0,0,0,1 @ F,0,0,1,0,0,0,1 @ F,0,0,1,0,0,0,1 @ F,0,0,1,0,0,0,1"
       radius="0"
       unit="px"
       method="auto"
       mode="F"
       chamfer_steps="1"
       flexible="false"
       use_knot_distance="true"
       apply_no_radius="true"
       apply_with_radius="true"
       only_selected="false"
       hide_knots="false" /><inkscape:path-effect
       effect="fillet_chamfer"
       id="path-effect26"
       is_visible="true"
       lpeversion="1"
       nodesatellites_param="F,0,0,1,0,0,0,1 @ F,0,0,1,0,0,0,1 @ F,0,0,1,0,0,0,1 @ F,0,0,1,0,0,0,1 @ F,0,0,1,0,0,0,1 @ F,0,0,1,0,0,0,1"
       radius="0"
       unit="px"
       method="auto"
       mode="F"
       chamfer_steps="1"
       flexible="false"
       use_knot_distance="true"
       apply_no_radius="true"
       apply_with_radius="true"
       only_selected="false"
       hide_knots="false" /><inkscape:path-effect
       effect="fillet_chamfer"
       id="path-effect3"
       is_visible="true"
       lpeversion="1"
       nodesatellites_param="F,0,0,1,0,0,0,1 @ F,0,0,1,0,0,0,1 @ F,0,0,1,0,0,0,1 @ F,0,0,1,0,0,0,1 @ F,0,0,1,0,0,0,1 @ F,0,0,1,0,0,0,1 @ F,0,0,1,0,0,0,1 @ F,0,0,1,0,0,0,1"
       radius="0"
       unit="px"
       method="auto"
       mode="F"
       chamfer_steps="1"
       flexible="false"
       use_knot_distance="true"
       apply_no_radius="true"
       apply_with_radius="true"
       only_selected="false"
       hide_knots="false" /><inkscape:path-effect
       effect="fillet_chamfer"
       id="path-effect3-6"
       is_visible="true"
       lpeversion="1"
       nodesatellites_param="F,0,0,1,0,0,0,1 @ F,0,0,1,0,0,0,1 @ F,0,0,1,0,0,0,1 @ F,0,0,1,0,0,0,1 @ F,0,0,1,0,0,0,1 @ F,0,0,1,0,0,0,1 @ F,0,0,1,0,0,0,1 @ F,0,0,1,0,0,0,1"
       radius="0"
       unit="px"
       method="auto"
       mode="F"
       chamfer_steps="1"
       flexible="false"
       use_knot_distance="true"
       apply_no_radius="true"
       apply_with_radius="true"
       only_selected="false"
       hide_knots="false" /><inkscape:path-effect
       effect="fillet_chamfer"
       id="path-effect3-3"
       is_visible="true"
       lpeversion="1"
       nodesatellites_param="F,0,0,1,0,0,0,1 @ F,0,0,1,0,0,0,1 @ F,0,0,1,0,0,0,1 @ F,0,0,1,0,0,0,1 @ F,0,0,1,0,0,0,1 @ F,0,0,1,0,0,0,1 @ F,0,0,1,0,0,0,1 @ F,0,0,1,0,0,0,1"
       radius="0"
       unit="px"
       method="auto"
       mode="F"
       chamfer_steps="1"
       flexible="false"
       use_knot_distance="true"
       apply_no_radius="true"
       apply_with_radius="true"
       only_selected="false"
       hide_knots="false" /><inkscape:path-effect
       effect="fillet_chamfer"
       id="path-effect9"
       is_visible="true"
       lpeversion="1"
       nodesatellites_param="F,0,0,1,0,0,0,1 @ F,0,0,1,0,0,0,1 @ F,0,0,1,0,0,0,1 @ F,0,0,1,0,0,0,1 @ F,0,0,1,0,0,0,1 @ F,0,0,1,0,0,0,1 @ F,0,0,1,0,0,0,1 @ F,0,0,1,0,0,0,1"
       radius="0"
       unit="px"
       method="auto"
       mode="F"
       chamfer_steps="1"
       flexible="false"
       use_knot_distance="true"
       apply_no_radius="true"
       apply_with_radius="true"
       only_selected="false"
       hide_knots="false" /></defs><sodipodi:namedview
     id="namedview160"
     pagecolor="#ffffff"
     bordercolor="#999999"
     borderopacity="1"
     inkscape:showpageshadow="0"
     inkscape:pageopacity="0"
     inkscape:pagecheckerboard="0"
     inkscape:deskcolor="#d1d1d1"
     showgrid="false"
     inkscape:zoom="4"
     inkscape:cx="114.625"
     inkscape:cy="75.875"
     inkscape:window-width="1920"
     inkscape:window-height="1151"
     inkscape:window-x="1920"
     inkscape:window-y="182"
     inkscape:window-maximized="1"
     inkscape:current-layer="g35"
     showguides="true"><sodipodi:guide
       position="153.36524,141.2793"
       orientation="0,-1"
       id="guide9"
       inkscape:locked="false" /><sodipodi:guide
       position="135.88672,67.874994"
       orientation="0,-1"
       id="guide10"
       inkscape:locked="false" /><sodipodi:guide
       position="111.63671,110.75"
       orientation="1,0"
       id="guide11"
       inkscape:locked="false" /><sodipodi:guide
       position="190.18166,111"
       orientation="1,0"
       id="guide12"
       inkscape:locked="false" /></sodipodi:namedview><g
     id="g6"
     transform="translate(0,-0.70605366)"><g
       id="g35"><g
         id="g38"><path
           id="path34"
           style="fill:#336e9e;stroke-linecap:round;stroke-linejoin:round"
           d="M 132.78711 48.881835 A 4.0291106 3.9710987 0 0 0 131.29883 49.377929 A 4.0291106 3.9710987 0 0 0 129.81641 54.799804 L 132.49609 59.389647 L 122.90039 59.389647 C 122.51608 59.389647 122.13668 59.409821 121.76172 59.448241 C 121.38675 59.486661 121.016 59.543181 120.65234 59.618163 C 120.28868 59.693143 119.93048 59.785819 119.58008 59.895507 C 119.22968 60.005194 118.88792 60.131882 118.55273 60.274413 C 118.21755 60.416944 117.89027 60.575512 117.57227 60.749022 C 117.25426 60.922537 116.94536 61.110837 116.64648 61.313476 C 116.34761 61.51611 116.05904 61.733963 115.78125 61.963866 C 115.50346 62.19377 115.23522 62.43512 114.98047 62.690429 C 114.72572 62.945733 114.48366 63.214309 114.25391 63.493163 C 114.02415 63.772017 113.80827 64.061763 113.60547 64.362304 C 113.40267 64.66284 113.21295 64.973582 113.03906 65.293944 C 112.86517 65.614311 112.70552 65.943892 112.5625 66.282226 C 112.41948 66.620555 112.2938 66.968804 112.18359 67.323241 C 112.07339 67.677682 111.97972 68.038537 111.9043 68.407226 C 111.8289 68.77591 111.77111 69.151149 111.73242 69.532226 C 111.69372 69.913298 111.67383 70.300776 111.67383 70.692382 L 111.67383 80.030272 C 111.62573 80.444116 111.59375 80.861866 111.59375 81.286132 L 111.59375 121.64941 C 111.59375 122.03161 111.61314 122.41047 111.65234 122.78418 C 111.69164 123.15789 111.75145 123.52654 111.82812 123.88965 C 111.90482 124.25275 111.99909 124.60957 112.11133 124.95996 C 112.22357 125.31035 112.35205 125.6537 112.49805 125.98926 C 112.64404 126.32481 112.80646 126.65307 112.98438 126.97168 C 113.16225 127.29028 113.35644 127.59987 113.56445 127.89941 C 113.77246 128.19896 113.99615 128.48823 114.23242 128.7666 C 114.46869 129.04497 114.71777 129.3123 114.98047 129.56738 C 115.00327 129.58948 115.02778 129.60993 115.05078 129.63183 C 115.30485 129.88214 115.57128 130.1213 115.84766 130.34668 C 116.12403 130.57206 116.41022 130.78281 116.70703 130.98144 C 117.00385 131.18008 117.30962 131.36606 117.625 131.53613 C 117.94038 131.70621 118.26559 131.86128 118.59766 132.00098 C 118.92972 132.14067 119.27031 132.26457 119.61719 132.37207 C 119.96407 132.47957 120.31792 132.57007 120.67773 132.64355 C 121.03755 132.71705 121.40255 132.77387 121.77344 132.81152 C 122.14432 132.84912 122.52032 132.86816 122.90039 132.86816 L 148.9082 132.86816 L 148.9082 144.62598 L 147.07227 144.62598 C 146.71037 144.62598 146.35413 144.67388 146.01172 144.7666 C 145.66931 144.8593 145.33991 144.9967 145.03516 145.1709 C 144.7304 145.3451 144.4501 145.55741 144.20117 145.80176 C 143.95224 146.0461 143.73549 146.32279 143.56055 146.62598 L 99.697266 146.62598 C 99.346227 146.62586 99.001339 146.71818 98.697266 146.89355 C 98.393292 147.0686 98.140703 147.32051 97.964844 147.62402 C 97.789104 147.92867 97.696808 148.27428 97.697266 148.62598 C 97.697153 148.97702 97.789436 149.32191 97.964844 149.62598 C 98.140704 149.92948 98.393293 150.18139 98.697266 150.35644 C 99.001148 150.53253 99.346048 150.6255 99.697266 150.62598 L 143.79297 150.62598 C 143.97913 150.87809 144.19676 151.10617 144.4375 151.30762 C 144.67824 151.50906 144.94252 151.68266 145.22461 151.82519 C 145.5067 151.96773 145.80502 152.07988 146.11523 152.15527 C 146.42545 152.23067 146.74714 152.26855 147.07227 152.26855 L 154.74414 152.26855 C 155.06926 152.26855 155.39095 152.23065 155.70117 152.15527 C 156.01139 152.07987 156.30971 151.96773 156.5918 151.82519 C 156.87389 151.68266 157.13817 151.50906 157.37891 151.30762 C 157.61965 151.10617 157.83727 150.87809 158.02344 150.62598 L 202.11914 150.62598 C 202.26901 150.62579 202.41839 150.60879 202.56445 150.57519 C 202.71018 150.54169 202.85169 150.49189 202.98633 150.42676 C 203.12115 150.36176 203.24824 150.28183 203.36523 150.18848 C 203.48289 150.09528 203.58968 149.98915 203.68359 149.87207 C 203.77689 149.75508 203.85688 149.62798 203.92188 149.49316 C 203.98646 149.35782 204.03557 149.21565 204.06836 149.06933 C 204.10176 148.92392 204.11884 148.7752 204.11914 148.62598 C 204.11895 148.47611 204.10196 148.32673 204.06836 148.18066 C 204.03556 148.03434 203.98645 147.89217 203.92188 147.75683 C 203.85688 147.62203 203.77694 147.49492 203.68359 147.37793 C 203.58969 147.26085 203.48289 147.15471 203.36523 147.06152 C 203.24824 146.96822 203.12115 146.88824 202.98633 146.82324 C 202.8517 146.75814 202.71018 146.70835 202.56445 146.6748 C 202.41831 146.6419 202.26894 146.62548 202.11914 146.62598 L 158.25586 146.62598 C 158.08091 146.32279 157.86417 146.0461 157.61523 145.80176 C 157.3663 145.55741 157.086 145.3451 156.78125 145.1709 C 156.4765 144.9967 156.1471 144.85935 155.80469 144.7666 C 155.46228 144.6738 155.10604 144.62598 154.74414 144.62598 L 152.9082 144.62598 L 152.9082 132.86816 L 175.39062 132.86816 L 178.68555 138.51269 A 4.0291106 3.9710987 0 0 0 184.1875 139.97558 A 4.0291106 3.9710987 0 0 0 185.66992 134.55176 L 136.80078 50.838866 A 4.0291106 3.9710987 0 0 0 134.35742 48.985351 A 4.0291106 3.9710987 0 0 0 132.78711 48.881835 z M 122.98633 73.899413 L 140.9668 73.899413 L 173.01172 128.79394 L 122.90039 128.79394 C 122.6586 128.79394 122.42028 128.78274 122.18555 128.76074 C 121.95081 128.73874 121.71899 128.70598 121.49219 128.66308 C 121.26538 128.62018 121.04419 128.56758 120.82617 128.50488 C 120.60816 128.44218 120.39391 128.36965 120.18555 128.28808 C 119.97719 128.20648 119.77401 128.11594 119.57617 128.0166 C 119.37833 127.9173 119.18646 127.80846 119 127.69238 C 118.81354 127.57631 118.63319 127.45305 118.45898 127.32129 C 118.28478 127.18953 118.11617 127.04972 117.95508 126.90332 C 117.79404 126.73908 117.63973 126.56769 117.49414 126.38769 C 117.34855 126.2077 117.21083 126.01998 117.08203 125.82519 C 116.95323 125.63041 116.83333 125.42833 116.72266 125.21973 C 116.61198 125.01112 116.51113 124.79472 116.41992 124.57324 C 116.32872 124.35177 116.24815 124.12498 116.17773 123.8916 C 116.10733 123.65822 116.04828 123.41913 116 123.1748 C 115.9517 122.93048 115.9135 122.68107 115.88867 122.42676 C 115.86387 122.17245 115.85156 121.91274 115.85156 121.64941 L 115.85156 81.286132 C 115.85156 81.020954 115.86357 80.760975 115.88867 80.504882 C 115.91377 80.248789 115.95117 79.996981 116 79.750976 C 116.0488 79.504966 116.11041 79.263247 116.18164 79.028319 C 116.25284 78.793396 116.33546 78.565619 116.42773 78.342772 C 116.52003 78.11993 116.6224 77.90215 116.73438 77.692382 C 116.84631 77.482614 116.96732 77.28065 117.09766 77.08496 C 117.22799 76.889269 117.36633 76.701121 117.51367 76.520507 C 117.66102 76.339892 117.81746 76.165512 117.98047 76.000976 C 118.14347 75.836435 118.31291 75.681646 118.49023 75.534179 C 118.66756 75.386711 118.85268 75.247559 119.04297 75.118163 C 119.23326 74.988767 119.42895 74.869114 119.63086 74.758788 C 119.83277 74.648462 120.03977 74.546312 120.25195 74.456054 C 120.46414 74.365794 120.68123 74.286964 120.90234 74.217772 C 121.12346 74.148582 121.34945 74.089117 121.57812 74.041991 C 121.8068 73.994861 122.03851 73.960581 122.27344 73.936522 C 122.50837 73.912462 122.74651 73.899413 122.98633 73.899413 z " /><path
           d="M 150.24414,73.899413 141.7793,59.389647 h -0.004 l 8.43555,14.509766 z"
           style="fill:#336e9e;stroke-linecap:round;stroke-linejoin:round"
           id="path38" /><path
           d="m 183.94141,131.65723 -2.04688,-3.50586 c -0.0391,0.0159 -0.0764,0.0346 -0.11523,0.0508 l 2.04687,3.51953 c 0.0396,-0.0195 0.0759,-0.0445 0.11524,-0.0644 z"
           style="fill:#336e9e;stroke-linecap:round;stroke-linejoin:round"
           id="path37" /><path
           d="m 151.07422,59.389647 8.46484,14.509766 h 19.25586 c 0.23982,0 0.47796,0.01305 0.71289,0.03711 0.23493,0.02406 0.46665,0.05834 0.69531,0.105469 0.2287,0.04713 0.45467,0.10659 0.67579,0.175781 0.22111,0.06919 0.4382,0.148024 0.65039,0.238282 0.21218,0.09026 0.41918,0.192408 0.62109,0.302734 0.20191,0.110326 0.3976,0.229979 0.58789,0.359375 0.19029,0.129396 0.37541,0.268548 0.55274,0.416016 0.17732,0.147467 0.34675,0.302256 0.50976,0.466797 0.16301,0.164537 0.31945,0.338916 0.4668,0.519531 0.14734,0.180614 0.28568,0.368762 0.41601,0.564453 0.13034,0.19569 0.25133,0.397654 0.36328,0.607422 0.11197,0.209768 0.21437,0.427547 0.30665,0.65039 0.0923,0.222847 0.17486,0.450623 0.24609,0.685547 0.0712,0.234928 0.13281,0.476647 0.18164,0.722657 0.0488,0.246006 0.0862,0.497813 0.11133,0.753906 0.0251,0.256093 0.0371,0.516072 0.0371,0.78125 v 37.847658 l 3.61328,6.19531 c 0.0943,-0.26227 0.18351,-0.52668 0.25781,-0.79687 0.0847,-0.30787 0.15528,-0.62069 0.21289,-0.9375 0.0576,-0.31682 0.10147,-0.63851 0.13086,-0.9629 0.0294,-0.32435 0.0449,-0.65183 0.0449,-0.98242 V 81.286132 c 0,-0.275699 -0.0225,-0.546843 -0.043,-0.81836 v -9.77539 c 0,-0.391606 -0.0199,-0.779083 -0.0586,-1.160156 -0.0387,-0.381077 -0.0964,-0.756315 -0.17187,-1.125 -0.0755,-0.368689 -0.16903,-0.729544 -0.2793,-1.083985 -0.11028,-0.354438 -0.23775,-0.702685 -0.38086,-1.041015 -0.14312,-0.338334 -0.30062,-0.667915 -0.47461,-0.988282 -0.17399,-0.320363 -0.36349,-0.631103 -0.56641,-0.93164 -0.20291,-0.300541 -0.42051,-0.590287 -0.65039,-0.869141 -0.22987,-0.278854 -0.47169,-0.547429 -0.72656,-0.802734 -0.25487,-0.255309 -0.52287,-0.496659 -0.80078,-0.726563 -0.27791,-0.229903 -0.56625,-0.447755 -0.86524,-0.65039 -0.29897,-0.202639 -0.60766,-0.390939 -0.92578,-0.564454 -0.31811,-0.173511 -0.64519,-0.332078 -0.98047,-0.474609 -0.33524,-0.142531 -0.67882,-0.269219 -1.02929,-0.378906 -0.35048,-0.109688 -0.70855,-0.202359 -1.07227,-0.277344 -0.36371,-0.07498 -0.73438,-0.1315 -1.10937,-0.169922 -0.375,-0.03842 -0.75436,-0.05859 -1.13867,-0.05859 z"
           style="fill:#336e9e;stroke-linecap:round;stroke-linejoin:round"
           id="path28" /><path
           d="m 70.46289,143.49076 c -0.345249,0 -0.673547,0.0708 -0.972656,0.19726 -0.29911,0.12651 -0.568735,0.30895 -0.794922,0.53516 -0.226187,0.2262 -0.408671,0.49583 -0.535156,0.79492 -0.126485,0.2991 -0.197266,0.62748 -0.197266,0.97266 0,0.34517 0.07078,0.67356 0.197266,0.97265 0.126485,0.2991 0.308969,0.56872 0.535156,0.79492 0.226187,0.22621 0.495812,0.40865 0.794922,0.53516 0.299109,0.12651 0.627407,0.19727 0.972656,0.19727 0.345249,0 0.673547,-0.0708 0.972656,-0.19727 0.29911,-0.12651 0.568735,-0.30895 0.794922,-0.53516 0.226187,-0.2262 0.408672,-0.49582 0.535157,-0.79492 0.126484,-0.29909 0.197265,-0.62748 0.197265,-0.97265 0,-0.34518 -0.07078,-0.67356 -0.197265,-0.97266 -0.126485,-0.29909 -0.30897,-0.56872 -0.535157,-0.79492 -0.226187,-0.22621 -0.495812,-0.40865 -0.794922,-0.53516 -0.299109,-0.12651 -0.627407,-0.19726 -0.972656,-0.19726 z"
           style="fill:#336e9e;stroke-width:0.999999"
           id="path23" /><path
           d="m 81.138671,133.50638 c -0.345174,0 -0.673561,0.0708 -0.972656,0.19727 -0.299094,0.12648 -0.568715,0.30897 -0.794922,0.53515 -0.226206,0.22619 -0.408648,0.49582 -0.535156,0.79493 -0.126508,0.2991 -0.197266,0.6274 -0.197266,0.97265 0,0.34525 0.07076,0.67355 0.197266,0.97266 0.126508,0.29911 0.30895,0.56873 0.535156,0.79492 0.226207,0.22619 0.495828,0.40867 0.794922,0.53516 0.299095,0.12648 0.627482,0.19726 0.972656,0.19726 0.345174,0 0.673562,-0.0708 0.972657,-0.19726 0.299094,-0.12649 0.568715,-0.30897 0.794922,-0.53516 0.226206,-0.22619 0.408647,-0.49581 0.535156,-0.79492 0.126508,-0.29911 0.197265,-0.62741 0.197265,-0.97266 0,-0.34525 -0.07076,-0.67355 -0.197265,-0.97265 -0.126509,-0.29911 -0.30895,-0.56874 -0.535156,-0.79493 -0.226207,-0.22618 -0.495828,-0.40867 -0.794922,-0.53515 -0.299095,-0.12649 -0.627483,-0.19727 -0.972657,-0.19727 z"
           style="fill:#336e9e;stroke-width:0.999999"
           id="path22" /><path
           d="m 91.503906,108.56302 c -0.27615,0 -0.54002,0.0551 -0.779297,0.15625 -0.239278,0.10117 -0.453803,0.24875 -0.634766,0.42969 -0.180963,0.18094 -0.328485,0.39547 -0.429687,0.63477 -0.101203,0.23929 -0.15625,0.50304 -0.15625,0.77929 v 7 h -7 c -0.27625,0 -0.540001,0.0551 -0.779297,0.15625 -0.239296,0.10117 -0.453829,0.24875 -0.634766,0.42969 -0.180937,0.18094 -0.328515,0.39547 -0.429687,0.63477 -0.101173,0.23929 -0.15625,0.50304 -0.15625,0.77929 0,0.27625 0.05508,0.54 0.15625,0.7793 0.101172,0.2393 0.24875,0.45383 0.429687,0.63477 0.180937,0.18093 0.39547,0.32851 0.634766,0.42968 0.239296,0.10117 0.503048,0.15625 0.779297,0.15625 h 7 v 7 c 0,0.27625 0.05505,0.54 0.15625,0.7793 0.101202,0.2393 0.248724,0.45383 0.429687,0.63476 0.180962,0.18094 0.395488,0.32852 0.634766,0.42969 0.239277,0.10117 0.503147,0.15625 0.779297,0.15625 0.27615,0 0.540019,-0.0551 0.779297,-0.15625 0.239277,-0.10117 0.453802,-0.24875 0.634765,-0.42969 0.180962,-0.18093 0.328485,-0.39546 0.429688,-0.63476 0.101202,-0.2393 0.15625,-0.50305 0.15625,-0.7793 v -7 h 7.000004 c 0.27615,0 0.54001,-0.0551 0.77929,-0.15625 0.23928,-0.10117 0.45381,-0.24875 0.63477,-0.42968 0.18096,-0.18094 0.32848,-0.39547 0.42969,-0.63477 0.1012,-0.2393 0.15625,-0.50305 0.15625,-0.7793 0,-0.27625 -0.0551,-0.54 -0.15625,-0.77929 -0.10121,-0.2393 -0.24873,-0.45383 -0.42969,-0.63477 -0.18096,-0.18094 -0.39549,-0.32852 -0.63477,-0.42969 -0.23928,-0.10117 -0.50314,-0.15625 -0.77929,-0.15625 h -7.000004 v -7 c 0,-0.27625 -0.05505,-0.54 -0.15625,-0.77929 -0.101203,-0.2393 -0.248725,-0.45383 -0.429688,-0.63477 -0.180963,-0.18094 -0.395488,-0.32852 -0.634765,-0.42969 -0.239278,-0.10117 -0.503147,-0.15625 -0.779297,-0.15625 z"
           style="fill:#336e9e;stroke-width:0.999999"
           id="path21" /><path
           d="m 78.324218,99.754428 c -0.345249,0 -0.673546,0.0708 -0.972656,0.19726 -0.29911,0.126512 -0.568735,0.308952 -0.794922,0.535162 -0.226187,0.22621 -0.408671,0.49583 -0.535156,0.79492 -0.126485,0.2991 -0.197266,0.62748 -0.197266,0.97266 0,0.34517 0.07078,0.67356 0.197266,0.97266 0.126485,0.29909 0.308969,0.56871 0.535156,0.79492 0.226187,0.2262 0.495812,0.40865 0.794922,0.53515 0.29911,0.12651 0.627407,0.19727 0.972656,0.19727 0.345249,0 0.673547,-0.0708 0.972657,-0.19727 0.299109,-0.1265 0.568734,-0.30895 0.794921,-0.53515 0.226187,-0.22621 0.408672,-0.49583 0.535157,-0.79492 0.126485,-0.2991 0.197265,-0.62749 0.197265,-0.97266 0,-0.34518 -0.07078,-0.67356 -0.197265,-0.97266 -0.126485,-0.29909 -0.30897,-0.56871 -0.535157,-0.79492 -0.226187,-0.22621 -0.495812,-0.40865 -0.794921,-0.535162 -0.29911,-0.1265 -0.627408,-0.19726 -0.972657,-0.19726 z"
           style="fill:#336e9e;stroke-width:0.999999"
           id="path20" /><path
           d="m 200.48633,100.33841 c -0.34525,0 -0.67355,0.0708 -0.97266,0.19727 -0.29911,0.12651 -0.56873,0.30895 -0.79492,0.53516 -0.22619,0.2262 -0.40867,0.49582 -0.53516,0.79492 -0.12648,0.29909 -0.19726,0.62748 -0.19726,0.97265 0,0.34518 0.0708,0.67356 0.19726,0.97266 0.12649,0.29909 0.30897,0.56871 0.53516,0.79492 0.22619,0.22621 0.49581,0.40865 0.79492,0.53516 0.29911,0.12651 0.62741,0.19726 0.97266,0.19726 0.34525,0 0.67355,-0.0708 0.97265,-0.19726 0.29911,-0.12651 0.56874,-0.30895 0.79493,-0.53516 0.22618,-0.22621 0.40867,-0.49583 0.53515,-0.79492 0.12649,-0.2991 0.19727,-0.62748 0.19727,-0.97266 0,-0.34517 -0.0708,-0.67356 -0.19727,-0.97265 -0.12648,-0.2991 -0.30897,-0.56872 -0.53515,-0.79492 -0.22619,-0.22621 -0.49582,-0.40865 -0.79493,-0.53516 -0.2991,-0.12651 -0.6274,-0.19727 -0.97265,-0.19727 z"
           style="fill:#336e9e;stroke-width:0.999999"
           id="path19" /><path
           d="m 208.93164,68.904817 c -0.27625,0 -0.54,0.05505 -0.7793,0.15625 -0.23929,0.101203 -0.45382,0.248725 -0.63476,0.429688 -0.18094,0.180962 -0.32852,0.395488 -0.42969,0.634765 -0.10117,0.239278 -0.15625,0.503148 -0.15625,0.779297 v 7 h -7 c -0.27625,0 -0.54,0.05505 -0.7793,0.15625 -0.23929,0.101203 -0.45382,0.248725 -0.63476,0.429688 -0.18094,0.180962 -0.32852,0.395488 -0.42969,0.634765 -0.10117,0.239278 -0.15625,0.503148 -0.15625,0.779297 0,0.27615 0.0551,0.540019 0.15625,0.779297 0.10117,0.239278 0.24875,0.453803 0.42969,0.634766 0.18094,0.180962 0.39547,0.328484 0.63476,0.429687 0.2393,0.101203 0.50305,0.15625 0.7793,0.15625 h 7 v 7 c 0,0.27615 0.0551,0.540019 0.15625,0.779297 0.10117,0.239278 0.24875,0.453803 0.42969,0.634766 0.18094,0.180962 0.39547,0.328484 0.63476,0.429687 0.2393,0.101203 0.50305,0.15625 0.7793,0.15625 0.27625,0 0.54,-0.05505 0.7793,-0.15625 0.23929,-0.101203 0.45383,-0.248725 0.63476,-0.429687 0.18094,-0.180963 0.32852,-0.395488 0.42969,-0.634766 0.10117,-0.239278 0.15625,-0.503147 0.15625,-0.779297 v -7 h 7 c 0.27625,0 0.54,-0.05505 0.7793,-0.15625 0.23929,-0.101203 0.45383,-0.248725 0.63476,-0.429687 0.18094,-0.180963 0.32852,-0.395488 0.42969,-0.634766 0.10117,-0.239278 0.15625,-0.503147 0.15625,-0.779297 0,-0.276149 -0.0551,-0.540019 -0.15625,-0.779297 -0.10117,-0.239277 -0.24875,-0.453803 -0.42969,-0.634765 -0.18093,-0.180963 -0.39547,-0.328485 -0.63476,-0.429688 -0.2393,-0.101203 -0.50305,-0.15625 -0.7793,-0.15625 h -7 v -7 c 0,-0.276149 -0.0551,-0.540019 -0.15625,-0.779297 -0.10117,-0.239277 -0.24875,-0.453803 -0.42969,-0.634765 -0.18093,-0.180963 -0.39547,-0.328485 -0.63476,-0.429688 -0.2393,-0.101203 -0.50305,-0.15625 -0.7793,-0.15625 z"
           style="fill:#336e9e;stroke-width:0.999999"
           id="path16" /><path
           d="m 229.53711,63.744661 c -0.34525,0 -0.67355,0.07076 -0.97266,0.197266 -0.29911,0.126508 -0.56873,0.30895 -0.79492,0.535156 -0.22619,0.226206 -0.40867,0.495827 -0.53516,0.794922 -0.12648,0.299095 -0.19726,0.627482 -0.19726,0.972656 0,0.345175 0.0708,0.673561 0.19726,0.972656 0.12649,0.299095 0.30897,0.568716 0.53516,0.794922 0.22619,0.226206 0.49581,0.408649 0.79492,0.535156 0.29911,0.126508 0.62741,0.197266 0.97266,0.197266 0.34525,0 0.67355,-0.07076 0.97266,-0.197266 0.2991,-0.126507 0.56873,-0.30895 0.79492,-0.535156 0.22618,-0.226206 0.40867,-0.495827 0.53515,-0.794922 0.12649,-0.299095 0.19727,-0.627481 0.19727,-0.972656 0,-0.345174 -0.0708,-0.673561 -0.19727,-0.972656 -0.12648,-0.299095 -0.30897,-0.568716 -0.53515,-0.794922 -0.22619,-0.226206 -0.49582,-0.408648 -0.79492,-0.535156 -0.29911,-0.126508 -0.62741,-0.197266 -0.97266,-0.197266 z"
           style="fill:#336e9e;stroke-width:0.999999"
           id="path14" /><path
           d="m 210.55664,52.90677 c -0.34525,0 -0.67355,0.07076 -0.97266,0.197266 -0.2991,0.126508 -0.56873,0.30895 -0.79492,0.535156 -0.22618,0.226207 -0.40867,0.495827 -0.53515,0.794922 -0.12649,0.299095 -0.19727,0.627482 -0.19727,0.972656 0,0.345175 0.0708,0.673562 0.19727,0.972657 0.12648,0.299095 0.30897,0.568716 0.53515,0.794922 0.22619,0.226206 0.49582,0.408648 0.79492,0.535156 0.29911,0.126508 0.62741,0.197265 0.97266,0.197265 0.34525,0 0.67355,-0.07076 0.97266,-0.197265 0.29911,-0.126508 0.56873,-0.30895 0.79492,-0.535156 0.22619,-0.226206 0.40867,-0.495827 0.53515,-0.794922 0.12649,-0.299095 0.19727,-0.627482 0.19727,-0.972657 0,-0.345174 -0.0708,-0.673561 -0.19727,-0.972656 -0.12648,-0.299095 -0.30896,-0.568715 -0.53515,-0.794922 -0.22619,-0.226206 -0.49581,-0.408648 -0.79492,-0.535156 -0.29911,-0.126508 -0.62741,-0.197266 -0.97266,-0.197266 z"
           style="fill:#336e9e;stroke-width:0.999999"
           id="path13" /><path
           style="color:#000000;fill:#336e9e;stroke-linecap:round;stroke-linejoin:round;-inkscape-stroke:none"
           d="m 128.77541,87.780727 a 2,2 0 0 0 -1.42969,0.548828 2,2 0 0 0 -0.0703,2.828125 l 10.49805,11.03711 -10.50586,11.17578 a 2,2 0 0 0 0.0859,2.82617 2,2 0 0 0 2.82813,-0.0859 l 11.80078,-12.55274 a 2.0002,2.0002 0 0 0 -0.008,-2.75 L 130.17385,88.401821 a 2,2 0 0 0 -1.39844,-0.621094 z"
           id="path30" /><path
           style="color:#000000;fill:#336e9e;stroke-linecap:round;stroke-linejoin:round;-inkscape-stroke:none"
           d="m 144.52599,112.73971 a 2,2 0 0 0 -2,2 2,2 0 0 0 2,2 h 14.0918 a 2,2 0 0 0 2,-2 2,2 0 0 0 -2,-2 z"
           id="path31" /></g></g></g></svg>
