<svg xmlns="http://www.w3.org/2000/svg" xml:space="preserve" width="300" height="200" fill="none"><path d="m196.916 149.94-2.248-3.915H107.17a7.212 7.212 0 0 1-5.037-2.014 7.259 7.259 0 0 1-1.533-2.327 7.462 7.462 0 0 1-.422-1.397 7.858 7.858 0 0 1-.147-1.523V72.205c0-.53.051-1.042.149-1.533a7.302 7.302 0 0 1 1.979-3.746 7.166 7.166 0 0 1 2.273-1.545 7.012 7.012 0 0 1 2.738-.557h40.857l-8.523-14.838H107.17a11.305 11.305 0 0 0-3.344.508 11.192 11.192 0 0 0-4.615 2.797 11.394 11.394 0 0 0-1.377 1.668c-.203.3-.39.61-.564.93-.174.319-.334.645-.477.982a11.192 11.192 0 0 0-.828 3.23c-.039.378-.059.761-.059 1.149v2.992c-.019.264-.04.528-.04.797v2.686c-.018.25-.04.498-.04.752v2.841a10.84 10.84 0 0 0-.045.887v66.559a10.917 10.917 0 0 0 1.692 5.84 11.248 11.248 0 0 0 1.504 1.9c.284.29.585.564.9.822a11.238 11.238 0 0 0 6.262 2.652c.34.032.683.047 1.03.047h88.429c.348 0 .691-.015 1.03-.046.098-.01.192-.028.288-.04zM148.73 49.986l8.522 14.838h38.346a6.99 6.99 0 0 1 3.949 1.219 7.165 7.165 0 0 1 1.945 1.965c.26.39.486.81.67 1.256.185.445.328.916.426 1.408.097.491.148 1.003.148 1.533v66.559c0 .526-.052 1.036-.148 1.525a7.465 7.465 0 0 1-.42 1.398c-.101.245-.242.463-.367.692l2.219 3.865c.197-.214.397-.426.578-.654a11.239 11.239 0 0 0 1.289-2.05 11.016 11.016 0 0 0 1.1-4.776V72.205c0-.299-.022-.593-.046-.887v-2.841c0-.254-.021-.502-.039-.752v-2.686c0-.269-.022-.533-.04-.797V61.25a11.293 11.293 0 0 0-.508-3.344 11.196 11.196 0 0 0-2.797-4.615 11.393 11.393 0 0 0-1.668-1.377 11.27 11.27 0 0 0-4.026-1.7 11.205 11.205 0 0 0-2.265-.228z" style="fill:#336e9e;stroke-linecap:round;stroke-linejoin:round"/><path d="M227.714 87.05a2.5 2.5 0 1 0 0 5 2.5 2.5 0 0 0 0-5zM74.59 149.44a2.5 2.5 0 1 0 0 5 2.5 2.5 0 0 0 0-5zM59.607 138.603a2.5 2.5 0 1 0 0 5 2.5 2.5 0 0 0 0-5zM74.213 116.44a2 2 0 0 0-2 2v7h-7a2 2 0 1 0 0 4h7v7a2 2 0 1 0 4 0v-7h7a2 2 0 1 0 0-4h-7v-7a2 2 0 0 0-2-2zM84.657 102.006a2.5 2.5 0 1 0 0 5 2.5 2.5 0 0 0 0-5zM219.245 77.196a2.5 2.5 0 1 0 0 5 2.5 2.5 0 0 0 0-5zM231.893 51.39a2 2 0 0 0-2 2v7h-7a2 2 0 1 0 0 4h7v7a2 2 0 1 0 4 0v-7h7a2 2 0 1 0 0-4h-7v-7a2 2 0 0 0-2-2zM216.43 43.444a2.5 2.5 0 1 0 0 5 2.5 2.5 0 0 0 0-5z" style="fill:#336e9e"/><path d="m115.223 82.755 22.465 23.176-22.465 23.446M141.008 128.64h25.442" style="stroke:#336e9e;stroke-width:8;stroke-linecap:round;stroke-linejoin:round;stroke-dasharray:none"/><path d="M129.611 35.055a4 4 0 0 0-3.037.392 4 4 0 0 0-1.476 5.461l69.164 120.408a4 4 0 0 0 5.46 1.477 4 4 0 0 0 1.477-5.461L132.035 36.924a4 4 0 0 0-2.424-1.87z" style="color:#000;fill:#336e9e;stroke-linecap:round;stroke-linejoin:round;-inkscape-stroke:none"/></svg>