<svg xmlns="http://www.w3.org/2000/svg" xml:space="preserve" width="300" height="200" fill="none"><path d="M186.064 36.584c-.567 0-1.075.2-1.529.601-.453.384-.681.853-.681 1.41 0 .244.066.523.195.837l4.13 8.882-1.58 3.422a2.157 2.157 0 0 0-.218.914c0 .54.202.994.607 1.36.421.383.9.574 1.434.574.373 0 .713-.104 1.021-.313.324-.209.584-.531.778-.966l6.44-13.873a2.05 2.05 0 0 0 .193-.862c0-.54-.21-1.001-.631-1.385-.421-.383-.9-.574-1.434-.574-.373 0-.713.104-1.021.313-.308.209-.55.531-.729.967l-2.55 6.007-2.577-6.007c-.178-.436-.436-.758-.777-.967a1.83 1.83 0 0 0-1.07-.34zM163.98 52.898c-.584 0-1.096.22-1.535.66-.42.44-.63.953-.63 1.54 0 .586.228 1.11.685 1.568l3.123 3.08-3.396 3.412c-.457.459-.686.98-.686 1.567 0 .568.22 1.073.658 1.513.439.44.949.66 1.533.66.603 0 1.143-.247 1.618-.742l3.177-3.355 3.205 3.355c.475.495 1.015.742 1.618.742.585 0 1.095-.22 1.533-.66.439-.44.658-.945.658-1.513 0-.587-.229-1.108-.686-1.567l-3.396-3.412 3.123-3.08c.457-.477.686-1.009.686-1.596 0-.568-.22-1.062-.659-1.484-.42-.44-.921-.66-1.505-.66-.603 0-1.143.247-1.618.742l-2.959 2.998-2.931-2.998c-.457-.513-.995-.77-1.616-.77zm-63.343 13.1a2.526 2.526 0 1 0 0 5.052 2.526 2.526 0 0 0 0-5.052zm87.91.568c-1.667 0-2.5.662-2.5 1.983 0 1.341.833 2.011 2.5 2.011h5.031l-6.56 6.862c-.521.569-.782 1.19-.782 1.86 0 .63.228 1.167.686 1.614.458.447 1.052.67 1.781.67h9.844c1.667 0 2.5-.67 2.5-2.011 0-1.321-.833-1.98-2.5-1.98h-5.438l6.594-6.891c.521-.57.783-1.18.783-1.83 0-.63-.231-1.169-.69-1.616-.457-.447-1.05-.672-1.778-.672zm-39.404.778a2.5 2.5 0 0 0-1.252.336L108.4 90.478l-.003.004a2.485 2.485 0 0 0-.912.912h-.002v.002l-.002.002-9.46 16.477c-1.272 2.215 1.205 4.687 3.417 3.41l5.711-3.297v30.256a2.5 2.5 0 0 0 1.254 2.168l39.49 22.705c.068.021.136.04.205.055a2.5 2.5 0 0 0 .84.223c.108.014.217.021.326.021a2.5 2.5 0 0 0 1.125-.3l.002-.003 39.409-22.752a2.5 2.5 0 0 0 1.25-2.164v-25.843l7.482-4.32a2.5 2.5 0 0 0 .834-3.546l-8.732-13.18a2.468 2.468 0 0 0-.108-.107 2.5 2.5 0 0 0-.457-.46 2.494 2.494 0 0 0-.191-.155l-.074-.059-39.41-22.845a2.5 2.5 0 0 0-1.252-.338zm-63.905 4.623a2 2 0 0 0-2 2v7h-7a2 2 0 1 0 0 4h7v7a2 2 0 1 0 4 0v-7h7a2 2 0 1 0 0-4h-7v-7a2 2 0 0 0-2-2zm63.9.765 34.42 19.953-34.417 19.872-.006-.004-.07-39.778zm-43.49 5.174a2.526 2.526 0 1 0 .001 5.052 2.526 2.526 0 0 0 0-5.052zm82.118 18.125 5.964 9.002-36.34 20.979-4.937-9.594zm-75.616.944 34.49 19.912v39.742l-34.49-19.832v-33.205Zm-34.267 4.093a2.526 2.526 0 1 0 0 5.052 2.526 2.526 0 0 0 0-5.052zM186.05 115.24v21.514l-34.41 19.867v-30.855l2.505 4.869a2.5 2.5 0 0 0 3.473 1.021zm11.89 14.008a2.526 2.526 0 1 0-.003 5.052 2.526 2.526 0 0 0 .003-5.052zm.125 17.43a2.526 2.526 0 1 0 .001 5.051 2.526 2.526 0 0 0 0-5.051zm16.696-6.223a2 2 0 0 0-2 2v7h-7a2 2 0 1 0 0 4h7v7a2 2 0 1 0 4 0v-7h7a2 2 0 1 0 0-4h-7v-7a2 2 0 0 0-2-2zm-28.075 14.307a2.526 2.526 0 1 0 .002 5.051 2.526 2.526 0 0 0-.001-5.051z" style="fill:#336e9e"/></svg>