<svg width="300" height="200" viewBox="0 0 300 200" fill="none" xmlns="http://www.w3.org/2000/svg">
<path d="M216 41C216 39.8954 215.105 39 214 39C212.895 39 212 39.8954 212 41V48H205C203.895 48 203 48.8954 203 50C203 51.1046 203.895 52 205 52H212V59C212 60.1046 212.895 61 214 61C215.105 61 216 60.1046 216 59V52H223C224.105 52 225 51.1046 225 50C225 48.8954 224.105 48 223 48H216V41Z" fill="#336E9E"/>
<path d="M69 82C69 80.8954 68.1046 80 67 80C65.8954 80 65 80.8954 65 82V89H58C56.8954 89 56 89.8954 56 91C56 92.1046 56.8954 93 58 93H65V100C65 101.105 65.8954 102 67 102C68.1046 102 69 101.105 69 100V93H76C77.1046 93 78 92.1046 78 91C78 89.8954 77.1046 89 76 89H69V82Z" fill="#336E9E"/>
<circle cx="206.5" cy="34.5" r="2.5" fill="#336E9E"/>
<circle cx="198.5" cy="42.5" r="2.5" fill="#336E9E"/>
<circle cx="78.5" cy="104.5" r="2.5" fill="#336E9E"/>
<circle cx="96.5" cy="165.5" r="2.5" fill="#336E9E"/>
<circle cx="85.5" cy="158.5" r="2.5" fill="#336E9E"/>
<rect x="158" y="103" width="4" height="28" rx="2" transform="rotate(90 158 103)" fill="#336E9E"/>
<rect x="158" y="125" width="4" height="29" rx="2" transform="rotate(90 158 125)" fill="#336E9E"/>
<rect x="172" y="83" width="4" height="42" rx="2" transform="rotate(90 172 83)" fill="#336E9E"/>
<rect x="185" y="146" width="4" height="56" rx="2" transform="rotate(90 185 146)" fill="#336E9E"/>
<path d="M113 57H182C186.101 57 189.625 59.4682 191.168 63H186.472C185.374 61.7725 183.777 61 182 61H113C109.686 61 107 63.6863 107 67V147C107 148.777 107.773 150.374 109 151.472V156.168C105.468 154.625 103 151.101 103 147V67C103 61.4771 107.477 57 113 57Z" fill="#336E9E"/>
<path fill-rule="evenodd" clip-rule="evenodd" d="M103 47H172C176.101 47 179.625 49.4682 181.168 53H176.472C175.374 51.7725 173.777 51 172 51H103C99.6863 51 97 53.6863 97 57V137C97 138.777 97.7725 140.374 99 141.472V146.168C95.4682 144.625 93 141.101 93 137V57C93 51.4771 97.4772 47 103 47Z" fill="#336E9E"/>
<circle cx="78.5" cy="104.5" r="2.5" fill="#336E9E"/>
<path d="M209 34.5C209 35.8807 207.881 37 206.5 37C205.119 37 204 35.8807 204 34.5C204 33.1193 205.119 32 206.5 32C207.881 32 209 33.1193 209 34.5Z" fill="#336E9E"/>
<path d="M216 41C216 39.8954 215.105 39 214 39C212.895 39 212 39.8954 212 41V48H205C203.895 48 203 48.8954 203 50C203 51.1046 203.895 52 205 52H212V59C212 60.1046 212.895 61 214 61C215.105 61 216 60.1046 216 59V52H223C224.105 52 225 51.1046 225 50C225 48.8954 224.105 48 223 48H216V41Z" fill="#336E9E"/>
<path d="M67 80C68.1046 80 69 80.8954 69 82V89H76C77.1046 89 78 89.8954 78 91C78 92.1046 77.1046 93 76 93H69V100C69 101.105 68.1046 102 67 102C65.8954 102 65 101.105 65 100V93H58C56.8954 93 56 92.1046 56 91C56 89.8954 56.8954 89 58 89H65V82C65 80.8954 65.8954 80 67 80Z" fill="#336E9E"/>
<path d="M198.5 45C199.881 45 201 43.8807 201 42.5C201 41.1193 199.881 40 198.5 40C197.119 40 196 41.1193 196 42.5C196 43.8807 197.119 45 198.5 45Z" fill="#336E9E"/>
<path d="M99 165.5C99 166.881 97.8807 168 96.5 168C95.1193 168 94 166.881 94 165.5C94 164.119 95.1193 163 96.5 163C97.8807 163 99 164.119 99 165.5Z" fill="#336E9E"/>
<path d="M85.5 161C86.8807 161 88 159.881 88 158.5C88 157.119 86.8807 156 85.5 156C84.1193 156 83 157.119 83 158.5C83 159.881 84.1193 161 85.5 161Z" fill="#336E9E"/>
<path fill-rule="evenodd" clip-rule="evenodd" d="M209.792 135.253C209.794 135.252 209.796 135.25 209.798 135.249C210.323 134.81 210.835 134.349 211.334 133.864C211.429 133.772 211.523 133.679 211.617 133.585C211.98 133.222 212.331 132.851 212.669 132.473C213.127 131.961 213.563 131.436 213.975 130.899C213.982 130.889 213.99 130.88 213.997 130.871L235.343 152.217L231.05 156.511L209.792 135.253ZM238.172 149.388C239.734 150.951 239.734 153.483 238.172 155.045L233.878 159.339C233.876 159.341 233.875 159.342 233.873 159.344C232.312 160.9 229.785 160.9 228.224 159.342C228.223 159.341 228.222 159.34 228.221 159.339L206.501 137.608C206.498 137.609 206.496 137.61 206.494 137.612C205.347 138.308 204.16 138.912 202.942 139.423C202.938 139.425 202.934 139.427 202.93 139.429C193.06 143.569 181.242 141.621 173.206 133.585C162.599 122.978 162.599 105.781 173.206 95.1735C183.813 84.5665 201.01 84.5665 211.617 95.1735C219.364 102.92 221.453 114.181 217.885 123.823C217.881 123.833 217.878 123.843 217.874 123.852C217.418 125.08 216.87 126.282 216.23 127.447C216.224 127.458 216.218 127.469 216.212 127.48L238.172 149.388ZM176.407 130.384C185.246 139.223 199.577 139.223 208.416 130.384C217.255 121.545 217.255 107.214 208.416 98.3744C199.577 89.5352 185.246 89.5352 176.407 98.3744C167.567 107.214 167.567 121.545 176.407 130.384Z" fill="#336E9E"/>
<path d="M192 67H123C117.477 67 113 71.4771 113 77V157C113 162.523 117.477 167 123 167H192C197.523 167 202 162.523 202 157V143.799C200.693 144.291 199.355 144.679 198 144.962V157C198 160.314 195.314 163 192 163H123C119.686 163 117 160.314 117 157V77C117 73.6863 119.686 71 123 71H192C195.314 71 198 73.6863 198 77V83.7962C199.355 84.0798 200.693 84.4677 202 84.9599V77C202 71.4772 197.523 67 192 67Z" fill="#336E9E"/>
<rect x="158" y="103" width="4" height="28" rx="2" transform="rotate(90 158 103)" fill="#336E9E"/>
<rect x="158" y="125" width="4" height="29" rx="2" transform="rotate(90 158 125)" fill="#336E9E"/>
<rect x="172" y="83" width="4" height="42" rx="2" transform="rotate(90 172 83)" fill="#336E9E"/>
<rect x="185" y="146" width="4" height="56" rx="2" transform="rotate(90 185 146)" fill="#336E9E"/>
<path fill-rule="evenodd" clip-rule="evenodd" d="M191.5 103C184.397 103 180.792 109.148 182.412 114.412C182.737 115.468 182.144 116.587 181.088 116.912C180.033 117.236 178.914 116.644 178.589 115.588C176.208 107.852 181.603 99 191.5 99C192.605 99 193.5 99.8954 193.5 101C193.5 102.105 192.605 103 191.5 103Z" fill="#336E9E"/>
</svg>
