<?xml version="1.0" encoding="UTF-8" standalone="no"?>
<!-- Generator: Adobe Illustrator 21.0.0, SVG Export Plug-In . SVG Version: 6.00 Build 0)  -->

<svg
   xmlns:dc="http://purl.org/dc/elements/1.1/"
   xmlns:cc="http://creativecommons.org/ns#"
   xmlns:rdf="http://www.w3.org/1999/02/22-rdf-syntax-ns#"
   xmlns:svg="http://www.w3.org/2000/svg"
   xmlns="http://www.w3.org/2000/svg"
   xmlns:sodipodi="http://sodipodi.sourceforge.net/DTD/sodipodi-0.dtd"
   xmlns:inkscape="http://www.inkscape.org/namespaces/inkscape"
   version="1.1"
   id="Layer_1"
   x="0px"
   y="0px"
   viewBox="0 0 22 22"
   style="enable-background:new 0 0 22 22;"
   xml:space="preserve"
   sodipodi:docname="Notebook_dark.svg"
   inkscape:version="0.92.2 5c3e80d, 2017-08-06"><metadata
     id="metadata4027"><rdf:RDF><cc:Work
         rdf:about=""><dc:format>image/svg+xml</dc:format><dc:type
           rdf:resource="http://purl.org/dc/dcmitype/StillImage" /><dc:title></dc:title></cc:Work></rdf:RDF></metadata><defs
     id="defs4025" /><sodipodi:namedview
     pagecolor="#ffffff"
     bordercolor="#666666"
     borderopacity="1"
     objecttolerance="10"
     gridtolerance="10"
     guidetolerance="10"
     inkscape:pageopacity="0"
     inkscape:pageshadow="2"
     inkscape:window-width="1280"
     inkscape:window-height="755"
     id="namedview4023"
     showgrid="false"
     inkscape:zoom="24.636364"
     inkscape:cx="11"
     inkscape:cy="11"
     inkscape:window-x="0"
     inkscape:window-y="1"
     inkscape:window-maximized="1"
     inkscape:current-layer="Layer_1" /><style
     type="text/css"
     id="style3883">
	.st0{fill:none;stroke:#FFFFFF;stroke-width:1.4;stroke-miterlimit:10;}
	.st1{fill:#EF6C00;}
	.st2{display:none;}
	.st3{display:inline;fill:none;stroke:#9E9E9E;stroke-width:2.000000e-02;stroke-miterlimit:10;}
</style><path
     class="st0"
     d="M9.1,17.1"
     id="path3885" /><path
     class="st0"
     d="M9.1,2.8"
     id="path3887" /><path
     class="st0"
     d="M8.5,19.2"
     id="path3889" /><path
     class="st0"
     d="M8.5,1.8"
     id="path3891" /><path
     class="st1"
     d="M18.7,3.3v15.4H3.3V3.3H18.7 M20.2,1.8H1.8v18.3h18.3l0,0L20.2,1.8L20.2,1.8z"
     id="path3893" /><g
     id="g3897"><polygon
       class="st1"
       points="16.5,16.5 11.1,12.2 5.5,16.5 5.5,5.5 16.5,5.5  "
       id="polygon3895" /></g><g
     id="grid"
     class="st2"><line
       class="st3"
       x1="11"
       y1="0"
       x2="11"
       y2="22"
       id="line3899" /><path
       class="st3"
       d="M21.5,11"
       id="path3901" /><path
       class="st3"
       d="M0.4,11"
       id="path3903" /><line
       class="st3"
       x1="0"
       y1="22"
       x2="22"
       y2="0"
       id="line3905" /><line
       class="st3"
       x1="11"
       y1="0"
       x2="22"
       y2="11"
       id="line3907" /><line
       class="st3"
       x1="0"
       y1="11"
       x2="11"
       y2="22"
       id="line3909" /><line
       class="st3"
       x1="22"
       y1="11"
       x2="11"
       y2="22"
       id="line3911" /><line
       class="st3"
       x1="11"
       y1="0"
       x2="0"
       y2="11"
       id="line3913" /><line
       class="st3"
       x1="14.3"
       y1="0"
       x2="14.3"
       y2="22"
       id="line3915" /><line
       class="st3"
       x1="7.7"
       y1="0"
       x2="7.7"
       y2="22"
       id="line3917" /><line
       class="st3"
       x1="3.3"
       y1="0"
       x2="3.3"
       y2="22"
       id="line3919" /><line
       class="st3"
       x1="18.7"
       y1="0"
       x2="18.7"
       y2="22"
       id="line3921" /><line
       class="st3"
       x1="22"
       y1="11"
       x2="0"
       y2="11"
       id="line3923" /><line
       class="st3"
       x1="22"
       y1="14.3"
       x2="0"
       y2="14.3"
       id="line3925" /><line
       class="st3"
       x1="22"
       y1="7.7"
       x2="0"
       y2="7.7"
       id="line3927" /><line
       class="st3"
       x1="22"
       y1="3.3"
       x2="0"
       y2="3.3"
       id="line3929" /><line
       class="st3"
       x1="22"
       y1="18.7"
       x2="0"
       y2="18.7"
       id="line3931" /><line
       class="st3"
       x1="2.2"
       y1="0"
       x2="2.2"
       y2="22"
       id="line3933" /><line
       class="st3"
       x1="19.8"
       y1="0"
       x2="19.8"
       y2="22"
       id="line3935" /><line
       class="st3"
       x1="0"
       y1="19.8"
       x2="22"
       y2="19.8"
       id="line3937" /><line
       class="st3"
       x1="0"
       y1="2.2"
       x2="22"
       y2="2.2"
       id="line3939" /><line
       class="st3"
       x1="17.6"
       y1="0"
       x2="17.6"
       y2="22"
       id="line3941" /><line
       class="st3"
       x1="11"
       y1="1.6"
       x2="20.3"
       y2="11"
       id="line3943" /><line
       class="st3"
       x1="1.6"
       y1="11"
       x2="11"
       y2="20.3"
       id="line3945" /><line
       class="st3"
       x1="20.3"
       y1="11"
       x2="11"
       y2="20.3"
       id="line3947" /><line
       class="st3"
       x1="11"
       y1="1.6"
       x2="1.6"
       y2="11"
       id="line3949" /><line
       class="st3"
       x1="0"
       y1="0"
       x2="22"
       y2="22"
       id="line3951" /><line
       class="st3"
       x1="6.6"
       y1="0"
       x2="6.6"
       y2="22"
       id="line3953" /><line
       class="st3"
       x1="15.4"
       y1="0"
       x2="15.4"
       y2="22"
       id="line3955" /><line
       class="st3"
       x1="0"
       y1="15.4"
       x2="22"
       y2="15.4"
       id="line3957" /><line
       class="st3"
       x1="0"
       y1="6.6"
       x2="22"
       y2="6.6"
       id="line3959" /><line
       class="st3"
       x1="20.9"
       y1="22"
       x2="0"
       y2="1.1"
       id="line3961" /><line
       class="st3"
       x1="1.1"
       y1="0"
       x2="22"
       y2="20.9"
       id="line3963" /><path
       class="st3"
       d="M22,22"
       id="path3965" /><path
       class="st3"
       d="M0,0"
       id="path3967" /><line
       class="st3"
       x1="20.9"
       y1="22"
       x2="0"
       y2="1.1"
       id="line3969" /><line
       class="st3"
       x1="1.1"
       y1="0"
       x2="22"
       y2="20.9"
       id="line3971" /><line
       class="st3"
       x1="0"
       y1="20.9"
       x2="20.9"
       y2="0"
       id="line3973" /><line
       class="st3"
       x1="22"
       y1="1.1"
       x2="1.1"
       y2="22"
       id="line3975" /><line
       class="st3"
       x1="4.4"
       y1="0"
       x2="4.4"
       y2="22"
       id="line3977" /><line
       class="st3"
       x1="22"
       y1="17.6"
       x2="0"
       y2="17.6"
       id="line3979" /><line
       class="st3"
       x1="22"
       y1="4.4"
       x2="0"
       y2="4.4"
       id="line3981" /><rect
       x="7.9"
       y="7.9"
       transform="matrix(0.7071 -0.7071 0.7071 0.7071 -4.5549 11.0015)"
       class="st3"
       width="6.2"
       height="6.2"
       id="rect3983" /><line
       class="st3"
       x1="0"
       y1="16.5"
       x2="22"
       y2="16.5"
       id="line3985" /><line
       class="st3"
       x1="16.5"
       y1="22"
       x2="16.5"
       y2="0"
       id="line3987" /><line
       class="st3"
       x1="5.5"
       y1="22"
       x2="5.5"
       y2="0"
       id="line3989" /><line
       class="st3"
       x1="22"
       y1="5.5"
       x2="0"
       y2="5.5"
       id="line3991" /><line
       class="st3"
       x1="12.1"
       y1="0"
       x2="12.1"
       y2="22"
       id="line3993" /><line
       class="st3"
       x1="13.2"
       y1="0"
       x2="13.2"
       y2="22"
       id="line3995" /><line
       class="st3"
       x1="8.8"
       y1="22"
       x2="8.8"
       y2="0"
       id="line3997" /><line
       class="st3"
       x1="9.9"
       y1="22"
       x2="9.9"
       y2="0"
       id="line3999" /><line
       class="st3"
       x1="0"
       y1="7.7"
       x2="22"
       y2="7.7"
       id="line4001" /><line
       class="st3"
       x1="0"
       y1="14.3"
       x2="22"
       y2="14.3"
       id="line4003" /><line
       class="st3"
       x1="0"
       y1="9.9"
       x2="22"
       y2="9.9"
       id="line4005" /><line
       class="st3"
       x1="0"
       y1="8.8"
       x2="22"
       y2="8.8"
       id="line4007" /><line
       class="st3"
       x1="22"
       y1="13.2"
       x2="0"
       y2="13.2"
       id="line4009" /><line
       class="st3"
       x1="22"
       y1="12.1"
       x2="0"
       y2="12.1"
       id="line4011" /><line
       class="st3"
       x1="1.1"
       y1="0"
       x2="1.1"
       y2="22"
       id="line4013" /><line
       class="st3"
       x1="20.9"
       y1="0"
       x2="20.9"
       y2="22"
       id="line4015" /><line
       class="st3"
       x1="0"
       y1="1.1"
       x2="22"
       y2="1.1"
       id="line4017" /><line
       class="st3"
       x1="0"
       y1="20.9"
       x2="22"
       y2="20.9"
       id="line4019" /></g><path
     style="stroke-width:0.04059041"
     d="M 5.5284133,10.996398 V 5.5365314 h 5.4797047 5.479705 v 5.4643796 c 0,4.365977 -0.0102,5.456264 -0.05074,5.424004 -0.02791,-0.02221 -1.227049,-0.976745 -2.664763,-2.121197 -1.437714,-1.144451 -2.636673,-2.0829 -2.664354,-2.085442 -0.0423,-0.0039 -1.059927,0.768358 -5.1427487,3.90266 l -0.436806,0.335328 z"
     id="path4029"
     inkscape:connector-curvature="0" /><path
     style="stroke-width:0.04059041"
     d="M 1.8346863,10.935055 V 1.802214 h 9.1797697 9.179771 l -0.02656,3.2776753 c -0.01461,1.8027214 -0.0386,5.9124997 -0.05332,9.1328417 l -0.02675,5.855166 H 10.961139 1.8346863 Z M 18.710252,11.006089 18.7,3.2837638 10.99797,3.2735114 3.295941,3.2632589 v 7.7325771 7.732577 h 7.712282 7.712281 z"
     id="path4031"
     inkscape:connector-curvature="0" /></svg>