<svg width="300" height="200" viewBox="0 0 300 200" fill="none" xmlns="http://www.w3.org/2000/svg">
<path d="M142 50C142 48.8954 141.105 48 140 48C138.895 48 138 48.8954 138 50V57H131C129.895 57 129 57.8954 129 59C129 60.1046 129.895 61 131 61H138V68C138 69.1046 138.895 70 140 70C141.105 70 142 69.1046 142 68V61H149C150.105 61 151 60.1046 151 59C151 57.8954 150.105 57 149 57H142V50Z" fill="#336E9E"/>
<path d="M78 113C79.1046 113 80 113.895 80 115V122H87C88.1046 122 89 122.895 89 124C89 125.105 88.1046 126 87 126H80V133C80 134.105 79.1046 135 78 135C76.8954 135 76 134.105 76 133V126H69C67.8954 126 67 125.105 67 124C67 122.895 67.8954 122 69 122H76V115C76 113.895 76.8954 113 78 113Z" fill="#336E9E"/>
<path d="M211 72C212.105 72 213 72.8954 213 74V81H220C221.105 81 222 81.8954 222 83C222 84.1046 221.105 85 220 85H213V92C213 93.1046 212.105 94 211 94C209.895 94 209 93.1046 209 92V85H202C200.895 85 200 84.1046 200 83C200 81.8954 200.895 81 202 81H209V74C209 72.8954 209.895 72 211 72Z" fill="#336E9E"/>
<path d="M103 144V64H99V144C99 148.418 102.582 152 107 152H224V148H107C104.791 148 103 146.209 103 144Z" fill="#336E9E"/>
<path d="M124 93C122.895 93 122 93.8954 122 95V133C122 134.105 122.895 135 124 135H139C140.105 135 141 134.105 141 133V95C141 93.8954 140.105 93 139 93H124Z" fill="#336E9E"/>
<path d="M180 109C180 107.895 180.895 107 182 107H198C199.105 107 200 107.895 200 109V133C200 134.105 199.105 135 198 135H182C180.895 135 180 134.105 180 133V109Z" fill="#336E9E"/>
<path d="M153 73C151.895 73 151 73.8954 151 75V133C151 134.105 151.895 135 153 135H169C170.105 135 171 134.105 171 133V75C171 73.8954 170.105 73 169 73H153Z" fill="#336E9E"/>
<path d="M222.5 96C223.881 96 225 94.8807 225 93.5C225 92.1193 223.881 91 222.5 91C221.119 91 220 92.1193 220 93.5C220 94.8807 221.119 96 222.5 96Z" fill="#336E9E"/>
<path d="M122 66.5C122 67.8807 120.881 69 119.5 69C118.119 69 117 67.8807 117 66.5C117 65.1193 118.119 64 119.5 64C120.881 64 122 65.1193 122 66.5Z" fill="#336E9E"/>
<path d="M130.5 79C131.881 79 133 77.8807 133 76.5C133 75.1193 131.881 74 130.5 74C129.119 74 128 75.1193 128 76.5C128 77.8807 129.119 79 130.5 79Z" fill="#336E9E"/>
<path d="M93 112.5C93 113.881 91.8807 115 90.5 115C89.1193 115 88 113.881 88 112.5C88 111.119 89.1193 110 90.5 110C91.8807 110 93 111.119 93 112.5Z" fill="#336E9E"/>
<path d="M231.5 85C232.881 85 234 83.8807 234 82.5C234 81.1193 232.881 80 231.5 80C230.119 80 229 81.1193 229 82.5C229 83.8807 230.119 85 231.5 85Z" fill="#336E9E"/>
</svg>
