<svg xmlns="http://www.w3.org/2000/svg" width="300" height="200" fill="none"><path d="M137.5 58a2 2 0 0 0-2 2v7h-7a2 2 0 1 0 0 4h7v7a2 2 0 1 0 4 0v-7h7a2 2 0 1 0 0-4h-7v-7a2 2 0 0 0-2-2zm-41 16v80a8 8 0 0 0 8 8h117v-4h-117a4 4 0 0 1-4-4V74Zm20.5 0a2.5 2.5 0 1 0 0 5 2.5 2.5 0 0 0 0-5zm91.5 8a2 2 0 0 0-2 2v7h-7a2 2 0 1 0 0 4h7v7a2 2 0 1 0 4 0v-7h7a2 2 0 1 0 0-4h-7v-7a2 2 0 0 0-2-2zm-58 1a2 2 0 0 0-2 2v58a2 2 0 0 0 2 2h16a2 2 0 0 0 2-2V85a2 2 0 0 0-2-2zM128 84a2.5 2.5 0 1 0 0 5 2.5 2.5 0 0 0 0-5zm101 6a2.5 2.5 0 1 0 0 5 2.5 2.5 0 0 0 0-5zm-9 11a2.5 2.5 0 1 0 0 5 2.5 2.5 0 0 0 0-5zm-98.5 2a2 2 0 0 0-2 2v38a2 2 0 0 0 2 2h15a2 2 0 0 0 2-2v-38a2 2 0 0 0-2-2zm58 14a2 2 0 0 0-2 2v24a2 2 0 0 0 2 2h16a2 2 0 0 0 2-2v-24a2 2 0 0 0-2-2zM88 120a2.5 2.5 0 1 0 0 5 2.5 2.5 0 0 0 0-5zm-12.5 3a2 2 0 0 0-2 2v7h-7a2 2 0 1 0 0 4h7v7a2 2 0 1 0 4 0v-7h7a2 2 0 1 0 0-4h-7v-7a2 2 0 0 0-2-2z" style="fill:#336e9e"/></svg>