<svg xmlns="http://www.w3.org/2000/svg" width="300" height="200" fill="none"><path fill="#336E9E" d="M91 34a2 2 0 0 1 2 2v7h7a2 2 0 1 1 0 4h-7v7a2 2 0 1 1-4 0v-7h-7a2 2 0 1 1 0-4h7v-7a2 2 0 0 1 2-2Z"/><path fill="#336e9e" d="M235 74a2 2 0 1 0-4 0v7h-7a2 2 0 1 0 0 4h7v7a2 2 0 1 0 4 0v-7h7a2 2 0 1 0 0-4h-7zM72 146a2 2 0 1 0-4 0v7h-7a2 2 0 1 0 0 4h7v7a2 2 0 1 0 4 0v-7h7a2 2 0 1 0 0-4h-7zM220 69.5a2.5 2.5 0 1 1-5 0 2.5 2.5 0 0 1 5 0zM58.5 143a2.5 2.5 0 1 0 0-5 2.5 2.5 0 0 0 0 5z"/><path fill="#336E9E" d="M93 66.5a2.5 2.5 0 1 1-5 0 2.5 2.5 0 0 1 5 0ZM77.5 59a2.5 2.5 0 1 0 0-5 2.5 2.5 0 0 0 0 5Z"/><path d="M149.46 76.804a161.104 162.045 0 0 1 19.406 1.147 1.884 1.895 0 0 1 1.786 2.033v5.5a1.652 1.662 0 0 1-1.903 1.89h-23.59c-5.833 0-9.254 2.048-9.254 6.66v1.669c0 3.573 1.66 6.638 7.872 8.914l16.84 6.765c11.657 4.437 12.68 10.95 12.68 17.947v1.408c0 14.284-8.48 17.087-25.597 17.087-11.03 0-21.057-.89-23.213-1.147-1.52-.125-1.903-.881-1.903-1.903v-5.605a1.652 1.662 0 0 1 1.903-1.929h23.474c10.146 0 13.294-1.132 13.294-6.634v-1.525c0-3.698-1.515-6.131-7.351-8.55l-18-6.894c-9.757-3.765-12.16-11.195-12.16-18.208V92.73c0-14.027 12.15-15.927 25.716-15.927z" style="fill:#336e9e;fill-opacity:1;stroke-width:3.9873;stroke-dasharray:none"/><path d="M134.21 52.44h25.494v12.747H134.21Z" style="fill-opacity:1;stroke:#336e9e;stroke-width:3.9873;stroke-dasharray:none"/><path d="M134.21 39.994c-3.358 0-6.263 1.232-8.732 3.701-2.47 2.47-3.715 5.387-3.715 8.746v12.746h-25.48c-3.358 0-6.263 1.233-8.733 3.702-2.469 2.47-3.714 5.476-3.714 9.032v69.339c0 3.555 1.245 6.575 3.714 9.045 2.47 2.47 5.375 3.701 8.733 3.701H197.63c3.359 0 6.264-1.232 8.733-3.701 2.47-2.47 3.714-5.49 3.714-9.045V77.92c0-3.556-1.245-6.563-3.714-9.032-2.47-2.47-5.374-3.702-8.733-3.702h-25.48V52.441c0-3.359-1.245-6.276-3.715-8.746-2.469-2.47-5.374-3.701-8.732-3.701z" style="fill-opacity:1;stroke:#336e9e;stroke-width:3.9873;stroke-dasharray:none"/></svg>