<svg xmlns="http://www.w3.org/2000/svg" width="300" height="200" fill="none"><path fill="#336E9E" d="M91 34a2 2 0 0 1 2 2v7h7a2 2 0 1 1 0 4h-7v7a2 2 0 1 1-4 0v-7h-7a2 2 0 1 1 0-4h7v-7a2 2 0 0 1 2-2Zm138 40a2 2 0 1 0-4 0v7h-7a2 2 0 1 0 0 4h7v7a2 2 0 1 0 4 0v-7h7a2 2 0 1 0 0-4h-7v-7ZM78 146a2 2 0 1 0-4 0v7h-7a2 2 0 1 0 0 4h7v7a2 2 0 1 0 4 0v-7h7a2 2 0 1 0 0-4h-7v-7Zm86-56a2 2 0 1 1 0 4h-24a2 2 0 1 1 0-4h24Zm10 14a2 2 0 1 1 0 4h-34a2 2 0 1 1 0-4h34Zm40-34.5a2.5 2.5 0 1 1-5 0 2.5 2.5 0 0 1 5 0ZM64.5 143a2.5 2.5 0 1 0 0-5 2.5 2.5 0 0 0 0 5ZM93 66.5a2.5 2.5 0 1 1-5 0 2.5 2.5 0 0 1 5 0ZM77.5 59a2.5 2.5 0 1 0 0-5 2.5 2.5 0 0 0 0 5ZM203 78.5a2.5 2.5 0 1 1-5 0 2.5 2.5 0 0 1 5 0Z"/><path fill="#336E9E" d="M134 78h45c5.523 0 10 4.477 10 10v28h-4V88a6 6 0 0 0-6-6h-45a6 6 0 0 0-6 6v21l-4 4.75V88c0-5.523 4.477-10 10-10Z"/><path fill="#336E9E" d="M120 64h44.556c5.523 0 10 4.477 10 10h-4a6 6 0 0 0-6-6H120a6 6 0 0 0-6 6v51.375l-3.461 4.11a10.004 10.004 0 0 1-.539-3.248V74c0-5.523 4.477-10 10-10Z"/><path fill="#336E9E" fill-rule="evenodd" d="M98 152V96a6 6 0 0 1 6-6h2v4h-2a2 2 0 0 0-2 2v51.429l29.805-34.063a4 4 0 0 1 3.01-1.366h21.404c3.084 0 4.903 3.459 3.156 6-.582.847.024 2 1.052 2h60.34c3.502 0 5.313 4.181 2.918 6.736l-22.5 24a4 4 0 0 1-2.918 1.264H98Zm36.815-36-28 32h87.303l.147.001c.183.002.369.003.553-.001H197c1.206 0 2.179-.947 2.998-1.846L220.767 124h-60.34c-4.142 0-6.628-4.529-4.52-8h-21.092Z" clip-rule="evenodd"/><path fill="#336E9E" d="M194 90h-1v4h1a2 2 0 0 1 2 2v20h4V96a6 6 0 0 0-6-6Z"/></svg>