<svg width="206" height="160" viewBox="0 0 206 160" fill="none" xmlns="http://www.w3.org/2000/svg">
<path fill-rule="evenodd" clip-rule="evenodd" d="M166.098 103.327C163.235 103.327 160.409 103.469 157.627 103.745L157.083 99.1149C160.045 98.8209 163.053 98.6702 166.098 98.6702C167.906 98.6702 169.7 98.7233 171.479 98.8279L171.156 103.475C169.484 103.377 167.798 103.327 166.098 103.327ZM146.509 105.607C140.971 106.923 135.671 108.785 130.679 111.126L128.376 106.979C133.693 104.485 139.34 102.501 145.24 101.098L146.509 105.607ZM121.009 116.506C116.386 119.518 112.132 122.98 108.322 126.824L104.577 123.688C108.631 119.598 113.159 115.912 118.08 112.707L121.009 116.506ZM101.326 134.988C99.744 137.136 98.2839 139.366 96.9551 141.67L92.479 139.489C93.8935 137.036 95.4478 134.663 97.1321 132.377L101.326 134.988Z" fill="#53B3F3"/>
<path fill-rule="evenodd" clip-rule="evenodd" d="M43.479 97.0251C43.479 86.888 51.7617 78.6702 61.979 78.6702C72.1963 78.6702 80.479 86.888 80.479 97.0251C80.479 104.614 70.1106 122.498 64.8981 131.008C63.5412 133.224 60.4169 133.224 59.0599 131.008C53.8474 122.498 43.479 104.614 43.479 97.0251ZM61.9791 105.388C66.3579 105.388 69.9076 101.799 69.9076 97.3723C69.9076 92.9456 66.3579 89.3571 61.9791 89.3571C57.6002 89.3571 54.0505 92.9456 54.0505 97.3723C54.0505 101.799 57.6002 105.388 61.9791 105.388Z" fill="#53B3F3"/>
<circle cx="109.479" cy="19.6702" r="2" fill="#53B3F3"/>
<circle cx="109.479" cy="19.6702" r="2" fill="#53B3F3"/>
<ellipse cx="18.979" cy="137.17" rx="2.5" ry="2.5" transform="rotate(-180 18.979 137.17)" fill="#53B3F3"/>
<circle cx="183.979" cy="65.1702" r="2.5" transform="rotate(-90 183.979 65.1702)" fill="#53B3F3"/>
<circle cx="195.979" cy="53.1702" r="2.5" transform="rotate(-90 195.979 53.1702)" fill="#53B3F3"/>
<path fill-rule="evenodd" clip-rule="evenodd" d="M126.517 11.1806L132.99 11.1806L132.99 6.47299L126.517 6.47299L126.517 2.75581e-05L121.809 2.77639e-05L121.809 6.47299L115.336 6.47299L115.336 11.1806L121.809 11.1806L121.809 17.6536L126.517 17.6536L126.517 11.1806Z" fill="#53B3F3"/>
<path fill-rule="evenodd" clip-rule="evenodd" d="M6.47299 122.21L2.79697e-05 122.21L2.77639e-05 126.917L6.47299 126.917L6.47299 133.39L11.1806 133.39L11.1806 126.917L17.6536 126.917L17.6536 122.21L11.1806 122.21L11.1806 115.737L6.47299 115.737L6.47299 122.21Z" fill="#53B3F3"/>
<path fill-rule="evenodd" clip-rule="evenodd" d="M199.485 80.6179L205.958 80.6179L205.958 75.9102L199.485 75.9102L199.485 69.4373L194.777 69.4373L194.777 75.9102L188.304 75.9102L188.304 80.6179L194.777 80.6179L194.777 87.0908L199.485 87.0908L199.485 80.6179Z" fill="#53B3F3"/>
<path fill-rule="evenodd" clip-rule="evenodd" d="M174.671 43.4043C172.456 45.6237 170.177 47.7781 167.835 49.8645L164.703 46.3497C166.976 44.3245 169.189 42.2333 171.339 40.0791L174.671 43.4043ZM158.154 57.8338C153.17 61.6194 147.956 65.1186 142.537 68.3068L140.15 64.2493C145.409 61.1553 150.469 57.7592 155.306 54.0849L158.154 57.8338ZM130.309 74.2354C124.696 76.9669 118.899 79.379 112.941 81.4478L111.397 77.0006C117.177 74.9934 122.802 72.653 128.248 70.0024L130.309 74.2354ZM102.116 85.0892C96.0981 86.6574 88.7652 87.883 82.4934 88.7438L82.1733 86.4119L81.8533 84.08C87.9398 83.2446 95.09 82.0553 100.929 80.5337L102.116 85.0892ZM38.7119 88.5756C35.4212 88.0985 32.1629 87.521 28.9402 86.8461L29.905 82.2385C33.032 82.8933 36.1938 83.4537 39.3873 83.9166L38.7119 88.5756ZM85.2873 88.3457C84.3384 88.4861 83.4047 88.6189 82.4934 88.7439L82.1733 86.412L81.8532 84.0801C82.4641 83.9962 83.0856 83.9088 83.7155 83.8179C84.3861 85.2541 84.9159 86.7693 85.2873 88.3457Z" fill="#53B3F3"/>
<path fill-rule="evenodd" clip-rule="evenodd" d="M126.914 28.4423L160.407 13.609C167.206 10.5979 174.571 16.2201 174.571 24.4209V116.363C174.571 121.136 171.971 125.423 168.015 127.175L166.61 127.797L131.016 143.736H82.6214L47.0371 157.97C32.8033 163.664 28.5332 153.7 28.5332 148.007V55.4872C28.5332 49.082 32.9859 45.7352 37.0735 44.1002C39.9202 42.9615 64.8293 33.1876 76.9279 28.4431H126.914V28.4423ZM131.058 31.6056L161.929 17.9338C166.008 16.1271 170.427 19.5004 170.427 24.4209V116.363C170.427 119.227 168.867 121.799 166.493 122.851L131.058 138.544V31.6056ZM48.8079 45.3389L48.8108 45.3378C59.8063 41.1177 76.4658 34.7237 77.6395 34.1368V76.1264C79.441 77.2871 81.2063 79.0525 82.6213 81.8199V34.1368H126.746V140.178H82.6213V110.287L77.6395 121.674V141.602C70.9971 144.211 55.5772 150.284 47.0369 153.7C36.3616 157.97 32.8032 152.989 32.8032 148.718V59.0459C32.8032 53.3524 33.5149 51.2173 42.7668 47.6589C44.3889 47.035 46.4703 46.2361 48.8079 45.3389Z" fill="#53B3F3"/>
</svg>
