<svg xmlns="http://www.w3.org/2000/svg" width="300" height="200" fill="none"><path d="M112.5 38a2.5 2.5 0 1 0 0 5 2.5 2.5 0 0 0 0-5zm24.71 5c-.566 0-1.076.201-1.53.602-.453.383-.68.852-.68 1.41 0 .244.064.522.193.836l4.131 8.882-1.578 3.422a2.157 2.157 0 0 0-.219.914c0 .54.203.994.608 1.36.42.383.9.574 1.433.574a1.78 1.78 0 0 0 1.022-.314c.324-.21.581-.53.775-.965l6.442-13.873c.129-.279.193-.566.193-.862 0-.54-.212-1.001-.633-1.384-.42-.384-.897-.577-1.431-.577a1.78 1.78 0 0 0-1.022.315c-.308.209-.55.531-.728.967l-2.551 6.007-2.576-6.007c-.178-.436-.439-.758-.78-.967a1.824 1.824 0 0 0-1.068-.34zm-15.71 4a2.5 2.5 0 1 0 0 5 2.5 2.5 0 0 0 0-5zm87 9a2.5 2.5 0 1 0 0 5 2.5 2.5 0 0 0 0-5zM97.437 61c-.584 0-1.094.22-1.533.66-.42.44-.63.954-.63 1.541s.228 1.108.685 1.567l3.123 3.082-3.396 3.41c-.457.458-.686.98-.686 1.566 0 .569.22 1.074.658 1.514.439.44.949.66 1.533.66.603 0 1.143-.247 1.618-.742l3.177-3.356 3.205 3.356c.475.495 1.015.742 1.618.742.585 0 1.095-.22 1.533-.66.439-.44.658-.945.658-1.514 0-.587-.229-1.108-.686-1.566l-3.396-3.41 3.123-3.082c.457-.477.686-1.007.686-1.594 0-.569-.22-1.065-.659-1.486-.42-.44-.921-.66-1.505-.66-.603 0-1.143.246-1.618.742l-2.959 2.998-2.931-2.998c-.457-.514-.997-.77-1.618-.77zM224 61a2 2 0 0 0-2 2v7h-7a2 2 0 1 0 0 4h7v7a2 2 0 1 0 4 0v-7h7a2 2 0 1 0 0-4h-7v-7a2 2 0 0 0-2-2zm-26.5 4a2.5 2.5 0 1 0 0 5 2.5 2.5 0 0 0 0-5zm-53 11a2.5 2.5 0 1 0 0 5 2.5 2.5 0 0 0 0-5zm-23 15c-1.667 0-2.5.661-2.5 1.982 0 1.342.833 2.012 2.5 2.012h5.031l-6.562 6.86c-.521.569-.781 1.189-.781 1.859 0 .63.229 1.168.687 1.615.458.447 1.052.672 1.781.672h9.844c1.667 0 2.5-.67 2.5-2.012 0-1.32-.833-1.982-2.5-1.982h-5.438l6.594-6.89c.521-.57.781-1.178.781-1.829 0-.63-.229-1.17-.687-1.617-.458-.447-1.052-.67-1.781-.67H121.5zM93 102a2 2 0 0 0-2 2v7h-7a2 2 0 1 0 0 4h7v7a2 2 0 1 0 4 0v-7h7a2 2 0 1 0 0-4h-7v-7a2 2 0 0 0-2-2zm-26.5 4a2.5 2.5 0 1 0 0 5 2.5 2.5 0 0 0 0-5z" style="fill:#336e9e"/><path fill="#336e9e" fill-rule="evenodd" d="M169.795 63.087a2 2 0 0 1 3.034-.518l9.267 7.949c.731.626.912 1.684.43 2.518l-.67 1.16 29.445 17a1.999 1.999 0 0 1 .732 2.733l-1 1.731 12 6.929a1.999 1.999 0 0 1 .732 2.732l-6 10.392a2 2 0 0 1-2.732.732l-12-6.928-1 1.732a2 2 0 0 1-2.732.732l-8.266-4.772 22.178 41.945-3.536 1.869-19.732-37.319v27.385h-4v-27.461l-19.731 37.394-3.538-1.867 23.587-44.701-16.407-9.473-.67 1.16a1.999 1.999 0 0 1-2.395.887l-11.518-4.051a2 2 0 0 1-1.068-2.887zm-10.921 26.916 13.18-22.829 6.178 5.3-11.68 20.23zm50.159 9.122-4 6.928 10.268 5.928 4-6.928zm-1.464-5.464-.627 1.086a2.004 2.004 0 0 0-.497.574l-6 10.392a1.991 1.991 0 0 0-.249.718l-.627 1.086-27.713-16 8-13.856 13.857 8-3 5.195 3.464 2 3-5.196 2.598 1.5-3 5.196 3.464 2 3-5.196z" clip-rule="evenodd"/><path fill="#336E9E" d="M70 158h163v4H70v-4Z"/></svg>