<svg width="300" height="200" viewBox="0 0 300 200" fill="none" xmlns="http://www.w3.org/2000/svg">
<path d="M115 40.5C115 41.8807 113.881 43 112.5 43C111.119 43 110 41.8807 110 40.5C110 39.1193 111.119 38 112.5 38C113.881 38 115 39.1193 115 40.5Z" fill="#336E9E"/>
<path d="M124 49.5C124 50.8807 122.881 52 121.5 52C120.119 52 119 50.8807 119 49.5C119 48.1193 120.119 47 121.5 47C122.881 47 124 48.1193 124 49.5Z" fill="#336E9E"/>
<path d="M208.5 61C209.881 61 211 59.8807 211 58.5C211 57.1193 209.881 56 208.5 56C207.119 56 206 57.1193 206 58.5C206 59.8807 207.119 61 208.5 61Z" fill="#336E9E"/>
<path d="M226 63C226 61.8954 225.105 61 224 61C222.895 61 222 61.8954 222 63V70H215C213.895 70 213 70.8954 213 72C213 73.1046 213.895 74 215 74H222V81C222 82.1046 222.895 83 224 83C225.105 83 226 82.1046 226 81V74H233C234.105 74 235 73.1046 235 72C235 70.8954 234.105 70 233 70H226V63Z" fill="#336E9E"/>
<path fill-rule="evenodd" clip-rule="evenodd" d="M167.795 63.0872C168.421 62.0027 169.879 61.7538 170.829 62.5691L180.096 70.5176C180.827 71.1442 181.008 72.2022 180.526 73.0357L179.856 74.1964L209.301 91.1965C210.258 91.7488 210.586 92.9719 210.033 93.9285L209.033 95.6604L221.033 102.589C221.99 103.141 222.318 104.364 221.765 105.321L215.765 115.713C215.213 116.67 213.99 116.997 213.033 116.445L201.033 109.517L200.033 111.249C199.481 112.206 198.258 112.533 197.301 111.981L189.035 107.209L211.213 149.154L207.677 151.023L187.945 113.704V141.089H183.945V113.628L164.214 151.022L160.676 149.155L184.263 104.454L167.856 94.981L167.186 96.1415C166.705 96.975 165.699 97.3476 164.791 97.0282L153.273 92.9768C152.092 92.5612 151.579 91.1746 152.205 90.0901L167.795 63.0872ZM156.874 90.0031L170.054 67.1742L176.232 72.4732L164.552 92.7041L156.874 90.0031ZM207.033 99.1245L203.033 106.053L213.301 111.981L217.301 105.053L207.033 99.1245ZM205.569 93.6606L204.942 94.7465C204.747 94.8997 204.577 95.0923 204.445 95.3206L198.445 105.713C198.313 105.941 198.231 106.185 198.196 106.431L197.569 107.517L169.856 91.517L177.856 77.6606L191.713 85.6604L188.713 90.8563L192.177 92.8563L195.177 87.6604L197.775 89.1605L194.775 94.3563L198.239 96.3563L201.239 91.1605L205.569 93.6606Z" fill="#336E9E"/>
<path d="M70 158H233V162H70V158Z" fill="#336E9E"/>
<path d="M93 102C94.1046 102 95 102.895 95 104V111H102C103.105 111 104 111.895 104 113C104 114.105 103.105 115 102 115H95V122C95 123.105 94.1046 124 93 124C91.8954 124 91 123.105 91 122V115H84C82.8954 115 82 114.105 82 113C82 111.895 82.8954 111 84 111H91V104C91 102.895 91.8954 102 93 102Z" fill="#336E9E"/>
<path d="M200 67.5C200 68.8807 198.881 70 197.5 70C196.119 70 195 68.8807 195 67.5C195 66.1193 196.119 65 197.5 65C198.881 65 200 66.1193 200 67.5Z" fill="#336E9E"/>
<path d="M66.5 111C67.8807 111 69 109.881 69 108.5C69 107.119 67.8807 106 66.5 106C65.1193 106 64 107.119 64 108.5C64 109.881 65.1193 111 66.5 111Z" fill="#336E9E"/>
<path d="M144.5 81C145.881 81 147 79.8807 147 78.5C147 77.1193 145.881 76 144.5 76C143.119 76 142 77.1193 142 78.5C142 79.8807 143.119 81 144.5 81Z" fill="#336E9E"/>
<path d="M134 103.988C134 102.667 133.167 102.006 131.5 102.006H126.062L132.656 95.1159C133.177 94.5467 133.438 93.937 133.438 93.2866C133.438 92.6565 133.208 92.1179 132.75 91.6707C132.292 91.2236 131.698 91 130.969 91H121.5C119.833 91 119 91.6606 119 92.9817C119 94.3232 119.833 94.9939 121.5 94.9939H126.531L119.969 101.854C119.448 102.423 119.188 103.043 119.188 103.713C119.188 104.343 119.417 104.882 119.875 105.329C120.333 105.776 120.927 106 121.656 106H131.5C133.167 106 134 105.329 134 103.988Z" fill="#336E9E"/>
<path d="M144.185 44.3062C144.363 43.8708 144.606 43.5486 144.914 43.3396C145.222 43.1306 145.562 43.0261 145.935 43.0261C146.469 43.0261 146.947 43.2177 147.368 43.6009C147.789 43.984 148 44.4456 148 44.9855C148 45.2816 147.935 45.5689 147.806 45.8476L141.366 59.7199C141.172 60.1553 140.913 60.4775 140.589 60.6865C140.281 60.8955 139.941 61 139.568 61C139.034 61 138.556 60.8084 138.135 60.4253C137.73 60.0595 137.527 59.6067 137.527 59.0668C137.527 58.7707 137.6 58.4659 137.746 58.1524L139.325 54.73L135.194 45.8476C135.065 45.5341 135 45.2554 135 45.0116C135 44.4543 135.227 43.984 135.68 43.6009C136.134 43.2003 136.644 43 137.211 43C137.6 43 137.956 43.1132 138.28 43.3396C138.621 43.5486 138.88 43.8708 139.058 44.3062L141.634 50.3149L144.185 44.3062Z" fill="#336E9E"/>
<path d="M109 72.8271C109 72.2403 108.772 71.7177 108.315 71.2593L104.918 67.8487L108.041 64.7682C108.498 64.2914 108.726 63.7597 108.726 63.1729C108.726 62.6045 108.507 62.1094 108.068 61.6876C107.648 61.2475 107.146 61.0275 106.562 61.0275C105.959 61.0275 105.42 61.275 104.945 61.7701L101.986 64.7682L99.0548 61.7701C98.5982 61.2567 98.0594 61 97.4384 61C96.8539 61 96.3425 61.22 95.9041 61.6601C95.484 62.1002 95.274 62.6136 95.274 63.2004C95.274 63.7872 95.5023 64.3098 95.9589 64.7682L99.0822 67.8487L95.6849 71.2593C95.2283 71.7177 95 72.2403 95 72.8271C95 73.3955 95.2192 73.8998 95.6575 74.3399C96.0959 74.78 96.6073 75 97.1918 75C97.7945 75 98.3333 74.7525 98.8082 74.2574L101.986 70.9018L105.192 74.2574C105.667 74.7525 106.205 75 106.808 75C107.393 75 107.904 74.78 108.342 74.3399C108.781 73.8998 109 73.3955 109 72.8271Z" fill="#336E9E"/>
</svg>
