<svg xmlns="http://www.w3.org/2000/svg" width="100" height="116.467">
    <path d="m34.9 10.178-1.663-1.664-6.59 6.597-6.594-6.594-1.664 1.664 6.594 6.587-6.59 6.597 1.66 1.664 6.594-6.597 6.593 6.593 1.66-1.664-6.593-6.59zM24.093 41.582a1.224 1.224 0 0 0-1.224 1.224 1.224 1.224 0 0 0 1.224 1.22h4.888a1.224 1.224 0 0 0 1.227-1.22 1.224 1.224 0 0 0-1.224-1.224zM9.907 0a6.136 6.136 0 0 0-6.115 6.115v24.838L.22 43.59a6.143 6.143 0 0 0 5.883 7.776h40.871a6.143 6.143 0 0 0 5.89-7.776L49.29 30.953V6.115A6.136 6.136 0 0 0 43.176 0Zm0 2.447h33.269a3.65 3.65 0 0 1 3.667 3.668v23.78H6.24V6.116a3.65 3.65 0 0 1 3.668-3.668M5.94 32.343h41.2l3.363 11.908a3.64 3.64 0 0 1-3.526 4.67H6.108a3.64 3.64 0 0 1-3.537-4.67Zm19.673 22.672v36.513a2.86 2.86 0 0 0 2.842 2.843H48.46v-2.017H28.456a.797.797 0 0 1-.825-.826V55.015ZM62.22 77.908q-1.088 0-1.862.763-.773.763-.776 1.861 0 1.092.763 1.865.762.774 1.861.777 1.092 0 1.869-.763.773-.77.773-1.861 0-1.092-.763-1.872-.766-.77-1.861-.77zm0 26.017q-1.088 0-1.862.763-.773.762-.776 1.858 0 1.095.763 1.868.762.773 1.861.773 1.092 0 1.869-.762.773-.766.773-1.858t-.763-1.872q-.766-.77-1.861-.77zm-7.748-33.293h43.36q.919 0 1.543.617t.624 1.525V87.82q0 1.162-.624 1.896-.624.735-1.543.735h-43.36q-.922 0-1.542-.735-.624-.734-.624-1.896V72.774q0-.908.624-1.525t1.542-.617m0 2.166v15.486h43.36V72.798Zm0 23.85h43.204q1.085 0 1.699.711.624.711.624 1.765v14.556q0 1.317-.624 2.052-.614.735-1.699.735H54.63q-1.085 0-1.705-.735-.617-.735-.617-2.052V99.12q0-1.05.54-1.76.541-.711 1.63-.715zm0 2.164V114.3h43.36V98.81Zm0-26.014v15.486zm0 26.014V114.3z" class="error" />
</svg>
