<svg xmlns="http://www.w3.org/2000/svg" width="109.031" height="126.977" viewBox="0 0 28.848 33.595">
    <path d="m10.068 2.936-.48-.48-1.901 1.902-1.902-1.902-.48.48 1.903 1.9L5.306 6.74l.48.48 1.9-1.902L9.59 7.219l.48-.48-1.902-1.902zM6.95 11.994a.353.353 0 0 0-.352.353.353.353 0 0 0 .352.353h1.412a.353.353 0 0 0 .352-.353.353.353 0 0 0-.352-.353zM2.859 0a1.77 1.77 0 0 0-1.764 1.764v7.164L.064 12.573a1.772 1.772 0 0 0 1.698 2.243h11.79a1.772 1.772 0 0 0 1.698-2.243l-1.03-3.645V1.764A1.77 1.77 0 0 0 12.455 0zm0 .705h9.596c.589 0 1.059.47 1.059 1.059v6.86H1.8v-6.86c0-.59.47-1.06 1.059-1.06zM1.715 9.329h11.884l.972 3.436a1.05 1.05 0 0 1-1.02 1.346H1.762a1.05 1.05 0 0 1-1.018-1.346zm5.675 6.54v10.533c0 .45.37.82.82.82h5.769v-.582h-5.77a.232.232 0 0 1-.237-.238V15.87zm10.56 6.604q-.315 0-.538.22-.223.22-.223.537 0 .315.22.539.22.223.536.223.316 0 .539-.22.223-.221.223-.537 0-.315-.22-.538-.221-.224-.536-.224zm0 7.505q-.315 0-.538.22-.223.22-.223.537 0 .315.22.538.22.224.536.224.316 0 .539-.221.223-.22.223-.536 0-.315-.22-.54-.221-.222-.536-.222zm-2.235-9.604h12.507q.266 0 .446.178t.18.442v4.338q0 .335-.18.547-.18.213-.446.213H15.716q-.266 0-.446-.213-.18-.212-.18-.547v-4.338q0-.264.18-.442t.446-.178zm0 .625v4.467h12.507v-4.467zm0 6.88h12.462q.313 0 .492.205.178.205.178.51v4.198q0 .38-.178.592-.18.212-.492.212H15.759q-.312 0-.491-.212-.18-.212-.18-.592v-4.2q0-.303.157-.51.157-.204.47-.204zm0 .625v4.467h12.507v-4.467zm0-7.505v4.467zm0 7.505v4.467z" style="fill:#E74C3C"/>
</svg>
