<svg xmlns="http://www.w3.org/2000/svg" width="100" height="116.484">
    <path d="M24.096 41.589a1.224 1.224 0 0 0-1.22 1.224 1.224 1.224 0 0 0 1.224 1.22h4.888a1.224 1.224 0 0 0 1.228-1.22 1.224 1.224 0 0 0-1.224-1.224zM9.912 0a6.137 6.137 0 0 0-6.113 6.116V30.96L.221 43.597a6.144 6.144 0 0 0 5.887 7.776h40.879a6.144 6.144 0 0 0 5.887-7.776l-3.575-12.638V6.116A6.137 6.137 0 0 0 43.183 0Zm0 2.448h33.275a3.65 3.65 0 0 1 3.668 3.668v23.785H6.24V6.116a3.65 3.65 0 0 1 3.668-3.668zm-3.967 29.9H47.15l3.363 11.91a3.64 3.64 0 0 1-3.526 4.671H6.108a3.64 3.64 0 0 1-3.536-4.67ZM21.523 7.594h9.924v4.958l-3.294 3.294 3.294 3.294v4.965h-9.924v-4.958l3.294-3.297-3.294-3.294zm8.252 11.976-3.293-3.294-3.294 3.294v2.909h6.587zm-3.293-4.147 3.293-3.294V9.216h-6.587v2.912zm-1.665-4.535h3.329v.62l-1.664 1.665-1.665-1.664zm.784 44.137v36.517a2.856 2.856 0 0 0 2.843 2.843H48.45v-2.018H28.444a.797.797 0 0 1-.825-.825V55.024Zm36.614 22.898q-1.09 0-1.862.763-.774.762-.777 1.858 0 1.096.763 1.872.763.77 1.862.77 1.092 0 1.868-.763.774-.766.774-1.858t-.763-1.873q-.766-.77-1.862-.77zm0 26.018q-1.09 0-1.862.762-.774.763-.777 1.862 0 1.092.763 1.87.763.772 1.862.772 1.092 0 1.868-.763.774-.766.774-1.861 0-1.093-.763-1.866-.766-.776-1.862-.776zm-7.75-33.3h43.368q.922 0 1.543.618.624.62.624 1.532v15.044q0 1.162-.624 1.897t-1.543.735H54.465q-.918 0-1.543-.735t-.624-1.897V72.787q0-.909.624-1.53.625-.616 1.543-.616m0 2.17V88.3h43.368V72.811Zm0 23.851h43.212q1.085 0 1.706.71.617.715.617 1.769v14.555q0 1.318-.617 2.053-.624.735-1.706.735H54.621q-1.085 0-1.702-.735-.624-.735-.624-2.053V99.134q0-1.047.544-1.761.545-.711 1.63-.711zm0 2.167v15.488h43.368V98.829Zm0-26.018V88.3zm0 26.018v15.488z" class="connecting" />
</svg>
