<svg xmlns="http://www.w3.org/2000/svg" width="100" height="116.463">
    <path d="m25.077 19.863-2.985-3.019 1.054-1.054 1.931 1.931 4.954-4.916 1.054 1.054zM26.59 7.852l-6.746 3.016v4.5q0 2.038.88 3.934.877 1.896 2.423 3.23t3.443 1.828q1.896-.493 3.442-1.827t2.423-3.231.877-3.935v-4.496zm-2.496 33.73a1.224 1.224 0 0 0-1.22 1.22 1.224 1.224 0 0 0 1.223 1.223h4.888a1.224 1.224 0 0 0 1.224-1.223 1.224 1.224 0 0 0-1.22-1.224zM9.908 0a6.136 6.136 0 0 0-6.115 6.115v24.834L.222 43.585a6.143 6.143 0 0 0 5.883 7.779h40.87a6.143 6.143 0 0 0 5.887-7.779l-3.57-12.636V6.115A6.136 6.136 0 0 0 43.171 0Zm0 2.447h33.265a3.65 3.65 0 0 1 3.67 3.668v23.78H6.234V6.116a3.65 3.65 0 0 1 3.671-3.668zM5.942 32.34h41.196l3.37 11.91a3.64 3.64 0 0 1-3.533 4.667H6.105a3.64 3.64 0 0 1-3.533-4.666Zm19.673 22.67v36.514a2.855 2.855 0 0 0 2.842 2.843H48.46v-2.018H28.457a.797.797 0 0 1-.825-.825v-36.51ZM62.22 77.909q-1.092 0-1.865.762-.773.763-.773 1.858t.763 1.869q.766.773 1.862.773 1.092 0 1.865-.763.776-.766.776-1.858t-.766-1.872q-.763-.77-1.858-.77zm0 26.013q-1.092 0-1.865.762-.773.77-.773 1.862t.763 1.868q.766.773 1.862.773 1.092 0 1.865-.762.776-.77.776-1.862t-.766-1.872q-.763-.77-1.858-.77zm-7.747-33.293H97.83q.922 0 1.546.617t.624 1.532v15.038q0 1.161-.624 1.9-.624.735-1.546.735H54.474q-.922 0-1.546-.735-.624-.739-.624-1.9V72.777q0-.915.624-1.532t1.546-.617m0 2.166V88.28H97.83V72.798Zm0 23.85h43.203q1.082 0 1.699.71.624.715.624 1.769v14.552q0 1.318-.624 2.053-.617.735-1.699.735h-43.05q-1.082 0-1.703-.735-.62-.735-.62-2.053v-14.56q0-1.046.544-1.76.54-.71 1.626-.71m0 2.166v15.485H97.83V98.811Zm0-26.017V88.28zm0 26.017v15.485z" class="active" />
</svg>
