<svg xmlns="http://www.w3.org/2000/svg" width="100" height="116.46">
    <path d="M38.512 16.102h-6.448v-2.167l3.63-4.284h-3.63V7.48h6.448v2.17l-3.623 4.284h3.63zm-8.618 4.28h-6.455v-2.114l3.63-4.333h-3.63v-2.118h6.455v2.115l-3.63 4.333h3.63zm-8.621 4.334h-6.451v-2.167l3.674-4.284h-3.674v-2.167h6.447v2.167l-3.626 4.288h3.63zm2.822 16.857a1.224 1.224 0 0 0-1.22 1.224 1.224 1.224 0 0 0 1.22 1.224h4.887a1.224 1.224 0 0 0 1.227-1.224 1.224 1.224 0 0 0-1.223-1.224zM9.91 0a6.136 6.136 0 0 0-6.115 6.111V30.95L.22 43.584a6.143 6.143 0 0 0 5.886 7.775h40.87a6.143 6.143 0 0 0 5.886-7.775l-3.57-12.635V6.11A6.136 6.136 0 0 0 43.173 0Zm0 2.444h33.264a3.65 3.65 0 0 1 3.668 3.667v23.78H6.239V6.111a3.65 3.65 0 0 1 3.67-3.667M5.945 32.339H47.14l3.362 11.907a3.64 3.64 0 0 1-3.525 4.67H6.107a3.64 3.64 0 0 1-3.536-4.67Zm19.672 22.67v36.513a2.855 2.855 0 0 0 2.843 2.842h19.998v-2.017H28.455a.797.797 0 0 1-.825-.825V55.013Zm36.606 22.893q-1.092 0-1.865.763-.776.77-.776 1.861 0 1.092.763 1.869.762.773 1.861.773 1.095 0 1.868-.763.773-.766.773-1.861 0-1.092-.762-1.865-.766-.777-1.858-.777zm0 26.016q-1.092 0-1.865.763-.773.762-.776 1.858 0 1.095.763 1.872.762.773 1.861.773 1.095 0 1.868-.767.773-.762.773-1.858 0-1.095-.762-1.871-.766-.77-1.858-.77zm-7.75-33.292H97.83q.922 0 1.546.617t.624 1.532v15.038q0 1.161-.624 1.896t-1.546.735H54.471q-.918 0-1.542-.735t-.624-1.896V72.775q0-.915.624-1.532t1.542-.617m0 2.167v15.484H97.83V72.793Zm0 23.849h43.203q1.085 0 1.706.71.617.711.617 1.765v14.556q0 1.317-.617 2.052-.624.735-1.706.735H54.631q-1.085 0-1.702-.735-.624-.735-.624-2.052v-14.56q0-1.05.544-1.76.544-.711 1.63-.715zm0 2.166v15.485H97.83V98.808Zm0-26.015v15.484zm0 26.015v15.485z" class="inactive" />
</svg>
