<svg xmlns="http://www.w3.org/2000/svg" width="24" height="24">
    <path d="M6.624 16H2.279Q2 16 2 15.739V8.26Q2 8 2.279 8h4.345q.265 0 .265.261v.846q0 .261-.265.262H3.847q-.16 0-.16.136v1.618q0 .137.16.137h2.272q.279 0 .279.261v.846q0 .261-.28.261h-2.27q-.16 0-.16.137v1.73q0 .135.16.136h2.777q.265 0 .265.262v.846q0 .261-.265.261Zm3.116 0H8.636q-.28 0-.28-.261V8.26q0-.261.28-.261h.996q.279 0 .372.174l2.684 4.716h.053V8.26q0-.261.28-.261h1.102q.279 0 .279.261v7.478q0 .261-.279.261h-.97a.45.45 0 0 1-.425-.249l-2.657-4.628h-.053v4.616q0 .261-.28.261Zm9.87 0h-1.74q-.28 0-.332-.261l-2.06-7.453q-.092-.285.266-.286h1.25q.265 0 .318.261l1.395 6.122h.053l1.395-6.122q.053-.261.32-.261h1.248q.332 0 .266.286l-2.06 7.453q-.066.261-.318.261Z" class="ICON_1"/>
</svg>
