<svg xmlns="http://www.w3.org/2000/svg" width="24" height="24">
    <path fill-rule="evenodd" d="M8.99 2h2.02v12.121l5.556-5.555L18 10l-2.128 2.128a5.01 5.01 0 0 0-3.744 3.744L10 18l-8-8 1.434-1.434L8.99 14.12zm9.96 12.573a3.095 3.095 0 1 0-.174 4.541l.129.129v.376l2.38 2.38.715-.713-2.38-2.381h-.377l-.129-.129a3.1 3.1 0 0 0-.163-4.203Zm-4.33 2.189c0-1.19.951-2.143 2.142-2.143s2.143.952 2.143 2.143-.953 2.143-2.143 2.143a2.134 2.134 0 0 1-2.143-2.143Z" clip-rule="evenodd" class="ICON_1"/>
</svg>
