<svg xmlns="http://www.w3.org/2000/svg" width="24" height="24">
    <path d="M11.7 17.749v-2.004H8.04v2.004zm2.398-3.961v-2.004h-6.06v2.004zM6.036 2a1.93 1.93 0 0 0-1.421.583 1.88 1.88 0 0 0-.583 1.374v15.938q0 .792.583 1.375.582.582 1.42.582h6.297a6.5 6.5 0 0 1-.55-1.957H6.035V3.957h6.944v4.987h4.986v3.73l.228-.017a6.5 6.5 0 0 1 1.776.25V7.965L14.005 2Z" class="ICON_1"/>
    <path d="M23.068 19.125A4.875 4.875 0 0 1 18.193 24a4.875 4.875 0 0 1-4.875-4.875 4.875 4.875 0 0 1 4.875-4.875 4.875 4.875 0 0 1 4.875 4.875" class="ICON_4"/>
</svg>
