<svg xmlns="http://www.w3.org/2000/svg" xml:space="preserve" width="24" height="24">
    <path d="M10.188 3a1.7 1.7 0 0 0-1.248.53 1.7 1.7 0 0 0-.529 1.247V6.59H4.775a1.7 1.7 0 0 0-1.248.53 1.74 1.74 0 0 0-.529 1.284v9.892q0 .764.53 1.293.529.53 1.247.53h7.945a5.3 5.3 0 0 1-.718-2.707q0-1.478.718-2.725a5.3 5.3 0 0 1 1.966-1.966q1.247-.718 2.721-.718 2.075 0 3.595 1.395v-4.99a1.74 1.74 0 0 0-.53-1.285 1.7 1.7 0 0 0-1.247-.53h-3.628V4.78a1.7 1.7 0 0 0-.53-1.247 1.7 1.7 0 0 0-1.247-.53Zm0 1.777h3.628V6.59h-3.628ZM8.23 8.62a17.864 17.966 0 0 1 2.15.128.208.212 0 0 1 .2.227v.605a.19.19 0 0 1-.211.215H7.753c-.646 0-1.028.227-1.028.737v.186c0 .393.185.733.873.986l1.868.749c1.292.491 1.406 1.217 1.406 1.992v.155c0 1.587-.942 1.893-2.835 1.893a27 27 0 0 1-2.578-.124c-.166-.016-.208-.099-.208-.212v-.62a.19.19 0 0 1 .208-.215h2.604c1.123 0 1.474-.125 1.474-.738v-.166c0-.412-.17-.68-.816-.945l-1.996-.767c-1.08-.416-1.346-1.244-1.346-2.022v-.299c0-1.554 1.346-1.765 2.85-1.765" class="ICON_1"/>
    <path d="M16.523 13.814v2.707H13.82v1.776h2.703V21h1.776v-2.703h2.703v-1.776h-2.707v-2.707z" class="ICON_2"/>
</svg>
