<svg xmlns="http://www.w3.org/2000/svg" width="24" height="24">
    <path d="M3.484 17.002h-1.19q-.294 0-.294-.294V8.294Q2 8 2.294 8H5.71q1.092 0 1.694.602.602.588.602 1.68v1.344q0 1.092-.602 1.694-.602.588-1.694.588H3.946q-.168 0-.168.154v2.646q0 .294-.294.294m.448-4.648h1.484q.449 0 .63-.182.182-.195.182-.63v-1.176q0-.449-.182-.63-.181-.196-.63-.196H3.932q-.154 0-.154.154V12.2q0 .154.154.154m6.514 7.014H9.55q-.28 0-.28-.308v-.938q0-.308.28-.308h.294q.882 0 1.19-.252.322-.238.49-.938h-.742q-.267 0-.35-.294l-1.638-6.174q-.084-.294.21-.294h1.246q.28 0 .35.294l1.204 5.166h.056l1.19-5.166q.056-.294.35-.294h1.176q.35 0 .28.308l-1.708 6.832q-.308 1.163-.952 1.764-.645.602-1.75.602m7.052-2.366h-1.19q-.294 0-.294-.294V8.294q0-.294.294-.294h3.416q1.092 0 1.694.602.602.588.602 1.68v1.344q0 1.092-.602 1.694-.603.588-1.694.588H17.96q-.168 0-.168.154v2.646q0 .294-.294.294m.448-4.648h1.484q.447 0 .63-.182.182-.195.182-.63v-1.176q0-.449-.182-.63-.183-.196-.63-.196h-1.484q-.154 0-.154.154V12.2q0 .154.154.154" class="ICON_1"/>
</svg>
