<svg xmlns="http://www.w3.org/2000/svg" width="24" height="24" viewBox="0 0 24 24">
    <path fill="#B568F2" d="M11.494 7.99a.985.985 0 0 0-.983.984l.004 3.688c-.002.248-.057.476.125.877.182.402.458.549.625.666l2.623 1.838a.985.985 0 0 0 1.373-.242.985.985 0 0 0-.242-1.372l-2.534-1.774-.004-3.683a.985.985 0 0 0-.987-.982m8.83-.975-.544.544a.6.6 0 0 1-.848 0l-1.936-1.936a.6.6 0 0 1 0-.849l.543-.544a.6.6 0 0 1 .849 0l1.936 1.937a.6.6 0 0 1 0 .848m-6.47-4.31v.769a.6.6 0 0 1-.6.6h-2.739a.6.6 0 0 1-.6-.6v-.77a.6.6 0 0 1 .6-.6h2.738c.333 0 .6.268.6.6m5.414 9.965a7.384 7.384 0 0 1-7.384 7.384A7.384 7.384 0 0 1 4.5 12.67a7.384 7.384 0 0 1 7.384-7.384 7.384 7.384 0 0 1 7.384 7.384"/>
</svg>
