<svg xmlns="http://www.w3.org/2000/svg" xml:space="preserve" width="24" height="24">
    <path d="M10.091 3a1.78 1.78 0 0 0-1.312.556 1.82 1.82 0 0 0-.557 1.31v1.913h-3.82a1.78 1.78 0 0 0-1.31.553 1.9 1.9 0 0 0-.56 1.354V19.09q0 .795.56 1.355a1.78 1.78 0 0 0 1.31.556h7.195a7 7 0 0 1-1.66-4.52 7 7 0 0 1 7.005-7.007 7 7 0 0 1 4.525 1.657V8.686a1.9 1.9 0 0 0-.556-1.354 1.78 1.78 0 0 0-1.313-.553h-3.82V4.865a1.78 1.78 0 0 0-.557-1.309A1.78 1.78 0 0 0 13.912 3Zm0 1.865h3.821V6.78h-3.82z" class="ICON_1" />
    <path d="m21.335 19.263-3.916-3.915q.303-.745.132-1.551-.174-.81-.786-1.426-.617-.613-1.506-.764-.885-.152-1.672.211l1.854 1.854-1.29 1.294-1.896-1.854q-.386.783-.234 1.665.151.874.794 1.52.605.606 1.415.776.81.174 1.551-.129l3.92 3.912q.14.144.31.144t.295-.144l.987-.987q.163-.121.174-.314.008-.19-.132-.292" class="ICON_2" />
</svg>
