<svg xmlns="http://www.w3.org/2000/svg" xml:space="preserve" width="24" height="24">
    <path d="M10.091 3a1.78 1.78 0 0 0-1.312.556 1.78 1.78 0 0 0-.556 1.31v1.913H4.402a1.78 1.78 0 0 0-1.313.553 1.9 1.9 0 0 0-.556 1.354v10.403q0 .795.556 1.355A1.78 1.78 0 0 0 4.402 21h7.195a7 7 0 0 1-1.66-4.52 7 7 0 0 1 7.006-7.007 7 7 0 0 1 4.524 1.657V8.686a1.9 1.9 0 0 0-.556-1.354 1.78 1.78 0 0 0-1.313-.553h-3.82V4.865a1.78 1.78 0 0 0-.557-1.309A1.78 1.78 0 0 0 13.912 3Zm0 1.865h3.821V6.78h-3.82z" class="ICON_1"/>
    <path d="m19.791 12.28-2.848 2.849-2.845-2.85-1.415 1.416 2.845 2.848-2.838 2.842 1.411 1.414 2.842-2.84 2.848 2.848 1.415-1.415-2.845-2.849 2.845-2.848z" class="ICON_2"/>
</svg>
