<svg xmlns="http://www.w3.org/2000/svg" xml:space="preserve" width="24" height="24" viewBox="0 0 6.349 6.349">
    <path d="M2.67.796a.473.473 0 0 0-.347.147.475.475 0 0 0-.147.346v.506h-1.01a.473.473 0 0 0-.347.146.487.487 0 0 0-.147.358v2.75c0 .14.05.26.147.358a.473.473 0 0 0 .347.147h4.018a.473.473 0 0 0 .346-.147.489.489 0 0 0 .147-.359V2.3c0-.14-.05-.26-.147-.358a.473.473 0 0 0-.346-.146h-1.01V1.29a.475.475 0 0 0-.148-.346.473.473 0 0 0-.346-.147zm0 .493h1.01v.506H2.67Zm.604 1.068a6.387 6.424 0 0 1 .77.046.075.075 0 0 1 .07.08v.218a.066.066 0 0 1-.075.075h-.936c-.23 0-.367.082-.367.264v.067c0 .141.066.263.313.353l.667.268c.462.176.503.434.503.712v.055c0 .567-.336.678-1.015.678a9.1 9.1 0 0 1-.92-.046c-.06-.005-.076-.034-.076-.075V4.83a.066.066 0 0 1 .076-.077h.93c.403 0 .528-.045.528-.263v-.06c0-.147-.06-.243-.292-.34l-.714-.272c-.386-.15-.482-.444-.482-.722v-.107c0-.556.482-.632 1.02-.632z" style="fill:#37414f;"/>
</svg>
