<svg xmlns="http://www.w3.org/2000/svg" xml:space="preserve" width="24" height="24">
    <path d="M10.091 3a1.78 1.78 0 0 0-1.312.556 1.82 1.82 0 0 0-.556 1.31v1.913H4.402a1.78 1.78 0 0 0-1.31.553 1.9 1.9 0 0 0-.56 1.354V19.09q0 .795.56 1.355a1.78 1.78 0 0 0 1.31.556h7.195a7 7 0 0 1-1.66-4.52 7 7 0 0 1 7.006-7.007 7 7 0 0 1 4.524 1.657V8.686a1.9 1.9 0 0 0-.556-1.354 1.78 1.78 0 0 0-1.313-.553h-3.82V4.865a1.78 1.78 0 0 0-.557-1.309A1.78 1.78 0 0 0 13.912 3Zm0 1.865h3.821V6.78h-3.82z" class="ICON_1" />
    <path d="M13.685 12.386a.887.887 0 1 0 0 1.774l4.434-.227-5.27 5.266 1.408 1.411 5.349-5.349-.235 4.566a.889.889 0 1 0 1.778 0v-7.441z" class="ICON_2" />
</svg>
