<svg xmlns="http://www.w3.org/2000/svg" xml:space="preserve" width="24" height="24">
    <path d="M10.091 3a1.78 1.78 0 0 0-1.312.556 1.78 1.78 0 0 0-.556 1.31v1.913H4.402a1.78 1.78 0 0 0-1.313.553 1.9 1.9 0 0 0-.556 1.354v10.403q0 .795.556 1.355A1.78 1.78 0 0 0 4.402 21h7.195a7 7 0 0 1-1.66-4.52 7 7 0 0 1 7.006-7.007 7 7 0 0 1 4.524 1.657V8.686q0-.794-.556-1.354a1.78 1.78 0 0 0-1.309-.553h-3.825V4.865a1.78 1.78 0 0 0-.556-1.309A1.78 1.78 0 0 0 13.912 3Zm0 1.865h3.821V6.78h-3.82z" class="ICON_1" />
    <path d="M15.834 11.981h2.217v3.386h3.386v2.22H18.05v3.383h-2.217v-3.382h-3.386v-2.221h3.386z" class="ICON_2" />
</svg>
