<svg xmlns="http://www.w3.org/2000/svg" xml:space="preserve" width="24" height="24" viewBox="0 0 6.349 6.349">
    <path d="M2.67.796a.47.47 0 0 0-.347.147.47.47 0 0 0-.147.346v.506h-1.01a.47.47 0 0 0-.347.146.5.5 0 0 0-.147.358v2.75q0 .21.147.358a.47.47 0 0 0 .347.147h1.903a1.85 1.85 0 0 1-.44-1.195A1.85 1.85 0 0 1 4.48 2.507a1.85 1.85 0 0 1 1.196.438v-.646a.5.5 0 0 0-.147-.358.47.47 0 0 0-.347-.146h-1.01v-.506a.47.47 0 0 0-.146-.346.47.47 0 0 0-.347-.147zm0 .493h1.01v.506H2.67z" class="ICON_1"/>
    <path d="M5.669 4.065v.587H3.293v-.587Z" class="ICON_2"/>
</svg>
