<svg xmlns="http://www.w3.org/2000/svg" xml:space="preserve" width="24" height="24">
    <path d="M10.093 3a1.78 1.78 0 0 0-1.312.556 1.78 1.78 0 0 0-.556 1.31v1.913H4.404a1.78 1.78 0 0 0-1.313.553 1.9 1.9 0 0 0-.556 1.354v10.403q0 .795.556 1.355A1.78 1.78 0 0 0 4.404 21h7.199a7 7 0 0 1-1.665-4.52 7 7 0 0 1 7.003-7.007 7 7 0 0 1 4.524 1.657V8.686a1.9 1.9 0 0 0-.556-1.354 1.78 1.78 0 0 0-1.313-.553h-3.82V4.865a1.78 1.78 0 0 0-.553-1.309A1.78 1.78 0 0 0 13.91 3Zm0 1.865h3.821V6.78h-3.82z" class="ICON_1" />
    <path d="M21.439 15.367v2.22H12.45v-2.22z" class="ICON_2" />
</svg>
