<svg xmlns="http://www.w3.org/2000/svg" xml:space="preserve" width="24" height="24" viewBox="0 0 6.349 6.349">
    <path d="M2.67.796a.47.47 0 0 0-.347.147.48.48 0 0 0-.147.346v.506h-1.01a.47.47 0 0 0-.346.146.5.5 0 0 0-.148.358v2.75q0 .21.148.358a.47.47 0 0 0 .346.147h1.902a1.85 1.85 0 0 1-.439-1.195 1.85 1.85 0 0 1 1.852-1.852 1.85 1.85 0 0 1 1.196.438v-.646a.5.5 0 0 0-.147-.358.47.47 0 0 0-.347-.146h-1.01v-.506a.47.47 0 0 0-.147-.346.47.47 0 0 0-.346-.147zm0 .493h1.01v.506H2.67z" class="main-color"/>
    <path d="M3.62 3.277a.234.234 0 1 0 0 .469l1.172-.06-1.393 1.392.372.373 1.414-1.414-.062 1.207a.234.234 0 1 0 .47 0V3.277Z" class="action-color"/>
</svg>
