<svg xmlns="http://www.w3.org/2000/svg" xml:space="preserve" width="24" height="24">
    <path d="M10.092 3a1.78 1.78 0 0 0-1.314.555 1.82 1.82 0 0 0-.557 1.31v1.914h-3.82a1.78 1.78 0 0 0-1.313.553 1.9 1.9 0 0 0-.555 1.355V19.09q0 .795.555 1.355A1.78 1.78 0 0 0 4.402 21h15.2a1.78 1.78 0 0 0 1.31-.555 1.9 1.9 0 0 0 .555-1.359V8.69q0-.794-.555-1.353a1.78 1.78 0 0 0-1.31-.553h-3.821V4.869a1.82 1.82 0 0 0-.56-1.31 1.78 1.78 0 0 0-1.31-.555Zm0 1.865h3.82v1.914h-3.82zm2.285 4.04a24.164 24.304 0 0 1 2.913.175.284.284 0 0 1 .264.303v.824a.25.25 0 0 1-.284.284h-3.54c-.87 0-1.39.31-1.39.999v.252c0 .533.25.997 1.185 1.337l2.524 1.013c1.748.665 1.904 1.642 1.904 2.693v.21c0 2.145-1.273 2.564-3.842 2.564a34 34 0 0 1-3.48-.174c-.226-.019-.288-.128-.288-.283v-.84a.25.25 0 0 1 .289-.292h3.517c1.524 0 1.997-.17 1.997-.995v-.227c0-.556-.226-.92-1.104-1.286l-2.702-1.03c-1.46-.568-1.823-1.68-1.823-2.731v-.405c0-2.103 1.825-2.39 3.86-2.39" class="ICON_1"/>
</svg>
