<svg xmlns="http://www.w3.org/2000/svg" xml:space="preserve" width="24" height="24">
    <path d="M15.59 15.036 10.624 20l-1.262-1.262 2.777-2.777H8.848a5.55 5.55 0 0 1-2.924-.799 6.16 6.16 0 0 1-2.125-2.124A5.55 5.55 0 0 1 3 10.114V4.267h1.809v5.847q0 1.683 1.178 2.86 1.178 1.179 2.86 1.179h3.293l-2.777-2.777 1.262-1.262ZM14.728 4v1.574h1.576q.33 0 .55.243t.22.581v11.165a.84.84 0 0 1-.22.58.71.71 0 0 1-.55.244H14.73v1.574h1.943q.368 0 .77-.244.404-.243.404-.543 0 .3.422.543.421.243.752.244H21v-1.574h-1.577a.71.71 0 0 1-.55-.244.84.84 0 0 1-.22-.58V6.398q0-.337.22-.58a.71.71 0 0 1 .55-.244H21V4h-1.98q-.33-.001-.752.244-.423.243-.422.543 0-.3-.404-.543Q17.04 4 16.672 4Z" class="ICON_1"/>
</svg>
