<svg xmlns="http://www.w3.org/2000/svg" xml:space="preserve" width="24" height="24" fill="none"><path fill="#37414f" d="M15.59 15.036 10.624 20l-1.262-1.262 2.777-2.777H8.848a5.553 5.553 0 0 1-2.924-.799 6.161 6.161 0 0 1-2.125-2.124A5.553 5.553 0 0 1 3 10.114V4.267h1.809v5.847c0 1.122.393 2.075 1.178 2.86.785.786 1.739 1.179 2.86 1.179h3.293l-2.777-2.777 1.262-1.262ZM14.728 4v1.574h1.576c.22 0 .404.08.55.243.147.162.22.356.22.581v11.165a.836.836 0 0 1-.22.58.711.711 0 0 1-.55.244H14.73v1.574h1.943c.245 0 .502-.082.77-.244.27-.162.404-.343.404-.543 0 .2.14.38.422.543.28.162.532.244.752.244H21v-1.574h-1.577a.711.711 0 0 1-.55-.244.836.836 0 0 1-.22-.58V6.398c0-.224.073-.418.22-.58a.71.71 0 0 1 .55-.244H21V4h-1.98c-.22 0-.471.08-.752.244-.282.162-.422.343-.422.543 0-.2-.135-.381-.404-.543-.268-.163-.525-.244-.77-.244Z"/></svg>