<svg xmlns="http://www.w3.org/2000/svg" xml:space="preserve" width="24" height="24">
    <path d="M8.77 4q-.676 0-1.146.47a1.5 1.5 0 0 0-.469 1.107v4.54c.357.597.917 1.044 1.615 1.131v-5.67h5.597v4.018h4.018v8.827H8.77v-2.896a6 6 0 0 1-1.615-.291v3.187q0 .638.47 1.108.468.47 1.145.469h9.615q.676 0 1.146-.47.47-.469.469-1.107V8.807L15.193 4ZM4 4v5.094q0 1.393.697 2.547a5.4 5.4 0 0 0 1.85 1.851q1.155.696 2.547.696h3.877l-2.418 2.419 1.1 1.1 4.324-4.325-4.325-4.288-1.1 1.1 2.42 2.419H9.093q-1.466 0-2.492-1.027-1.026-1.025-1.026-2.492V4Z" class="ICON_1"/>
</svg>
