<svg xmlns="http://www.w3.org/2000/svg" width="24" height="24">
    <path d="M2.013 14.704v-.28q0-.293.277-.293h1.122q.277 0 .277.294v.111q0 .533.198.728.198.196.726.196h.62q.516 0 .713-.21.211-.21.211-.783v-.168q0-.406-.316-.616-.304-.224-.766-.266a9 9 0 0 1-1.003-.154 7 7 0 0 1-.99-.308q-.462-.196-.778-.742-.305-.56-.304-1.428v-.49q0-1.091.58-1.693Q3.164 8 4.19 8h1.32q1.044 0 1.624.602t.58 1.694v.265q0 .294-.276.294H6.316q-.277 0-.277-.294v-.084q0-.545-.198-.741c-.198-.196-.374-.196-.726-.196H4.6q-.54 0-.739.224-.185.21-.185.84v.265q0 .658 1.082.756 1.123.098 1.993.476.462.21.766.756.317.531.317 1.372v.476q0 1.091-.581 1.693-.58.602-1.61.602H4.204q-1.03 0-1.61-.602t-.58-1.694ZM10.738 17H9.616q-.276 0-.277-.294V8.294q0-.294.277-.294h3.22q1.03 0 1.598.602.567.588.567 1.68v1.343q0 1.092-.567 1.694-.568.588-1.597.588h-1.663q-.159 0-.159.154v2.645q0 .294-.277.294m.423-4.647h1.399q.422 0 .593-.182.172-.195.172-.63v-1.175q0-.45-.171-.63-.172-.196-.595-.196h-1.398q-.146 0-.146.154v2.505q0 .154.146.154M19.822 17h-1.438q-1.043 0-1.61-.588t-.568-1.693V10.28q0-1.105.567-1.693.569-.588 1.61-.588h1.44q1.029 0 1.596.602.58.588.581 1.68v.657q0 .309-.29.308H20.6q-.277 0-.277-.308v-.573q0-.45-.185-.63-.171-.196-.594-.196h-.897q-.41 0-.594.196-.172.18-.172.63v4.268q0 .45.172.644.184.182.594.182h.897q.423 0 .594-.182.185-.195.185-.644v-.573q0-.308.277-.308h1.109q.29 0 .29.308v.658q0 1.091-.58 1.693-.569.588-1.598.588Z" class="ICON_1"/>
</svg>
