<svg xmlns="http://www.w3.org/2000/svg" width="1011.81" height="407.956" viewBox="0 0 267.708 107.938">
    <path d="M593.498 707.166c44.318 0 68.993-23.716 68.993-57.015 0-67.796-87.44-42.881-87.44-65.64 0-6.468 6.708-10.54 17.488-10.54 12.697 0 19.405 6.468 19.884 14.613h45.516c-2.156-35.455-26.351-55.338-65.4-55.338-40.485 0-63.244 22.758-63.244 52.703 0 69.712 85.044 45.756 85.044 67.795 0 7.427-6.468 11.5-19.644 11.5-16.29 0-24.674-7.427-25.633-17.728h-43.6c-.24 35.934 23.956 59.65 68.036 59.65m140.15-3.114h28.508v-36.653h-15.81c-9.344 0-14.854-5.03-14.854-12.696v-43.36h30.664v-34.737h-30.664v-33.299h-42.641v20.363c0 7.905-4.312 13.415-12.218 13.415h-9.343v34.257h19.165v45.996c0 28.986 17.728 46.714 47.194 46.714m36.901 0h45.037v-54.62c0-21.081 11.5-32.1 27.79-32.1h16.29v-41.924H846.97c-16.53 0-27.55 9.822-32.101 18.686h-2.156v-17.488H770.55zm160.993 3.114c41.923 0 69.472-29.466 69.472-66.837s-27.55-66.837-69.472-66.837c-42.642 0-69.473 29.466-69.473 66.837s27.55 66.837 69.473 66.837m0-40.725c-13.655 0-23.956-10.54-23.956-26.112s10.3-26.112 23.956-26.112 23.956 10.54 23.956 26.112-10.301 26.112-23.956 26.112m80.26 37.61h45.038V634.58c0-10.302 5.75-19.165 15.81-19.165 10.541 0 15.333 7.666 15.333 17.727v70.91h45.037v-86.96c0-25.873-17.248-43.6-44.798-43.6-16.05 0-27.31 7.905-32.1 15.092h-2.157v-11.978h-42.163zm194.053 58.214c48.87 0 68.514-28.747 68.514-60.13V576.606h-44.798v11.978h-2.156c-3.833-6.229-14.613-15.092-32.82-15.092-31.382 0-55.578 24.195-55.578 65.64 0 41.922 24.915 65.639 56.057 65.639 17.249 0 27.55-8.385 32.101-15.093h2.157v12.457c0 17.01-8.385 24.196-23.477 24.196s-20.603-6.947-21.8-14.134h-40.726c0 24.914 19.644 50.068 62.526 50.068m1.437-98.22c-13.655 0-22.758-9.342-22.758-24.914 0-15.571 9.103-24.914 22.758-24.914s22.758 9.343 22.758 24.914-9.103 24.914-22.758 24.914" aria-label="Strong" style="-inkscape-font-specification:&quot;Silka Heavy&quot;;mix-blend-mode:lighten;fill:#259ae9;stroke-width:12.5753;stroke-linecap:round;stroke-linejoin:round;paint-order:stroke fill markers" transform="translate(-87.344 -93.744)scale(.26458)"/>
    <path d="M530.965 206.442c21.788 0 34.238-12.061 34.238-28.143 0-36.701-48.893-21.139-48.893-40.073 0-5.707 4.67-10.505 14.266-10.505 9.727 0 15.044 5.058 15.173 12.58h17.249c-.519-18.935-15.174-28.013-32.422-28.013-19.972 0-31.385 11.802-31.385 26.197 0 37.09 48.244 20.361 48.244 41.111 0 6.874-6.225 11.024-15.951 11.024-11.413 0-18.157-6.355-18.286-14.525h-16.73c0 18.026 13.747 30.347 34.497 30.347m46.795 28.142h16.86v-38.647h.907c2.205 3.76 8.69 10.505 20.75 10.505 18.675 0 31.644-14.785 31.644-36.054 0-21.268-13.098-35.534-32.162-35.534-12.45 0-18.675 7.522-20.491 10.375h-.908v-8.69h-16.6zm34.756-43.446c-10.504 0-18.286-7.78-18.286-20.49 0-11.542 7.004-20.491 18.157-20.491 11.023 0 18.415 8.04 18.415 20.49 0 12.062-7.392 20.491-18.286 20.491m45.758 43.446h8.43c13.228 0 20.231-6.614 24.51-18.156l30.088-79.888h-18.026l-16.47 47.984h-1.038l-16.99-47.984h-17.766l27.104 70.29-1.815 4.8c-1.946 5.057-5.188 7.91-11.024 7.91h-7.003zm97.892-28.142c12.45 0 18.546-7.522 20.49-10.375h.909v8.689h16.6V107.49h-16.86v37.869h-.907c-2.335-3.502-8.949-10.505-20.75-10.505-18.676 0-31.644 14.784-31.644 36.183 0 21.139 13.098 35.405 32.162 35.405m3.242-15.174c-10.893 0-18.286-8.17-18.286-20.49 0-12.062 7.393-20.621 18.157-20.621 10.634 0 18.415 7.781 18.415 20.62 0 11.413-7.003 20.491-18.286 20.491m79.996 15.174c17.637 0 29.828-9.079 33.2-22.955h-15.692c-2.335 5.576-8.69 9.467-16.99 9.467-10.893 0-18.026-7.003-18.545-17.378h51.875v-5.317c0-19.194-11.931-35.405-33.848-35.405-19.972 0-34.368 14.655-34.368 36.183 0 20.36 14.266 35.405 34.368 35.405m-17.768-42.797c1.038-8.56 8.3-15.304 17.768-15.304 9.856 0 16.989 6.096 17.767 15.304zm64.433 41.11h16.86v-32.292c0-12.19 6.484-20.101 17.248-20.101h7.003V136.28h-6.225c-9.467 0-15.692 6.096-17.897 11.413h-1.037V136.54h-15.952z" aria-label="Spyder" style="-inkscape-font-specification:&quot;Silka Semi-Bold&quot;;fill:#fff;stroke-width:6.80782;stroke-linecap:round;stroke-linejoin:round;paint-order:stroke fill markers" transform="translate(-174.1 -26.886)scale(.37846)"/>
    <g style="fill:#fff;fill-opacity:0.5">
        <path d="M451.384 536.507c55.105-7.494 61.179-13.56 68.672-68.654 7.495 55.094 13.568 61.16 68.67 68.654-55.102 7.493-61.175 13.573-68.67 68.68-7.493-55.107-13.567-61.187-68.672-68.68m305.588-407.44c55.103-7.494 61.179-13.574 68.673-68.667 7.491 55.093 13.567 61.173 68.668 68.667-55.101 7.493-61.177 13.56-68.668 68.666-7.494-55.106-13.57-61.173-68.673-68.666" style="fill:#fff;fill-opacity:0.5;fill-rule:nonzero;stroke:none;stroke-width:.133333" transform="translate(25.849 60.413)scale(.02322)"/>
        <path d="M380 294.587C653.51 276.867 667.87 262.52 685.585-11c17.719 273.52 32.079 287.867 305.588 305.587-273.509 17.72-287.869 32.08-305.588 305.586C667.871 326.667 653.51 312.307 380 294.587" style="fill:#fff;fill-opacity:0.5;fill-rule:nonzero;stroke:none;stroke-width:.133333" transform="translate(25.849 60.413)scale(.02322)"/>
        <path d="M704.684 568.347c182.343-11.814 191.913-21.387 203.73-203.734 11.81 182.347 21.382 191.92 203.725 203.734-182.343 11.8-191.915 21.373-203.726 203.72-11.816-182.347-21.386-191.92-203.729-203.72" style="fill:#fff;fill-opacity:0.5;fill-rule:nonzero;stroke:none;stroke-width:.133333" transform="translate(25.849 60.413)scale(.02322)"/>
    </g>
    <g style="fill:#fff;fill-opacity:0.5">
        <path d="M451.384 536.507c55.105-7.494 61.179-13.56 68.672-68.654 7.495 55.094 13.568 61.16 68.67 68.654-55.102 7.493-61.175 13.573-68.67 68.68-7.493-55.107-13.567-61.187-68.672-68.68m305.588-407.44c55.103-7.494 61.179-13.574 68.673-68.667 7.491 55.093 13.567 61.173 68.668 68.667-55.101 7.493-61.177 13.56-68.668 68.666-7.494-55.106-13.57-61.173-68.673-68.666" style="fill:#fff;fill-opacity:0.5;fill-rule:nonzero;stroke:none;stroke-width:.133333" transform="matrix(.02078 0 0 -.02078 244.6 73.093)"/>
        <path d="M380 294.587C653.51 276.867 667.87 262.52 685.585-11c17.719 273.52 32.079 287.867 305.588 305.587-273.509 17.72-287.869 32.08-305.588 305.586C667.871 326.667 653.51 312.307 380 294.587" style="fill:#fff;fill-opacity:0.5;fill-rule:nonzero;stroke:none;stroke-width:.133333" transform="matrix(.02078 0 0 -.02078 244.6 73.093)"/>
        <path d="M704.684 568.347c182.343-11.814 191.913-21.387 203.73-203.734 11.81 182.347 21.382 191.92 203.725 203.734-182.343 11.8-191.915 21.373-203.726 203.72-11.816-182.347-21.386-191.92-203.729-203.72" style="fill:#fff;fill-opacity:0.5;fill-rule:nonzero;stroke:none;stroke-width:.133333" transform="matrix(.02078 0 0 -.02078 244.6 73.093)"/>
    </g>
    <g style="fill:#fff;fill-opacity:0.5">
        <path d="M3422.8 550.093c181.84-24.733 201.893-44.786 226.613-226.626 24.734 181.84 44.787 201.893 226.627 226.626-181.84 24.72-201.893 44.774-226.627 226.614-24.72-181.84-44.773-201.894-226.613-226.614m-275.24 353.934c181.84-24.734 201.893-44.774 226.613-226.614 24.734 181.84 44.774 201.88 226.627 226.614-181.853 24.733-201.893 44.786-226.627 226.613-24.72-181.827-44.773-201.88-226.613-226.613m484.867-5.707c122.586-16.667 136.106-30.187 152.773-152.773 16.68 122.586 30.187 136.106 152.787 152.773-122.6 16.68-136.107 30.2-152.787 152.787C3768.533 928.52 3755.013 915 3632.427 898.32m-326.92-490.867c55.106-7.493 61.173-13.573 68.68-68.666 7.493 55.093 13.56 61.173 68.666 68.666-55.106 7.494-61.173 13.574-68.666 68.667-7.507-55.093-13.574-61.173-68.68-68.667M3170.453 674.84c55.107-7.493 61.174-13.573 68.667-68.667 7.493 55.094 13.573 61.174 68.667 68.667-55.094 7.493-61.174 13.573-68.667 68.667-7.493-55.094-13.56-61.174-68.667-68.667" style="fill:#fff;fill-opacity:0.5;fill-rule:nonzero;stroke:none;stroke-width:.133333" transform="translate(54.695 80.24)scale(.02383)"/>
    </g>
    <path d="M488.6 419.646h6.357v-17.951h20.011v17.951h6.298v-41.2h-6.298v17.363h-20.011v-17.363H488.6zm55.431.766c7.593 0 13.066-4.12 14.655-10.065h-6.003c-1.236 3.002-4.59 4.885-8.475 4.885-5.65 0-9.241-3.65-9.476-9.005h24.249v-2.296c0-8.77-5.474-15.832-15.068-15.832-8.77 0-15.362 6.474-15.362 16.244 0 9.241 6.24 16.069 15.48 16.069m-9.182-18.953c.471-4.826 4.356-8.18 9.064-8.18 4.768 0 8.535 3.001 8.947 8.18zm36.891 18.187h2.531v-5.473h-1.295c-1.53 0-2.354-.883-2.354-2.531v-36.139h-6.18v36.492c0 4.826 2.648 7.651 7.298 7.651m9.817 13.538h6.18v-18.01h.353c1 1.647 4.179 5.238 10.123 5.238 8.535 0 14.597-6.71 14.597-16.245s-6.062-16.068-14.95-16.068c-6.12 0-9.064 3.943-9.888 5.18h-.412v-4.415h-6.003zm15.538-18.364c-5.415 0-9.535-3.943-9.535-10.594 0-5.827 3.532-10.536 9.417-10.536 5.71 0 9.535 4.12 9.535 10.536 0 6.18-3.825 10.594-9.417 10.594m69.191 4.826-15.126-24.19 14.538-17.01h-7.828l-15.774 19.011h-.353v-19.01h-6.357v41.2h6.357V406.52l5.18-6.062 11.77 19.187zm16.468.766c7.592 0 13.066-4.12 14.655-10.065h-6.003c-1.236 3.002-4.591 4.885-8.476 4.885-5.65 0-9.24-3.65-9.476-9.005h24.25v-2.296c0-8.77-5.474-15.832-15.068-15.832-8.77 0-15.362 6.474-15.362 16.244 0 9.241 6.239 16.069 15.48 16.069m-9.182-18.953c.47-4.826 4.355-8.18 9.064-8.18 4.767 0 8.534 3.001 8.946 8.18zm44.248 18.953c7.593 0 13.066-4.12 14.656-10.065h-6.004c-1.236 3.002-4.59 4.885-8.475 4.885-5.65 0-9.241-3.65-9.476-9.005h24.249v-2.296c0-8.77-5.474-15.832-15.068-15.832-8.77 0-15.361 6.474-15.361 16.244 0 9.241 6.238 16.069 15.479 16.069m-9.182-18.953c.471-4.826 4.356-8.18 9.064-8.18 4.768 0 8.535 3.001 8.947 8.18zm30.947 31.725h6.18v-18.01h.353c1 1.647 4.179 5.238 10.123 5.238 8.535 0 14.597-6.71 14.597-16.245s-6.062-16.068-14.95-16.068c-6.121 0-9.064 3.943-9.888 5.18h-.412v-4.415h-6.003zm15.538-18.364c-5.415 0-9.535-3.943-9.535-10.594 0-5.827 3.532-10.536 9.417-10.536 5.71 0 9.535 4.12 9.535 10.536 0 6.18-3.826 10.594-9.417 10.594" aria-label="Help Keep" style="-inkscape-font-specification:&quot;Silka Medium&quot;;opacity:.656108;fill:#fff;stroke-width:3.08963;stroke-linecap:round;stroke-linejoin:round;paint-order:stroke fill markers" transform="translate(-87.344 -93.744)scale(.26458)"/>
</svg>
