<?xml version="1.0" encoding="UTF-8" standalone="no"?>
<svg
   width="149"
   height="30"
   version="1.1"
   id="svg294"
   sodipodi:docname="icon_donations_sm.svg"
   inkscape:version="1.2.2 (b0a8486541, 2022-12-01)"
   xmlns:inkscape="http://www.inkscape.org/namespaces/inkscape"
   xmlns:sodipodi="http://sodipodi.sourceforge.net/DTD/sodipodi-0.dtd"
   xmlns="http://www.w3.org/2000/svg"
   xmlns:svg="http://www.w3.org/2000/svg">
  <sodipodi:namedview
     id="namedview296"
     pagecolor="#ffffff"
     bordercolor="#666666"
     borderopacity="1.0"
     inkscape:showpageshadow="2"
     inkscape:pageopacity="0.0"
     inkscape:pagecheckerboard="0"
     inkscape:deskcolor="#d1d1d1"
     showgrid="false"
     inkscape:zoom="6.3263992"
     inkscape:cx="90.414782"
     inkscape:cy="18.652"
     inkscape:window-width="1680"
     inkscape:window-height="990"
     inkscape:window-x="0"
     inkscape:window-y="32"
     inkscape:window-maximized="1"
     inkscape:current-layer="svg294" />
  <defs
     id="defs284">
    <filter
       id="a"
       width="1.552329"
       height="1.2008831"
       x="-0.33813887"
       y="-0.12216475"
       style="color-interpolation-filters:sRGB">
      <feFlood
         flood-color="#000"
         flood-opacity=".22"
         result="flood"
         id="feFlood273" />
      <feGaussianBlur
         in="SourceGraphic"
         result="blur"
         stdDeviation="2.6"
         id="feGaussianBlur275" />
      <feOffset
         dx="-3.611"
         dy="-3.444"
         in="blur"
         result="offset"
         id="feOffset277" />
      <feComposite
         in="flood"
         in2="offset"
         operator="out"
         result="comp1"
         id="feComposite279" />
      <feComposite
         in="comp1"
         in2="SourceGraphic"
         operator="atop"
         result="comp2"
         id="feComposite281" />
    </filter>
  </defs>
  <path
     d="m 947.67,991.135 h 29.133 v 79.27 H 947.67 Z"
     style="opacity:0.634913;fill:#b9dbf9;fill-opacity:1;stroke-width:0.542319;filter:url(#a)"
     transform="matrix(0.19423404,0,0,0.18101184,-69.163646,-165.88269)"
     id="path286" />
  <path
     d="m 1056.074,934.9 q 7.792,-8.808 19.648,-8.808 9.824,0 16.6,7.114 6.775,7.114 7.114,16.6 0,7.453 -7.114,17.785 -7.114,10.332 -14.228,17.277 -7.114,6.945 -22.02,20.495 -14.906,-13.55 -22.02,-20.495 -7.114,-6.945 -14.228,-17.277 -7.114,-10.332 -7.114,-17.785 0,-9.824 7.114,-16.6 7.114,-6.775 16.938,-7.114 11.518,0 19.31,8.808"
     style="opacity:0.834711;fill:#ffffff;fill-opacity:1;stroke-width:0.542319;filter:url(#a)"
     transform="matrix(0.19423404,0,0,0.18101184,-69.163646,-165.88269)"
     id="path288" />
  <path
     d="m 1085.208,1034.497 q 6.097,0 10.332,4.234 4.234,4.235 4.234,9.994 l -57.928,21.68 -50.815,-14.227 v -65.043 h 14.228 l 52.509,19.31 q 5.759,2.37 5.759,8.13 0,3.387 -2.541,5.928 -2.541,2.541 -6.267,2.54 h -20.326 l -12.534,-4.742 -2.372,6.776 14.906,5.42 z"
     style="opacity:0.634913;fill:#b9dbf9;fill-opacity:1;stroke-width:0.542319;filter:url(#a)"
     transform="matrix(0.19423404,0,0,0.18101184,-69.163646,-165.88269)"
     id="path290" />
  <path
     d="m 0,24.470625 h 7.1565127 c 6.0293213,0 9.7546733,-3.671637 9.7546733,-9.486923 0,-5.467378 -3.725352,-9.2728909 -9.7554997,-9.2728909 H 0 Z m 5.1459128,-4.421997 v -9.916646 h 1.7420241 c 2.0097735,0 4.6633031,1.018936 4.6633031,4.850893 0,4.047644 -2.679974,5.065753 -4.6633031,5.065753 z m 21.2794692,4.770733 c 4.689747,0 7.772171,-3.297285 7.772171,-7.477151 0,-4.181519 -3.082424,-7.4788034 -7.772171,-7.4788034 -4.770734,0 -7.772172,3.2972844 -7.772172,7.4788034 0,4.180692 3.082425,7.477151 7.772172,7.477151 m 0,-4.556698 c -1.52799,0 -2.679974,-1.178429 -2.679974,-2.920453 0,-1.742024 1.151984,-2.921278 2.679974,-2.921278 1.52799,0 2.679973,1.179254 2.679973,2.921278 0,1.742024 -1.151983,2.920453 -2.679973,2.920453 m 10.05052,4.207962 h 5.038482 v -7.772171 c 0,-1.151983 0.64293,-2.143647 1.768469,-2.143647 1.179254,0 1.71558,0.856963 1.71558,1.983329 v 7.933316 h 5.038482 V 14.74157 c 0,-2.894834 -1.93044,-4.8781634 -5.012038,-4.8781634 -1.795739,0 -3.055153,0.8842334 -3.591478,1.6883094 h -0.241306 v -1.339574 h -4.715364 z m 21.654649,0.348736 c 2.036218,0 3.108868,-0.991664 3.536937,-1.688309 h 0.241305 v 1.338747 h 5.012038 V 10.213795 h -5.038483 v 1.338747 h -0.241304 c -0.509055,-0.749533 -1.661038,-1.6874827 -3.591479,-1.6874827 -3.751798,0 -6.270625,3.0551537 -6.270625,7.5845807 0,4.528602 2.572542,7.370548 6.351611,7.370548 m 1.285859,-4.556699 c -1.527164,0 -2.545273,-1.178429 -2.545273,-2.920453 0,-1.742023 1.018109,-2.921278 2.545273,-2.921278 1.527163,0 2.546098,1.179255 2.546098,2.921278 0,1.742024 -1.018109,2.920453 -2.545272,2.920453 m 16.803756,4.207963 h 3.189854 v -4.101359 h -1.768468 c -1.046207,0 -1.661865,-0.561943 -1.661865,-1.421387 V 14.097814 H 79.41002 V 10.213795 H 75.980513 V 6.4867887 H 71.20978 V 8.765138 c 0,0.8842343 -0.48261,1.500719 -1.366844,1.500719 H 68.79673 v 3.831957 h 2.144475 v 5.145913 c 0,3.242743 1.983329,5.226072 5.27896,5.226072 m 11.81899,0.348736 c 4.046817,0 6.673902,-1.929614 7.263943,-5.065753 h -4.422825 c -0.29502,0.561943 -1.099094,1.313955 -2.652702,1.313955 -1.528816,0 -2.653529,-1.018935 -2.787404,-2.385779 h 10.02325 v -1.313956 c 0,-3.912117 -2.412224,-7.5035954 -7.263117,-7.5035954 -4.528602,0 -7.450706,3.1898544 -7.450706,7.6110254 0,4.28895 3.242742,7.344103 7.289561,7.344103 m -2.518828,-9.27289 c 0.18759,-0.911506 1.151984,-1.956885 2.679973,-1.956885 1.634594,0 2.545272,1.018935 2.706418,1.956885 z m 13.265992,2.921278 h 2.921281 l 1.09909,-5.896272 V 5.7099848 h -5.119465 v 6.8606662 z m 1.420561,6.351612 c 1.58088,0 2.62626,-1.018936 2.62626,-2.546099 0,-1.447003 -1.04538,-2.546099 -2.62626,-2.546099 -1.447005,0 -2.599815,1.099096 -2.599815,2.545272 0,1.528817 1.15281,2.546926 2.599815,2.546926"
     aria-label="Donate!"
     style="font-weight:900;font-size:32.4308px;line-height:0.9;font-family:Silka;-inkscape-font-specification:'Silka Heavy';letter-spacing:0;fill:#ffffff;stroke-width:6.33158;stroke-linecap:round;stroke-linejoin:round;paint-order:stroke fill markers"
     id="path292" />
</svg>
