<svg xmlns="http://www.w3.org/2000/svg" width="180.271" height="35.099">
    <defs>
        <filter id="a" width="1.552" height="1.201" x="-.338" y="-.122" style="color-interpolation-filters:sRGB">
            <feFlood flood-color="#000" flood-opacity=".22" result="flood"/>
            <feGaussianBlur in="SourceGraphic" result="blur" stdDeviation="2.6"/>
            <feOffset dx="-3.611" dy="-3.444" in="blur" result="offset"/>
            <feComposite in="flood" in2="offset" operator="out" result="comp1"/>
            <feComposite in="comp1" in2="SourceGraphic" operator="atop" result="comp2"/>
        </filter>
    </defs>
    <path d="M947.67 991.135h29.133v79.27H947.67Z" style="opacity:.634913;fill:#b9dbf9;fill-opacity:1;stroke-width:.542319;filter:url(#a)" transform="matrix(.23504 0 0 .21904 -83.694 -200.732)"/>
    <path d="M1056.074 934.9q7.792-8.808 19.648-8.808 9.824 0 16.6 7.114 6.775 7.114 7.114 16.6 0 7.453-7.114 17.785t-14.228 17.277-22.02 20.495q-14.906-13.55-22.02-20.495t-14.228-17.277-7.114-17.785q0-9.824 7.114-16.6 7.114-6.775 16.938-7.114 11.518 0 19.31 8.808" style="opacity:.834711;fill:#fff;fill-opacity:1;stroke-width:.542319;filter:url(#a)" transform="matrix(.23504 0 0 .21904 -83.694 -200.732)"/>
    <path d="M1085.208 1034.497q6.097 0 10.332 4.234 4.234 4.235 4.234 9.994l-57.928 21.68-50.815-14.227v-65.043h14.228l52.509 19.31q5.759 2.37 5.759 8.13 0 3.387-2.541 5.928t-6.267 2.54h-20.326l-12.534-4.742-2.372 6.776 14.906 5.42z" style="opacity:.634913;fill:#b9dbf9;fill-opacity:1;stroke-width:.542319;filter:url(#a)" transform="matrix(.23504 0 0 .21904 -83.694 -200.732)"/>
    <path d="M0 29.612h8.66c7.296 0 11.804-4.443 11.804-11.48 0-6.616-4.508-11.221-11.805-11.221H0Zm6.227-5.351v-12h2.108c2.432 0 5.643 1.233 5.643 5.87 0 4.898-3.243 6.13-5.643 6.13zm25.75 5.773c5.675 0 9.405-3.99 9.405-9.048 0-5.06-3.73-9.05-9.405-9.05-5.773 0-9.405 3.99-9.405 9.05 0 5.059 3.73 9.048 9.405 9.048m0-5.514c-1.849 0-3.243-1.426-3.243-3.534s1.394-3.535 3.243-3.535 3.243 1.427 3.243 3.535-1.394 3.534-3.243 3.534m12.162 5.092h6.097v-9.405c0-1.394.778-2.594 2.14-2.594 1.427 0 2.076 1.037 2.076 2.4v9.6h6.097V17.839c0-3.503-2.336-5.903-6.065-5.903-2.173 0-3.697 1.07-4.346 2.043h-.292v-1.621H44.14Zm26.204.422c2.464 0 3.762-1.2 4.28-2.043h.292v1.62h6.065V12.36h-6.097v1.62h-.292c-.616-.907-2.01-2.042-4.346-2.042-4.54 0-7.588 3.697-7.588 9.178 0 5.48 3.113 8.919 7.686 8.919m1.556-5.514c-1.848 0-3.08-1.426-3.08-3.534s1.232-3.535 3.08-3.535 3.081 1.427 3.081 3.535-1.232 3.534-3.08 3.534m20.334 5.092h3.86V24.65h-2.14c-1.266 0-2.011-.68-2.011-1.72v-5.87h4.15V12.36h-4.15V7.85H86.17v2.757c0 1.07-.584 1.816-1.654 1.816H83.25v4.637h2.595v6.227c0 3.924 2.4 6.324 6.388 6.324m14.302.422c4.897 0 8.076-2.335 8.79-6.13h-5.352c-.357.68-1.33 1.59-3.21 1.59-1.85 0-3.211-1.233-3.373-2.887h12.129v-1.59c0-4.734-2.919-9.08-8.789-9.08-5.48 0-9.016 3.86-9.016 9.21 0 5.19 3.924 8.887 8.821 8.887m-3.048-11.221c.227-1.103 1.394-2.368 3.243-2.368 1.978 0 3.08 1.233 3.275 2.368zm16.053 3.535h3.535l1.33-7.135V6.91h-6.195v8.302zm1.719 7.686c1.913 0 3.178-1.233 3.178-3.081 0-1.751-1.265-3.081-3.178-3.081-1.751 0-3.146 1.33-3.146 3.08 0 1.85 1.395 3.082 3.146 3.082" aria-label="Donate!" style="font-weight:900;font-size:32.4308px;line-height:.9;font-family:Silka;-inkscape-font-specification:&quot;Silka Heavy&quot;;letter-spacing:0;fill:#fff;stroke-width:7.66175;stroke-linecap:round;stroke-linejoin:round;paint-order:stroke fill markers"/>
</svg>
