<svg xmlns="http://www.w3.org/2000/svg" width="207.518" height="64">
    <defs>
        <filter id="a" width="1.552" height="1.201" x="-.338" y="-.122" style="color-interpolation-filters:sRGB">
            <feFlood flood-color="#000" flood-opacity=".22" result="flood"/>
            <feGaussianBlur in="SourceGraphic" result="blur" stdDeviation="2.6"/>
            <feOffset dx="-3.611" dy="-3.444" in="blur" result="offset"/>
            <feComposite in="flood" in2="offset" operator="out" result="comp1"/>
            <feComposite in="comp1" in2="SourceGraphic" operator="atop" result="comp2"/>
        </filter>
    </defs>
    <path d="M947.67 991.135h29.133v79.27H947.67Z" style="opacity:.634913;fill:#b9dbf9;fill-opacity:1;stroke-width:.338763;filter:url(#a)" transform="matrix(.37627 0 0 .35066 -209.357 -317.438)"/>
    <path d="M1056.074 934.9q7.792-8.808 19.648-8.808 9.824 0 16.6 7.114 6.775 7.114 7.114 16.6 0 7.453-7.114 17.785t-14.228 17.277-22.02 20.495q-14.906-13.55-22.02-20.495t-14.228-17.277-7.114-17.785q0-9.824 7.114-16.6 7.114-6.775 16.938-7.114 11.518 0 19.31 8.808" style="opacity:.834711;fill:#fff;fill-opacity:1;stroke-width:.338763;filter:url(#a)" transform="matrix(.37627 0 0 .35066 -209.357 -317.438)"/>
    <path d="M1085.208 1034.497q6.097 0 10.332 4.234 4.234 4.235 4.234 9.994l-57.928 21.68-50.815-14.227v-65.043h14.228l52.509 19.31q5.759 2.37 5.759 8.13 0 3.387-2.541 5.928t-6.267 2.54h-20.326l-12.534-4.742-2.372 6.776 14.906 5.42z" style="opacity:.634913;fill:#b9dbf9;fill-opacity:1;stroke-width:.338763;filter:url(#a)" transform="matrix(.37627 0 0 .35066 -209.357 -317.438)"/>
    <path d="M13.612 23.564c2.771 0 4.874-1.63 5.51-4.042h-1.924c-.522 1.516-1.923 2.38-3.586 2.38-2.331 0-4.091-1.794-4.091-4.255 0-2.429 1.76-4.254 4.091-4.254 1.663 0 3.08.88 3.586 2.396h1.89c-.667-2.38-2.689-4.059-5.476-4.059-3.423 0-5.917 2.56-5.917 5.917 0 3.39 2.478 5.917 5.917 5.917m9.633-.212h.701v-1.516h-.358c-.424 0-.652-.244-.652-.7V11.126h-1.712v10.106c0 1.337.734 2.12 2.021 2.12m3.44-9.861c.668 0 1.14-.44 1.14-1.092 0-.62-.472-1.076-1.14-1.076-.652 0-1.125.456-1.125 1.076 0 .652.473 1.092 1.125 1.092m-.864 9.861h1.711v-8.525h-1.711zm8.003.212c2.005 0 3.733-1.206 4.108-3.162h-1.744c-.294.962-1.239 1.614-2.331 1.614-1.598 0-2.706-1.24-2.706-2.918 0-1.646 1.06-2.918 2.673-2.918 1.125 0 2.054.652 2.347 1.63h1.76c-.39-1.956-2.102-3.195-4.123-3.195-2.592 0-4.417 1.956-4.417 4.483 0 2.51 1.793 4.466 4.433 4.466m13.578-.212-3.178-5.297 2.966-3.228h-2.135l-3.227 3.635h-.098v-7.335h-1.712v12.225h1.712v-2.575l1.32-1.45 2.413 4.025zm6.048 0h1.711V18.3c0-1.206.946-2.086 2.103-2.086 1.076 0 1.94.798 1.94 1.988v5.151h1.711v-5.477c0-1.842-1.206-3.26-3.146-3.26-1.271 0-2.151.652-2.51 1.353h-.114v-4.84H53.45zm13.61.212c2.103 0 3.619-1.14 4.06-2.787h-1.664c-.342.831-1.271 1.353-2.347 1.353-1.565 0-2.559-1.01-2.624-2.494H71.2V19c0-2.429-1.516-4.385-4.173-4.385-2.429 0-4.255 1.793-4.255 4.5 0 2.558 1.728 4.45 4.287 4.45m-2.543-5.249c.13-1.336 1.207-2.265 2.51-2.265 1.321 0 2.364.831 2.478 2.265zm8.754 5.037h1.711v-4.205c0-1.581.832-2.673 2.282-2.673h.799V14.81h-.75c-1.206 0-2.021.815-2.282 1.5h-.114v-1.484h-1.646zm10.138.212c2.103 0 3.62-1.14 4.06-2.787h-1.663c-.343.831-1.272 1.353-2.348 1.353-1.564 0-2.559-1.01-2.624-2.494h6.716V19c0-2.429-1.516-4.385-4.173-4.385-2.429 0-4.254 1.793-4.254 4.5 0 2.558 1.727 4.45 4.286 4.45m-2.542-5.249c.13-1.336 1.206-2.265 2.51-2.265 1.32 0 2.363.831 2.477 2.265zm16.707 5.037h1.418v-1.45h-1.157c-.896 0-1.239-.49-1.239-1.304v-4.369h2.478v-1.402h-2.478v-2.412h-1.613v1.874c0 .343-.212.555-.506.555h-1.124v1.385h1.532v4.417c0 1.777 1.01 2.706 2.69 2.706m7.433.212c2.608 0 4.5-1.923 4.5-4.466s-1.86-4.483-4.483-4.483c-2.625 0-4.516 1.924-4.516 4.483s1.875 4.466 4.5 4.466m0-1.548c-1.597 0-2.755-1.223-2.755-2.918 0-1.679 1.142-2.918 2.755-2.918 1.614 0 2.755 1.223 2.755 2.918 0 1.679-1.141 2.918-2.755 2.918" aria-label="Click here to" style="fill:#fff;fill-opacity:.9;stroke-width:3.85091;stroke-linecap:round;stroke-linejoin:round;paint-order:stroke fill markers"/>
    <path d="M7.76 54.036h8.66c7.296 0 11.804-4.443 11.804-11.48 0-6.616-4.508-11.221-11.805-11.221H7.76Zm6.227-5.351v-12h2.108c2.432 0 5.643 1.233 5.643 5.87 0 4.898-3.243 6.13-5.643 6.13zm25.75 5.773c5.675 0 9.405-3.99 9.405-9.048 0-5.06-3.73-9.049-9.405-9.049-5.773 0-9.405 3.99-9.405 9.049s3.73 9.048 9.405 9.048m0-5.514c-1.849 0-3.243-1.426-3.243-3.534s1.394-3.535 3.243-3.535 3.243 1.427 3.243 3.535-1.394 3.534-3.243 3.534m12.162 5.092h6.097v-9.405c0-1.394.778-2.594 2.14-2.594 1.427 0 2.076 1.037 2.076 2.4v9.6h6.097V42.263c0-3.503-2.336-5.903-6.065-5.903-2.173 0-3.697 1.07-4.346 2.043h-.292v-1.621H51.9zm26.204.422c2.464 0 3.762-1.2 4.28-2.043h.292v1.621h6.065V36.783h-6.097v1.621h-.292c-.616-.908-2.01-2.043-4.346-2.043-4.54 0-7.588 3.697-7.588 9.178s3.113 8.919 7.686 8.919m1.556-5.514c-1.848 0-3.08-1.426-3.08-3.534s1.232-3.535 3.08-3.535 3.081 1.427 3.081 3.535-1.232 3.534-3.08 3.534m20.334 5.092h3.86v-4.962h-2.14c-1.266 0-2.011-.68-2.011-1.719v-5.87h4.15v-4.702h-4.15v-4.508h-5.773v2.757c0 1.07-.584 1.816-1.654 1.816H91.01v4.637h2.595v6.227c0 3.924 2.4 6.324 6.388 6.324m14.302.422c4.897 0 8.076-2.335 8.79-6.13h-5.352c-.357.681-1.33 1.59-3.21 1.59-1.85 0-3.211-1.233-3.373-2.887h12.129v-1.59c0-4.734-2.919-9.08-8.789-9.08-5.48 0-9.016 3.86-9.016 9.21 0 5.19 3.924 8.887 8.821 8.887m-3.048-11.221c.227-1.103 1.394-2.368 3.243-2.368 1.978 0 3.08 1.233 3.275 2.368zm16.053 3.535h3.535l1.33-7.135v-8.302h-6.195v8.302zm1.719 7.686c1.913 0 3.178-1.233 3.178-3.081 0-1.751-1.265-3.081-3.178-3.081-1.751 0-3.146 1.33-3.146 3.08 0 1.85 1.395 3.082 3.146 3.082" aria-label="Donate!" style="font-weight:900;font-size:32.4308px;line-height:.9;font-family:Silka;-inkscape-font-specification:&quot;Silka Heavy&quot;;letter-spacing:0;fill:#fff;stroke-width:7.66175;stroke-linecap:round;stroke-linejoin:round;paint-order:stroke fill markers"/>
</svg>
