<svg xmlns="http://www.w3.org/2000/svg" width="24" height="24" fill="none"><path fill="#37414F" fill-rule="evenodd" d="M4 4c0-1.11.89-2 2-2h8l6 6v12a2 2 0 0 1-2 2H6a2 2 0 0 1-2-2V4Zm6.768 5.188C10.31 8.396 9.63 8 8.73 8c-.908 0-1.591.396-2.049 1.188C6.227 9.975 6 11.074 6 12.484c0 1.415.227 2.522.681 3.322C7.14 16.602 7.821 17 8.73 17c.9 0 1.58-.398 2.038-1.194.461-.8.692-1.907.692-3.321 0-1.41-.23-2.51-.692-3.297Zm-2.883.934c.178-.47.46-.706.845-.706.287 0 .509.08.665.242.047.047.09.106.128.178l-1.837 4.363c-.045-.429-.068-1-.068-1.714 0-1.11.09-1.897.267-2.363Zm.18 5.236c.162.155.384.232.665.232a.767.767 0 0 0 .627-.297c.163-.198.283-.524.36-.977.076-.458.114-1.069.114-1.832 0-.458-.01-.857-.03-1.197l-1.736 4.071Zm8.524-.047V8.216h-1.526L12.627 9.9l.73 1.342 1.553-1.1v5.17h-1.82v1.479H18V15.31h-1.411Z" clip-rule="evenodd"/></svg>