<?xml version="1.0" encoding="UTF-8" standalone="no"?>
<svg
   xmlns:dc="http://purl.org/dc/elements/1.1/"
   xmlns:cc="http://creativecommons.org/ns#"
   xmlns:rdf="http://www.w3.org/1999/02/22-rdf-syntax-ns#"
   xmlns:svg="http://www.w3.org/2000/svg"
   xmlns="http://www.w3.org/2000/svg"
   xmlns:sodipodi="http://sodipodi.sourceforge.net/DTD/sodipodi-0.dtd"
   xmlns:inkscape="http://www.inkscape.org/namespaces/inkscape"
   viewBox="0 0 32 32"
   version="1.1"
   id="svg6"
   sodipodi:docname="Unknown-2.svg"
   inkscape:version="0.92.2 5c3e80d, 2017-08-06">
  <metadata
     id="metadata12">
    <rdf:RDF>
      <cc:Work
         rdf:about="">
        <dc:format>image/svg+xml</dc:format>
        <dc:type
           rdf:resource="http://purl.org/dc/dcmitype/StillImage" />
      </cc:Work>
    </rdf:RDF>
  </metadata>
  <defs
     id="defs10" />
  <sodipodi:namedview
     pagecolor="#ffffff"
     bordercolor="#666666"
     borderopacity="1"
     objecttolerance="10"
     gridtolerance="10"
     guidetolerance="10"
     inkscape:pageopacity="0"
     inkscape:pageshadow="2"
     inkscape:window-width="738"
     inkscape:window-height="480"
     id="namedview8"
     showgrid="false"
     inkscape:zoom="7.375"
     inkscape:cx="16"
     inkscape:cy="16"
     inkscape:window-x="0"
     inkscape:window-y="201"
     inkscape:window-maximized="0"
     inkscape:current-layer="svg6" />
  <title
     id="title2">file_type_binary</title>
  <path
     d="M20.929,2H4.529V30h23.3V9Zm5.114,26.35H6.409V3.65H19.815l6.333,6.333V28.35ZM11.477,15.393c1.584,0,2.563-1.463,2.563-3.663,0-2.145-.8-3.443-2.4-3.443S9.068,9.75,9.068,11.95C9.068,14.1,9.871,15.393,11.477,15.393ZM10.234,11.73c0-1.562.429-2.453,1.32-2.453.649,0,1.045.55,1.221,1.474l-2.53,1.309A3.2,3.2,0,0,1,10.234,11.73ZM11.565,14.4c-.638,0-1.045-.528-1.221-1.43l2.53-1.309v.286C12.874,13.512,12.456,14.4,11.565,14.4Zm10.27.847.1-1.023h-1.65V8.21l-1.177.1v.8l-1.694.176.022.891,1.672-.044v4.092H17.259V15.25Zm-7.85,9.5.1-1.023h-1.65V17.71l-1.177.1v.8l-1.694.176.022.891,1.672-.044v4.092H9.409V24.75Zm5.442.143c1.584,0,2.563-1.463,2.563-3.663,0-2.145-.8-3.443-2.4-3.443s-2.574,1.463-2.574,3.663C17.018,23.595,17.821,24.893,19.427,24.893ZM18.184,21.23c0-1.562.429-2.453,1.32-2.453.649,0,1.045.55,1.221,1.474l-2.53,1.309A3.2,3.2,0,0,1,18.184,21.23ZM19.515,23.9c-.638,0-1.045-.528-1.221-1.43l2.53-1.309v.286C20.824,23.012,20.406,23.9,19.515,23.9Z"
     style="fill:#000000"
     id="path4" />
</svg>
