<svg xmlns="http://www.w3.org/2000/svg" width="24" height="24">
    <path d="M4.775 3.887c-.48 0-.895.176-1.247.528A1.753 1.753 0 0 0 3 5.705v12.59c0 .508.176.937.528 1.29.352.352.768.528 1.247.528h14.45c.48 0 .895-.176 1.247-.528.352-.353.528-.782.528-1.29V5.706c0-.508-.176-.937-.528-1.29a1.705 1.705 0 0 0-1.247-.528Zm0 3.592h14.45v10.817H4.775ZM9.676 9.3l-1.268 1.27 2.324 2.324-2.324 2.324 1.268 1.267L12 14.161l2.324 2.323 1.268-1.267-2.324-2.324 2.324-2.324-1.268-1.268L12 11.625z" style="fill:#37414f"/>
</svg>
