<svg xmlns="http://www.w3.org/2000/svg" width="109.031" height="126.977" viewBox="0 0 28.848 33.595">
    <path d="m7.235 5.73-.861-.871.304-.304.557.557 1.429-1.42.304.305zm.436-3.465-1.946.87v1.298q0 .588.253 1.135.254.547.7.932.445.385.993.527.547-.142.993-.527.445-.385.699-.932.253-.547.253-1.135V3.136zm-.72 9.73a.353.353 0 0 0-.353.352.353.353 0 0 0 .353.353h1.41a.353.353 0 0 0 .354-.353.353.353 0 0 0-.353-.353zM2.859 0a1.77 1.77 0 0 0-1.764 1.764v7.164L.064 12.573a1.772 1.772 0 0 0 1.698 2.243h11.79a1.772 1.772 0 0 0 1.698-2.243l-1.031-3.645V1.764A1.77 1.77 0 0 0 12.455 0zm0 .705h9.596c.589 0 1.058.47 1.058 1.059v6.86H1.8v-6.86c0-.59.47-1.06 1.059-1.06zM1.715 9.329h11.884l.97 3.435a1.05 1.05 0 0 1-1.017 1.347H1.762a1.05 1.05 0 0 1-1.02-1.347zm5.675 6.54v10.533c0 .45.37.82.82.82h5.769v-.582h-5.77a.232.232 0 0 1-.238-.238V15.87zm10.56 6.604q-.315 0-.538.22-.224.22-.224.537 0 .315.22.539.22.223.537.223.316 0 .539-.22.223-.221.223-.537 0-.315-.22-.538-.221-.224-.536-.224zm0 7.505q-.315 0-.538.22-.224.22-.224.537 0 .315.22.538.22.224.537.224.316 0 .539-.221.223-.22.223-.536 0-.315-.22-.54-.221-.222-.536-.222zm-2.236-9.604h12.508q.266 0 .446.178t.18.442v4.338q0 .335-.18.547-.18.213-.446.213H15.714q-.265 0-.445-.213-.18-.212-.18-.547v-4.338q0-.264.18-.442t.445-.178zm0 .625v4.467h12.508v-4.467zm0 6.88h12.463q.313 0 .492.205.178.205.178.51v4.198q0 .38-.178.592-.18.212-.492.212H15.759q-.313 0-.491-.212-.18-.212-.18-.592v-4.2q0-.303.157-.51.157-.204.47-.204zm0 .625v4.467h12.508v-4.467zm0-7.505v4.467zm0 7.505v4.467z" style="fill:#007A5E"/>
</svg>
