<svg xmlns="http://www.w3.org/2000/svg" width="109.013" height="126.973" viewBox="0 0 28.843 33.595">
    <path d="M6.951 11.995a.353.353 0 0 0-.353.352.353.353 0 0 0 .353.353h1.41a.353.353 0 0 0 .354-.353.353.353 0 0 0-.353-.352zM2.858 0a1.77 1.77 0 0 0-1.764 1.764v7.164l-1.03 3.645a1.772 1.772 0 0 0 1.697 2.244h11.79a1.772 1.772 0 0 0 1.698-2.244l-1.03-3.645V1.764A1.77 1.77 0 0 0 12.455 0zm0 .706h9.597c.588 0 1.058.47 1.058 1.058v6.86H1.8v-6.86c0-.59.47-1.058 1.058-1.058zM1.714 9.329h11.884l.972 3.436a1.05 1.05 0 0 1-1.019 1.346H1.761a1.05 1.05 0 0 1-1.018-1.346zm4.493-7.14h2.862v1.43l-.95.95.95.95v1.433H6.207V5.52l.95-.95-.95-.95zm2.381 3.455-.95-.95-.95.95v.838h1.9zm-.95-1.196.95-.95v-.84h-1.9v.84zm-.48-1.308h.96v.178l-.48.48-.48-.48zm.226 12.73v10.532c0 .45.37.82.82.82h5.77v-.582h-5.77a.232.232 0 0 1-.238-.238V15.87zm10.56 6.603q-.314 0-.538.22-.223.22-.223.537 0 .315.22.539.221.223.537.223.315 0 .538-.22.224-.221.224-.537 0-.315-.221-.538-.22-.224-.536-.224zm0 7.505q-.314 0-.538.22-.223.22-.223.537 0 .315.22.538.221.224.537.224.315 0 .538-.221.224-.22.224-.536 0-.316-.221-.54-.22-.222-.536-.222zm-2.234-9.605h12.507q.266 0 .446.178t.18.442v4.338q0 .335-.18.547-.18.212-.446.212H15.71q-.266 0-.446-.212t-.18-.547v-4.338q0-.264.18-.442t.446-.178zm0 .625v4.467h12.507v-4.467zm0 6.88h12.463q.312 0 .491.205t.179.509v4.199q0 .38-.179.592-.179.212-.491.212H15.754q-.312 0-.491-.212t-.179-.592v-4.2q0-.303.157-.51.156-.204.469-.204zm0 .625v4.467h12.507v-4.467zm0-7.505v4.467zm0 7.505v4.467z" style="fill:#CE4B01"/>
</svg>
