<svg xmlns="http://www.w3.org/2000/svg" width="24" height="24" fill="none"><path fill="#37414F" d="M4.929 17.111c0 1.039.835 1.889 1.857 1.889h7.428c1.022 0 1.857-.85 1.857-1.889V5.778H4.93V17.11ZM17 2.944h-3.25L12.821 2H8.18l-.929.944H4v1.89h13v-1.89Z"/><path fill="#37414F" fill-rule="evenodd" d="M10.414 5.778h5.657v2.055H7V5.944h3.25l.164-.166Zm6.657.167v1.888H20V5.944h-2.929Zm-1 2.833v8.333c0 1.04-.835 1.89-1.857 1.89H7.93V8.777h8.142Zm1 0h2V20.11c0 1.04-.835 1.89-1.857 1.89H9.786c-1.022 0-1.857-.85-1.857-1.89v-.11h6.285c1.59 0 2.857-1.315 2.857-2.89V8.778Z" clip-rule="evenodd"/></svg>