<svg width="24" height="24" viewBox="0 0 24 24" fill="none" xmlns="http://www.w3.org/2000/svg">
<path fill-rule="evenodd" clip-rule="evenodd" d="M14.6814 4.17578C13.2882 2.78265 11.3988 2 9.42857 2C7.45839 2 5.56891 2.78265 4.17578 4.17578C2.78265 5.56891 2 7.45839 2 9.42857C2 11.3988 2.78265 13.2882 4.17578 14.6814C5.56891 16.0745 7.45839 16.8571 9.42857 16.8571C11.2686 16.8571 12.96 16.1829 14.2629 15.0743L14.5714 15.3829V16.2857L20.2857 22L22 20.2857L16.2857 14.5714H15.3829L15.0743 14.2629C16.1829 12.96 16.8571 11.2686 16.8571 9.42857C16.8571 7.45839 16.0745 5.56891 14.6814 4.17578ZM4.28571 9.42857C4.28571 6.57143 6.57143 4.28571 9.42857 4.28571C12.2857 4.28571 14.5714 6.57143 14.5714 9.42857C14.5714 11.9179 12.8364 13.9734 10.5 14.4614L10.5 9.3282L12.7929 11.6211L14.2071 10.2069L9.5 5.49977L4.79289 10.2069L6.20711 11.6211L8.5 9.3282L8.5 14.4892C6.09186 14.0566 4.28571 11.9684 4.28571 9.42857Z" fill="#37414F"/>
</svg>
