<svg xmlns="http://www.w3.org/2000/svg" xml:space="preserve" width="128" height="128">
    <path d="M95.19 148.98H42.674v14.328H95.19v21.491l35.82-28.655-35.82-28.656Zm75.485-31.236v88.066c0 4-1.388 7.39-4.166 10.167-2.778 2.778-6.167 4.167-10.167 4.167h-78c-4 0-7.389-1.39-10.167-4.167-2.777-2.778-4.166-6.167-4.166-10.167v-11.266h14.333v11.266h78v-74H131.01v-25.666H78.342v11.6H64.01v-11.6c0-3.778 1.389-7.056 4.166-9.834 2.778-2.777 6.167-4.166 10.167-4.166h66.733z" style="fill:#37414f;stroke-width:7.16388" transform="translate(-42.675 -92.144)"/>
</svg>
