<svg xmlns="http://www.w3.org/2000/svg" width="128" height="128" viewBox="0 0 24 24">
    <path d="M12.632 17.749v-2.004h-3.66v2.004zm2.397-3.961v-2.004H8.97v2.004zM6.967 2a1.93 1.93 0 0 0-1.421.583 1.88 1.88 0 0 0-.583 1.374v15.938c0 .528.195.986.583 1.375.388.388.862.582 1.421.582h6.296a6.468 6.468 0 0 1-.55-1.957H6.966V3.957h6.944v4.987h4.986v3.73a6.468 6.468 0 0 1 .228-.017 6.468 6.468 0 0 1 1.776.25V7.965L14.936 2z" style="fill:#37414f;stroke:none;stroke-width:.0316781"/>
    <path d="M24 19.125A4.875 4.875 0 0 1 19.125 24a4.875 4.875 0 0 1-4.875-4.875 4.875 4.875 0 0 1 4.875-4.875A4.875 4.875 0 0 1 24 19.125Z" style="fill:#e74c3c;stroke-width:.569565;paint-order:stroke fill markers"/>
</svg>
