<svg xmlns="http://www.w3.org/2000/svg" width="24" height="24" fill="none"><mask id="a" fill="#fff"><path fill-rule="evenodd" d="M5 3a2 2 0 0 0-2 2v14a2 2 0 0 0 2 2h14a2 2 0 0 0 2-2V5a2 2 0 0 0-2-2H5Zm5 2H5v5h2V7h3V5Zm-5 9v5h5v-2H7v-3H5Zm7-9h7v14h-7V5Z" clip-rule="evenodd"/></mask><path fill="#37414F" fill-rule="evenodd" d="M5 3a2 2 0 0 0-2 2v14a2 2 0 0 0 2 2h14a2 2 0 0 0 2-2V5a2 2 0 0 0-2-2H5Zm5 2H5v5h2V7h3V5Zm-5 9v5h5v-2H7v-3H5Zm7-9h7v14h-7V5Z" clip-rule="evenodd"/><path fill="#37414F" d="M5 5V3H3v2h2Zm5 0h2V3h-2v2Zm-5 5H3v2h2v-2Zm2 0v2h2v-2H7Zm0-3V5H5v2h2Zm3 0v2h2V7h-2ZM5 19H3v2h2v-2Zm0-5v-2H3v2h2Zm5 5v2h2v-2h-2Zm0-2h2v-2h-2v2Zm-3 0H5v2h2v-2Zm0-3h2v-2H7v2Zm12-9h2V3h-2v2Zm-7 0V3h-2v2h2Zm7 14v2h2v-2h-2Zm-7 0h-2v2h2v-2ZM5 5V1a4 4 0 0 0-4 4h4Zm0 14V5H1v14h4Zm0 0H1a4 4 0 0 0 4 4v-4Zm14 0H5v4h14v-4Zm0 0v4a4 4 0 0 0 4-4h-4Zm0-14v14h4V5h-4Zm0 0h4a4 4 0 0 0-4-4v4ZM5 5h14V1H5v4Zm0 2h5V3H5v4Zm2 3V5H3v5h4Zm0-2H5v4h2V8ZM5 7v3h4V7H5Zm5-2H7v4h3V5ZM8 5v2h4V5H8ZM7 19v-5H3v5h4Zm3-2H5v4h5v-4Zm-2 0v2h4v-2H8Zm-1 2h3v-4H7v4Zm-2-5v3h4v-3H5Zm0 2h2v-4H5v4ZM19 3h-7v4h7V3Zm2 16V5h-4v14h4Zm-9 2h7v-4h-7v4ZM10 5v14h4V5h-4Z" mask="url(#a)"/></svg>