<svg xmlns="http://www.w3.org/2000/svg" xml:space="preserve" width="24" height="24" viewBox="0 0 6.349 6.349">
  <path
    d="M3923.886-530.458c-1.58 0-2.95.578-4.111 1.74-1.162 1.162-1.748 2.538-1.748 4.118v5.996h-11.984c-1.58 0-2.956.578-4.118 1.74-1.162 1.162-1.74 2.576-1.74 4.249v32.626c0 1.673.578 3.094 1.74 4.256 1.162 1.161 2.538 1.74 4.118 1.74h26.21c-1.58-2.696-2.371-5.672-2.371-8.925 0-3.254.79-6.249 2.37-8.99a17.354 17.354 0 0 1 6.482-6.482c2.742-1.58 5.737-2.371 8.99-2.371 4.555 0 8.508 1.536 11.855 4.604v-16.458c0-1.673-.579-3.087-1.74-4.249-1.162-1.162-2.539-1.74-4.119-1.74h-11.984v-5.996c0-1.58-.586-2.956-1.748-4.118-1.161-1.162-2.53-1.74-4.11-1.74zm0 5.858h11.992v5.996h-11.992zm-6.439 12.702a58.94 59.284 0 0 1 7.098.421.69.693 0 0 1 .653.747v2.008a.605.608 0 0 1-.696.696h-8.628c-2.134 0-3.386.749-3.386 2.436v.61c0 1.306.606 2.429 2.879 3.262l6.162 2.472c4.265 1.624 4.64 4.009 4.64 6.569v.515c0 5.226-3.104 6.25-9.367 6.25-4.035 0-7.701-.327-8.49-.421-.556-.046-.696-.322-.696-.696v-2.052a.605.608 0 0 1 .696-.703h8.584c3.712 0 4.865-.417 4.865-2.43v-.557c0-1.353-.555-2.24-2.69-3.125l-6.583-2.523c-3.57-1.378-4.451-4.097-4.451-6.663v-.986c0-5.132 4.448-5.83 9.41-5.83z"
    style="fill:#37414f;fill-opacity:1;stroke-width:.139422" transform="translate(-311.918 43.325) scale(.08018)" />
  <path d="M3944.8-494.766h5.855v8.923h8.924v5.856h-8.924v8.923h-5.855v-8.923h-8.923v-5.856h8.923z"
    style="fill:#1a72bb;fill-opacity:1;stroke-width:.139422" transform="translate(-311.918 43.325) scale(.08018)" />
</svg>