<?xml version="1.0" encoding="UTF-8" standalone="no"?>
<svg
   width="24"
   height="24"
   viewBox="0 0 24 24"
   fill="none"
   version="1.1"
   id="svg144"
   sodipodi:docname="new_cell.svg"
   inkscape:version="1.2.2 (b0a8486541, 2022-12-01)"
   xml:space="preserve"
   xmlns:inkscape="http://www.inkscape.org/namespaces/inkscape"
   xmlns:sodipodi="http://sodipodi.sourceforge.net/DTD/sodipodi-0.dtd"
   xmlns="http://www.w3.org/2000/svg"
   xmlns:svg="http://www.w3.org/2000/svg"
   xmlns:rdf="http://www.w3.org/1999/02/22-rdf-syntax-ns#"
   xmlns:cc="http://creativecommons.org/ns#"
   xmlns:dc="http://purl.org/dc/elements/1.1/"><metadata
     id="metadata150"><rdf:RDF><cc:Work
         rdf:about=""><dc:format>image/svg+xml</dc:format><dc:type
           rdf:resource="http://purl.org/dc/dcmitype/StillImage" /></cc:Work></rdf:RDF></metadata><defs
     id="defs148" /><sodipodi:namedview
     pagecolor="#ffffff"
     bordercolor="#666666"
     borderopacity="1"
     objecttolerance="10"
     gridtolerance="10"
     guidetolerance="10"
     inkscape:pageopacity="0"
     inkscape:pageshadow="2"
     inkscape:window-width="1896"
     inkscape:window-height="1152"
     id="namedview146"
     showgrid="false"
     inkscape:zoom="7.5327145"
     inkscape:cx="-3.3852338"
     inkscape:cy="17.058923"
     inkscape:window-x="1930"
     inkscape:window-y="34"
     inkscape:window-maximized="1"
     inkscape:current-layer="svg144"
     inkscape:document-rotation="0"
     inkscape:showpageshadow="2"
     inkscape:pagecheckerboard="0"
     inkscape:deskcolor="#d1d1d1" /><path
     style="fill:#c88afa;fill-opacity:1;stroke-width:0.999996"
     d="m 8.8872574,13.997854 q -0.8129655,0 -1.3699986,0.557033 -0.5570332,0.557033 -0.5570332,1.354945 0,0.797914 0.5570332,1.369999 0.5570331,0.572091 1.354946,0.572091 0.7979122,0 1.3699982,-0.572091 0.572091,-0.572085 0.572091,-1.369999 0,-0.797912 -0.572091,-1.354945 -0.572086,-0.557033 -1.3549456,-0.557033 z"
     id="path991" /><path
     style="fill:#c88afa;fill-opacity:1;stroke-width:0.999996"
     d="m 3.9270314,6.0267708 q -0.7828601,0 -1.3549459,0.5720854 -0.5720857,0.5720865 -0.5720857,1.3700044 0,0.7979069 0.5720857,1.3549399 0.5720858,0.5570345 1.3700039,0.5570345 0.7979075,0 1.3549405,-0.5570345 0.5570332,-0.557033 0.5570332,-1.3549399 0,-0.7979179 -0.5570332,-1.3700044 Q 4.7399969,6.0267708 3.9270314,6.0267708 Z"
     id="path989" /><path
     style="fill:#c88afa;fill-opacity:1;stroke-width:0.999996"
     d="M 9.0165252,5.6525829 2.2034353,17.453201 3.7522648,18.347417 10.565355,6.5467999 Z"
     id="path65" /><path
     style="fill:#c88afa;fill-opacity:1;stroke-width:0.999996"
     d="m 20.072963,13.997854 q -0.812965,0 -1.369998,0.557033 -0.557033,0.557033 -0.557033,1.354945 0,0.797914 0.557033,1.369999 0.557033,0.572091 1.354945,0.572091 0.797913,0 1.369999,-0.572091 Q 22,16.707746 22,15.909832 22,15.11192 21.427909,14.554887 20.855823,13.997854 20.072963,13.997854 Z"
     id="path997" /><path
     style="fill:#c88afa;fill-opacity:1;stroke-width:0.999996"
     d="m 15.112737,6.0267708 q -0.782861,0 -1.354946,0.5720854 -0.572086,0.5720865 -0.572086,1.3700044 0,0.7979069 0.572086,1.3549399 0.572085,0.5570345 1.370004,0.5570345 0.797907,0 1.35494,-0.5570345 0.557033,-0.557033 0.557033,-1.3549399 0,-0.7979179 -0.557033,-1.3700044 -0.557033,-0.5720854 -1.369998,-0.5720854 z"
     id="path995" /><path
     style="fill:#c88afa;fill-opacity:1;stroke-width:0.999996"
     d="m 20.202231,5.6525829 -6.81309,11.8006181 1.54883,0.894216 6.81309,-11.8006171 z"
     id="path985" /></svg>
