<svg width="24" height="24" viewBox="0 0 24 24" fill="none" xmlns="http://www.w3.org/2000/svg">
<path fill-rule="evenodd" clip-rule="evenodd" d="M12 6L10 4H4C2.89 4 2 4.89 2 6V18C2 19.1 2.89 20 4 20H20C20.5304 20 21.0391 19.7893 21.4142 19.4142C21.7893 19.0391 22 18.5304 22 18V8C22 7.46957 21.7893 6.96086 21.4142 6.58579C21.0391 6.21071 20.5304 6 20 6H12ZM11.2056 16.335H12.038C12.1751 16.335 12.2436 16.266 12.2436 16.1281V14.266C12.2436 14.1938 12.2828 14.1576 12.3611 14.1576H13.5949C14.1041 14.1576 14.4991 14.0197 14.7798 13.7438C15.0605 13.4614 15.2008 13.064 15.2008 12.5517V11.6059C15.2008 11.0936 15.0605 10.6995 14.7798 10.4236C14.4991 10.1412 14.1041 10 13.5949 10H11.2056C11.0685 10 11 10.069 11 10.2069V16.1281C11 16.266 11.0685 16.335 11.2056 16.335ZM13.3893 13.064H12.3513C12.2795 13.064 12.2436 13.0279 12.2436 12.9557V11.1921C12.2436 11.1199 12.2795 11.0837 12.3513 11.0837H13.3893C13.5982 11.0837 13.7451 11.1297 13.8299 11.2217C13.9148 11.3071 13.9572 11.4548 13.9572 11.665V12.4926C13.9572 12.6962 13.9148 12.844 13.8299 12.936C13.7451 13.0213 13.5982 13.064 13.3893 13.064ZM16.2806 18H16.9073C17.423 18 17.831 17.8588 18.1313 17.5764C18.4316 17.2939 18.6536 16.8801 18.7972 16.335L19.9918 11.5271C20.0245 11.3826 19.9592 11.3103 19.796 11.3103H18.9735C18.8364 11.3103 18.7548 11.3793 18.7287 11.5172L17.8963 15.1527H17.8572L17.015 11.5172C16.9824 11.3793 16.9008 11.3103 16.7702 11.3103H15.8987C15.7616 11.3103 15.7127 11.3793 15.7519 11.5172L16.8975 15.8621C16.9367 16 17.0183 16.069 17.1423 16.069H17.6613C17.583 16.3974 17.4687 16.6174 17.3186 16.7291C17.175 16.8473 16.8975 16.9064 16.4863 16.9064H16.2806C16.1501 16.9064 16.0848 16.9787 16.0848 17.1232V17.7833C16.0848 17.9277 16.1501 18 16.2806 18Z" fill="#37414F"/>
</svg>
