<svg xmlns="http://www.w3.org/2000/svg" width="24" height="24" fill="none"><path fill="#37414F" d="M3.484 17.002h-1.19c-.196 0-.294-.098-.294-.294V8.294C2 8.098 2.098 8 2.294 8H5.71c.728 0 1.293.2 1.694.602.401.392.602.952.602 1.68v1.344c0 .728-.2 1.293-.602 1.694-.401.392-.966.588-1.694.588H3.946c-.112 0-.168.051-.168.154v2.646c0 .196-.098.294-.294.294Zm.448-4.648h1.484c.299 0 .509-.06.63-.182.121-.13.182-.34.182-.63v-1.176c0-.299-.06-.509-.182-.63-.121-.13-.331-.196-.63-.196H3.932c-.103 0-.154.051-.154.154V12.2c0 .103.051.154.154.154ZM10.446 19.368H9.55c-.187 0-.28-.103-.28-.308v-.938c0-.205.093-.308.28-.308h.294c.588 0 .985-.084 1.19-.252.214-.159.378-.471.49-.938h-.742c-.178 0-.294-.098-.35-.294l-1.638-6.174c-.056-.196.014-.294.21-.294h1.246c.187 0 .303.098.35.294l1.204 5.166h.056l1.19-5.166c.037-.196.154-.294.35-.294h1.176c.233 0 .326.103.28.308l-1.708 6.832c-.205.775-.523 1.363-.952 1.764-.43.401-1.013.602-1.75.602ZM17.498 17.002h-1.19c-.196 0-.294-.098-.294-.294V8.294c0-.196.098-.294.294-.294h3.416c.728 0 1.292.2 1.694.602.401.392.602.952.602 1.68v1.344c0 .728-.201 1.293-.602 1.694-.402.392-.966.588-1.694.588H17.96c-.112 0-.168.051-.168.154v2.646c0 .196-.098.294-.294.294Zm.448-4.648h1.484c.298 0 .508-.06.63-.182.121-.13.182-.34.182-.63v-1.176c0-.299-.061-.509-.182-.63-.122-.13-.332-.196-.63-.196h-1.484c-.103 0-.154.051-.154.154V12.2c0 .103.051.154.154.154Z"/></svg>