<svg width="24" height="24" viewBox="0 0 24 24" fill="none" xmlns="http://www.w3.org/2000/svg">
<path d="M4.92857 17.1111C4.92857 18.15 5.76429 19 6.78571 19H14.2143C15.2357 19 16.0714 18.15 16.0714 17.1111V5.77778H4.92857V17.1111ZM17 2.94444H13.75L12.8214 2H8.17857L7.25 2.94444H4V4.83333H17V2.94444Z" fill="#37414F"/>
<path fill-rule="evenodd" clip-rule="evenodd" d="M10.4139 5.77777H16.0714V7.83333H7V5.94444H10.25L10.4139 5.77777ZM17.0714 5.94444V7.83333H20V5.94444H17.0714ZM16.0714 8.77777V17.1111C16.0714 18.15 15.2357 19 14.2143 19H7.92857V8.77777H16.0714ZM17.0714 8.77777H19.0714V20.1111C19.0714 21.15 18.2357 22 17.2143 22H9.78571C8.76429 22 7.92857 21.15 7.92857 20.1111V20H14.2143C15.8039 20 17.0714 18.6862 17.0714 17.1111V8.77777Z" fill="#37414F"/>
</svg>
