<svg xmlns="http://www.w3.org/2000/svg" xml:space="preserve" width="24" height="24" fill="none" viewBox="0 0 24 24">
    <path d="M4 6h16v2.19h2V6a2 2 0 0 0-2-2H4a2 2 0 0 0-2 2v10a2 2 0 0 0 2 2h6.996a4.4 4.4 0 0 1-.764-2H4Z" style="fill:#37414F;fill-opacity:1"/>
    <path d="M16.477 8.037a.6.6 0 0 0-.6.602v1.558a5 5 0 0 0-3.75 4.84 5 5 0 0 0 5 5 5 5 0 0 0 5-5 5 5 0 0 0-.727-2.594l1.168-1.168a.5.5 0 0 0 0-.707l-1.06-1.06a.5.5 0 0 0-.707 0l-1.19 1.191h-.002a5 5 0 0 0-1.232-.502V8.64a.6.6 0 0 0-.6-.602zm.55 3.295c.485-.005.865.433.897.897.01.838 0 1.551.004 2.39.86.52 1.293.77 1.799 1.149.505.378.285.907 0 1.316-.301.487-.812.608-1.467.225-.734-.429-.917-.559-1.676-1.125-.163-.172-.457-.511-.455-.907-.005-1.004-.001-1.88-.002-2.884-.043-.516.356-1.069.9-1.061" style="fill:#B568F2;stroke:none;stroke-width:3;stroke-linecap:round;stroke-linejoin:round;stroke-dasharray:none"/>
</svg>
