<svg xmlns="http://www.w3.org/2000/svg" xml:space="preserve" width="24" height="24" viewBox="0 0 6.349 6.349">
    <path d="M2.67.796a.473.473 0 0 0-.347.147.475.475 0 0 0-.147.346v.506h-1.01a.473.473 0 0 0-.346.146.487.487 0 0 0-.148.358v2.75c0 .14.05.26.148.358a.473.473 0 0 0 .346.147h1.902a1.852 1.852 0 0 1-.439-1.195 1.852 1.852 0 0 1 1.852-1.852 1.852 1.852 0 0 1 1.196.438v-.646a.487.487 0 0 0-.147-.358.474.474 0 0 0-.347-.146h-1.01v-.506a.474.474 0 0 0-.147-.346.474.474 0 0 0-.346-.147zm0 .493h1.01v.506H2.67z" style="fill:#37414f"/>
    <path d="M3.62 3.277a.234.234 0 1 0 0 .469l1.172-.06-1.393 1.392.372.373 1.414-1.414-.062 1.207a.234.234 0 1 0 .47 0V3.277Z" style="fill:#1a72bb"/>
</svg>
