<svg xmlns="http://www.w3.org/2000/svg" xml:space="preserve" width="24" height="24" viewBox="0 0 6.349 6.349">
    <path d="M2.67.796c-.054.005-.497.061-.494.493v.506h-1.01a.498.498 0 0 0-.494.504v2.75c0 .14.05.26.147.358.09.095.216.148.347.147H3.06a1.86 1.86 0 0 1-.431-1.187 1.86 1.86 0 0 1 1.86-1.86 1.86 1.86 0 0 1 1.188.429v-.661a.498.498 0 0 0-.494-.48h-1.01v-.506c0-.057-.015-.447-.493-.493H2.669zm0 .493h1.01v.506H2.67v-.506z" style="fill:#37414f;fill-opacity:1"/>
    <path d="M4.489 2.507a1.86 1.86 0 0 0-1.86 1.86 1.86 1.86 0 0 0 1.86 1.86 1.86 1.86 0 0 0 1.86-1.86 1.86 1.86 0 0 0-1.86-1.86zm-.752.733.752.753.753-.753.373.374-.752.753.752.753-.373.374-.753-.753-.752.751-.373-.374.75-.75-.752-.754Z" style="fill:#1a72bb;fill-opacity:1;stroke:none;stroke-width:.529083;stroke-linecap:round;paint-order:stroke fill markers"/>
</svg>
