<svg xmlns="http://www.w3.org/2000/svg" width="300" height="200">
    <path d="M134.33 37.006A2.5 2.5 0 0 0 132 39.5a2.5 2.5 0 0 0 5 0 2.5 2.5 0 0 0-2.67-2.494M95 39v8.861A24.4 24.4 0 0 1 106.5 45a24.4 24.4 0 0 1 9.5 1.91V39zm11.5 9C94.626 48 85 57.626 85 69.5S94.626 91 106.5 91 128 81.374 128 69.5 118.374 48 106.5 48m0 5c9.113 0 16.5 7.387 16.5 16.5S115.613 86 106.5 86 90 78.613 90 69.5 97.387 53 106.5 53m22.719 1a27.4 27.4 0 0 1 2.267 4H182a6 6 0 0 1 6 6v80a6 6 0 0 1-6 6h-69a6 6 0 0 1-6-6V96.996a28 28 0 0 1-4-.217V144c0 5.523 4.477 10 10 10h69c5.523 0 10-4.477 10-10V64c0-5.523-4.477-10-10-10zM106.5 56C99.044 56 93 62.044 93 69.5S99.044 83 106.5 83 120 76.956 120 69.5 113.956 56 106.5 56m-2 8h3v6.5h6.5v3h-9.5zm-30.17.006A2.5 2.5 0 0 0 72 66.5a2.5 2.5 0 0 0 5 0 2.5 2.5 0 0 0-2.67-2.494M133.996 70a28 28 0 0 1-.361 4H160a2 2 0 0 0 0-4zM80.5 74a2.5 2.5 0 0 0 0 5 2.5 2.5 0 0 0 0-5m138.33 6.506A2.5 2.5 0 0 0 216.5 83a2.5 2.5 0 0 0 5 0 2.5 2.5 0 0 0-2.67-2.494m-94 9.494a27.6 27.6 0 0 1-4.412 3.223c.365.473.938.777 1.582.777h58a2 2 0 0 0 0-4zM228 91.5a2.5 2.5 0 0 0 0 5 2.5 2.5 0 0 0 0-5m-13.637 7.004a2 2 0 0 0-1.863 1.996v7h-7a2 2 0 0 0 0 4h7v7a2 2 0 0 0 4 0v-7h7a2 2 0 0 0 2-2 2 2 0 0 0-2-2h-7v-7a2 2 0 0 0-2.137-1.996M121 112a2 2 0 0 0 0 4h31a2 2 0 0 0 2-2 2 2 0 0 0-2-2zm0 21a2 2 0 0 0 0 4h48a2 2 0 0 0 0-4zm-40.137 5.004A2 2 0 0 0 79 140v7h-7a2 2 0 0 0 0 4h7v7a2 2 0 0 0 4 0v-7h7a2 2 0 0 0 0-4h-7v-7a2 2 0 0 0-2.137-1.996M94.5 158a2.5 2.5 0 0 0 0 5 2.5 2.5 0 0 0 0-5" class="COLOR_ACCENT_2"/>
</svg>
