<svg xmlns="http://www.w3.org/2000/svg" width="300" height="200">
    <path d="M134.33 37.006A2.5 2.5 0 0 0 132 39.5a2.5 2.5 0 0 0 5 0 2.5 2.5 0 0 0-2.67-2.494m-27.83 1.521c-.709 0-1.418.456-1.504 1.368-.148 1.558-2.276 1.89-2.89.453-.722-1.684-3.247-.835-2.856.953.335 1.53-1.587 2.513-2.617 1.332-1.205-1.383-3.342.22-2.42 1.804.789 1.358-.737 2.894-2.084 2.088-1.58-.945-3.123 1.247-1.752 2.477 1.171 1.05.196 2.986-1.34 2.639-1.803-.405-2.61 2.158-.918 2.904 1.442.636 1.11 2.778-.459 2.93-1.844.18-1.844 2.87 0 3.05 1.57.152 1.901 2.294.46 2.93-1.693.745-.886 3.308.917 2.902 1.536-.346 2.511 1.59 1.34 2.641-1.37 1.23.172 3.422 1.752 2.477 1.347-.806 2.873.73 2.084 2.088-.922 1.587 1.215 3.188 2.42 1.804 1.03-1.18 2.952-.199 2.617 1.332-.391 1.788 2.134 2.637 2.855.953.615-1.438 2.743-1.105 2.891.453.172 1.824 2.836 1.824 3.008 0 .148-1.558 2.276-1.89 2.89-.453.722 1.684 3.246.835 2.854-.953-.335-1.53 1.588-2.513 2.617-1.332 1.206 1.383 3.344-.22 2.422-1.805-.789-1.358.736-2.893 2.084-2.087 1.58.945 3.123-1.247 1.752-2.477-1.172-1.05-.195-2.987 1.34-2.64 1.804.405 2.61-2.158.918-2.903-1.442-.636-1.112-2.779.457-2.932 1.845-.179 1.845-2.868 0-3.048-1.57-.152-1.9-2.294-.457-2.93 1.692-.746.886-3.308-.918-2.902-1.535.346-2.512-1.59-1.34-2.641 1.371-1.23-.172-3.422-1.752-2.477-1.348.806-2.873-.73-2.084-2.087.922-1.587-1.216-3.188-2.422-1.805-1.029 1.18-2.952.199-2.617-1.332.392-1.79-2.132-2.637-2.853-.953-.615 1.438-2.743 1.105-2.891-.453-.086-.912-.796-1.368-1.504-1.368m0 7.473c6.904 0 12.5 5.596 12.5 12.5S113.404 71 106.5 71 94 65.404 94 58.5 99.596 46 106.5 46m0 3a9.5 9.5 0 0 0-9.5 9.5 9.5 9.5 0 0 0 9.5 9.5 9.5 9.5 0 0 0 9.5-9.5 9.5 9.5 0 0 0-9.5-9.5m22.227 5a4.5 4.5 0 0 1-.567 1.506c.775.65 1.261 1.54 1.46 2.494H182a6 6 0 0 1 6 6v80a6 6 0 0 1-6 6h-69a6 6 0 0 1-6-6v-38.547l-.19-.232-3.81 4.267V144c0 5.523 4.477 10 10 10h69c5.523 0 10-4.477 10-10V64c0-5.523-4.477-10-10-10zM74.33 64.006A2.5 2.5 0 0 0 72 66.5a2.5 2.5 0 0 0 5 0 2.5 2.5 0 0 0-2.67-2.494M126.15 70a4.7 4.7 0 0 1-.845 2.783A4.6 4.6 0 0 1 124.023 74H160a2 2 0 0 0 0-4zM80.5 74a2.5 2.5 0 0 0 0 5 2.5 2.5 0 0 0 0-5m14 4.762V110L107 96l11.5 14V78.762a4.45 4.45 0 0 1-2.047.021c-.53 1.251-1.612 2.154-2.762 2.54-1.152.384-2.565.312-3.736-.376-1.739 2.034-5.171 2.034-6.91 0-1.171.688-2.584.76-3.736.375-1.15-.385-2.233-1.286-2.764-2.537a4.45 4.45 0 0 1-2.045-.023m124.33 1.744A2.5 2.5 0 0 0 216.5 83a2.5 2.5 0 0 0 5 0 2.5 2.5 0 0 0-2.67-2.494M124.5 90v4H180a2 2 0 0 0 0-4zM228 91.5a2.5 2.5 0 0 0 0 5 2.5 2.5 0 0 0 0-5m-13.637 7.004a2 2 0 0 0-1.863 1.996v7h-7a2 2 0 0 0 0 4h7v7a2 2 0 0 0 4 0v-7h7a2 2 0 0 0 2-2 2 2 0 0 0-2-2h-7v-7a2 2 0 0 0-2.137-1.996M124.5 112v4H152a2 2 0 0 0 0-4zm-3.5 21a2 2 0 0 0 0 4h48a2 2 0 0 0 0-4zm-40.137 5.004A2 2 0 0 0 79 140v7h-7a2 2 0 0 0 0 4h7v7a2 2 0 0 0 4 0v-7h7a2 2 0 0 0 0-4h-7v-7a2 2 0 0 0-2.137-1.996M94.5 158a2.5 2.5 0 0 0 0 5 2.5 2.5 0 0 0 0-5" class="COLOR_ACCENT_2"/>
</svg>
