<svg xmlns="http://www.w3.org/2000/svg" xml:space="preserve" width="300" height="200">
    <path d="M128.576 34.916a4 4 0 0 0-2.002.531 4 4 0 0 0-1.476 5.461l5.215 9.078H107.17a11.3 11.3 0 0 0-3.344.508 11.2 11.2 0 0 0-4.615 2.797 11.4 11.4 0 0 0-1.377 1.668q-.304.45-.564.93-.262.478-.477.982a11.2 11.2 0 0 0-.828 3.23q-.06.568-.059 1.149v2.992c-.019.264-.04.528-.04.797v2.686c-.019.25-.04.498-.04.752v2.841a11 11 0 0 0-.045.887v66.559a10.9 10.9 0 0 0 1.692 5.84 11.3 11.3 0 0 0 1.504 1.9q.427.435.9.822a11.24 11.24 0 0 0 6.262 2.653q.51.047 1.03.046h80.606l6.487 11.291a4 4 0 0 0 5.46 1.477 4 4 0 0 0 1.477-5.461L132.035 36.924a4 4 0 0 0-2.424-1.87 4 4 0 0 0-1.035-.138m87.854 8.527a2.5 2.5 0 0 0 0 5 2.5 2.5 0 0 0 0-5m-67.7 6.543 8.522 14.838h38.346a7 7 0 0 1 3.949 1.219 7.2 7.2 0 0 1 1.945 1.965q.392.586.67 1.256.278.669.426 1.408.147.736.148 1.533v66.559c0 .526-.052 1.036-.148 1.525a7.5 7.5 0 0 1-.42 1.399c-.101.245-.242.462-.367.69l2.219 3.866c.197-.214.397-.426.578-.654a11.2 11.2 0 0 0 1.289-2.05 11 11 0 0 0 1.1-4.776V72.205c0-.299-.022-.593-.046-.887v-2.841c0-.254-.02-.502-.039-.752v-2.686c0-.269-.023-.533-.04-.797V61.25a11.3 11.3 0 0 0-.508-3.344 11.2 11.2 0 0 0-2.797-4.615 11.4 11.4 0 0 0-1.668-1.377 11.3 11.3 0 0 0-4.026-1.7 11.2 11.2 0 0 0-2.265-.228zm83.163 1.405a2 2 0 0 0-2 2v7h-7a2 2 0 0 0 0 4h7v7a2 2 0 0 0 4 0v-7h7a2 2 0 0 0 0-4h-7v-7a2 2 0 0 0-2-2M107.17 64.824h31.666l46.643 81.201h-78.31a7.2 7.2 0 0 1-5.036-2.013 7.3 7.3 0 0 1-1.533-2.328 7.5 7.5 0 0 1-.422-1.397 8 8 0 0 1-.147-1.523V72.205q0-.796.149-1.533a7.3 7.3 0 0 1 1.978-3.746 7.2 7.2 0 0 1 2.274-1.545 7 7 0 0 1 2.738-.557m112.074 12.371a2.5 2.5 0 0 0 0 5 2.5 2.5 0 0 0 0-5m-103.959 1.56a4 4 0 0 0-2.846 1.128 4 4 0 0 0-.087 5.656l19.78 20.408-19.798 20.662a4 4 0 0 0 .121 5.657 4 4 0 0 0 5.656-.121l22.465-23.446a4 4 0 0 0-.015-5.553l-22.465-23.175a4 4 0 0 0-2.81-1.215m112.43 8.296a2.5 2.5 0 0 0 0 5 2.5 2.5 0 0 0 0-5M84.656 102.006a2.5 2.5 0 0 0 0 5 2.5 2.5 0 0 0 0-5m-10.443 14.433a2 2 0 0 0-2 2v7h-7a2 2 0 0 0 0 4h7v7a2 2 0 0 0 4 0v-7h7a2 2 0 0 0 0-4h-7v-7a2 2 0 0 0-2-2m66.795 8.202a4 4 0 0 0-4 4 4 4 0 0 0 4 4h25.441a4 4 0 0 0 4-4 4 4 0 0 0-4-4zm-81.4 13.963a2.5 2.5 0 0 0 0 5 2.5 2.5 0 0 0 0-5m14.982 10.835a2.5 2.5 0 0 0 0 5 2.5 2.5 0 0 0 0-5" class="COLOR_ACCENT_2"/>
</svg>
