<svg xmlns="http://www.w3.org/2000/svg" xml:space="preserve" width="300" height="200">
    <path d="M133.313 48.849a4.03 3.971 0 0 0-.526.033 4.03 3.971 0 0 0-1.488.496 4.03 3.971 0 0 0-1.483 5.422l2.68 4.59H122.9a11.2 11.2 0 0 0-4.347.884 11.2 11.2 0 0 0-2.772 1.69q-.419.344-.8.726a11.4 11.4 0 0 0-1.942 2.604q-.26.48-.477.988a11.3 11.3 0 0 0-.658 2.125 11.3 11.3 0 0 0-.23 2.285v9.338c-.048.414-.08.832-.08 1.256v40.363q0 .574.058 1.135a11 11 0 0 0 .46 2.176 11 11 0 0 0 1.452 2.94 11.3 11.3 0 0 0 1.416 1.667c.023.022.049.043.07.065a11.4 11.4 0 0 0 2.575 1.904 11.2 11.2 0 0 0 3.053 1.107 11 11 0 0 0 2.222.225h26.008v11.758h-1.836a4.06 4.06 0 0 0-2.037.545 4 4 0 0 0-.834.63 3.9 3.9 0 0 0-.64.825H99.697a2 2 0 0 0 0 4h44.096a4 4 0 0 0 .644.682c.242.2.506.375.788.517a4.05 4.05 0 0 0 1.847.444h7.672a4.06 4.06 0 0 0 1.848-.444q.424-.214.787-.517a4 4 0 0 0 .644-.682h44.096a2 2 0 0 0 1.246-.438 2 2 0 0 0 .557-.695 2 2 0 0 0 .197-.867 2 2 0 0 0-.435-1.248 2 2 0 0 0-.698-.555 2 2 0 0 0-.867-.197h-43.863a3.9 3.9 0 0 0-.64-.824 4.2 4.2 0 0 0-1.81-1.035 4 4 0 0 0-1.062-.141h-1.836v-11.758h22.483l3.295 5.645a4.03 3.971 0 0 0 5.501 1.463 4.03 3.971 0 0 0 1.483-5.424L136.8 50.839a4.03 3.971 0 0 0-2.443-1.854 4.03 3.971 0 0 0-1.044-.136m77.244 4.058a2.5 2.5 0 0 0-1.768.733 2.5 2.5 0 0 0-.535 2.74 2.5 2.5 0 0 0 2.303 1.527 2.5 2.5 0 0 0 1.767-.732 2.5 2.5 0 0 0 .535-2.74 2.5 2.5 0 0 0-2.302-1.528m-59.483 6.483 8.465 14.51h19.256a7 7 0 0 1 3.943 1.218 7.2 7.2 0 0 1 2.309 2.574 7.4 7.4 0 0 1 .553 1.336 7.6 7.6 0 0 1 .33 2.258v37.848l3.613 6.195c.094-.262.183-.527.258-.797a10.9 10.9 0 0 0 .388-2.883V81.286c0-.276-.022-.547-.043-.818v-9.776a11.5 11.5 0 0 0-.23-2.285 11.2 11.2 0 0 0-.66-2.125 11.26 11.26 0 0 0-3.219-4.318 11.3 11.3 0 0 0-1.79-1.215 11.2 11.2 0 0 0-3.083-1.13 11 11 0 0 0-2.248-.23zm78.463 4.355a2.5 2.5 0 0 0-1.767.732 2.5 2.5 0 0 0-.536 2.74 2.5 2.5 0 0 0 2.303 1.528 2.5 2.5 0 0 0 1.768-.732 2.5 2.5 0 0 0 .535-2.74 2.5 2.5 0 0 0-2.303-1.528m-20.605 5.16a2 2 0 0 0-.78.156 2 2 0 0 0-.634.43 1.98 1.98 0 0 0-.586 1.414v7h-7a2 2 0 0 0-.78.156 2 2 0 0 0-.634.43 1.98 1.98 0 0 0-.586 1.414c0 .276.055.54.156.78a2.01 2.01 0 0 0 1.844 1.22h7v7c0 .276.055.54.156.78a2.01 2.01 0 0 0 1.844 1.22 2 2 0 0 0 .779-.156 2.02 2.02 0 0 0 1.064-1.064c.1-.24.157-.505.157-.782v-7h7a2 2 0 0 0 .779-.154 2.02 2.02 0 0 0 1.064-1.064 2.03 2.03 0 0 0 0-1.56 2 2 0 0 0-.43-.634 2 2 0 0 0-.634-.43 2 2 0 0 0-.78-.156h-7v-7c0-.276-.054-.54-.156-.78a2 2 0 0 0-.43-.634 2 2 0 0 0-.634-.43 2 2 0 0 0-.78-.156M122.986 73.9h17.98l32.046 54.895H122.9a7.7 7.7 0 0 1-1.408-.131 7.3 7.3 0 0 1-1.916-.646 7 7 0 0 1-1.117-.696 7 7 0 0 1-.504-.418 7.24 7.24 0 0 1-1.955-3.728 7.7 7.7 0 0 1-.148-1.526V81.286a8 8 0 0 1 .148-1.535 7.6 7.6 0 0 1 .734-2.059 7.26 7.26 0 0 1 2.309-2.574 7.1 7.1 0 0 1 2.535-1.076 7 7 0 0 1 1.408-.143m5.79 13.881a2 2 0 0 0-1.43.549 2 2 0 0 0-.07 2.828l10.497 11.037-10.505 11.176a2 2 0 0 0 .086 2.826 2 2 0 0 0 2.828-.086l11.8-12.552a2 2 0 0 0-.007-2.75L130.174 88.4a2 2 0 0 0-1.399-.62M78.323 99.755a2.5 2.5 0 0 0-1.767.732 2.5 2.5 0 0 0-.536 2.74 2.5 2.5 0 0 0 2.303 1.528 2.5 2.5 0 0 0 1.768-.733 2.5 2.5 0 0 0 .535-2.74 2.5 2.5 0 0 0-2.303-1.527m122.162.584a2.5 2.5 0 0 0-1.767.732 2.5 2.5 0 0 0-.535 2.74 2.5 2.5 0 0 0 2.302 1.528 2.5 2.5 0 0 0 1.768-.733 2.5 2.5 0 0 0 .535-2.74 2.5 2.5 0 0 0-2.303-1.527m-108.982 8.224c-.276 0-.54.056-.78.157a2 2 0 0 0-.634.43 1.98 1.98 0 0 0-.586 1.413v7h-7c-.276 0-.54.056-.78.157a2 2 0 0 0-.634.43 1.98 1.98 0 0 0-.586 1.413c0 .276.055.54.156.78.101.239.249.453.43.634a1.98 1.98 0 0 0 1.414.586h7v7c0 .276.055.54.156.78.101.239.249.453.43.634a1.98 1.98 0 0 0 1.414.586c.276 0 .54-.055.78-.156a2.01 2.01 0 0 0 1.22-1.844v-7h7c.276 0 .54-.055.78-.156a2.01 2.01 0 0 0 1.22-1.844c0-.276-.055-.54-.156-.78a2 2 0 0 0-.43-.634 2 2 0 0 0-.635-.43 2 2 0 0 0-.78-.156h-7v-7c0-.276-.054-.54-.155-.78a2 2 0 0 0-.43-.634 2 2 0 0 0-.635-.43 2 2 0 0 0-.78-.156m53.021 4.176a2 2 0 0 0-2 2 2 2 0 0 0 2 2h14.092a2 2 0 0 0 2-2 2 2 0 0 0-2-2zM81.14 133.507a2.5 2.5 0 0 0-1.768.732 2.5 2.5 0 0 0-.535 2.74 2.5 2.5 0 0 0 2.303 1.528 2.5 2.5 0 0 0 1.767-.733 2.5 2.5 0 0 0 .535-2.74 2.5 2.5 0 0 0-2.302-1.527m-10.676 9.982a2.5 2.5 0 0 0-1.768.735 2.5 2.5 0 0 0-.535 2.74 2.5 2.5 0 0 0 2.303 1.527 2.5 2.5 0 0 0 1.767-.732 2.5 2.5 0 0 0 .536-2.74 2.5 2.5 0 0 0-2.303-1.528z" class="empty_pane"/>
</svg>
