<svg xmlns="http://www.w3.org/2000/svg" xml:space="preserve" width="300" height="200">
    <path d="M112.756 33.47a2 2 0 0 0-2 2v7h-7a2 2 0 1 0 0 4h7v7a2 2 0 1 0 4 0v-7h7a2 2 0 1 0 0-4h-7v-7a2 2 0 0 0-2-2m21.435 1.254a2.526 2.526 0 1 0 .001 5.052 2.526 2.526 0 0 0 0-5.052zm-45.513.393a2.526 2.526 0 1 0 0 5.052 2.526 2.526 0 0 0 0-5.052m106.868 15.588a1.9 1.9 0 0 1 1.409.548c.762.763.723 2.039-.088 2.85s-2.087.85-2.85.088c-.764-.762-.725-2.04.086-2.852.39-.39.909-.618 1.444-.634zm5.579 5.58a1.9 1.9 0 0 1 1.408.547c.762.762.723 2.038-.088 2.85-.811.81-2.087.85-2.85.087-.762-.762-.724-2.038.086-2.85.39-.39.91-.618 1.444-.634m-18.529-9.416a2 2 0 0 0-2.297 2.404l1.54 6.908-2.51 2.51-6.155-6.154a2 2 0 0 0-2.828 2.828l6.156 6.154-1.11 1.11a8 8 0 0 0-.554.615l-6.961-1.551a2 2 0 0 0-.87 3.904l6.151 1.37a7.97 7.97 0 0 0 2.234 6.976l4.457 4.457a7.97 7.97 0 0 0 7.422 2.144l1.524 6.84a2 2 0 1 0 3.904-.869l-1.764-7.912c.075-.07.154-.13.227-.203l1.11-1.11 6.148 6.149a2 2 0 0 0 2.828-2.828l-6.149-6.149 2.127-2.126 7.895 1.76a2 2 0 0 0 .869-3.905l-5.45-1.217a7.97 7.97 0 0 0 1.815-6.125 7.8 7.8 0 0 0 1.301-1.023c3.138-3.137 3.064-8.297-.164-11.526s-8.389-3.302-11.525-.164a7.8 7.8 0 0 0-1.024 1.301 7.97 7.97 0 0 0-5.73 1.504l-1.012-4.54a2 2 0 0 0-1.605-1.532m-84.354 5.478a2.526 2.526 0 1 0 .001 5.052 2.526 2.526 0 0 0-.001-5.052m15.582 8.473c-5.505 0-10 4.495-10 10V152c0 5.505 4.495 10 10 10h69.697c5.506 0 10-4.495 10-10V92.697q-1.58.207-3.174.217a26 26 0 0 1-.826-.057V152c0 3.358-2.641 6-6 6h-69.697c-3.359 0-6-2.642-6-6V70.82c0-3.359 2.641-6 6-6h46.05c.049-1.345.218-2.683.507-4zm7.24 11.916a5.715 5.715 0 1 0 0 11.43 5.715 5.715 0 0 0 0-11.43m12.252 4.058a2 2 0 1 0 0 4h29.336a2 2 0 1 0 0-4zm.033 21.227a2 2 0 1 0 0 4h42.524a2 2 0 1 0 0-4zm80.32 6.965a2 2 0 0 0-2 2v7h-7a2 2 0 1 0 0 4h7v7a2 2 0 1 0 4 0v-7h7a2 2 0 1 0 0-4h-7v-7a2 2 0 0 0-2-2m-92.605 10.424a5.715 5.715 0 0 0-5.715 5.717 5.715 5.715 0 0 0 11.43 0 5.715 5.715 0 0 0-5.715-5.717m12.324 3.84a2 2 0 1 0 0 4h42.483a2 2 0 1 0 0-4zm70.114 6.16a2.526 2.526 0 1 0 0 5.052 2.526 2.526 0 0 0 0-5.052m-70.188 15.068a2 2 0 1 0 0 4h42.559a2 2 0 1 0 0-4zm-46.983-11.582a2 2 0 0 0-2 2v7h-7a2 2 0 1 0 0 4h7v7a2 2 0 1 0 4 0v-7h7a2 2 0 1 0 0-4h-7v-7a2 2 0 0 0-2-2m8.475 22a2.526 2.526 0 1 0 0 5.052 2.526 2.526 0 0 0 0-5.052m-11.016 7.312a2.526 2.526 0 1 0-.003 5.052 2.526 2.526 0 0 0 .003-5.052" class="empty_pane"/>
</svg>
