<svg xmlns="http://www.w3.org/2000/svg" width="300" height="200">
    <path d="M204.5 28a2.5 2.5 0 0 0-2.5 2.5 2.5 2.5 0 0 0 5 0 2.5 2.5 0 0 0-2.5-2.5m7.363 7.004A2 2 0 0 0 210 37v7h-7a2 2 0 0 0 0 4h7v7a2 2 0 0 0 4 0v-7h7a2 2 0 0 0 0-4h-7v-7a2 2 0 0 0-2.137-1.996M196.5 36a2.5 2.5 0 0 0 0 5 2.5 2.5 0 0 0 0-5M101 43c-5.523 0-10 4.477-10 10v80a10 10 0 0 0 6 9.168v-4.695A5.98 5.98 0 0 1 95 133V53a6 6 0 0 1 6-6h69a5.98 5.98 0 0 1 4.473 2h4.695A10 10 0 0 0 170 43zm10 10c-5.523 0-10 4.477-10 10v80a10 10 0 0 0 6 9.168v-4.695a5.99 5.99 0 0 1-2-4.473V63a6 6 0 0 1 6-6h69a5.98 5.98 0 0 1 4.473 2h4.695A10 10 0 0 0 180 53zm10 10c-5.523 0-10 4.477-10 10v80c0 5.523 4.477 10 10 10h69c5.523 0 10-4.477 10-10v-13.201a27 27 0 0 1-4 1.164V153a6 6 0 0 1-6 6h-69a6 6 0 0 1-6-6V73a6 6 0 0 1 6-6h69a6 6 0 0 1 6 6v6.797c1.355.284 2.693.672 4 1.164V73c0-5.523-4.477-10-10-10zM65 76a2 2 0 0 0-2 2v7h-7a2 2 0 0 0 0 4h7v7a2 2 0 0 0 4 0v-7h7a2 2 0 0 0 0-4h-7v-7a2 2 0 0 0-2-2m65 3c-1.108 0-2 .892-2 2s.892 2 2 2h38c1.108 0 2-.892 2-2s-.892-2-2-2zm60.412 4.219a27.08 27.08 0 0 0-19.207 7.955c-10.607 10.607-10.607 27.805 0 38.412 8.036 8.036 19.855 9.984 29.725 5.844l.011-.006a27 27 0 0 0 3.56-1.817l21.72 21.733.004.002a4 4 0 0 0 5.648.002l.006-.004 4.293-4.295a4 4 0 0 0 0-5.656l-21.96-21.909.018-.033a27 27 0 0 0 1.643-3.595l.012-.03c3.568-9.642 1.48-20.902-6.268-28.648a27.08 27.08 0 0 0-19.205-7.955m0 4.525c5.793 0 11.585 2.21 16.004 6.629 8.839 8.84 8.839 23.173 0 32.012s-23.17 8.839-32.01 0-8.84-23.172 0-32.012a22.57 22.57 0 0 1 16.006-6.629M189.5 95c-9.897 0-15.291 8.852-12.91 16.588a2 2 0 0 0 3.822-1.176C178.792 105.148 182.397 99 189.5 99a2 2 0 0 0 0-4m-113 3a2.5 2.5 0 0 0-2.5 2.5 2.5 2.5 0 0 0 2.5 2.5 2.5 2.5 0 0 0 2.5-2.5 2.5 2.5 0 0 0-2.5-2.5m53.5 1c-1.108 0-2 .892-2 2s.892 2 2 2h24c1.108 0 2-.892 2-2s-.892-2-2-2zm-1 22c-1.108 0-2 .892-2 2s.892 2 2 2h25c1.108 0 2-.892 2-2s-.892-2-2-2zm82.996 5.871 21.348 21.346-4.293 4.295-21.258-21.258.006-.006a27.7 27.7 0 0 0 4.176-4.35zM129 142c-1.108 0-2 .892-2 2s.892 2 2 2h52c1.108 0 2-.892 2-2s-.892-2-2-2zm-45.5 10a2.5 2.5 0 0 0 0 5 2.5 2.5 0 0 0 0-5m11 7a2.5 2.5 0 0 0-2.5 2.5 2.5 2.5 0 0 0 5 0 2.5 2.5 0 0 0-2.5-2.5" class="empty_pane"/>
</svg>
