<svg xmlns="http://www.w3.org/2000/svg" width="300" height="200">
    <path d="M91 34a2 2 0 0 0-2 2v7h-7a2 2 0 0 0 0 4h7v7a2 2 0 0 0 4 0v-7h7a2 2 0 0 0 0-4h-7v-7a2 2 0 0 0-2-2m43.21 4c-3.845 0-7.354 1.498-10.142 4.285s-4.298 6.305-4.298 10.156v10.752H96.283c-1.76 0-3.45.314-5.033.922a2.5 2.5 0 0 0-3.156 1.703 15.6 15.6 0 0 0-1.953 1.66v.002c-2.804 2.805-4.3 6.42-4.3 10.442v69.338c0 4.02 1.493 7.647 4.3 10.455 2.788 2.788 6.297 4.285 10.142 4.285h101.348c3.846 0 7.355-1.498 10.142-4.285 2.808-2.808 4.297-6.435 4.297-10.455V77.92c0-4.021-1.492-7.637-4.297-10.441-2.788-2.789-6.296-4.288-10.142-4.288h-23.486v-10.75c0-3.851-1.513-7.368-4.301-10.156S163.548 38 159.704 38zm0 3.988h25.493c2.87 0 5.172.964 7.322 3.116v.001c2.152 2.152 3.131 4.47 3.131 7.336V67.18h27.475c2.871 0 5.17.965 7.322 3.117 2.134 2.134 3.131 4.532 3.131 7.623v69.34c0 3.09-.999 5.502-3.13 7.635-2.151 2.15-4.452 3.117-7.323 3.117H96.283c-2.87 0-5.171-.965-7.322-3.116l-.002-.001c-2.13-2.132-3.129-4.547-3.129-7.635V77.922c0-3.09.997-5.488 3.13-7.623q.743-.742 1.515-1.299a2.5 2.5 0 0 0 2.146-1.176c1.127-.437 2.333-.644 3.662-.644h27.473V52.44c0-2.866.98-5.184 3.133-7.336 2.15-2.15 4.452-3.117 7.322-3.117m-1.993 8.46V67.18h29.48V50.447zM77.5 54a2.5 2.5 0 0 0 0 5 2.5 2.5 0 0 0 0-5m58.703.434h21.508v8.76h-21.508zm81.127 12.572A2.5 2.5 0 0 0 215 69.5a2.5 2.5 0 0 0 5 0 2.5 2.5 0 0 0-2.67-2.494m15.533 4.998A2 2 0 0 0 231 74v7h-7a2 2 0 0 0 0 4h7v7a2 2 0 0 0 4 0v-7h7a2 2 0 0 0 0-4h-7v-7a2 2 0 0 0-2.137-1.996m-83.402 4.799c-13.566 0-25.717 1.9-25.717 15.927v2.7c0 7.013 2.403 14.442 12.16 18.207l18 6.894c5.836 2.42 7.352 4.851 7.352 8.55v1.524c0 5.502-3.15 6.635-13.295 6.635h-23.475a1.652 1.662 0 0 0-1.902 1.93v5.603c0 1.022.382 1.78 1.902 1.905 2.156.257 12.183 1.146 23.213 1.146 17.117 0 25.598-2.804 25.598-17.088v-1.408c0-6.997-1.023-13.508-12.68-17.945l-16.84-6.766c-6.212-2.276-7.873-5.34-7.873-8.914v-1.67c0-4.612 3.421-6.66 9.254-6.66h23.59a1.652 1.662 0 0 0 1.904-1.889v-5.5a1.884 1.895 0 0 0-1.787-2.033 161.104 162.045 0 0 0-19.404-1.146zM58.5 138a2.5 2.5 0 0 0 0 5 2.5 2.5 0 0 0 0-5m11.363 6.004A2 2 0 0 0 68 146v7h-7a2 2 0 0 0 0 4h7v7a2 2 0 0 0 4 0v-7h7a2 2 0 0 0 0-4h-7v-7a2 2 0 0 0-2.137-1.996" class="empty_pane"/>
</svg>
