<svg xmlns="http://www.w3.org/2000/svg" width="300" height="200">
    <path d="M112.5 38a2.5 2.5 0 0 0 0 5 2.5 2.5 0 0 0 0-5m24.71 5q-.848 0-1.53.602-.68.574-.68 1.41 0 .365.193.836l4.131 8.882-1.578 3.422a2.16 2.16 0 0 0-.219.914q0 .81.608 1.36.632.574 1.433.574a1.8 1.8 0 0 0 1.022-.314q.485-.314.775-.965l6.442-13.873q.193-.419.193-.862 0-.81-.633-1.384-.63-.576-1.431-.577a1.8 1.8 0 0 0-1.022.315q-.462.313-.728.967l-2.551 6.007-2.576-6.007q-.268-.654-.78-.967a1.82 1.82 0 0 0-1.068-.34m-15.71 4a2.5 2.5 0 0 0 0 5 2.5 2.5 0 0 0 0-5m87 9a2.5 2.5 0 0 0 0 5 2.5 2.5 0 0 0 0-5M97.438 61q-.876 0-1.534.66-.63.66-.63 1.541t.685 1.567l3.123 3.082-3.396 3.41Q95 71.947 95 72.826q0 .855.658 1.514.66.66 1.533.66.905 0 1.618-.742l3.177-3.356 3.205 3.356q.713.742 1.618.742.877 0 1.533-.66.658-.66.658-1.514 0-.88-.686-1.566l-3.396-3.41 3.123-3.082q.686-.715.686-1.594 0-.855-.659-1.486-.63-.66-1.505-.66-.905-.001-1.618.742l-2.959 2.998-2.931-2.998q-.686-.77-1.618-.77M224 61a2 2 0 0 0-2 2v7h-7a2 2 0 0 0 0 4h7v7a2 2 0 0 0 4 0v-7h7a2 2 0 0 0 0-4h-7v-7a2 2 0 0 0-2-2m-52.406 1.088a2 2 0 0 0-1.8 1L154.206 90.09a2 2 0 0 0 1.068 2.887l11.518 4.05a2 2 0 0 0 2.395-.886l.67-1.16 16.408 9.472-23.588 44.701 3.539 1.867 19.73-37.392v27.46h4v-27.386l19.733 37.32 3.535-1.869-22.178-41.945 8.266 4.771a2 2 0 0 0 2.732-.732l1-1.73 12 6.927a2 2 0 0 0 2.733-.732l6-10.393a2 2 0 0 0-.733-2.73l-12-6.93 1-1.73a2 2 0 0 0-.732-2.735l-29.446-17 .67-1.16a2 2 0 0 0-.43-2.517l-9.267-7.95a2 2 0 0 0-1.234-.48M197.5 65a2.5 2.5 0 0 0 0 5 2.5 2.5 0 0 0 0-5m-25.445 2.174 6.177 5.3-11.68 20.23-7.679-2.7zM144.5 76a2.5 2.5 0 0 0 0 5 2.5 2.5 0 0 0 0-5m35.355 1.66 13.858 8-3 5.195 3.465 2 3-5.195 2.597 1.5-3 5.195 3.463 2 3-5.195 4.33 2.5-.627 1.086a2 2 0 0 0-.496.574l-6 10.393a2 2 0 0 0-.25.719l-.627 1.086-27.713-16zM121.5 91q-2.5 0-2.5 1.982 0 2.013 2.5 2.012h5.031l-6.562 6.86q-.781.854-.781 1.859 0 .945.687 1.615.687.671 1.781.672h9.844q2.5 0 2.5-2.012 0-1.981-2.5-1.982h-5.437l6.593-6.89q.781-.854.781-1.829 0-.946-.687-1.617-.687-.67-1.781-.67zm87.533 8.125 10.268 5.928-4 6.927-10.268-5.927zM93 102a2 2 0 0 0-2 2v7h-7a2 2 0 0 0 0 4h7v7a2 2 0 0 0 4 0v-7h7a2 2 0 0 0 0-4h-7v-7a2 2 0 0 0-2-2m-26.5 4a2.5 2.5 0 0 0 0 5 2.5 2.5 0 0 0 0-5m3.5 52v4h163v-4z" class="COLOR_ACCENT_2"/>
</svg>
