<svg xmlns="http://www.w3.org/2000/svg" width="300" height="200" fill="none"><g fill="#336e9e" transform="translate(-2)"><path d="M216 37a2 2 0 1 0-4 0v7h-7a2 2 0 1 0 0 4h7v7a2 2 0 1 0 4 0v-7h7a2 2 0 1 0 0-4h-7zM69 78a2 2 0 1 0-4 0v7h-7a2 2 0 1 0 0 4h7v7a2 2 0 1 0 4 0v-7h7a2 2 0 1 0 0-4h-7z"/><circle cx="206.5" cy="30.5" r="2.5"/><circle cx="198.5" cy="38.5" r="2.5"/><circle cx="78.5" cy="100.5" r="2.5"/><circle cx="96.5" cy="161.5" r="2.5"/><circle cx="85.5" cy="154.5" r="2.5"/><rect width="4" height="28" x="99" y="-158" rx="2" ry="2" transform="rotate(90)"/><rect width="4" height="29" x="121" y="-158" rx="2" ry="2" transform="rotate(90)"/><rect width="4" height="42" x="79" y="-172" rx="2" ry="2" transform="rotate(90)"/><rect width="4" height="56" x="142" y="-185" rx="2" ry="2" transform="rotate(90)"/><path d="M113 53h69c4.101 0 7.625 2.468 9.168 6h-4.696A5.984 5.984 0 0 0 182 57h-69a6 6 0 0 0-6 6v80c0 1.777.773 3.374 2 4.472v4.696a10.002 10.002 0 0 1-6-9.168V63c0-5.523 4.477-10 10-10z"/><path fill-rule="evenodd" d="M103 43h69c4.101 0 7.625 2.468 9.168 6h-4.696A5.984 5.984 0 0 0 172 47h-69a6 6 0 0 0-6 6v80c0 1.777.772 3.374 2 4.472v4.696A10.002 10.002 0 0 1 93 133V53c0-5.523 4.477-10 10-10z" clip-rule="evenodd"/><circle cx="78.5" cy="100.5" r="2.5"/><path d="M209 30.5a2.5 2.5 0 1 1-5 0 2.5 2.5 0 0 1 5 0zm7 6.5a2 2 0 1 0-4 0v7h-7a2 2 0 1 0 0 4h7v7a2 2 0 1 0 4 0v-7h7a2 2 0 1 0 0-4h-7zM67 76a2 2 0 0 1 2 2v7h7a2 2 0 1 1 0 4h-7v7a2 2 0 1 1-4 0v-7h-7a2 2 0 1 1 0-4h7v-7a2 2 0 0 1 2-2zm131.5-35a2.5 2.5 0 1 0 0-5 2.5 2.5 0 0 0 0 5zM99 161.5a2.5 2.5 0 1 1-5 0 2.5 2.5 0 0 1 5 0zM85.5 157a2.5 2.5 0 1 0 0-5 2.5 2.5 0 0 0 0 5z"/><path fill-rule="evenodd" d="m209.792 131.253.006-.004a27.656 27.656 0 0 0 4.177-4.35l.022-.028 21.346 21.346-4.293 4.294zm28.38 14.135a4 4 0 0 1 0 5.657l-4.294 4.294-.005.005a4 4 0 0 1-5.649-.002l-.003-.003-21.72-21.731a26.925 26.925 0 0 1-3.559 1.815l-.012.006c-9.87 4.14-21.688 2.192-29.724-5.844-10.607-10.607-10.607-27.804 0-38.411 10.607-10.607 27.804-10.607 38.411 0 7.747 7.746 9.836 19.007 6.268 28.649l-.011.029a26.95 26.95 0 0 1-1.644 3.595l-.018.033zm-61.765-19.004c8.839 8.839 23.17 8.839 32.009 0 8.839-8.839 8.839-23.17 0-32.01-8.839-8.839-23.17-8.839-32.009 0-8.84 8.84-8.84 23.171 0 32.01z" clip-rule="evenodd"/><path d="M192 63h-69c-5.523 0-10 4.477-10 10v80c0 5.523 4.477 10 10 10h69c5.523 0 10-4.477 10-10v-13.201c-1.307.492-2.645.88-4 1.163V153a6 6 0 0 1-6 6h-69a6 6 0 0 1-6-6V73a6 6 0 0 1 6-6h69a6 6 0 0 1 6 6v6.796c1.355.284 2.693.672 4 1.164V73c0-5.523-4.477-10-10-10z"/><rect width="4" height="28" x="99" y="-158" rx="2" ry="2" transform="rotate(90)"/><rect width="4" height="29" x="121" y="-158" rx="2" ry="2" transform="rotate(90)"/><rect width="4" height="42" x="79" y="-172" rx="2" ry="2" transform="rotate(90)"/><rect width="4" height="56" x="142" y="-185" rx="2" ry="2" transform="rotate(90)"/><path fill-rule="evenodd" d="M191.5 99c-7.103 0-10.708 6.148-9.088 11.412a2 2 0 0 1-3.823 1.176C176.208 103.852 181.603 95 191.5 95a2 2 0 1 1 0 4z" clip-rule="evenodd"/></g></svg>