<?xml version="1.0" encoding="UTF-8" standalone="no"?>
<svg
   xmlns:dc="http://purl.org/dc/elements/1.1/"
   xmlns:cc="http://creativecommons.org/ns#"
   xmlns:rdf="http://www.w3.org/1999/02/22-rdf-syntax-ns#"
   xmlns:svg="http://www.w3.org/2000/svg"
   xmlns="http://www.w3.org/2000/svg"
   xmlns:sodipodi="http://sodipodi.sourceforge.net/DTD/sodipodi-0.dtd"
   xmlns:inkscape="http://www.inkscape.org/namespaces/inkscape"
   width="256"
   height="256"
   viewBox="0 0 256 256"
   version="1.1"
   id="svg20"
   sodipodi:docname="spyder-logomark-background.svg"
   inkscape:version="1.0.2 (e86c8708, 2021-01-15)">
  <metadata
     id="metadata24">
    <rdf:RDF>
      <cc:Work
         rdf:about="">
        <dc:format>image/svg+xml</dc:format>
        <dc:type
           rdf:resource="http://purl.org/dc/dcmitype/StillImage" />
        <dc:title></dc:title>
      </cc:Work>
    </rdf:RDF>
  </metadata>
  <sodipodi:namedview
     pagecolor="#ffffff"
     bordercolor="#666666"
     borderopacity="1"
     objecttolerance="10"
     gridtolerance="10"
     guidetolerance="10"
     inkscape:pageopacity="0"
     inkscape:pageshadow="2"
     inkscape:window-width="709"
     inkscape:window-height="480"
     id="namedview22"
     showgrid="false"
     inkscape:zoom="0.44713373"
     inkscape:cx="128"
     inkscape:cy="128"
     inkscape:window-x="0"
     inkscape:window-y="23"
     inkscape:window-maximized="0"
     inkscape:current-layer="svg20"
     inkscape:document-rotation="0" />
  <defs
     id="defs12">
    <style
       id="style10">.a{fill:#fafafa;}.b{fill:#303030;}.c{fill:#8c0000;}</style>
  </defs>
  <rect
     class="a"
     x="26.01"
     y="26.01"
     width="203.98"
     height="203.98"
     rx="37.85"
     id="rect14" />
  <path
     class="b"
     d="M197.63,116.58a2.28,2.28,0,0,1,2.15,2.46v6.6a2,2,0,0,1-2.3,2.3H168.93c-7.06,0-11.2,2.45-11.2,8v2c0,4.3,2,8,9.52,10.74l20.41,8.14C201.77,162.16,203,170,203,178.42v1.69c0,17.19-10.28,20.56-31,20.56-13.35,0-25.47-1.07-28.08-1.38-1.84-.15-2.3-1.07-2.3-2.3v-6.75a2,2,0,0,1,2.3-2.3h28.39c12.28,0,16.11-1.38,16.11-8v-1.84c0-4.45-1.84-7.37-8.9-10.28l-21.79-8.29C145.92,155,143,146.05,143,137.61v-3.23c0-16.88,14.73-19.18,31.15-19.18A195,195,0,0,1,197.63,116.58Z"
     id="path16" />
  <path
     class="c"
     d="M190.69,59.34a25.27,25.27,0,0,0-16-5.68H78.24a25.37,25.37,0,0,0-11.82,2.92,25.7,25.7,0,0,0-10.25,9.93c-.46.82-.87,1.66-1.25,2.5-.22.59-.47,1.15-.67,1.72A26.9,26.9,0,0,0,52.87,79v96.48a25.35,25.35,0,0,0,25.37,25.35h51.5a1.37,1.37,0,0,0,1.37-1.37v-6.15a1.37,1.37,0,0,0-1.37-1.37h-6.68l-20-40.41,45.51-60.31a5.17,5.17,0,0,0,.85-1.77l41.7,6.38v9.38a1.38,1.38,0,0,0,1.37,1.37h6.19a1.37,1.37,0,0,0,1.36-1.37V79A25.25,25.25,0,0,0,190.69,59.34Zm-52.52,3.24,2.15,17.19-33.71-5.16-1.52-12Zm-59.93,0H96.82l1.33,10.75L73.52,69.56l-7.77-1.2A16.33,16.33,0,0,1,78.24,62.58ZM97,81.46,79.82,104.31,66.21,76.74ZM61.79,86.34l11,22.32-11,1.35Zm0,32,14.84-1.88L92,147.58l-30.22,3.8ZM113.89,192H79.61a17.87,17.87,0,0,1-17.82-17.83V159.66l34.05-4.27ZM99.06,143.33l-15.2-30.8,22.34-29.6s0,0,0-.05l34.45,5.27Zm92.11-55.79-42.42-6.49-2.31-18.47h26.92A17.87,17.87,0,0,1,191.17,80.4Z"
     id="path18" />
</svg>
