<?xml version="1.0" encoding="UTF-8" standalone="no"?>
<svg
   xmlns:dc="http://purl.org/dc/elements/1.1/"
   xmlns:cc="http://creativecommons.org/ns#"
   xmlns:rdf="http://www.w3.org/1999/02/22-rdf-syntax-ns#"
   xmlns:svg="http://www.w3.org/2000/svg"
   xmlns="http://www.w3.org/2000/svg"
   xmlns:sodipodi="http://sodipodi.sourceforge.net/DTD/sodipodi-0.dtd"
   xmlns:inkscape="http://www.inkscape.org/namespaces/inkscape"
   version="1.1"
   viewBox="-128 -358 1792 1792"
   id="svg2"
   inkscape:version="0.48.4 r9939"
   width="100%"
   height="100%"
   sodipodi:docname="page.svg">
  <metadata
     id="metadata12">
    <rdf:RDF>
      <cc:Work
         rdf:about="">
        <dc:format>image/svg+xml</dc:format>
        <dc:type
           rdf:resource="http://purl.org/dc/dcmitype/StillImage" />
        <dc:title />
      </cc:Work>
    </rdf:RDF>
  </metadata>
  <defs
     id="defs10" />
  <sodipodi:namedview
     pagecolor="#ffffff"
     bordercolor="#666666"
     borderopacity="1"
     objecttolerance="10"
     gridtolerance="10"
     guidetolerance="10"
     inkscape:pageopacity="0"
     inkscape:pageshadow="2"
     inkscape:window-width="1855"
     inkscape:window-height="1056"
     id="namedview8"
     showgrid="true"
     inkscape:zoom="0.37249375"
     inkscape:cx="711.54436"
     inkscape:cy="801.21611"
     inkscape:window-x="65"
     inkscape:window-y="24"
     inkscape:window-maximized="1"
     inkscape:current-layer="svg2">
    <inkscape:grid
       type="xygrid"
       id="grid2989"
       empspacing="64"
       visible="true"
       enabled="true"
       snapvisiblegridlinesonly="true" />
  </sodipodi:namedview>
  <path
     style="opacity:0.55555558;fill:#800000;fill-opacity:1;stroke:none"
     d="M 192 166 C 121.088 166 64 223.088 64 294 L 64 1958 C 64 2028.912 121.088 2086 192 2086 L 1600 2086 C 1670.912 2086 1728 2028.912 1728 1958 L 1728 294 C 1728 223.088 1670.912 166 1600 166 L 192 166 z M 205 230 L 1587 230 C 1630 230 1664 263 1664 305 L 1664 1947 C 1664 1989 1630 2022 1587 2022 L 205 2022 C 162 2022 128 1989 128 1947 L 128 305 C 128 263 162 230 205 230 z "
     transform="translate(-128,-358)"
     id="rect2984" />
  <g
     transform="matrix(1,0,0,-1,128,1434)"
     id="g4" />
</svg>
