<?xml version="1.0" encoding="UTF-8" standalone="no"?>
<svg
   xmlns:dc="http://purl.org/dc/elements/1.1/"
   xmlns:cc="http://creativecommons.org/ns#"
   xmlns:rdf="http://www.w3.org/1999/02/22-rdf-syntax-ns#"
   xmlns:svg="http://www.w3.org/2000/svg"
   xmlns="http://www.w3.org/2000/svg"
   xmlns:sodipodi="http://sodipodi.sourceforge.net/DTD/sodipodi-0.dtd"
   xmlns:inkscape="http://www.inkscape.org/namespaces/inkscape"
   version="1.1"
   viewBox="0 -358 1792 1792"
   id="svg3061"
   inkscape:version="0.48.4 r9939"
   width="100%"
   height="100%"
   sodipodi:docname="play-pause.svg">
  <metadata
     id="metadata3071">
    <rdf:RDF>
      <cc:Work
         rdf:about="">
        <dc:format>image/svg+xml</dc:format>
        <dc:type
           rdf:resource="http://purl.org/dc/dcmitype/StillImage" />
      </cc:Work>
    </rdf:RDF>
  </metadata>
  <defs
     id="defs3069" />
  <sodipodi:namedview
     pagecolor="#ffffff"
     bordercolor="#666666"
     borderopacity="1"
     objecttolerance="10"
     gridtolerance="10"
     guidetolerance="10"
     inkscape:pageopacity="0"
     inkscape:pageshadow="2"
     inkscape:window-width="640"
     inkscape:window-height="480"
     id="namedview3067"
     showgrid="false"
     inkscape:zoom="0.13169643"
     inkscape:cx="896"
     inkscape:cy="896"
     inkscape:window-x="65"
     inkscape:window-y="24"
     inkscape:window-maximized="0"
     inkscape:current-layer="svg3061" />
  <g
     transform="matrix(1,0,0,-1,-256,1589.1289)"
     id="g3063">
    <path
       d="m 276,1565 c 7,0 16,-5 25,-15 l 710,-710 c 5,-5 10,-11 13,-19 v 678 c 0,18 6,33 19,45 13,13 28,19 45,19 h 128 c 17,0 32,-6 45,-19 13,-12 19,-27 19,-45 V 91 c 0,-17 -6,-32 -19,-45 -13,-12 -28,-19 -45,-19 h -128 c -17,0 -32,7 -45,19 -13,13 -19,28 -19,45 v 678 c -3,-6 -8,-13 -13,-19 L 301,40 C 288,28 278,23 269,27 c -9,4 -13,15 -13,32 v 1472 c 0,18 4,28 13,32 2,1 4,2 7,2 z m 1199,-3 h 128 c 17,0 32,-6 45,-19 13,-13 19,-28 19,-45 V 90 c 0,-17 -6,-32 -19,-45 -13,-13 -28,-19 -45,-19 h -128 c -17,0 -32,6 -45,19 -13,13 -19,28 -19,45 v 1408 c 0,17 6,32 19,45 13,13 28,19 45,19 z"
       id="path3065"
       inkscape:connector-curvature="0"
       style="fill:currentColor" />
  </g>
</svg>
