<?xml version="1.0" encoding="UTF-8" standalone="no"?>
<svg
   xmlns:dc="http://purl.org/dc/elements/1.1/"
   xmlns:cc="http://creativecommons.org/ns#"
   xmlns:rdf="http://www.w3.org/1999/02/22-rdf-syntax-ns#"
   xmlns:svg="http://www.w3.org/2000/svg"
   xmlns="http://www.w3.org/2000/svg"
   xmlns:sodipodi="http://sodipodi.sourceforge.net/DTD/sodipodi-0.dtd"
   xmlns:inkscape="http://www.inkscape.org/namespaces/inkscape"
   width="662"
   height="285"
   viewBox="0 0 662 285"
   version="1.1"
   id="svg156"
   sodipodi:docname="whiteArtboard 2 copy 88.svg"
   inkscape:version="1.0.2 (e86c8708, 2021-01-15)">
  <metadata
     id="metadata160">
    <rdf:RDF>
      <cc:Work
         rdf:about="">
        <dc:format>image/svg+xml</dc:format>
        <dc:type
           rdf:resource="http://purl.org/dc/dcmitype/StillImage" />
        <dc:title></dc:title>
      </cc:Work>
    </rdf:RDF>
  </metadata>
  <sodipodi:namedview
     pagecolor="#ffffff"
     bordercolor="#666666"
     borderopacity="1"
     objecttolerance="10"
     gridtolerance="10"
     guidetolerance="10"
     inkscape:pageopacity="0"
     inkscape:pageshadow="2"
     inkscape:window-width="741"
     inkscape:window-height="480"
     id="namedview158"
     showgrid="false"
     inkscape:zoom="0.64958942"
     inkscape:cx="342.73653"
     inkscape:cy="146.8143"
     inkscape:window-x="27"
     inkscape:window-y="23"
     inkscape:window-maximized="0"
     inkscape:current-layer="svg156" />
  <defs
     id="defs138">
    <style
       id="style136">.a{fill:#fafafa;}.b{fill:#303030;}.c{fill:#8c0000;}</style>
  </defs>
  <rect
     class="a"
     x="-304.98999"
     y="1000000"
     width="609.97998"
     height="0"
     rx="37.849998"
     id="rect140"
     transform="scale(-1,1)"
     style="stroke-width:0" />
  <path
     class="b"
     d="M199,121.3a2.27,2.27,0,0,1,2.14,2.45v6.56a2,2,0,0,1-2.29,2.29H170.42c-7,0-11.14,2.45-11.14,7.94v2c0,4.28,2,7.94,9.46,10.69l20.31,8.09c14,5.35,15.27,13.13,15.27,21.53v1.68c0,17.1-10.23,20.46-30.84,20.46-13.29,0-25.35-1.06-27.95-1.37-1.83-.15-2.29-1.07-2.29-2.29V194.6a2,2,0,0,1,2.29-2.29h28.25c12.22,0,16-1.37,16-7.94v-1.83c0-4.43-1.84-7.33-8.86-10.23l-21.68-8.25c-11.76-4.58-14.66-13.44-14.66-21.84V139c0-16.8,14.66-19.09,31-19.09A192.91,192.91,0,0,1,199,121.3Z"
     id="path142" />
  <path
     class="b"
     d="M288.75,160.38c0,34.05-6.11,42.6-35,42.6a168,168,0,0,1-20.16-.91v28.1a2,2,0,0,1-2.29,2.29H221.25a2,2,0,0,1-2.29-2.29v-107c0-1.68.92-2.29,2.45-2.59a170,170,0,0,1,31.6-2.6C282.64,117.93,288.75,126.63,288.75,160.38Zm-55.13-29.62v58.18a165.68,165.68,0,0,0,19.24,1.22c18.94,0,21.23-5.81,21.23-29.63,0-23.67-2.14-29.77-20.92-29.77Z"
     id="path144" />
  <path
     class="b"
     d="M374,118.69a2,2,0,0,1,2.29,2.29v73.61c-.15,29.93-6,38.63-35.28,38.63a154.64,154.64,0,0,1-23-1.37,2.26,2.26,0,0,1-2.14-2.45v-6.56a2,2,0,0,1,2.29-2.29h22.6c17.1,0,20.92-4.13,20.92-17.87v-.92A120.09,120.09,0,0,1,341.42,203c-28.86,0-35-8.7-35-41.68V121a2,2,0,0,1,2.29-2.29h9.93A2,2,0,0,1,321,121v39.4c0,23.82,2.44,29.78,21.38,29.78a165.18,165.18,0,0,0,19.24-1.07V121a2,2,0,0,1,2.29-2.29Z"
     id="path146" />
  <path
     class="b"
     d="M462.36,86.78a2,2,0,0,1,2.29,2.29V198c0,1.67-.92,2.29-2.45,2.44A171.57,171.57,0,0,1,430.44,203c-29.62,0-35.58-8.39-35.58-42.29s6-42.76,34.82-42.76A163.32,163.32,0,0,1,450,119V89.07a2,2,0,0,1,2.29-2.29Zm-31.77,44c-18.93,0-21.07,5.8-21.07,29.77,0,23.52,2,29.63,20.92,29.63A170.85,170.85,0,0,0,450,188.94V130.76Z"
     id="path148" />
  <path
     class="b"
     d="M552,158.24v4.43c0,3.06-.77,4.28-5.5,4.28H497.93c.46,18.63,4,23.21,20.31,23.21h25a2,2,0,0,1,2.29,2.29v6.72a2.25,2.25,0,0,1-2.13,2.44A189,189,0,0,1,517.93,203c-28.7,0-34.81-8.39-34.81-42.45s6.11-42.6,34.81-42.6C545.27,117.93,551.68,126,552,158.24ZM497.78,155h39.55c-.31-19.4-3.51-24.28-19.4-24.28C501.44,130.76,498.08,135.64,497.78,155Z"
     id="path150" />
  <path
     class="b"
     d="M609.7,119.61c1.53.46,2.29,1.07,2.29,2.6v6.41a2,2,0,0,1-2.44,2.14H596.26c-10.53,0-13.28,1.68-13.28,8.55v60.62a2,2,0,0,1-2.29,2.29h-9.93a2,2,0,0,1-2.29-2.29V135.8c0-17.26,15.27-17.87,24.13-17.87C596.26,117.93,606.65,118.54,609.7,119.61Z"
     id="path152" />
  <path
     class="c"
     d="M190.27,59.88a25.25,25.25,0,0,0-16-5.68H77.8A25.31,25.31,0,0,0,66,57.12a25.66,25.66,0,0,0-10.26,9.93c-.46.83-.87,1.66-1.25,2.51-.22.58-.47,1.15-.67,1.72a23.11,23.11,0,0,0-.92,3.55,24.68,24.68,0,0,0-.46,4.75v96.5A25.35,25.35,0,0,0,77.8,201.43h51.51a1.36,1.36,0,0,0,1.37-1.36v-6.16a1.37,1.37,0,0,0-1.37-1.37h-6.69l-19.94-40.41L148.19,91.8A5.17,5.17,0,0,0,149,90l41.71,6.38v9.39a1.38,1.38,0,0,0,1.37,1.37h6.19a1.38,1.38,0,0,0,1.37-1.37V79.58A25.27,25.27,0,0,0,190.27,59.88Zm-52.53,3.25,2.16,17.18-33.72-5.16-1.53-12Zm-41.36,0,1.33,10.74L73.07,70.1l15.75-7ZM96.57,82l-17.2,22.86L65.76,77.29ZM61.34,86.89l11,22.32-11,1.36Zm0,32L76.19,117l15.38,31.15-30.23,3.8Zm52.12,73.67H79.17a17.87,17.87,0,0,1-17.83-17.82V160.23L95.4,156ZM98.62,143.89l-15.2-30.8,22.34-29.61s0,0,0,0l34.46,5.27Zm92.13-55.8L148.33,81.6,146,63.13h26.93a17.86,17.86,0,0,1,17.81,17.81Z"
     id="path154" />
</svg>
