<?xml version="1.0" encoding="UTF-8" standalone="no"?>
<svg
   xmlns:dc="http://purl.org/dc/elements/1.1/"
   xmlns:cc="http://creativecommons.org/ns#"
   xmlns:rdf="http://www.w3.org/1999/02/22-rdf-syntax-ns#"
   xmlns:svg="http://www.w3.org/2000/svg"
   xmlns="http://www.w3.org/2000/svg"
   xmlns:sodipodi="http://sodipodi.sourceforge.net/DTD/sodipodi-0.dtd"
   xmlns:inkscape="http://www.inkscape.org/namespaces/inkscape"
   width="500"
   height="250"
   viewBox="0 0 500 250"
   version="1.1"
   id="svg28"
   sodipodi:docname="whiteArtboard 2 copy 75.svg"
   inkscape:version="1.0.2 (e86c8708, 2021-01-15)">
  <metadata
     id="metadata32">
    <rdf:RDF>
      <cc:Work
         rdf:about="">
        <dc:format>image/svg+xml</dc:format>
        <dc:type
           rdf:resource="http://purl.org/dc/dcmitype/StillImage" />
        <dc:title></dc:title>
      </cc:Work>
    </rdf:RDF>
  </metadata>
  <sodipodi:namedview
     pagecolor="#ffffff"
     bordercolor="#666666"
     borderopacity="1"
     objecttolerance="10"
     gridtolerance="10"
     guidetolerance="10"
     inkscape:pageopacity="0"
     inkscape:pageshadow="2"
     inkscape:window-width="713"
     inkscape:window-height="480"
     id="namedview30"
     showgrid="false"
     inkscape:zoom="0.92982293"
     inkscape:cx="250"
     inkscape:cy="125"
     inkscape:window-x="0"
     inkscape:window-y="23"
     inkscape:window-maximized="0"
     inkscape:current-layer="svg28" />
  <defs
     id="defs12">
    <style
       id="style10">.a{fill:#303030;}.b{fill:#8c0000;}</style>
  </defs>
  <path
     class="a"
     d="M161.4,109.51a1.48,1.48,0,0,1,1.4,1.6v4.3a1.33,1.33,0,0,1-1.5,1.5H142.69c-4.61,0-7.31,1.6-7.31,5.2v1.31c0,2.8,1.3,5.2,6.21,7l13.3,5.3c9.21,3.5,10,8.61,10,14.11v1.1c0,11.21-6.71,13.41-20.21,13.41-8.71,0-16.61-.7-18.31-.9-1.2-.1-1.5-.7-1.5-1.5v-4.41a1.33,1.33,0,0,1,1.5-1.5h18.51c8,0,10.5-.9,10.5-5.2v-1.2c0-2.9-1.2-4.8-5.8-6.7l-14.21-5.41c-7.7-3-9.6-8.8-9.6-14.3v-2.11c0-11,9.6-12.5,20.31-12.5A126.74,126.74,0,0,1,161.4,109.51Z"
     id="path14" />
  <path
     class="a"
     d="M221.52,136.42c0,22.31-4,27.92-22.91,27.92a109.76,109.76,0,0,1-13.21-.6v18.41a1.33,1.33,0,0,1-1.5,1.5h-6.6a1.33,1.33,0,0,1-1.5-1.5V112c0-1.1.6-1.5,1.6-1.7a111.62,111.62,0,0,1,20.71-1.7C217.52,108.61,221.52,114.31,221.52,136.42ZM185.4,117v38.12a108.24,108.24,0,0,0,12.61.8c12.41,0,13.91-3.8,13.91-19.41S210.52,117,198.21,117Z"
     id="path16" />
  <path
     class="a"
     d="M277.35,109.11a1.33,1.33,0,0,1,1.5,1.5v48.22c-.1,19.62-3.9,25.32-23.11,25.32a100.56,100.56,0,0,1-15.11-.9,1.48,1.48,0,0,1-1.4-1.6v-4.31a1.33,1.33,0,0,1,1.5-1.5h14.81c11.2,0,13.71-2.7,13.71-11.7v-.6a78.88,78.88,0,0,1-13.21.8c-18.91,0-22.91-5.71-22.91-27.32V110.61a1.33,1.33,0,0,1,1.5-1.5h6.5a1.33,1.33,0,0,1,1.5,1.5v25.81c0,15.61,1.6,19.51,14,19.51a107.9,107.9,0,0,0,12.61-.7V110.61a1.33,1.33,0,0,1,1.5-1.5Z"
     id="path18" />
  <path
     class="a"
     d="M335.28,88.2a1.33,1.33,0,0,1,1.5,1.5V161c0,1.1-.6,1.5-1.6,1.6a112.71,112.71,0,0,1-20.81,1.7c-19.42,0-23.32-5.51-23.32-27.72s3.9-28,22.81-28a106.91,106.91,0,0,1,13.31.7V89.7a1.33,1.33,0,0,1,1.5-1.5ZM314.46,117c-12.4,0-13.8,3.8-13.8,19.51,0,15.41,1.3,19.41,13.71,19.41a111.34,111.34,0,0,0,12.8-.8V117Z"
     id="path20" />
  <path
     class="a"
     d="M394,135v2.9c0,2-.5,2.81-3.6,2.81H358.58c.3,12.2,2.61,15.2,13.31,15.2H388.3a1.33,1.33,0,0,1,1.5,1.5v4.41a1.48,1.48,0,0,1-1.4,1.6,123.82,123.82,0,0,1-16.71.9c-18.81,0-22.81-5.51-22.81-27.82s4-27.91,22.81-27.91C389.6,108.61,393.8,113.91,394,135Zm-35.52-2.1H384.4c-.2-12.71-2.3-15.91-12.71-15.91C360.89,117,358.68,120.21,358.48,132.92Z"
     id="path22" />
  <path
     class="a"
     d="M431.82,109.71c1,.3,1.5.7,1.5,1.7v4.2a1.29,1.29,0,0,1-1.6,1.4H423c-6.9,0-8.7,1.1-8.7,5.61v39.72a1.33,1.33,0,0,1-1.5,1.5h-6.5a1.33,1.33,0,0,1-1.51-1.5v-42c0-11.3,10-11.7,15.81-11.7C423,108.61,429.82,109,431.82,109.71Z"
     id="path24" />
  <path
     class="b"
     d="M157,70.57a16.6,16.6,0,0,0-10.46-3.72H83.31a16.64,16.64,0,0,0-7.75,1.91,16.9,16.9,0,0,0-6.72,6.51c-.3.54-.57,1.09-.82,1.64-.14.39-.31.76-.44,1.13a15,15,0,0,0-.6,2.33,15.92,15.92,0,0,0-.3,3.11v63.23a16.59,16.59,0,0,0,16.63,16.61h33.75a.89.89,0,0,0,.89-.9v-4a.89.89,0,0,0-.89-.89h-4.38L99.61,131l29.82-39.53a3.41,3.41,0,0,0,.56-1.15l27.33,4.18v6.15a.9.9,0,0,0,.89.9h4.06a.91.91,0,0,0,.9-.9V83.48A16.56,16.56,0,0,0,157,70.57ZM122.58,72.7,124,84,101.9,80.58l-1-7.88Zm-27.1,0,.87,7L80.21,77.27,90.53,72.7Zm.13,12.37-11.27,15L75.42,82Zm-23.09,3.2,7.22,14.63-7.22.89Zm0,21L82.25,108,92.33,128.4l-19.81,2.5Zm34.15,48.28H84.2a11.71,11.71,0,0,1-11.68-11.68v-9.5l22.32-2.8ZM97,125.62,87,105.44,101.63,86s0,0,0,0l22.57,3.45Zm60.37-36.56-27.8-4.26L128,72.7h17.64a11.71,11.71,0,0,1,11.68,11.67Z"
     id="path26" />
</svg>
