<?xml version="1.0" encoding="UTF-8" standalone="no"?>
<svg
   xmlns:dc="http://purl.org/dc/elements/1.1/"
   xmlns:cc="http://creativecommons.org/ns#"
   xmlns:rdf="http://www.w3.org/1999/02/22-rdf-syntax-ns#"
   xmlns:svg="http://www.w3.org/2000/svg"
   xmlns="http://www.w3.org/2000/svg"
   xmlns:sodipodi="http://sodipodi.sourceforge.net/DTD/sodipodi-0.dtd"
   xmlns:inkscape="http://www.inkscape.org/namespaces/inkscape"
   width="662"
   height="285"
   viewBox="0 0 662 285"
   version="1.1"
   id="svg30"
   sodipodi:docname="spyder-logo-background.svg"
   inkscape:version="1.0.2 (e86c8708, 2021-01-15)">
  <metadata
     id="metadata34">
    <rdf:RDF>
      <cc:Work
         rdf:about="">
        <dc:format>image/svg+xml</dc:format>
        <dc:type
           rdf:resource="http://purl.org/dc/dcmitype/StillImage" />
        <dc:title></dc:title>
      </cc:Work>
    </rdf:RDF>
  </metadata>
  <sodipodi:namedview
     pagecolor="#ffffff"
     bordercolor="#666666"
     borderopacity="1"
     objecttolerance="10"
     gridtolerance="10"
     guidetolerance="10"
     inkscape:pageopacity="0"
     inkscape:pageshadow="2"
     inkscape:window-width="705"
     inkscape:window-height="480"
     id="namedview32"
     showgrid="false"
     inkscape:zoom="0.21096194"
     inkscape:cx="-353.95769"
     inkscape:cy="142.5"
     inkscape:window-x="27"
     inkscape:window-y="23"
     inkscape:window-maximized="0"
     inkscape:current-layer="svg30"
     inkscape:document-rotation="0" />
  <defs
     id="defs12">
    <style
       id="style10">.a{fill:#fafafa;}.b{fill:#8c0000;}.c{fill:#303030;}</style>
  </defs>
  <rect
     class="a"
     x="26.01"
     y="26.01"
     width="609.98"
     height="232.98"
     rx="37.85"
     id="rect14" />
  <path
     class="b"
     d="M190.26,59.76a25.28,25.28,0,0,0-16-5.68H77.64A25.27,25.27,0,0,0,65.8,57a25.71,25.71,0,0,0-10.27,9.94,26.64,26.64,0,0,0-1.25,2.51c-.22.59-.48,1.16-.67,1.73a23.11,23.11,0,0,0-.92,3.55,24.06,24.06,0,0,0-.46,4.75v96.65a25.07,25.07,0,0,0,2.51,11,25.41,25.41,0,0,0,22.9,14.37h51.58a1.37,1.37,0,0,0,1.37-1.37V194a1.37,1.37,0,0,0-1.37-1.37h-6.7l-20-40.47,45.58-60.42A5.08,5.08,0,0,0,149,90l41.77,6.39v9.4a1.37,1.37,0,0,0,1.37,1.37h6.2a1.37,1.37,0,0,0,1.37-1.37V79.48A25.28,25.28,0,0,0,190.26,59.76ZM137.66,63l2.16,17.21-33.77-5.16L104.53,63Zm-60,0h18.6l1.34,10.76L72.91,70l-7.79-1.2A16.4,16.4,0,0,1,77.64,63Zm18.8,18.91L79.21,104.81,65.58,77.19ZM61.15,86.81l11,22.35-11,1.36Zm0,32L76,117l15.41,31.2L61.15,152Zm52.19,73.78H79a17.9,17.9,0,0,1-17.86-17.85V160.25L95.26,156ZM98.49,143.89,83.26,113l22.38-29.65s0,0,0,0l34.5,5.28ZM190.75,88l-42.49-6.5L146,63h27a17.9,17.9,0,0,1,17.84,17.84Z"
     id="path16" />
  <path
     class="c"
     d="M197.67,118.93a2.26,2.26,0,0,1,2.15,2.44V128a2,2,0,0,1-2.3,2.29H169.08c-7,0-11.16,2.45-11.16,7.95v2c0,4.28,2,7.95,9.48,10.71l20.34,8.1C201.8,164.34,203,172.14,203,180.55v1.68c0,17.13-10.25,20.49-30.89,20.49-13.31,0-25.39-1.07-28-1.37-1.83-.16-2.29-1.07-2.29-2.3v-6.72a2,2,0,0,1,2.29-2.3h28.29c12.24,0,16.06-1.37,16.06-7.95v-1.84c0-4.43-1.83-7.34-8.87-10.24l-21.71-8.26c-11.78-4.59-14.68-13.45-14.68-21.86v-3.22c0-16.82,14.68-19.11,31-19.11A193.35,193.35,0,0,1,197.67,118.93Z"
     id="path18" />
  <path
     class="c"
     d="M289.57,160.06c0,34.1-6.12,42.66-35,42.66a168.36,168.36,0,0,1-20.18-.91v28.13a2,2,0,0,1-2.3,2.3H222a2,2,0,0,1-2.29-2.3V122.75c0-1.68.91-2.29,2.44-2.6a170.68,170.68,0,0,1,31.66-2.6C283.45,117.55,289.57,126.27,289.57,160.06Zm-55.2-29.67v58.27a165.88,165.88,0,0,0,19.26,1.22c19,0,21.26-5.81,21.26-29.67,0-23.7-2.14-29.82-20.95-29.82Z"
     id="path20" />
  <path
     class="c"
     d="M374.89,118.31a2,2,0,0,1,2.29,2.3v73.7c-.15,30-6,38.69-35.32,38.69a153.71,153.71,0,0,1-23.09-1.38,2.25,2.25,0,0,1-2.14-2.44V222.6a2,2,0,0,1,2.29-2.29h22.63c17.13,0,20.95-4.13,20.95-17.89v-.92a120.33,120.33,0,0,1-20.18,1.22c-28.9,0-35-8.71-35-41.74V120.61a2,2,0,0,1,2.29-2.3h9.94a2,2,0,0,1,2.3,2.3v39.45c0,23.85,2.44,29.82,21.41,29.82a165.39,165.39,0,0,0,19.26-1.07v-68.2a2,2,0,0,1,2.3-2.3Z"
     id="path22" />
  <path
     class="c"
     d="M463.42,86.36a2,2,0,0,1,2.29,2.29v109c0,1.68-.91,2.29-2.44,2.44a172.22,172.22,0,0,1-31.81,2.6c-29.66,0-35.63-8.41-35.63-42.35s6-42.82,34.87-42.82A163.57,163.57,0,0,1,451,118.62v-30a2,2,0,0,1,2.3-2.29Zm-31.81,44c-19,0-21.1,5.82-21.1,29.82,0,23.55,2,29.67,20.95,29.67A171.19,171.19,0,0,0,451,188.66V130.39Z"
     id="path24" />
  <path
     class="c"
     d="M553.17,157.92v4.43c0,3.06-.76,4.29-5.5,4.29H499c.46,18.65,4,23.24,20.34,23.24h25.08a2,2,0,0,1,2.29,2.29v6.73a2.26,2.26,0,0,1-2.14,2.45,189.41,189.41,0,0,1-25.54,1.37c-28.74,0-34.86-8.41-34.86-42.51s6.12-42.66,34.86-42.66C546.45,117.55,552.87,125.65,553.17,157.92Zm-54.28-3.21h39.6c-.3-19.42-3.51-24.32-19.42-24.32C502.56,130.39,499.2,135.29,498.89,154.71Z"
     id="path26" />
  <path
     class="c"
     d="M611,119.23c1.53.46,2.29,1.07,2.29,2.6v6.42a2,2,0,0,1-2.44,2.14H597.51c-10.55,0-13.3,1.69-13.3,8.57v60.7a2,2,0,0,1-2.3,2.3H572a2,2,0,0,1-2.3-2.3V135.44c0-17.28,15.29-17.89,24.16-17.89C597.51,117.55,607.91,118.16,611,119.23Z"
     id="path28" />
</svg>
