<svg xmlns="http://www.w3.org/2000/svg" width="109.028" height="126.977" viewBox="0 0 28.847 33.595">
    <path d="m7.234 5.73-.861-.871.304-.304.557.557 1.429-1.418.304.304zm.436-3.465-1.946.87v1.298q0 .588.254 1.135.253.547.699.932.446.385.993.527.547-.142.993-.527.446-.385.699-.932.253-.547.253-1.135V3.136zm-.72 9.73a.353.353 0 0 0-.352.352.353.353 0 0 0 .353.353h1.41a.353.353 0 0 0 .353-.353.353.353 0 0 0-.352-.353zM2.858 0a1.77 1.77 0 0 0-1.764 1.764v7.164l-1.03 3.645a1.772 1.772 0 0 0 1.697 2.244h11.79a1.772 1.772 0 0 0 1.698-2.244l-1.03-3.645V1.764A1.77 1.77 0 0 0 12.454 0zm0 .706h9.596c.59 0 1.059.47 1.059 1.058v6.86H1.798v-6.86c0-.59.47-1.058 1.059-1.058zM1.714 9.329h11.884l.972 3.436a1.05 1.05 0 0 1-1.019 1.346H1.761a1.05 1.05 0 0 1-1.019-1.346zm5.675 6.54v10.533c0 .45.37.82.82.82h5.77v-.582h-5.77a.232.232 0 0 1-.238-.238V15.87zm10.56 6.605q-.315 0-.538.22-.223.22-.223.536 0 .316.22.539.221.223.537.223.315 0 .538-.22.224-.221.224-.536 0-.316-.221-.54-.22-.222-.536-.222zm0 7.504q-.315 0-.538.22-.223.222-.223.537 0 .315.22.539.221.223.537.223.315 0 .538-.22.224-.222.224-.537 0-.315-.221-.54-.22-.222-.536-.222zm-2.235-9.604h12.507q.266 0 .446.178t.18.442v4.338q0 .335-.18.548-.18.212-.446.212H15.714q-.266 0-.446-.212-.18-.213-.18-.548v-4.338q0-.264.18-.442t.446-.178zm0 .625v4.467h12.507V21zm0 6.88h12.463q.312 0 .49.205.18.206.18.51v4.198q0 .38-.18.592-.178.212-.49.212H15.758q-.312 0-.491-.212t-.179-.592v-4.2q0-.302.157-.508.156-.205.469-.205zm0 .625v4.467h12.507v-4.467zm0-7.505v4.467zm0 7.505v4.467z" style="fill:#3BEBB7"/>
</svg>
