<svg xmlns="http://www.w3.org/2000/svg" width="109.008" height="126.976" viewBox="0 0 28.842 33.596">
    <path d="M6.95 11.995a.353.353 0 0 0-.352.353.353.353 0 0 0 .353.352h1.41a.353.353 0 0 0 .354-.352.353.353 0 0 0-.353-.353zM2.859 0a1.77 1.77 0 0 0-1.763 1.764v7.165L.064 12.574a1.772 1.772 0 0 0 1.698 2.243h11.79a1.772 1.772 0 0 0 1.698-2.243l-1.031-3.645V1.764A1.77 1.77 0 0 0 12.455 0zm0 .706h9.597c.589 0 1.058.47 1.058 1.058v6.86H1.8v-6.86c0-.588.47-1.058 1.058-1.058zM1.715 9.33h11.884l.97 3.435a1.05 1.05 0 0 1-1.017 1.347H1.762a1.05 1.05 0 0 1-1.02-1.347zm4.493-7.14H9.07v1.43l-.95.95.95.95v1.432H6.208v-1.43l.95-.951-.95-.95zm2.38 3.454-.95-.95-.95.95v.839h1.9zm-.95-1.196.95-.95v-.84h-1.9v.84zm-.48-1.308h.96v.179l-.48.48-.48-.48zm.226 12.73v10.532c0 .45.37.82.82.82h5.77v-.582h-5.77a.232.232 0 0 1-.238-.238V15.87zm10.56 6.604q-.314 0-.537.22-.224.22-.224.536 0 .316.22.54.22.222.537.222.315 0 .539-.22.223-.221.223-.536 0-.316-.22-.54-.221-.222-.537-.222zm0 7.504q-.314 0-.537.22-.224.22-.224.537 0 .315.22.539.22.223.537.223.315 0 .539-.22.223-.221.223-.537 0-.315-.22-.538-.221-.224-.537-.224zm-2.235-9.604h12.508q.266 0 .445.178.18.179.18.442v4.339q0 .335-.18.547-.18.212-.445.212H15.709q-.265 0-.445-.212t-.18-.547v-4.34q0-.262.18-.441.18-.178.445-.178zm0 .626v4.467h12.508V21zm0 6.879h12.463q.313 0 .492.205.178.206.178.51v4.198q0 .38-.178.592-.18.212-.492.212H15.754q-.313 0-.491-.212-.18-.212-.18-.592v-4.2q0-.302.157-.508.157-.205.47-.205zm0 .625v4.467h12.508v-4.467zm0-7.504v4.467zm0 7.504v4.467z" style="fill:#FFCF84"/>
</svg>
