<svg xmlns="http://www.w3.org/2000/svg" width="109.031" height="126.977" viewBox="0 0 28.848 33.595">
    <path d="M11.11 4.645H9.25V4.02l1.047-1.236H9.25v-.626h1.86v.626L10.065 4.02h1.047zM8.624 5.88H6.762v-.61L7.809 4.02H6.762v-.611h1.862v.61l-1.047 1.25h1.047zM6.137 7.13H4.276v-.625l1.06-1.236h-1.06v-.625h1.86v.625L5.09 6.506h1.047zm.814 4.863a.353.353 0 0 0-.352.353.353.353 0 0 0 .352.353h1.41a.353.353 0 0 0 .354-.353.353.353 0 0 0-.353-.353zM2.859 0a1.77 1.77 0 0 0-1.764 1.763v7.165L.064 12.573a1.772 1.772 0 0 0 1.698 2.243h11.79a1.772 1.772 0 0 0 1.698-2.243l-1.03-3.645V1.763A1.77 1.77 0 0 0 12.455 0zm0 .705h9.596c.589 0 1.058.47 1.058 1.058v6.86H1.8v-6.86c0-.588.47-1.058 1.059-1.058zM1.715 9.329h11.884l.97 3.435a1.05 1.05 0 0 1-1.017 1.347H1.762a1.05 1.05 0 0 1-1.02-1.347zm5.675 6.54v10.533c0 .45.37.82.82.82h5.769v-.582h-5.77a.232.232 0 0 1-.238-.238V15.87zm10.56 6.604q-.315 0-.538.22-.224.222-.224.537 0 .315.22.539.22.223.537.223.316 0 .539-.22.223-.221.223-.537 0-.315-.22-.538-.221-.224-.536-.224zm0 7.505q-.315 0-.538.22-.224.22-.224.536 0 .316.22.54.22.223.537.223.316 0 .539-.221.223-.22.223-.536 0-.316-.22-.54-.221-.222-.536-.222zm-2.236-9.604h12.508q.266 0 .446.178t.18.442v4.338q0 .335-.18.547-.18.212-.446.212H15.714q-.265 0-.445-.212t-.18-.547v-4.338q0-.264.18-.442t.445-.178zm0 .625v4.467h12.508v-4.467zm0 6.88h12.463q.313 0 .492.205.178.205.178.509v4.199q0 .38-.178.592-.18.212-.492.212H15.76q-.313 0-.491-.212-.18-.212-.18-.592v-4.2q0-.303.157-.508.157-.206.47-.206zm0 .625v4.467h12.508v-4.467zm0-7.505v4.467zm0 7.505v4.467z" style="fill:#9DA9B5"/>
</svg>
