<svg width="24" height="24" viewBox="0 0 24 24" fill="none" xmlns="http://www.w3.org/2000/svg">
<path d="M4.92857 17.1111C4.92857 18.15 5.76429 19 6.78571 19H14.2143C15.2357 19 16.0714 18.15 16.0714 17.1111V5.77778H4.92857V17.1111ZM17 2.94444H13.75L12.8214 2H8.17857L7.25 2.94444H4V4.83333H17V2.94444Z" fill="#FAFAFA"/>
<path fill-rule="evenodd" clip-rule="evenodd" d="M10.4139 5.77783H16.0714V7.83339H7V5.9445H10.25L10.4139 5.77783ZM17.0714 5.9445V7.83339H20V5.9445H17.0714ZM16.0714 8.77783V17.1112C16.0714 18.1501 15.2357 19.0001 14.2143 19.0001H7.92857V8.77783H16.0714ZM17.0714 8.77783H19.0714V20.1112C19.0714 21.1501 18.2357 22.0001 17.2143 22.0001H9.78571C8.76429 22.0001 7.92857 21.1501 7.92857 20.1112V20.0001H14.2143C15.8039 20.0001 17.0714 18.6863 17.0714 17.1112V8.77783Z" fill="#FAFAFA"/>
</svg>
