<svg xmlns="http://www.w3.org/2000/svg" width="24" height="24" fill="none"><path fill="#FAFAFA" d="M6.624 16H2.279C2.093 16 2 15.913 2 15.739V8.26C2 8.087 2.093 8 2.279 8h4.345c.177 0 .265.087.265.261v.846c0 .174-.088.262-.265.262H3.847c-.106 0-.16.045-.16.136v1.618c0 .091.054.137.16.137h2.272c.186 0 .279.087.279.261v.846c0 .174-.093.261-.28.261H3.848c-.106 0-.16.046-.16.137v1.73c0 .09.054.136.16.136h2.777c.177 0 .265.088.265.262v.846c0 .174-.088.261-.265.261ZM9.74 16H8.636c-.186 0-.28-.087-.28-.261V8.26c0-.174.094-.261.28-.261h.996c.186 0 .31.058.372.174l2.684 4.716h.053V8.26c0-.174.093-.261.28-.261h1.102c.186 0 .279.087.279.261v7.478c0 .174-.093.261-.279.261h-.97a.448.448 0 0 1-.425-.249l-2.657-4.628h-.053v4.616c0 .174-.094.261-.28.261ZM19.61 16h-1.74c-.186 0-.297-.087-.332-.261l-2.06-7.453c-.061-.19.027-.286.266-.286h1.25c.176 0 .283.087.318.261l1.395 6.122h.053l1.395-6.122c.036-.174.142-.261.32-.261h1.248c.222 0 .31.095.266.286l-2.06 7.453c-.044.174-.15.261-.318.261Z"/></svg>