<svg xmlns="http://www.w3.org/2000/svg" width="109.031" height="126.98" viewBox="0 0 28.848 33.596">
    <path d="m10.068 2.936-.48-.48-1.901 1.903-1.902-1.902-.48.48 1.902 1.9L5.306 6.74l.479.48 1.902-1.903 1.902 1.902.479-.48-1.902-1.901zM6.95 11.995a.353.353 0 0 0-.353.353.353.353 0 0 0 .353.352h1.41a.353.353 0 0 0 .354-.352.353.353 0 0 0-.353-.353zM2.858 0a1.77 1.77 0 0 0-1.764 1.764v7.165l-1.03 3.645a1.772 1.772 0 0 0 1.697 2.243h11.79a1.772 1.772 0 0 0 1.699-2.243l-1.031-3.645V1.764A1.77 1.77 0 0 0 12.455 0zm0 .706h9.597c.589 0 1.058.47 1.058 1.058v6.86H1.8v-6.86c0-.588.47-1.058 1.058-1.058zM1.714 9.33h11.885l.97 3.435a1.05 1.05 0 0 1-1.017 1.347H1.762a1.05 1.05 0 0 1-1.02-1.347zm5.675 6.54v10.533c0 .449.37.82.82.82h5.77v-.582h-5.77a.232.232 0 0 1-.238-.238V15.87zm10.56 6.604q-.314 0-.537.22-.224.22-.224.537 0 .315.22.538.22.224.537.224.315 0 .539-.22.223-.222.223-.537 0-.315-.22-.54-.221-.222-.537-.222zm0 7.505q-.314 0-.537.22-.224.22-.224.536 0 .316.22.539.22.223.537.223.315 0 .539-.22.223-.221.223-.536 0-.316-.22-.54-.221-.222-.537-.222zm-2.235-9.604h12.508q.265 0 .445.178t.18.44v4.34q0 .335-.18.547-.18.212-.445.212H15.714q-.266 0-.445-.212-.18-.212-.18-.547v-4.34q0-.262.18-.44t.445-.178zm0 .625v4.467h12.508V21zm0 6.88h12.463q.313 0 .49.205.18.205.18.509v4.199q0 .38-.18.592-.177.212-.49.212H15.759q-.313 0-.492-.212-.178-.212-.178-.592v-4.2q0-.303.156-.508.156-.206.47-.206zm0 .624v4.468h12.508v-4.468zm0-7.504v4.467zm0 7.504v4.468z" style="fill:#E74C3C"/>
</svg>
