<svg xmlns="http://www.w3.org/2000/svg" width="24" height="24" fill="none"><path fill="#FAFAFA" fill-rule="evenodd" d="M8.99 2h2.02v12.121l5.556-5.555L18 10l-2.128 2.128a5.007 5.007 0 0 0-3.744 3.744L10 18l-8-8 1.434-1.434L8.99 14.12V2Zm9.96 12.573a3.095 3.095 0 1 0-.174 4.541l.129.129v.376l2.38 2.38.715-.713-2.38-2.381h-.377l-.129-.129a3.102 3.102 0 0 0-.163-4.203Zm-4.33 2.189c0-1.19.951-2.143 2.142-2.143 1.19 0 2.143.952 2.143 2.143 0 1.19-.953 2.143-2.143 2.143a2.134 2.134 0 0 1-2.143-2.143Z" clip-rule="evenodd"/></svg>