<svg width="24" height="24" viewBox="0 0 24 24" fill="none" xmlns="http://www.w3.org/2000/svg">
<mask id="path-1-inside-1" fill="white">
<path fill-rule="evenodd" clip-rule="evenodd" d="M5 3C3.89543 3 3 3.89543 3 5V19C3 20.1046 3.89543 21 5 21H19C20.1046 21 21 20.1046 21 19V5C21 3.89543 20.1046 3 19 3H5ZM10 5H5V10H7V7H10V5ZM5 14V19H10V17H7V14H5ZM12 5H19V19H12V5Z"/>
</mask>
<path fill-rule="evenodd" clip-rule="evenodd" d="M5 3C3.89543 3 3 3.89543 3 5V19C3 20.1046 3.89543 21 5 21H19C20.1046 21 21 20.1046 21 19V5C21 3.89543 20.1046 3 19 3H5ZM10 5H5V10H7V7H10V5ZM5 14V19H10V17H7V14H5ZM12 5H19V19H12V5Z" fill="#FAFAFA"/>
<path d="M5 5V3H3V5H5ZM10 5H12V3H10V5ZM5 10H3V12H5V10ZM7 10V12H9V10H7ZM7 7V5H5V7H7ZM10 7V9H12V7H10ZM5 19H3V21H5V19ZM5 14V12H3V14H5ZM10 19V21H12V19H10ZM10 17H12V15H10V17ZM7 17H5V19H7V17ZM7 14H9V12H7V14ZM19 5H21V3H19V5ZM12 5V3H10V5H12ZM19 19V21H21V19H19ZM12 19H10V21H12V19ZM5 5V5V1C2.79086 1 1 2.79086 1 5H5ZM5 19V5H1V19H5ZM5 19H5H1C1 21.2091 2.79086 23 5 23V19ZM19 19H5V23H19V19ZM19 19V23C21.2091 23 23 21.2091 23 19H19ZM19 5V19H23V5H19ZM19 5H23C23 2.79086 21.2091 1 19 1V5ZM5 5H19V1H5V5ZM5 7H10V3H5V7ZM7 10V5H3V10H7ZM7 8H5V12H7V8ZM5 7V10H9V7H5ZM10 5H7V9H10V5ZM8 5V7H12V5H8ZM7 19V14H3V19H7ZM10 17H5V21H10V17ZM8 17V19H12V17H8ZM7 19H10V15H7V19ZM5 14V17H9V14H5ZM5 16H7V12H5V16ZM19 3H12V7H19V3ZM21 19V5H17V19H21ZM12 21H19V17H12V21ZM10 5V19H14V5H10Z" fill="#FAFAFA" mask="url(#path-1-inside-1)"/>
</svg>
