<?xml version="1.0" encoding="UTF-8" standalone="no"?>
<svg
   width="24"
   height="24"
   viewBox="0 0 6.3493276 6.3495"
   version="1.1"
   id="svg4"
   xml:space="preserve"
   xmlns="http://www.w3.org/2000/svg"
   xmlns:svg="http://www.w3.org/2000/svg"><defs
     id="defs4" /><path
     id="rect7-2"
     style="fill:#fafafa;fill-opacity:1;stroke-width:4.9996;stroke-linecap:round;stroke-linejoin:round;paint-order:stroke markers fill"
     d="m 1.322489,0.7936875 c -0.293135,0 -0.52912501,0.2359901 -0.52912501,0.529125 v 3.703875 c 0,0.2931349 0.23599001,0.529125 0.52912501,0.529125 H 3.47206 A 1.4815485,1.4815485 0 0 1 3.14704,4.8515182 c -0.17088,0.03211 -0.374957,0.043921 -0.614384,0.043921 -0.542146,0 -1.03443,-0.043665 -1.140409,-0.056323 -0.07474,-0.00613 -0.09353,-0.043287 -0.09353,-0.093527 V 4.4701761 a 0.08121918,0.0816935 0 0 1 0.09353,-0.09456 h 1.153327 c 0.498712,0 0.653655,-0.056164 0.653655,-0.3265693 v -0.074925 c 0,-0.1817669 -0.07497,-0.3007148 -0.361706,-0.4195796 L 1.953409,3.2155712 C 1.473803,3.0305369 1.355043,2.6648333 1.355043,2.3200891 V 2.1878079 c 0,-0.6894933 0.597647,-0.7833522 1.264423,-0.7833531 a 7.918869,7.9651174 0 0 1 0.953871,0.056323 0.09258986,0.09313059 0 0 1 0.08733,0.1007611 v 0.2697298 a 0.08121918,0.0816935 0 0 1 -0.09353,0.093527 H 2.408126 c -0.286686,0 -0.454717,0.1003882 -0.454717,0.3270861 v 0.081642 c 0,0.1756391 0.08112,0.3267812 0.386509,0.4386984 l 0.828308,0.3322533 c 0.261496,0.099545 0.413557,0.2203082 0.502255,0.3549891 A 1.4815485,1.4815485 0 0 1 4.605751,3.124111 1.4815485,1.4815485 0 0 1 5.555489,3.4692824 v -2.14647 c 0,-0.2931349 -0.23599,-0.529125 -0.529125,-0.529125 z" /><path
     style="fill:#1a72bb;fill-opacity:1;stroke-width:0.0111787"
     d="M 4.3708,3.6554301 H 4.840303 V 4.3708645 H 5.555745 V 4.8403669 H 4.840303 V 5.5558093 H 4.3708 V 4.8403669 H 3.655366 V 4.3708645 H 4.3708 Z"
     id="path1-9-0" /></svg>
