<?xml version="1.0" encoding="UTF-8" standalone="no"?>
<svg
   width="24"
   height="24"
   viewBox="0 0 6.3493276 6.3495"
   version="1.1"
   id="svg4"
   xml:space="preserve"
   xmlns="http://www.w3.org/2000/svg"
   xmlns:svg="http://www.w3.org/2000/svg"><defs
     id="defs4" /><path
     id="path11-3"
     style="color:#000000;fill:#fafafa;fill-opacity:1;stroke-width:0.572715;stroke-linecap:round;stroke-linejoin:round;-inkscape-stroke:none;paint-order:markers stroke fill"
     d="M 3.13297,0.79730457 A 0.24160393,0.23538953 0 0 0 3.05391,0.82520767 L 1.146685,1.8974092 A 0.24160393,0.23538953 0 0 0 1.025255,2.101515 v 2.14647 a 0.24160393,0.23538953 0 0 0 0.12143,0.2035891 l 1.907227,1.0727183 a 0.24160393,0.23538953 0 0 0 0.24131,0 l 0.106961,-0.05994 A 1.4815485,1.4815485 0 0 1 3.124186,4.6055577 1.4815485,1.4815485 0 0 1 3.158286,4.3063748 c -0.146604,0.046625 -0.338247,0.060973 -0.575114,0.060973 -0.402627,0 -0.768206,-0.032454 -0.84691,-0.041855 -0.05551,-0.00455 -0.06976,-0.03193 -0.06976,-0.069241 V 4.05163 a 0.0603176,0.06066985 0 0 1 0.06976,-0.070274 h 0.856211 c 0.370368,0 0.485721,-0.041526 0.485721,-0.2423434 v -0.055806 c 0,-0.1349896 -0.05574,-0.2238258 -0.268697,-0.3121011 L 2.152746,3.1194606 C 1.796566,2.9820444 1.708363,2.7109792 1.708363,2.454954 V 2.35626 c 0,-0.5120542 0.444221,-0.5813143 0.939404,-0.5813141 a 5.880965,5.9153115 0 0 1 0.707911,0.041855 0.06876206,0.06916363 0 0 1 0.06511,0.074408 v 0.2004888 a 0.0603176,0.06066985 0 0 1 -0.06924,0.069241 H 2.490687 c -0.212908,0 -0.337937,0.07502 -0.337937,0.2433769 v 0.060457 c 0,0.1304389 0.0605,0.2424203 0.287298,0.3255359 L 3.054949,3.0373024 C 3.43311,3.1812588 3.504595,3.3853913 3.515867,3.608282 a 1.4815485,1.4815485 0 0 1 1.08977,-0.48417 1.4815485,1.4815485 0 0 1 0.718246,0.1860205 V 2.101515 A 0.24160393,0.23538953 0 0 0 5.203999,1.8974092 L 3.295222,0.82520764 A 0.24160393,0.23538953 0 0 0 3.13297,0.79730457 Z" /><path
     style="fill:#1a72bb;fill-opacity:1;stroke-width:0.0111787"
     d="M 4.3708,3.6554301 H 4.840303 V 4.3708645 H 5.555745 V 4.8403669 H 4.840303 V 5.5558093 H 4.3708 V 4.8403669 H 3.655366 V 4.3708645 H 4.3708 Z"
     id="path1-9-7-3" /></svg>
