<svg xmlns="http://www.w3.org/2000/svg" xml:space="preserve" width="24" height="24" fill="none"><path d="m20.202 5.653-6.813 11.8 1.549.894 6.813-11.8zm-5.09.374q-.782 0-1.354.572-.572.572-.572 1.37 0 .798.572 1.355.572.557 1.37.557.798 0 1.355-.557.557-.557.557-1.355 0-.798-.557-1.37-.557-.572-1.37-.572zm4.961 7.97q-.813 0-1.37.558-.557.557-.557 1.355 0 .798.557 1.37.557.572 1.355.572.798 0 1.37-.572.572-.572.572-1.37 0-.798-.572-1.355-.572-.557-1.355-.557ZM9.017 5.654l-6.814 11.8 1.55.894 6.812-11.8Zm-5.09.374q-.783 0-1.355.572T2 7.969q0 .798.572 1.355.572.557 1.37.557.798 0 1.355-.557.557-.557.557-1.355 0-.798-.557-1.37-.557-.572-1.37-.572Zm4.96 7.97q-.813 0-1.37.558-.557.557-.557 1.355 0 .798.557 1.37.557.572 1.355.572.798 0 1.37-.572.572-.572.572-1.37 0-.798-.572-1.355-.572-.557-1.355-.557z" style="fill:#fafafa;fill-opacity:1;stroke-width:.999996"/></svg>