<?xml version="1.0" encoding="UTF-8" standalone="no"?>
<svg
   width="24"
   height="24"
   viewBox="0 0 24 24"
   fill="none"
   version="1.1"
   id="svg50"
   xmlns="http://www.w3.org/2000/svg"
   xmlns:svg="http://www.w3.org/2000/svg"
   xmlns:rdf="http://www.w3.org/1999/02/22-rdf-syntax-ns#"
   xmlns:cc="http://creativecommons.org/ns#"
   xmlns:dc="http://purl.org/dc/elements/1.1/">
  <metadata
     id="metadata56">
    <rdf:RDF>
      <cc:Work
         rdf:about="">
        <dc:format>image/svg+xml</dc:format>
        <dc:type
           rdf:resource="http://purl.org/dc/dcmitype/StillImage" />
      </cc:Work>
    </rdf:RDF>
  </metadata>
  <defs
     id="defs54" />
  <path
     fill-rule="evenodd"
     clip-rule="evenodd"
     d="M9.29289 17.7071C9.10536 17.5196 9 17.2652 9 17V5C9 4.73478 9.10536 4.48043 9.29289 4.29289C9.48043 4.10536 9.73478 4 10 4H12V2H9.5C8.95 2 8 2.45 8 3C8 2.45 7.05 2 6.5 2H4V4H6C6.26522 4 6.51957 4.10536 6.70711 4.29289C6.89464 4.48043 7 4.73478 7 5V17C7 17.2652 6.89464 17.5196 6.70711 17.7071C6.51957 17.8946 6.26522 18 6 18H4V20H6.5C7.05 20 8 19.55 8 19C8 19.55 8.95 20 9.5 20H11V18H10C9.73478 18 9.48043 17.8946 9.29289 17.7071Z"
     fill="#FAFAFA"
     id="path46" />
  <path
     fill="#f37e12"
     d="m 20.185966,14.905705 0.640826,-0.640827 c -0.203079,-0.230155 -0.406157,-0.437746 -0.636313,-0.636313 l -0.640826,0.649852 c -0.699492,-0.56862 -1.5795,-0.902571 -2.536225,-0.902571 a 4.0615715,4.0615715 0 0 0 0,8.123142 c 2.256428,0 4.061571,-1.818681 4.061571,-4.061571 0,-0.956726 -0.333951,-1.836733 -0.889033,-2.531712 m -2.721253,2.982998 h -0.902571 v -3.159 h 0.902571 v 3.159 m 0.902572,-5.866714 H 15.65957 v 0.902571 h 2.707715 z"
     id="path7066" />
</svg>
