<svg xmlns="http://www.w3.org/2000/svg" xml:space="preserve" width="24" height="24" viewBox="0 0 6.349 6.349">
    <path d="M2.67.796a.474.474 0 0 0-.347.147.474.474 0 0 0-.147.346v.506h-1.01a.474.474 0 0 0-.347.146.487.487 0 0 0-.147.358v2.75c0 .14.05.26.147.358a.474.474 0 0 0 .347.147h1.902a1.852 1.852 0 0 1-.439-1.195 1.852 1.852 0 0 1 1.852-1.852 1.852 1.852 0 0 1 1.196.438v-.646a.487.487 0 0 0-.147-.358.474.474 0 0 0-.347-.146h-1.01v-.506a.474.474 0 0 0-.147-.346.474.474 0 0 0-.346-.147zm0 .493h1.01v.506H2.67z" style="fill:#fafafa"/>
    <path d="m5.234 3.249-.753.753-.752-.753-.374.374.752.753-.75.751.373.374.751-.751.753.753.374-.374-.752-.753.752-.753Z" style="fill:#37aefe"/>
</svg>
