<svg xmlns="http://www.w3.org/2000/svg" xml:space="preserve" width="24" height="24" viewBox="0 0 6.349 6.349">
    <path d="M2.67.796a.473.473 0 0 0-.347.147.474.474 0 0 0-.147.346v.506h-1.01a.473.473 0 0 0-.347.146.487.487 0 0 0-.147.358v2.75c0 .14.05.26.147.358a.473.473 0 0 0 .347.147h1.902a1.852 1.852 0 0 1-.439-1.195 1.852 1.852 0 0 1 1.852-1.852 1.852 1.852 0 0 1 1.196.438v-.646c0-.14-.05-.26-.147-.358a.473.473 0 0 0-.346-.146H4.173v-.506a.474.474 0 0 0-.147-.346.473.473 0 0 0-.346-.147Zm0 .493h1.01v.506H2.67Z" style="fill:#fafafa"/>
    <path d="M4.188 3.17h.586v.895h.895v.587h-.895v.894h-.586v-.894h-.895v-.587h.895z" style="fill:#37aefe"/>
</svg>
