<svg xmlns="http://www.w3.org/2000/svg" xml:space="preserve" width="24" height="24" viewBox="0 0 6.349 6.349">
    <path d="M2.67.796a.474.474 0 0 0-.347.147.474.474 0 0 0-.147.346v.506h-1.01a.474.474 0 0 0-.347.146.487.487 0 0 0-.147.358v2.75c0 .14.05.26.147.358a.474.474 0 0 0 .347.147h1.903a1.852 1.852 0 0 1-.44-1.195A1.852 1.852 0 0 1 4.48 2.507a1.852 1.852 0 0 1 1.196.438v-.646a.487.487 0 0 0-.147-.358.474.474 0 0 0-.347-.146h-1.01v-.506a.474.474 0 0 0-.146-.346.474.474 0 0 0-.347-.147zm0 .493h1.01v.506H2.67z" style="fill:#fafafa"/>
    <path d="M5.669 4.065v.587H3.293v-.587Z" style="fill:#37aefe"/>
</svg>
