<svg xmlns="http://www.w3.org/2000/svg" xml:space="preserve" width="24" height="24" viewBox="0 0 6.349 6.349">
    <path d="M2.67.796a.473.473 0 0 0-.347.147.475.475 0 0 0-.147.346v.506h-1.01a.473.473 0 0 0-.346.146.487.487 0 0 0-.148.358v2.75c0 .14.05.26.148.358a.473.473 0 0 0 .346.147h1.902a1.852 1.852 0 0 1-.439-1.195 1.852 1.852 0 0 1 1.852-1.852 1.852 1.852 0 0 1 1.196.438v-.646a.487.487 0 0 0-.147-.358.474.474 0 0 0-.347-.146h-1.01v-.506a.474.474 0 0 0-.147-.346.474.474 0 0 0-.346-.147zm0 .493h1.01v.506H2.67z" style="fill:#fafafa"/>
    <path d="M5.642 5.095 4.607 4.06q.08-.197.035-.41-.046-.214-.208-.377-.163-.162-.398-.202-.234-.04-.442.056l.49.49-.341.342-.501-.49q-.102.207-.062.44.04.231.21.402.16.16.374.205.214.046.41-.034L5.21 5.516q.037.038.082.038.046 0 .078-.038l.261-.261q.043-.032.046-.083.002-.05-.035-.077z" style="fill:#37aefe"/>
</svg>
