<?xml version="1.0" encoding="UTF-8" standalone="no"?>
<svg
   width="24"
   height="24"
   viewBox="0 0 6.3493276 6.3495"
   version="1.1"
   id="svg4"
   xml:space="preserve"
   xmlns="http://www.w3.org/2000/svg"
   xmlns:svg="http://www.w3.org/2000/svg"><defs
     id="defs4" /><path
     id="path1-6"
     style="fill:#fafafa;fill-opacity:1;stroke-width:0.0117479"
     d="m 2.6693081,0.79575439 c -0.1331397,0 -0.2483051,0.0488505 -0.3462048,0.14674952 C 2.2252036,1.0404023 2.175837,1.1560831 2.175837,1.2892255 V 1.7945812 H 1.1656423 c -0.1331397,0 -0.24830512,0.048851 -0.34620482,0.1467495 -0.0978997,0.097899 -0.14726623,0.2171153 -0.14726623,0.3580895 v 2.7489697 c 0,0.1409744 0.0493665,0.2607076 0.14726623,0.3586062 0.0978997,0.097899 0.21306512,0.1467495 0.34620482,0.1467495 h 4.018043 c 0.1331397,0 0.2483051,-0.048851 0.3462048,-0.1467495 0.0979,-0.097899 0.1472663,-0.2176318 0.1472663,-0.3586062 V 2.2994202 c 0,-0.1409742 -0.049367,-0.2601905 -0.1472663,-0.3580895 C 5.4319904,1.8434323 5.316825,1.7945812 5.1836853,1.7945812 H 4.1734906 V 1.2892255 c 0,-0.1331424 -0.049366,-0.2488232 -0.1472663,-0.34672159 -0.0979,-0.097899 -0.2130651,-0.14674952 -0.3462048,-0.14674952 z m 0,0.49347111 H 3.6800195 V 1.7945812 H 2.6693081 Z m 0.6045666,1.0680677 a 6.3870845,6.4243868 0 0 1 0.7694015,0.045472 0.07467975,0.0751159 0 0 1 0.070791,0.080609 v 0.2180574 a 0.06550856,0.06589114 0 0 1 -0.075442,0.074925 H 3.1033559 c -0.2312295,0 -0.3668737,0.081199 -0.3668737,0.2640458 v 0.066141 c 0,0.1416642 0.065791,0.2631705 0.312101,0.3534389 l 0.667607,0.2681796 c 0.462169,0.1759315 0.5027721,0.4341309 0.5027721,0.7115285 v 0.055806 c 0,0.5663316 -0.3361966,0.6774247 -1.0148453,0.6774247 -0.4372891,0 -0.8348049,-0.03526 -0.9202847,-0.045472 -0.0603,-0.00495 -0.075442,-0.034921 -0.075442,-0.075442 V 4.8298158 a 0.06550856,0.06589114 0 0 1 0.075442,-0.076475 h 0.9306192 c 0.4022492,0 0.5270581,-0.044912 0.5270581,-0.2630123 v -0.060457 c 0,-0.1466065 -0.060042,-0.2430987 -0.2914321,-0.3389707 L 2.7364822,3.8175542 C 2.3496429,3.668312 2.254379,3.3737498 2.254379,3.0956913 V 2.9887295 c 0,-0.5561214 0.4816968,-0.6314357 1.0194957,-0.6314363 z" /></svg>
