<svg xmlns="http://www.w3.org/2000/svg" width="24" height="24" fill="none"><path fill="#FAFAFA" fill-rule="evenodd" d="M8.5 2A6.5 6.5 0 0 1 15 8.5c0 1.61-.59 3.09-1.56 4.23l.27.27h.79l1.336 1.336-1.5 1.5L13 14.5v-.79l-.27-.27A6.516 6.516 0 0 1 8.5 15a6.5 6.5 0 1 1 0-13Zm10.164 15.164 3.75-3.75L21 12l-7.237 7.237-2.349-2.348L10 18.303l3.763 3.763 3.401-3.402 1.5-1.5Zm1.414 1.414-1.5 1.5L20 21.5l1.5-1.5-1.422-1.422ZM8.5 4C6 4 4 6 4 8.5S6 13 8.5 13 13 11 13 8.5 11 4 8.5 4Z" clip-rule="evenodd"/></svg>