<svg width="24" height="24" viewBox="0 0 24 24" fill="none" xmlns="http://www.w3.org/2000/svg">
<path fill-rule="evenodd" clip-rule="evenodd" d="M8.5 2C10.2239 2 11.8772 2.68482 13.0962 3.90381C14.3152 5.12279 15 6.77609 15 8.5C15 10.11 14.41 11.59 13.44 12.73L13.71 13H14.5L15.8358 14.3358L14.3358 15.8358L13 14.5V13.71L12.73 13.44C11.59 14.41 10.11 15 8.5 15C6.77609 15 5.12279 14.3152 3.90381 13.0962C2.68482 11.8772 2 10.2239 2 8.5C2 6.77609 2.68482 5.12279 3.90381 3.90381C5.12279 2.68482 6.77609 2 8.5 2ZM18.6642 17.1642L18.6642 17.1642L22.4142 13.4142L21 12L13.7627 19.2373L11.4142 16.8889L10 18.3031L13.7627 22.0658L17.1642 18.6642L17.1642 18.6642L18.6642 17.1642ZM20.0785 18.5785L18.5785 20.0785L20 21.5L21.5 20L20.0785 18.5785ZM8.5 4C6 4 4 6 4 8.5C4 11 6 13 8.5 13C11 13 13 11 13 8.5C13 6 11 4 8.5 4Z" fill="#FAFAFA"/>
</svg>
