<svg xmlns="http://www.w3.org/2000/svg" xml:space="preserve" width="24" height="24" fill="none"><path fill="#FAFAFA" d="M8.77 4c-.45 0-.833.156-1.146.47a1.512 1.512 0 0 0-.469 1.107v4.54c.357.597.917 1.044 1.615 1.131v-5.67h5.597v4.018h4.018v8.827H8.77v-2.896a5.895 5.895 0 0 1-1.615-.291v3.187c0 .425.156.795.47 1.108.312.313.694.469 1.145.469h9.615c.45 0 .833-.156 1.146-.47.313-.312.469-.682.469-1.107V8.807L15.193 4ZM4 4v5.094c0 .929.232 1.778.697 2.547a5.368 5.368 0 0 0 1.85 1.851c.77.464 1.619.696 2.547.696h3.877l-2.418 2.419 1.1 1.1 4.324-4.325-4.325-4.288-1.1 1.1 2.42 2.419H9.093c-.977 0-1.808-.343-2.492-1.027-.684-.684-1.026-1.514-1.026-2.492V4Z"/></svg>