<svg width="24" height="24" viewBox="0 0 24 24" fill="none" xmlns="http://www.w3.org/2000/svg">
<path d="M12 15V22L18 18.5L12 15Z" fill="#02BA85"/>
<path fill-rule="evenodd" clip-rule="evenodd" d="M10.6701 9.23295L3.23573 16.7124C2.90894 16.9589 2.90894 17.5343 3.31742 17.863L5.19643 19.7534C5.52322 20.0822 6.01339 20.0822 6.34018 19.7534L10 16.0714V13.259C10 12.4872 10.8372 12.0063 11.5039 12.3952L12.8649 13.1891L13.7745 12.274C15.6535 13.0137 17.8593 12.6028 19.4115 11.0412C21.0454 9.39734 21.4539 6.9316 20.4736 4.95901L16.879 8.49323L14.4281 6.0275L17.941 2.49328C15.9803 1.58917 13.5294 1.91794 11.8955 3.56176C10.3433 5.1234 9.9348 7.34256 10.6701 9.23295Z" fill="#FAFAFA"/>
</svg>
