<svg xmlns="http://www.w3.org/2000/svg" width="24" height="24" fill="none">
    <path d="M4 2v2h2a1 1 0 0 1 1 1v12a1 1 0 0 1-.617.924A1 1 0 0 1 6 18H4v2h2.5c.55 0 1.5-.45 1.5-1 0 .034.005.068.012.102.106.502.972.898 1.488.898h1.293a6.063 6.063 0 0 1-.709-2H10a1 1 0 0 1-1-1V5a1 1 0 0 1 .293-.707 1 1 0 0 1 .324-.217A1 1 0 0 1 10 4h2V2H9.5c-.069 0-.144.006-.223.02-.51.086-1.173.443-1.265.878A.489.489 0 0 0 8 3c0-.55-.95-1-1.5-1H4z" style="fill:#fafafa;fill-opacity:1"/>
    <path d="M16.117 11.883A5.118 5.118 0 0 0 11 17a5.118 5.118 0 0 0 5.117 5.117A5.118 5.118 0 0 0 21.234 17a5.118 5.118 0 0 0-5.117-5.117zm-1.734 1.78L19.725 17l-5.342 3.338v-6.676z" style="color:#000;fill:#44deb0;stroke-linecap:round;-inkscape-stroke:none;paint-order:stroke fill markers"/>
    <path fill="#fafafa" fill-rule="evenodd" d="M-6.04 17.707A1 1 0 0 1-6.333 17V5a1 1 0 0 1 1-1h2V2h-2.5c-.55 0-1.5.45-1.5 1 0-.55-.95-1-1.5-1h-2.5v2h2a1 1 0 0 1 1 1v12a1 1 0 0 1-1 1h-2v2h2.5c.55 0 1.5-.45 1.5-1 0 .55.95 1 1.5 1h1.5v-2h-1a1 1 0 0 1-.707-.293z" clip-rule="evenodd"/>
</svg>
