<svg width="24" height="24" viewBox="0 0 24 24" fill="none" xmlns="http://www.w3.org/2000/svg">
<path fill-rule="evenodd" clip-rule="evenodd" d="M9.29289 17.7071C9.10536 17.5196 9 17.2652 9 17V5C9 4.73478 9.10536 4.48043 9.29289 4.29289C9.48043 4.10536 9.73478 4 10 4H12V2H9.5C8.95 2 8 2.45 8 3C8 2.45 7.05 2 6.5 2H4V4H6C6.26522 4 6.51957 4.10536 6.70711 4.29289C6.89464 4.48043 7 4.73478 7 5V17C7 17.2652 6.89464 17.5196 6.70711 17.7071C6.51957 17.8946 6.26522 18 6 18H4V20H6.5C7.05 20 8 19.55 8 19C8 19.55 8.95 20 9.5 20H11V18H10C9.73478 18 9.48043 17.8946 9.29289 17.7071Z" fill="#FAFAFA"/>
<path d="M13 12V22L21 17L13 12Z" fill="#02BA85"/>
</svg>
