<svg width="24" height="24" viewBox="0 0 24 24" fill="none" xmlns="http://www.w3.org/2000/svg">
<path fill-rule="evenodd" clip-rule="evenodd" d="M9.67006 9.23295L2.23573 16.7124C1.90894 16.9589 1.90894 17.5343 2.31742 17.863L4.19643 19.7534C4.52322 20.0822 5.01339 20.0822 5.34018 19.7534L12 13.0532V10.1957C12 9.41029 12.864 8.93145 13.53 9.34773L17.4635 11.8062C17.7986 11.5926 18.1168 11.3376 18.4115 11.0412C20.0454 9.39734 20.4539 6.9316 19.4736 4.95901L15.879 8.49323L13.4281 6.0275L16.941 2.49328C14.9803 1.58917 12.5294 1.91794 10.8955 3.56176C9.34328 5.1234 8.9348 7.34256 9.67006 9.23295Z" fill="white"/>
<path d="M14 12V22L22 17L14 12Z" fill="#20C997"/>
</svg>
