<?xml version="1.0" encoding="UTF-8" standalone="no"?>
<svg
   xmlns:dc="http://purl.org/dc/elements/1.1/"
   xmlns:cc="http://creativecommons.org/ns#"
   xmlns:rdf="http://www.w3.org/1999/02/22-rdf-syntax-ns#"
   xmlns:svg="http://www.w3.org/2000/svg"
   xmlns="http://www.w3.org/2000/svg"
   xmlns:sodipodi="http://sodipodi.sourceforge.net/DTD/sodipodi-0.dtd"
   xmlns:inkscape="http://www.inkscape.org/namespaces/inkscape"
   width="250"
   height="250"
   viewBox="0 0 250 250"
   version="1.1"
   id="svg50"
   sodipodi:docname="spyder_about.svg"
   inkscape:version="1.0.2 (e86c8708, 2021-01-15)">
  <metadata
     id="metadata54">
    <rdf:RDF>
      <cc:Work
         rdf:about="">
        <dc:format>image/svg+xml</dc:format>
        <dc:type
           rdf:resource="http://purl.org/dc/dcmitype/StillImage" />
        <dc:title></dc:title>
      </cc:Work>
    </rdf:RDF>
  </metadata>
  <sodipodi:namedview
     pagecolor="#ffffff"
     bordercolor="#666666"
     borderopacity="1"
     objecttolerance="10"
     gridtolerance="10"
     guidetolerance="10"
     inkscape:pageopacity="0"
     inkscape:pageshadow="2"
     inkscape:window-width="693"
     inkscape:window-height="480"
     id="namedview52"
     showgrid="false"
     inkscape:zoom="0.48063276"
     inkscape:cx="125"
     inkscape:cy="125"
     inkscape:window-x="30"
     inkscape:window-y="131"
     inkscape:window-maximized="0"
     inkscape:current-layer="svg50"
     inkscape:document-rotation="0" />
  <defs
     id="defs44">
    <style
      type="text/css"
       id="style42">.a{fill:#fff;}</style>
  </defs>
  <path
     class="a"
     d="M205.47,114.26a2.61,2.61,0,0,1,2.47,2.83v7.59a2.34,2.34,0,0,1-2.65,2.64H172.46c-8.12,0-12.89,2.83-12.89,9.18v2.3c0,4.94,2.29,9.18,10.94,12.36L194,160.51c16.24,6.18,17.66,15.18,17.66,24.89v1.94c0,19.78-11.83,23.66-35.66,23.66-15.36,0-29.31-1.24-32.31-1.59-2.12-.18-2.65-1.23-2.65-2.65V199a2.34,2.34,0,0,1,2.65-2.65h32.66c14.12,0,18.54-1.59,18.54-9.18v-2.12c0-5.12-2.12-8.47-10.24-11.83l-25.07-9.53c-13.59-5.3-16.95-15.53-16.95-25.24v-3.71c0-19.42,16.95-22.07,35.84-22.07A224.47,224.47,0,0,1,205.47,114.26Z"
     id="path46" />
  <path
     class="a"
     d="M197.71,45.57A29.15,29.15,0,0,0,179.26,39H67.69A29.29,29.29,0,0,0,54,42.37,29.79,29.79,0,0,0,42.16,53.86c-.53,1-1,1.91-1.44,2.89-.25.68-.55,1.33-.77,2a26.63,26.63,0,0,0-1.06,4.11,28.29,28.29,0,0,0-.54,5.48V179.9a29.3,29.3,0,0,0,29.34,29.31h59.55a1.58,1.58,0,0,0,1.58-1.58v-7.12a1.58,1.58,0,0,0-1.58-1.58h-7.73L96.45,152.21l52.62-69.75a6,6,0,0,0,1-2l48.22,7.38V98.65a1.59,1.59,0,0,0,1.58,1.58H207a1.58,1.58,0,0,0,1.58-1.58V68.33A29.18,29.18,0,0,0,197.71,45.57ZM137,49.32l2.5,19.87-39-6-1.76-13.9Zm-47.81,0,1.54,12.42L62.23,57.38l18.2-8.06Zm.22,21.83L69.51,97.57,53.77,65.69ZM48.66,76.79,61.4,102.6l-12.74,1.56Zm0,37,17.17-2.17,17.78,36L48.66,152Zm60.25,85.17H69.27a20.66,20.66,0,0,1-20.61-20.61V161.57L88,156.63ZM91.76,142.68l-17.57-35.6L100,72.84s0,0,0,0l39.83,6.09Zm106.51-64.5-49.05-7.51-2.67-21.35h31.12a20.66,20.66,0,0,1,20.6,20.6Z"
     id="path48" />
</svg>
