<svg xmlns="http://www.w3.org/2000/svg" width="250" height="250" viewBox="0 0 250 250"><defs><style type="text/css">.a{fill:#fff;}</style></defs><path class="a" d="M206.45,111.84a2.65,2.65,0,0,1,2.51,2.87v7.71a2.38,2.38,0,0,1-2.69,2.69H172.92c-8.25,0-13.09,2.86-13.09,9.32v2.33c0,5,2.33,9.32,11.11,12.55l23.85,9.51c16.5,6.27,17.93,15.42,17.93,25.28v2c0,20.08-12,24-36.22,24-15.6,0-29.76-1.26-32.81-1.62-2.15-.17-2.69-1.25-2.69-2.68v-7.89a2.37,2.37,0,0,1,2.69-2.69h33.17c14.34,0,18.83-1.62,18.83-9.33v-2.15c0-5.2-2.15-8.61-10.4-12L159.83,162c-13.81-5.38-17.22-15.78-17.22-25.64v-3.76c0-19.73,17.22-22.42,36.4-22.42A226,226,0,0,1,206.45,111.84Z"/><path class="a" d="M198.33,45a29.49,29.49,0,0,0-18.65-6.64H66.94a29.62,29.62,0,0,0-13.81,3.41,30,30,0,0,0-12,11.6c-.54,1-1,1.94-1.46,2.93-.26.68-.55,1.35-.78,2a26,26,0,0,0-1.07,4.15A28.13,28.13,0,0,0,37.3,68V180.7a29.2,29.2,0,0,0,2.93,12.84,29.63,29.63,0,0,0,26.71,16.77h60.18a1.6,1.6,0,0,0,1.6-1.6v-7.19a1.6,1.6,0,0,0-1.6-1.6h-7.81L96,152.71l53.18-70.48a6,6,0,0,0,1-2.07l48.73,7.46v11a1.6,1.6,0,0,0,1.6,1.59h7.23a1.61,1.61,0,0,0,1.6-1.59V68A29.49,29.49,0,0,0,198.33,45ZM137,48.74l2.52,20.08-39.4-6-1.78-14Zm-70,0H88.65L90.2,61.29l-28.78-4.4-9.08-1.4A19.11,19.11,0,0,1,66.94,48.74ZM88.87,70.8,68.78,97.5,52.88,65.28ZM47.71,76.5l12.88,26.08-12.88,1.58Zm0,37.35,17.35-2.19,18,36.39L47.71,152.5Zm60.89,86.07H68.54A20.88,20.88,0,0,1,47.71,179.1V162.17l39.79-5ZM91.26,143.09l-17.75-36,26.1-34.59s0,0,0-.06l40.26,6.16ZM198.9,77.9l-49.57-7.58-2.7-21.58h31.45A20.87,20.87,0,0,1,198.9,69.55Z"/></svg>