<svg xmlns="http://www.w3.org/2000/svg" width="24" height="24" fill="none"><path fill="#FAFAFA" d="M2.013 14.704v-.28c0-.195.093-.293.277-.293h1.122c.185 0 .277.098.277.294v.111c0 .355.066.598.198.728.132.131.374.196.726.196h.62c.344 0 .581-.07.713-.21.141-.14.211-.4.211-.783v-.168c0-.271-.105-.476-.316-.616-.203-.15-.458-.238-.766-.266a8.989 8.989 0 0 1-1.003-.154 7.363 7.363 0 0 1-.99-.308c-.308-.13-.567-.378-.778-.742C2.1 11.84 2 11.363 2 10.785v-.49c0-.727.194-1.292.58-1.693C2.969 8.2 3.506 8 4.19 8h1.32c.696 0 1.237.2 1.624.602.387.401.58.966.58 1.694v.265c0 .196-.091.294-.276.294H6.316c-.185 0-.277-.098-.277-.294v-.084c0-.364-.066-.61-.198-.741s-.374-.196-.726-.196H4.6c-.36 0-.607.074-.739.224-.123.14-.185.42-.185.84v.265c0 .439.36.69 1.082.756.748.066 1.413.224 1.993.476.308.14.564.392.766.756.211.354.317.812.317 1.372v.476c0 .727-.194 1.292-.581 1.693-.387.401-.924.602-1.61.602H4.204c-.686 0-1.223-.2-1.61-.602-.387-.401-.58-.966-.58-1.694ZM10.738 17H9.616c-.184 0-.277-.098-.277-.294V8.294c0-.196.093-.294.277-.294h3.22c.687 0 1.22.2 1.598.602.378.392.567.952.567 1.68v1.343c0 .728-.189 1.293-.567 1.694-.379.392-.911.588-1.597.588h-1.663c-.106 0-.159.051-.159.154v2.645c0 .196-.092.294-.277.294Zm.423-4.647h1.399c.281 0 .48-.06.593-.182.115-.13.172-.34.172-.63v-1.175c0-.3-.057-.51-.171-.63-.115-.131-.313-.196-.595-.196h-1.398c-.097 0-.146.051-.146.154v2.505c0 .103.049.154.146.154ZM19.822 17h-1.438c-.695 0-1.232-.196-1.61-.588-.379-.392-.568-.956-.568-1.693V10.28c0-.737.19-1.301.567-1.693.379-.392.916-.588 1.61-.588h1.44c.686 0 1.218.2 1.596.602.387.392.581.952.581 1.68v.657c0 .206-.097.308-.29.308H20.6c-.185 0-.277-.102-.277-.308v-.573c0-.3-.062-.51-.185-.63-.114-.131-.312-.196-.594-.196h-.897c-.273 0-.471.065-.594.196-.115.12-.172.33-.172.63v4.268c0 .3.057.514.172.644.123.122.32.182.594.182h.897c.282 0 .48-.06.594-.182.123-.13.185-.345.185-.644v-.573c0-.206.092-.308.277-.308h1.109c.193 0 .29.102.29.308v.658c0 .727-.194 1.292-.58 1.693-.38.392-.911.588-1.598.588Z"/></svg>