<?xml version="1.0" encoding="UTF-8" standalone="no"?>
<svg
   xmlns:dc="http://purl.org/dc/elements/1.1/"
   xmlns:cc="http://creativecommons.org/ns#"
   xmlns:rdf="http://www.w3.org/1999/02/22-rdf-syntax-ns#"
   xmlns:svg="http://www.w3.org/2000/svg"
   xmlns="http://www.w3.org/2000/svg"
   xmlns:sodipodi="http://sodipodi.sourceforge.net/DTD/sodipodi-0.dtd"
   xmlns:inkscape="http://www.inkscape.org/namespaces/inkscape"
   width="250"
   height="314"
   viewBox="0 0 250 314"
   version="1.1"
   id="svg142"
   sodipodi:docname="spyder-title.svg"
   inkscape:version="1.0.2 (e86c8708, 2021-01-15)">
  <metadata
     id="metadata146">
    <rdf:RDF>
      <cc:Work
         rdf:about="">
        <dc:format>image/svg+xml</dc:format>
        <dc:type
           rdf:resource="http://purl.org/dc/dcmitype/StillImage" />
        <dc:title></dc:title>
      </cc:Work>
    </rdf:RDF>
  </metadata>
  <sodipodi:namedview
     pagecolor="#ffffff"
     bordercolor="#666666"
     borderopacity="1"
     objecttolerance="10"
     gridtolerance="10"
     guidetolerance="10"
     inkscape:pageopacity="0"
     inkscape:pageshadow="2"
     inkscape:window-width="689"
     inkscape:window-height="480"
     id="namedview144"
     showgrid="false"
     inkscape:zoom="0.90294251"
     inkscape:cx="125"
     inkscape:cy="157"
     inkscape:window-x="28"
     inkscape:window-y="23"
     inkscape:window-maximized="0"
     inkscape:current-layer="svg142" />
  <defs
     id="defs124">
    <style
       id="style122">.a{fill:#303030;}.b{fill:#8c0000;}</style>
  </defs>
  <path
     class="a"
     d="M205.29,112.27a2.62,2.62,0,0,1,2.48,2.83v7.59a2.34,2.34,0,0,1-2.65,2.64H172.28c-8.12,0-12.88,2.83-12.88,9.18v2.3c0,4.94,2.29,9.18,10.94,12.36l23.48,9.35c16.24,6.18,17.65,15.18,17.65,24.89v1.94c0,19.78-11.83,23.66-35.66,23.66-15.35,0-29.3-1.24-32.3-1.59-2.12-.18-2.65-1.24-2.65-2.65V197a2.34,2.34,0,0,1,2.65-2.65h32.66c14.12,0,18.53-1.59,18.53-9.18v-2.12c0-5.12-2.12-8.47-10.24-11.83L159.4,161.7c-13.6-5.3-17-15.54-17-25.24v-3.71c0-19.42,17-22.07,35.83-22.07A222.42,222.42,0,0,1,205.29,112.27Z"
     id="path126" />
  <path
     class="b"
     d="M197.54,43.58A29.18,29.18,0,0,0,179.08,37H67.52a29.26,29.26,0,0,0-13.67,3.37A29.73,29.73,0,0,0,42,51.87c-.53,1-1,1.91-1.44,2.89-.25.68-.55,1.33-.77,2a28,28,0,0,0-1.07,4.1,28.47,28.47,0,0,0-.53,5.49V177.91a29.31,29.31,0,0,0,29.34,29.31h59.55a1.59,1.59,0,0,0,1.58-1.59v-7.11a1.58,1.58,0,0,0-1.58-1.58h-7.73L96.27,150.21l52.62-69.74a5.74,5.74,0,0,0,1-2l48.23,7.38V96.66a1.58,1.58,0,0,0,1.58,1.58h7.16a1.59,1.59,0,0,0,1.58-1.58V66.34A29.18,29.18,0,0,0,197.54,43.58Zm-60.73,3.75L139.3,67.2l-39-6-1.76-13.9ZM89,47.33l1.54,12.42L62.05,55.39l18.21-8.06Zm.23,21.83L69.34,95.58,53.6,63.7ZM48.49,74.8l12.74,25.81-12.74,1.56Zm0,37,17.16-2.17,17.79,36L48.49,150Zm60.25,85.17H69.1a20.66,20.66,0,0,1-20.61-20.61V159.58l39.37-4.94ZM91.58,140.69,74,105.09,99.85,70.85s0,0,0,0l39.84,6.09ZM198.1,76.19l-49-7.51-2.68-21.35H177.5a20.66,20.66,0,0,1,20.6,20.59Z"
     id="path128" />
  <path
     class="a"
     d="M58.77,235a.83.83,0,0,1,.78.9v2.42a.75.75,0,0,1-.84.85H48.23c-2.59,0-4.11.9-4.11,2.93v.73c0,1.57.74,2.93,3.5,3.94l7.49,3c5.18,2,5.63,4.85,5.63,7.94v.62c0,6.31-3.78,7.55-11.38,7.55-4.9,0-9.35-.39-10.3-.51-.68-.05-.85-.39-.85-.84V262a.75.75,0,0,1,.85-.84H49.47c4.51,0,5.92-.51,5.92-2.93v-.68c0-1.63-.68-2.7-3.27-3.77l-8-3c-4.33-1.69-5.4-5-5.4-8.06v-1.18c0-6.19,5.4-7,11.43-7A72.24,72.24,0,0,1,58.77,235Z"
     id="path130" />
  <path
     class="a"
     d="M92.61,250.13c0,12.56-2.25,15.71-12.9,15.71a61.94,61.94,0,0,1-7.43-.34v10.36a.75.75,0,0,1-.85.85H67.72a.75.75,0,0,1-.85-.85V236.39c0-.62.34-.85.9-1a62.76,62.76,0,0,1,11.66-1C90.36,234.47,92.61,237.68,92.61,250.13ZM72.28,239.2v21.46a61.08,61.08,0,0,0,7.09.45c7,0,7.83-2.14,7.83-10.93s-.79-11-7.71-11Z"
     id="path132" />
  <path
     class="a"
     d="M124,234.75a.76.76,0,0,1,.85.85v27.14c-.06,11-2.2,14.25-13,14.25a55.85,55.85,0,0,1-8.51-.51.83.83,0,0,1-.79-.9v-2.42a.75.75,0,0,1,.85-.84h8.33c6.31,0,7.72-1.52,7.72-6.59v-.34a44.75,44.75,0,0,1-7.43.45c-10.65,0-12.9-3.21-12.9-15.37V235.6a.75.75,0,0,1,.84-.85h3.66a.75.75,0,0,1,.85.85v14.53c0,8.78.9,11,7.88,11a60.93,60.93,0,0,0,7.1-.39V235.6a.75.75,0,0,1,.84-.85Z"
     id="path134" />
  <path
     class="a"
     d="M156.63,223a.75.75,0,0,1,.85.85V264c0,.62-.34.85-.9.9a63.31,63.31,0,0,1-11.72,1c-10.92,0-13.12-3.1-13.12-15.6s2.2-15.77,12.84-15.77a59,59,0,0,1,7.49.4v-11a.75.75,0,0,1,.85-.85ZM144.92,239.2c-7,0-7.77,2.14-7.77,11,0,8.68.73,10.93,7.71,10.93a63,63,0,0,0,7.21-.45V239.2Z"
     id="path136" />
  <path
     class="a"
     d="M189.69,249.34V251c0,1.13-.28,1.58-2,1.58H169.75c.17,6.87,1.47,8.56,7.49,8.56h9.24a.74.74,0,0,1,.84.84v2.48a.82.82,0,0,1-.78.9,68.84,68.84,0,0,1-9.41.51c-10.59,0-12.84-3.1-12.84-15.66s2.25-15.71,12.84-15.71C187.21,234.47,189.58,237.46,189.69,249.34Zm-20-1.18h14.58c-.11-7.15-1.29-9-7.15-9C171.05,239.2,169.81,241,169.7,248.16Z"
     id="path138" />
  <path
     class="a"
     d="M211,235.09c.57.17.85.4.85,1v2.36a.73.73,0,0,1-.9.79H206c-3.89,0-4.9.62-4.9,3.16v22.35a.75.75,0,0,1-.85.85h-3.66a.75.75,0,0,1-.84-.85V241.06c0-6.36,5.63-6.59,8.9-6.59A32.59,32.59,0,0,1,211,235.09Z"
     id="path140" />
</svg>
