<?xml version="1.0" encoding="UTF-8" standalone="no"?>
<svg
   xmlns:dc="http://purl.org/dc/elements/1.1/"
   xmlns:cc="http://creativecommons.org/ns#"
   xmlns:rdf="http://www.w3.org/1999/02/22-rdf-syntax-ns#"
   xmlns:svg="http://www.w3.org/2000/svg"
   xmlns="http://www.w3.org/2000/svg"
   xmlns:xlink="http://www.w3.org/1999/xlink"
   xmlns:sodipodi="http://sodipodi.sourceforge.net/DTD/sodipodi-0.dtd"
   xmlns:inkscape="http://www.inkscape.org/namespaces/inkscape"
   version="1.0"
   width="152"
   height="261"
   id="svg2"
   sodipodi:version="0.32"
   inkscape:version="1.0.2 (e86c8708, 2021-01-15)"
   sodipodi:docname="spyder-bdist_wininst.svg"
   inkscape:output_extension="org.inkscape.output.svg.inkscape"
   inkscape:export-filename="D:\Python\spyder-v21\img_src\spyder-bdist_wininst.png"
   inkscape:export-xdpi="90"
   inkscape:export-ydpi="90">
  <metadata
     id="metadata2193">
    <rdf:RDF>
      <cc:Work
         rdf:about="">
        <dc:format>image/svg+xml</dc:format>
        <dc:type
           rdf:resource="http://purl.org/dc/dcmitype/StillImage" />
        <dc:title />
        <cc:license
           rdf:resource="http://creativecommons.org/licenses/by/3.0/" />
      </cc:Work>
      <cc:License
         rdf:about="http://creativecommons.org/licenses/by/3.0/">
        <cc:permits
           rdf:resource="http://creativecommons.org/ns#Reproduction" />
        <cc:permits
           rdf:resource="http://creativecommons.org/ns#Distribution" />
        <cc:requires
           rdf:resource="http://creativecommons.org/ns#Notice" />
        <cc:requires
           rdf:resource="http://creativecommons.org/ns#Attribution" />
        <cc:permits
           rdf:resource="http://creativecommons.org/ns#DerivativeWorks" />
      </cc:License>
    </rdf:RDF>
  </metadata>
  <sodipodi:namedview
     inkscape:window-height="744"
     inkscape:window-width="1280"
     inkscape:pageshadow="2"
     inkscape:pageopacity="0.44313725"
     borderopacity="1.0"
     bordercolor="#666666"
     pagecolor="#0063a5"
     id="base"
     inkscape:zoom="1.6365241"
     inkscape:cx="54.462149"
     inkscape:cy="157.38625"
     inkscape:window-x="77"
     inkscape:window-y="23"
     inkscape:current-layer="svg2"
     showgrid="false"
     inkscape:window-maximized="0"
     inkscape:document-rotation="0" />
  <defs
     id="defs4">
    <linearGradient
       id="linearGradient3350">
      <stop
         style="stop-color:#00cb2b;stop-opacity:0.24793388;"
         offset="0"
         id="stop3352" />
      <stop
         style="stop-color:#00cb2b;stop-opacity:1;"
         offset="1"
         id="stop3354" />
    </linearGradient>
    <linearGradient
       id="linearGradient3342">
      <stop
         style="stop-color:#005a85;stop-opacity:1;"
         offset="0"
         id="stop3344" />
      <stop
         style="stop-color:#005a85;stop-opacity:0.75206614;"
         offset="1"
         id="stop3346" />
    </linearGradient>
    <linearGradient
       id="linearGradient3310">
      <stop
         id="stop3312"
         offset="0"
         style="stop-color:#ae0202;stop-opacity:1;" />
      <stop
         id="stop3314"
         offset="1"
         style="stop-color:#e39494;stop-opacity:1;" />
    </linearGradient>
    <inkscape:perspective
       sodipodi:type="inkscape:persp3d"
       inkscape:vp_x="0 : 71.887497 : 1"
       inkscape:vp_y="0 : 1000 : 0"
       inkscape:vp_z="486.04999 : 71.887497 : 1"
       inkscape:persp3d-origin="243.02499 : 47.924998 : 1"
       id="perspective47" />
    <linearGradient
       id="linearGradient2795">
      <stop
         style="stop-color:#b8b8b8;stop-opacity:0.49803922"
         offset="0"
         id="stop2797" />
      <stop
         style="stop-color:#7f7f7f;stop-opacity:0"
         offset="1"
         id="stop2799" />
    </linearGradient>
    <linearGradient
       id="linearGradient2787">
      <stop
         style="stop-color:#7f7f7f;stop-opacity:0.5"
         offset="0"
         id="stop2789" />
      <stop
         style="stop-color:#7f7f7f;stop-opacity:0"
         offset="1"
         id="stop2791" />
    </linearGradient>
    <linearGradient
       id="linearGradient3676">
      <stop
         style="stop-color:#b2b2b2;stop-opacity:0.5"
         offset="0"
         id="stop3678" />
      <stop
         style="stop-color:#b3b3b3;stop-opacity:0"
         offset="1"
         id="stop3680" />
    </linearGradient>
    <linearGradient
       id="linearGradient3236">
      <stop
         style="stop-color:#f4f4f4;stop-opacity:1"
         offset="0"
         id="stop3244" />
      <stop
         style="stop-color:#ffffff;stop-opacity:1"
         offset="1"
         id="stop3240" />
    </linearGradient>
    <linearGradient
       id="linearGradient4671">
      <stop
         style="stop-color:#ffd43b;stop-opacity:1"
         offset="0"
         id="stop4673" />
      <stop
         style="stop-color:#ffe873;stop-opacity:1"
         offset="1"
         id="stop4675" />
    </linearGradient>
    <linearGradient
       id="linearGradient4689">
      <stop
         style="stop-color:#5a9fd4;stop-opacity:1"
         offset="0"
         id="stop4691" />
      <stop
         style="stop-color:#306998;stop-opacity:1"
         offset="1"
         id="stop4693" />
    </linearGradient>
    <linearGradient
       x1="224.23996"
       y1="144.75717"
       x2="-65.308502"
       y2="144.75717"
       id="linearGradient2987"
       xlink:href="#linearGradient4671"
       gradientUnits="userSpaceOnUse"
       gradientTransform="translate(100.2702,99.61116)" />
    <linearGradient
       x1="172.94208"
       y1="77.475983"
       x2="26.670298"
       y2="76.313133"
       id="linearGradient2990"
       xlink:href="#linearGradient4689"
       gradientUnits="userSpaceOnUse"
       gradientTransform="translate(100.2702,99.61116)" />
    <linearGradient
       x1="172.94208"
       y1="77.475983"
       x2="26.670298"
       y2="76.313133"
       id="linearGradient2587"
       xlink:href="#linearGradient4689"
       gradientUnits="userSpaceOnUse"
       gradientTransform="translate(100.2702,99.61116)" />
    <linearGradient
       x1="224.23996"
       y1="144.75717"
       x2="-65.308502"
       y2="144.75717"
       id="linearGradient2589"
       xlink:href="#linearGradient4671"
       gradientUnits="userSpaceOnUse"
       gradientTransform="translate(100.2702,99.61116)" />
    <linearGradient
       x1="172.94208"
       y1="77.475983"
       x2="26.670298"
       y2="76.313133"
       id="linearGradient2248"
       xlink:href="#linearGradient4689"
       gradientUnits="userSpaceOnUse"
       gradientTransform="translate(100.2702,99.61116)" />
    <linearGradient
       x1="224.23996"
       y1="144.75717"
       x2="-65.308502"
       y2="144.75717"
       id="linearGradient2250"
       xlink:href="#linearGradient4671"
       gradientUnits="userSpaceOnUse"
       gradientTransform="translate(100.2702,99.61116)" />
    <linearGradient
       x1="224.23996"
       y1="144.75717"
       x2="-65.308502"
       y2="144.75717"
       id="linearGradient2255"
       xlink:href="#linearGradient4671"
       gradientUnits="userSpaceOnUse"
       gradientTransform="matrix(0.562541,0,0,0.567972,-11.5974,-7.60954)" />
    <linearGradient
       x1="172.94208"
       y1="76.176224"
       x2="26.670298"
       y2="76.313133"
       id="linearGradient2258"
       xlink:href="#linearGradient4689"
       gradientUnits="userSpaceOnUse"
       gradientTransform="matrix(0.562541,0,0,0.567972,-11.5974,-7.60954)" />
    <radialGradient
       cx="61.518883"
       cy="132.28575"
       r="29.036913"
       fx="61.518883"
       fy="132.28575"
       id="radialGradient2801"
       xlink:href="#linearGradient2795"
       gradientUnits="userSpaceOnUse"
       gradientTransform="matrix(1,0,0,0.177966,0,108.7434)" />
    <linearGradient
       x1="150.96111"
       y1="192.35176"
       x2="112.03144"
       y2="137.27299"
       id="linearGradient1475"
       xlink:href="#linearGradient4671"
       gradientUnits="userSpaceOnUse"
       gradientTransform="matrix(0.562541,0,0,0.567972,-9.399749,-5.305317)" />
    <linearGradient
       x1="26.648937"
       y1="20.603781"
       x2="135.66525"
       y2="114.39767"
       id="linearGradient1478"
       xlink:href="#linearGradient4689"
       gradientUnits="userSpaceOnUse"
       gradientTransform="matrix(0.562541,0,0,0.567972,-9.399749,-5.305317)" />
    <radialGradient
       cx="61.518883"
       cy="132.28575"
       r="29.036913"
       fx="61.518883"
       fy="132.28575"
       id="radialGradient1480"
       xlink:href="#linearGradient2795"
       gradientUnits="userSpaceOnUse"
       gradientTransform="matrix(2.382716e-8,-0.296405,1.43676,4.683673e-7,-128.544,150.5202)" />
    <radialGradient
       inkscape:collect="always"
       xlink:href="#linearGradient2795"
       id="radialGradient2421"
       gradientUnits="userSpaceOnUse"
       gradientTransform="matrix(1.7490565e-8,-0.239947,1.054668,3.7915457e-7,-78.109429,148.85906)"
       cx="61.518883"
       cy="132.28575"
       fx="61.518883"
       fy="132.28575"
       r="29.036913" />
    <style
       id="style70">.a{fill:#303030;}.b{fill:#8c0000;}</style>
  </defs>
  <g
     id="g105"
     transform="matrix(0.4721747,0,0,0.4721747,19.50353,56.879926)">
    <path
       class="a"
       d="m 205.29,112.27 a 2.62,2.62 0 0 1 2.48,2.83 v 7.59 a 2.34,2.34 0 0 1 -2.65,2.64 h -32.84 c -8.12,0 -12.88,2.83 -12.88,9.18 v 2.3 c 0,4.94 2.29,9.18 10.94,12.36 l 23.48,9.35 c 16.24,6.18 17.65,15.18 17.65,24.89 v 1.94 c 0,19.78 -11.83,23.66 -35.66,23.66 -15.35,0 -29.3,-1.24 -32.3,-1.59 -2.12,-0.18 -2.65,-1.24 -2.65,-2.65 V 197 a 2.34,2.34 0 0 1 2.65,-2.65 h 32.66 c 14.12,0 18.53,-1.59 18.53,-9.18 v -2.12 c 0,-5.12 -2.12,-8.47 -10.24,-11.83 L 159.4,161.7 c -13.6,-5.3 -17,-15.54 -17,-25.24 v -3.71 c 0,-19.42 17,-22.07 35.83,-22.07 a 222.42,222.42 0 0 1 27.06,1.59 z"
       id="path74" />
    <path
       class="b"
       d="M 197.54,43.58 A 29.18,29.18 0 0 0 179.08,37 H 67.52 A 29.26,29.26 0 0 0 53.85,40.37 29.73,29.73 0 0 0 42,51.87 c -0.53,1 -1,1.91 -1.44,2.89 -0.25,0.68 -0.55,1.33 -0.77,2 a 28,28 0 0 0 -1.07,4.1 28.47,28.47 0 0 0 -0.53,5.49 v 111.56 a 29.31,29.31 0 0 0 29.34,29.31 h 59.55 a 1.59,1.59 0 0 0 1.58,-1.59 v -7.11 a 1.58,1.58 0 0 0 -1.58,-1.58 h -7.73 L 96.27,150.21 148.89,80.47 a 5.74,5.74 0 0 0 1,-2 l 48.23,7.38 v 10.81 a 1.58,1.58 0 0 0 1.58,1.58 h 7.16 a 1.59,1.59 0 0 0 1.58,-1.58 V 66.34 a 29.18,29.18 0 0 0 -10.9,-22.76 z m -60.73,3.75 2.49,19.87 -39,-6 -1.76,-13.9 z M 89,47.33 90.54,59.75 62.05,55.39 80.26,47.33 Z M 89.23,69.16 69.34,95.58 53.6,63.7 Z m -40.74,5.64 12.74,25.81 -12.74,1.56 z m 0,37 17.16,-2.17 17.79,36 -34.95,4.37 z m 60.25,85.17 H 69.1 A 20.66,20.66 0 0 1 48.49,176.36 v -16.78 l 39.37,-4.94 z M 91.58,140.69 74,105.09 99.85,70.85 c 0,0 0,0 0,0 l 39.84,6.09 z m 106.52,-64.5 -49,-7.51 -2.68,-21.35 h 31.08 a 20.66,20.66 0 0 1 20.6,20.59 z"
       id="path76" />
    <path
       class="a"
       d="m 58.77,235 a 0.83,0.83 0 0 1 0.78,0.9 v 2.42 a 0.75,0.75 0 0 1 -0.84,0.85 H 48.23 c -2.59,0 -4.11,0.9 -4.11,2.93 v 0.73 c 0,1.57 0.74,2.93 3.5,3.94 l 7.49,3 c 5.18,2 5.63,4.85 5.63,7.94 v 0.62 c 0,6.31 -3.78,7.55 -11.38,7.55 -4.9,0 -9.35,-0.39 -10.3,-0.51 -0.68,-0.05 -0.85,-0.39 -0.85,-0.84 V 262 a 0.75,0.75 0 0 1 0.85,-0.84 h 10.41 c 4.51,0 5.92,-0.51 5.92,-2.93 v -0.68 c 0,-1.63 -0.68,-2.7 -3.27,-3.77 l -8,-3 c -4.33,-1.69 -5.4,-5 -5.4,-8.06 v -1.18 c 0,-6.19 5.4,-7 11.43,-7 a 72.24,72.24 0 0 1 8.62,0.46 z"
       id="path78" />
    <path
       class="a"
       d="m 92.61,250.13 c 0,12.56 -2.25,15.71 -12.9,15.71 a 61.94,61.94 0 0 1 -7.43,-0.34 v 10.36 a 0.75,0.75 0 0 1 -0.85,0.85 h -3.71 a 0.75,0.75 0 0 1 -0.85,-0.85 v -39.47 c 0,-0.62 0.34,-0.85 0.9,-1 a 62.76,62.76 0 0 1 11.66,-1 c 10.93,0.08 13.18,3.29 13.18,15.74 z M 72.28,239.2 v 21.46 a 61.08,61.08 0 0 0 7.09,0.45 c 7,0 7.83,-2.14 7.83,-10.93 0,-8.79 -0.79,-11 -7.71,-11 z"
       id="path80" />
    <path
       class="a"
       d="m 124,234.75 a 0.76,0.76 0 0 1 0.85,0.85 v 27.14 c -0.06,11 -2.2,14.25 -13,14.25 a 55.85,55.85 0 0 1 -8.51,-0.51 0.83,0.83 0 0 1 -0.79,-0.9 v -2.42 a 0.75,0.75 0 0 1 0.85,-0.84 h 8.33 c 6.31,0 7.72,-1.52 7.72,-6.59 v -0.34 a 44.75,44.75 0 0 1 -7.43,0.45 c -10.65,0 -12.9,-3.21 -12.9,-15.37 V 235.6 a 0.75,0.75 0 0 1 0.84,-0.85 h 3.66 a 0.75,0.75 0 0 1 0.85,0.85 v 14.53 c 0,8.78 0.9,11 7.88,11 a 60.93,60.93 0 0 0 7.1,-0.39 V 235.6 a 0.75,0.75 0 0 1 0.84,-0.85 z"
       id="path82" />
    <path
       class="a"
       d="m 156.63,223 a 0.75,0.75 0 0 1 0.85,0.85 V 264 c 0,0.62 -0.34,0.85 -0.9,0.9 a 63.31,63.31 0 0 1 -11.72,1 c -10.92,0 -13.12,-3.1 -13.12,-15.6 0,-12.5 2.2,-15.77 12.84,-15.77 a 59,59 0 0 1 7.49,0.4 v -11 a 0.75,0.75 0 0 1 0.85,-0.85 z m -11.71,16.2 c -7,0 -7.77,2.14 -7.77,11 0,8.68 0.73,10.93 7.71,10.93 a 63,63 0 0 0 7.21,-0.45 V 239.2 Z"
       id="path84" />
    <path
       class="a"
       d="M 189.69,249.34 V 251 c 0,1.13 -0.28,1.58 -2,1.58 h -17.94 c 0.17,6.87 1.47,8.56 7.49,8.56 h 9.24 a 0.74,0.74 0 0 1 0.84,0.84 v 2.48 a 0.82,0.82 0 0 1 -0.78,0.9 68.84,68.84 0 0 1 -9.41,0.51 c -10.59,0 -12.84,-3.1 -12.84,-15.66 0,-12.56 2.25,-15.71 12.84,-15.71 10.08,-0.03 12.45,2.96 12.56,14.84 z m -20,-1.18 h 14.58 c -0.11,-7.15 -1.29,-9 -7.15,-9 -6.07,0.04 -7.31,1.84 -7.42,9 z"
       id="path86" />
    <path
       class="a"
       d="m 211,235.09 c 0.57,0.17 0.85,0.4 0.85,1 v 2.36 a 0.73,0.73 0 0 1 -0.9,0.79 H 206 c -3.89,0 -4.9,0.62 -4.9,3.16 v 22.35 a 0.75,0.75 0 0 1 -0.85,0.85 h -3.66 a 0.75,0.75 0 0 1 -0.84,-0.85 v -23.69 c 0,-6.36 5.63,-6.59 8.9,-6.59 a 32.59,32.59 0 0 1 6.35,0.62 z"
       id="path88" />
  </g>
</svg>
