<?xml version="1.0" encoding="UTF-8" standalone="no"?>
<svg
   xmlns:dc="http://purl.org/dc/elements/1.1/"
   xmlns:cc="http://creativecommons.org/ns#"
   xmlns:rdf="http://www.w3.org/1999/02/22-rdf-syntax-ns#"
   xmlns:svg="http://www.w3.org/2000/svg"
   xmlns="http://www.w3.org/2000/svg"
   xmlns:sodipodi="http://sodipodi.sourceforge.net/DTD/sodipodi-0.dtd"
   xmlns:inkscape="http://www.inkscape.org/namespaces/inkscape"
   width="150"
   height="150"
   viewBox="0 0 150 150"
   version="1.1"
   id="svg46"
   sodipodi:docname="small.svg"
   inkscape:version="1.0.2 (e86c8708, 2021-01-15)">
  <metadata
     id="metadata50">
    <rdf:RDF>
      <cc:Work
         rdf:about="">
        <dc:format>image/svg+xml</dc:format>
        <dc:type
           rdf:resource="http://purl.org/dc/dcmitype/StillImage" />
        <dc:title></dc:title>
      </cc:Work>
    </rdf:RDF>
  </metadata>
  <sodipodi:namedview
     pagecolor="#ffffff"
     bordercolor="#666666"
     borderopacity="1"
     objecttolerance="10"
     gridtolerance="10"
     guidetolerance="10"
     inkscape:pageopacity="0"
     inkscape:pageshadow="2"
     inkscape:window-width="689"
     inkscape:window-height="480"
     id="namedview48"
     showgrid="false"
     inkscape:zoom="1.8901597"
     inkscape:cx="75"
     inkscape:cy="75"
     inkscape:window-x="30"
     inkscape:window-y="23"
     inkscape:window-maximized="0"
     inkscape:current-layer="svg46" />
  <defs
     id="defs40">
    <style
       id="style38">.a{fill:#303030;}.b{fill:#8c0000;}</style>
  </defs>
  <path
     class="a"
     d="M142.33,66a2.19,2.19,0,0,1,2.07,2.37v6.35A2,2,0,0,1,142.18,77H114.71c-6.8,0-10.78,2.36-10.78,7.68v1.92c0,4.13,1.92,7.68,9.15,10.34l19.65,7.82c13.59,5.17,14.77,12.71,14.77,20.83v1.63c0,16.54-9.9,19.79-29.84,19.79-12.85,0-24.52-1-27-1.33-1.77-.15-2.21-1-2.21-2.22v-6.49a2,2,0,0,1,2.21-2.22H118c11.81,0,15.51-1.33,15.51-7.68v-1.77c0-4.29-1.78-7.09-8.57-9.9l-21-8c-11.38-4.43-14.18-13-14.18-21.12v-3.1c0-16.25,14.18-18.46,30-18.46A187.47,187.47,0,0,1,142.33,66Z"
     id="path42" />
  <path
     class="b"
     d="M135.84,8.53A24.46,24.46,0,0,0,120.4,3H27.05A24.51,24.51,0,0,0,15.61,5.86a24.86,24.86,0,0,0-9.92,9.61c-.45.8-.85,1.61-1.21,2.43-.21.56-.46,1.11-.64,1.66A21.86,21.86,0,0,0,3,23a23.27,23.27,0,0,0-.45,4.59v93.36a24.52,24.52,0,0,0,24.55,24.52H76.87a1.33,1.33,0,0,0,1.33-1.32v-6a1.33,1.33,0,0,0-1.33-1.32H70.41l-19.3-39.1,44-58.35A5,5,0,0,0,96,37.7l40.35,6.17V53a1.33,1.33,0,0,0,1.32,1.32h6A1.32,1.32,0,0,0,144.94,53V27.58A24.42,24.42,0,0,0,135.84,8.53ZM85,11.67,87.11,28.3l-32.61-5L53,11.67Zm-40,0,1.29,10.4L22.48,18.42l15.23-6.75Zm.19,18.27L28.57,52.05,15.4,25.37ZM11.12,34.66,21.78,56.25,11.12,57.57Zm0,30.93,14.37-1.81L40.37,93.91,11.12,97.59Zm50.42,71.27H28.37a17.3,17.3,0,0,1-17.25-17.25v-14l33-4.13ZM47.19,89.8,32.48,60,54.1,31.36s0,0,0-.05l33.33,5.1Zm89.12-54-41-6.28L93,11.67h26a17.29,17.29,0,0,1,17.24,17.24Z"
     id="path44" />
</svg>
