<?xml version="1.0" encoding="UTF-8" standalone="no"?>
<svg
   xmlns:dc="http://purl.org/dc/elements/1.1/"
   xmlns:cc="http://creativecommons.org/ns#"
   xmlns:rdf="http://www.w3.org/1999/02/22-rdf-syntax-ns#"
   xmlns:svg="http://www.w3.org/2000/svg"
   xmlns="http://www.w3.org/2000/svg"
   xmlns:sodipodi="http://sodipodi.sourceforge.net/DTD/sodipodi-0.dtd"
   xmlns:inkscape="http://www.inkscape.org/namespaces/inkscape"
   width="125"
   height="125"
   viewBox="0 0 125 125"
   version="1.1"
   id="svg32"
   sodipodi:docname="original.svg"
   inkscape:version="1.0.2 (e86c8708, 2021-01-15)">
  <metadata
     id="metadata36">
    <rdf:RDF>
      <cc:Work
         rdf:about="">
        <dc:format>image/svg+xml</dc:format>
        <dc:type
           rdf:resource="http://purl.org/dc/dcmitype/StillImage" />
        <dc:title></dc:title>
      </cc:Work>
    </rdf:RDF>
  </metadata>
  <sodipodi:namedview
     pagecolor="#ffffff"
     bordercolor="#666666"
     borderopacity="1"
     objecttolerance="10"
     gridtolerance="10"
     guidetolerance="10"
     inkscape:pageopacity="0"
     inkscape:pageshadow="2"
     inkscape:window-width="728"
     inkscape:window-height="480"
     id="namedview34"
     showgrid="false"
     inkscape:zoom="2.2681916"
     inkscape:cx="62.5"
     inkscape:cy="62.5"
     inkscape:window-x="30"
     inkscape:window-y="23"
     inkscape:window-maximized="0"
     inkscape:current-layer="svg32" />
  <defs
     id="defs26">
    <style
       id="style24">.a{fill:#303030;}.b{fill:#8c0000;}</style>
  </defs>
  <path
     class="a"
     d="M118.22,55.06a1.81,1.81,0,0,1,1.71,2v5.26a1.62,1.62,0,0,1-1.83,1.83H95.36c-5.62,0-8.92,2-8.92,6.36v1.59c0,3.42,1.59,6.35,7.58,8.55l16.26,6.48c11.24,4.28,12.22,10.51,12.22,17.24v1.34c0,13.69-8.19,16.38-24.69,16.38-10.64,0-20.3-.85-22.37-1.1-1.47-.12-1.84-.85-1.84-1.83v-5.38a1.62,1.62,0,0,1,1.84-1.83H98.05c9.78,0,12.84-1.1,12.84-6.36v-1.47c0-3.54-1.47-5.86-7.09-8.19l-17.36-6.6C77,85.62,74.7,78.53,74.7,71.81V69.24C74.7,55.8,86.44,54,99.52,54A155.72,155.72,0,0,1,118.22,55.06Z"
     id="path28" />
  <path
     class="b"
     d="M112.85,7.49A20.22,20.22,0,0,0,100.07,3H22.81a20.28,20.28,0,0,0-9.46,2.33,20.65,20.65,0,0,0-8.21,8c-.37.66-.7,1.33-1,2-.18.47-.38.92-.53,1.38a17.94,17.94,0,0,0-.74,2.84,19.82,19.82,0,0,0-.37,3.8v77.26a20.06,20.06,0,0,0,2,8.8,20.29,20.29,0,0,0,18.3,11.49H64.05a1.09,1.09,0,0,0,1.1-1.09v-4.93a1.1,1.1,0,0,0-1.1-1.1H58.7l-16-32.35L79.17,33a4.09,4.09,0,0,0,.68-1.41l33.39,5.11v7.51a1.1,1.1,0,0,0,1.09,1.1h5a1.1,1.1,0,0,0,1.09-1.1v-21A20.22,20.22,0,0,0,112.85,7.49Zm-42,2.6,1.72,13.76-27-4.13-1.22-9.63Zm-33.11,0,1.06,8.6L19,15.68l12.61-5.59Zm.15,15.12L24.07,43.51,13.18,21.43ZM9.64,29.12,18.46,47,9.64,48.07Zm0,25.59,11.88-1.5L33.84,78.15l-24.2,3Zm41.72,59H23.91A14.3,14.3,0,0,1,9.64,99.42V87.83L36.9,84.4ZM39.48,74.75,27.31,50.09,45.2,26.38s0,0,0,0l27.59,4.22Zm73.76-44.67-34-5.2L77.42,10.09H99a14.31,14.31,0,0,1,14.26,14.27Z"
     id="path30" />
</svg>
