<svg xmlns="http://www.w3.org/2000/svg" width="250" height="314" viewBox="0 0 250 314"><defs><style type="text/css">.a{fill:#fff;}</style></defs><path class="a" d="M58.77,235a.83.83,0,0,1,.78.9v2.42a.75.75,0,0,1-.84.85H48.23c-2.59,0-4.11.9-4.11,2.93v.73c0,1.57.74,2.93,3.5,3.94l7.49,3c5.18,2,5.63,4.85,5.63,7.94v.62c0,6.31-3.78,7.55-11.38,7.55-4.9,0-9.35-.39-10.3-.51-.68-.05-.85-.39-.85-.84V262a.75.75,0,0,1,.85-.84H49.47c4.51,0,5.92-.51,5.92-2.93v-.68c0-1.63-.68-2.7-3.27-3.77l-8-3c-4.33-1.69-5.4-5-5.4-8.06v-1.18c0-6.19,5.4-7,11.43-7A72.24,72.24,0,0,1,58.77,235Z"/><path class="a" d="M92.61,250.13c0,12.56-2.25,15.71-12.9,15.71a61.94,61.94,0,0,1-7.43-.34v10.36a.75.75,0,0,1-.85.85H67.72a.75.75,0,0,1-.85-.85V236.39c0-.62.34-.85.9-1a62.76,62.76,0,0,1,11.66-1C90.36,234.47,92.61,237.68,92.61,250.13ZM72.28,239.2v21.46a61.08,61.08,0,0,0,7.09.45c7,0,7.83-2.14,7.83-10.93s-.79-11-7.71-11Z"/><path class="a" d="M124,234.75a.76.76,0,0,1,.85.85v27.14c-.06,11-2.2,14.25-13,14.25a55.85,55.85,0,0,1-8.51-.51.83.83,0,0,1-.79-.9v-2.42a.75.75,0,0,1,.85-.84h8.33c6.31,0,7.72-1.52,7.72-6.59v-.34a44.75,44.75,0,0,1-7.43.45c-10.65,0-12.9-3.21-12.9-15.37V235.6a.75.75,0,0,1,.84-.85h3.66a.75.75,0,0,1,.85.85v14.53c0,8.78.9,11,7.88,11a60.93,60.93,0,0,0,7.1-.39V235.6a.75.75,0,0,1,.84-.85Z"/><path class="a" d="M156.63,223a.75.75,0,0,1,.85.85V264c0,.62-.34.85-.9.9a63.31,63.31,0,0,1-11.72,1c-10.92,0-13.12-3.1-13.12-15.6s2.2-15.77,12.84-15.77a59,59,0,0,1,7.49.4v-11a.75.75,0,0,1,.85-.85ZM144.92,239.2c-7,0-7.77,2.14-7.77,11,0,8.68.73,10.93,7.71,10.93a63,63,0,0,0,7.21-.45V239.2Z"/><path class="a" d="M189.69,249.34V251c0,1.13-.28,1.58-2,1.58H169.75c.17,6.87,1.47,8.56,7.49,8.56h9.24a.74.74,0,0,1,.84.84v2.48a.82.82,0,0,1-.78.9,68.84,68.84,0,0,1-9.41.51c-10.59,0-12.84-3.1-12.84-15.66s2.25-15.71,12.84-15.71C187.21,234.47,189.58,237.46,189.69,249.34Zm-20-1.18h14.58c-.11-7.15-1.29-9-7.15-9C171.05,239.2,169.81,241,169.7,248.16Z"/><path class="a" d="M211,235.09c.57.17.85.4.85,1v2.36a.73.73,0,0,1-.9.79H206c-3.89,0-4.9.62-4.9,3.16v22.35a.75.75,0,0,1-.85.85h-3.66a.75.75,0,0,1-.84-.85V241.06c0-6.36,5.63-6.59,8.9-6.59A32.59,32.59,0,0,1,211,235.09Z"/><path class="a" d="M206.45,111.84a2.65,2.65,0,0,1,2.51,2.87v7.71a2.38,2.38,0,0,1-2.69,2.69H172.92c-8.25,0-13.09,2.86-13.09,9.32v2.33c0,5,2.33,9.32,11.11,12.55l23.85,9.51c16.5,6.27,17.93,15.42,17.93,25.28v2c0,20.08-12,24-36.22,24-15.6,0-29.76-1.26-32.81-1.62-2.15-.17-2.69-1.25-2.69-2.68v-7.89a2.37,2.37,0,0,1,2.69-2.69h33.17c14.34,0,18.83-1.62,18.83-9.33v-2.15c0-5.2-2.15-8.61-10.4-12L159.83,162c-13.81-5.38-17.22-15.78-17.22-25.64v-3.76c0-19.73,17.22-22.42,36.4-22.42A226,226,0,0,1,206.45,111.84Z"/><path class="a" d="M198.33,45a29.49,29.49,0,0,0-18.65-6.64H66.94a29.62,29.62,0,0,0-13.81,3.41,30,30,0,0,0-12,11.6c-.54,1-1,1.94-1.46,2.93-.26.68-.55,1.35-.78,2a26,26,0,0,0-1.07,4.15A28.13,28.13,0,0,0,37.3,68V180.7a29.2,29.2,0,0,0,2.93,12.84,29.63,29.63,0,0,0,26.71,16.77h60.18a1.6,1.6,0,0,0,1.6-1.6v-7.19a1.6,1.6,0,0,0-1.6-1.6h-7.81L96,152.71l53.18-70.48a6,6,0,0,0,1-2.07l48.73,7.46v11a1.6,1.6,0,0,0,1.6,1.59h7.23a1.61,1.61,0,0,0,1.6-1.59V68A29.49,29.49,0,0,0,198.33,45ZM137,48.74l2.52,20.08-39.4-6-1.78-14Zm-70,0H88.65L90.2,61.29l-28.78-4.4-9.08-1.4A19.11,19.11,0,0,1,66.94,48.74ZM88.87,70.8,68.78,97.5,52.88,65.28ZM47.71,76.5l12.88,26.08-12.88,1.58Zm0,37.35,17.35-2.19,18,36.39L47.71,152.5Zm60.89,86.07H68.54A20.88,20.88,0,0,1,47.71,179.1V162.17l39.79-5ZM91.26,143.09l-17.75-36,26.1-34.59s0,0,0-.06l40.26,6.16ZM198.9,77.9l-49.57-7.58-2.7-21.58h31.45A20.87,20.87,0,0,1,198.9,69.55Z"/></svg>