<svg xmlns="http://www.w3.org/2000/svg" width="500" height="250" viewBox="0 0 500 250"><defs><style type="text/css">.a{fill:#fff;}</style></defs><path class="a" d="M156.55,70.8a16.54,16.54,0,0,0-10.46-3.72H82.85A16.48,16.48,0,0,0,75.11,69a16.77,16.77,0,0,0-6.72,6.51,14.75,14.75,0,0,0-.82,1.64c-.14.38-.31.75-.44,1.12a15.32,15.32,0,0,0-.6,2.33,16,16,0,0,0-.3,3.11v63.24a16.37,16.37,0,0,0,1.64,7.2,16.62,16.62,0,0,0,15,9.4H116.6a.89.89,0,0,0,.9-.89v-4a.9.9,0,0,0-.9-.9h-4.38L99.15,131.24,129,91.71a3.34,3.34,0,0,0,.55-1.16l27.33,4.18v6.15a.91.91,0,0,0,.9.9h4.06a.9.9,0,0,0,.89-.9V83.7A16.53,16.53,0,0,0,156.55,70.8Zm-34.42,2.12,1.41,11.26L101.45,80.8l-1-7.88Zm-39.28,0H95l.87,7L79.76,77.5l-5.1-.79A10.72,10.72,0,0,1,82.85,72.92ZM95.15,85.3l-11.27,15L75,82.2ZM72.07,88.49l7.22,14.63-7.22.89Zm0,21,9.73-1.23,10.08,20.41-19.81,2.49Zm34.15,48.27H83.75A11.71,11.71,0,0,1,72.07,146v-9.49l22.31-2.8Zm-9.73-31.88-10-20.18,14.65-19.4s0,0,0,0l22.58,3.46Zm60.37-36.56L129.06,85l-1.51-12.11h17.64A11.71,11.71,0,0,1,156.86,84.6Z"/><path class="a" d="M161.4,109.51a1.48,1.48,0,0,1,1.4,1.6v4.3a1.33,1.33,0,0,1-1.5,1.5H142.69c-4.61,0-7.31,1.6-7.31,5.2v1.31c0,2.8,1.3,5.2,6.21,7l13.3,5.3c9.21,3.5,10,8.61,10,14.11v1.1c0,11.21-6.71,13.41-20.21,13.41-8.71,0-16.61-.7-18.31-.9-1.2-.1-1.5-.7-1.5-1.5v-4.41a1.33,1.33,0,0,1,1.5-1.5h18.51c8,0,10.5-.9,10.5-5.2v-1.2c0-2.9-1.2-4.8-5.8-6.7l-14.21-5.41c-7.7-3-9.6-8.8-9.6-14.3v-2.11c0-11,9.6-12.5,20.31-12.5A126.74,126.74,0,0,1,161.4,109.51Z"/><path class="a" d="M221.52,136.42c0,22.31-4,27.92-22.91,27.92a109.76,109.76,0,0,1-13.21-.6v18.41a1.33,1.33,0,0,1-1.5,1.5h-6.6a1.33,1.33,0,0,1-1.5-1.5V112c0-1.1.6-1.5,1.6-1.7a111.62,111.62,0,0,1,20.71-1.7C217.52,108.61,221.52,114.31,221.52,136.42ZM185.4,117v38.12a108.24,108.24,0,0,0,12.61.8c12.41,0,13.91-3.8,13.91-19.41S210.52,117,198.21,117Z"/><path class="a" d="M277.35,109.11a1.33,1.33,0,0,1,1.5,1.5v48.22c-.1,19.62-3.9,25.32-23.11,25.32a100.56,100.56,0,0,1-15.11-.9,1.48,1.48,0,0,1-1.4-1.6v-4.31a1.33,1.33,0,0,1,1.5-1.5h14.81c11.2,0,13.71-2.7,13.71-11.7v-.6a78.88,78.88,0,0,1-13.21.8c-18.91,0-22.91-5.71-22.91-27.32V110.61a1.33,1.33,0,0,1,1.5-1.5h6.5a1.33,1.33,0,0,1,1.5,1.5v25.81c0,15.61,1.6,19.51,14,19.51a107.9,107.9,0,0,0,12.61-.7V110.61a1.33,1.33,0,0,1,1.5-1.5Z"/><path class="a" d="M335.28,88.2a1.33,1.33,0,0,1,1.5,1.5V161c0,1.1-.6,1.5-1.6,1.6a112.71,112.71,0,0,1-20.81,1.7c-19.42,0-23.32-5.51-23.32-27.72s3.9-28,22.81-28a106.91,106.91,0,0,1,13.31.7V89.7a1.33,1.33,0,0,1,1.5-1.5ZM314.46,117c-12.4,0-13.8,3.8-13.8,19.51,0,15.41,1.3,19.41,13.71,19.41a111.34,111.34,0,0,0,12.8-.8V117Z"/><path class="a" d="M394,135v2.9c0,2-.5,2.81-3.6,2.81H358.58c.3,12.2,2.61,15.2,13.31,15.2H388.3a1.33,1.33,0,0,1,1.5,1.5v4.41a1.48,1.48,0,0,1-1.4,1.6,123.82,123.82,0,0,1-16.71.9c-18.81,0-22.81-5.51-22.81-27.82s4-27.91,22.81-27.91C389.6,108.61,393.8,113.91,394,135Zm-35.52-2.1H384.4c-.2-12.71-2.3-15.91-12.71-15.91C360.89,117,358.68,120.21,358.48,132.92Z"/><path class="a" d="M431.82,109.71c1,.3,1.5.7,1.5,1.7v4.2a1.29,1.29,0,0,1-1.6,1.4H423c-6.9,0-8.7,1.1-8.7,5.61v39.72a1.33,1.33,0,0,1-1.5,1.5h-6.5a1.33,1.33,0,0,1-1.51-1.5v-42c0-11.3,10-11.7,15.81-11.7C423,108.61,429.82,109,431.82,109.71Z"/></svg>