<?xml version="1.0" encoding="UTF-8" standalone="no"?>
<svg
   xmlns:dc="http://purl.org/dc/elements/1.1/"
   xmlns:cc="http://creativecommons.org/ns#"
   xmlns:rdf="http://www.w3.org/1999/02/22-rdf-syntax-ns#"
   xmlns:svg="http://www.w3.org/2000/svg"
   xmlns="http://www.w3.org/2000/svg"
   xmlns:sodipodi="http://sodipodi.sourceforge.net/DTD/sodipodi-0.dtd"
   xmlns:inkscape="http://www.inkscape.org/namespaces/inkscape"
   width="175"
   height="175"
   viewBox="0 0 175 175"
   version="1.1"
   id="svg18"
   sodipodi:docname="big.svg"
   inkscape:version="1.0.2 (e86c8708, 2021-01-15)">
  <metadata
     id="metadata22">
    <rdf:RDF>
      <cc:Work
         rdf:about="">
        <dc:format>image/svg+xml</dc:format>
        <dc:type
           rdf:resource="http://purl.org/dc/dcmitype/StillImage" />
        <dc:title></dc:title>
      </cc:Work>
    </rdf:RDF>
  </metadata>
  <sodipodi:namedview
     pagecolor="#ffffff"
     bordercolor="#666666"
     borderopacity="1"
     objecttolerance="10"
     gridtolerance="10"
     guidetolerance="10"
     inkscape:pageopacity="0"
     inkscape:pageshadow="2"
     inkscape:window-width="705"
     inkscape:window-height="480"
     id="namedview20"
     showgrid="false"
     inkscape:zoom="1.6201368"
     inkscape:cx="87.5"
     inkscape:cy="87.5"
     inkscape:window-x="0"
     inkscape:window-y="23"
     inkscape:window-maximized="0"
     inkscape:current-layer="svg18" />
  <defs
     id="defs12">
    <style
       id="style10">.a{fill:#303030;}.b{fill:#8c0000;}</style>
  </defs>
  <path
     class="a"
     d="M166.44,77a2.55,2.55,0,0,1,2.42,2.77v7.44a2.29,2.29,0,0,1-2.59,2.6H134.05c-8,0-12.64,2.77-12.64,9V101c0,4.85,2.25,9,10.74,12.12l23,9.18c15.93,6.06,17.32,14.89,17.32,24.42v1.9c0,19.4-11.6,23.21-35,23.21-15.07,0-28.75-1.22-31.69-1.56-2.08-.18-2.6-1.21-2.6-2.6v-7.62a2.3,2.3,0,0,1,2.6-2.6h32c13.86,0,18.19-1.56,18.19-9v-2.08c0-5-2.08-8.31-10.05-11.6l-24.59-9.35c-13.33-5.2-16.62-15.24-16.62-24.77V97.05c0-19,16.62-21.64,35.15-21.64A217.6,217.6,0,0,1,166.44,77Z"
     id="path14" />
  <path
     class="b"
     d="M158.83,9.57a28.67,28.67,0,0,0-18.1-6.44H31.28A28.71,28.71,0,0,0,17.87,6.44,29.12,29.12,0,0,0,6.24,17.71c-.53.93-1,1.88-1.42,2.84-.25.66-.53,1.31-.75,1.95a25.92,25.92,0,0,0-1.05,4,28,28,0,0,0-.52,5.38V141.36a28.74,28.74,0,0,0,28.78,28.75H89.7a1.55,1.55,0,0,0,1.55-1.55v-7A1.54,1.54,0,0,0,89.7,160H82.11L59.49,114.19l51.62-68.42a5.65,5.65,0,0,0,1-2L159.38,51V61.65a1.56,1.56,0,0,0,1.55,1.55h7a1.56,1.56,0,0,0,1.55-1.55V31.91A28.67,28.67,0,0,0,158.83,9.57ZM99.26,13.26l2.44,19.49L63.46,26.9,61.73,13.26Zm-46.91,0,1.51,12.18L25.92,21.17l17.86-7.91Zm.22,21.41L33.06,60.59,17.62,29.31Zm-40,5.54,12.5,25.31-12.5,1.54Zm0,36.26,16.84-2.13,17.44,35.33L12.61,114ZM71.72,160H32.83a20.27,20.27,0,0,1-20.22-20.22V123.38l38.63-4.85ZM54.89,104.85,37.65,69.92,63,36.33s0,0,0,0l39.08,6ZM159.38,41.57,111.26,34.2l-2.62-20.94h30.53a20.26,20.26,0,0,1,20.21,20.2Z"
     id="path16" />
</svg>
